<svg width="1360" height="692" viewBox="0 0 1360 692" fill="none" xmlns="http://www.w3.org/2000/svg">
<path opacity="0.3" fill-rule="evenodd" clip-rule="evenodd" d="M636.086 294.435L602.41 201.908C602.045 200.869 601.392 199.095 600.451 196.589L601.332 196.233L603.286 201.591C611.853 225.428 617.277 240.479 619.557 246.743C621.134 251.078 628.862 272.292 636.88 294.145L636.086 294.435ZM652.976 289.898L651.191 277.19L652.007 277.075C652.593 281.207 653.2 285.471 653.808 289.756L652.976 289.898ZM676.099 288.508L676.592 281.464L677.424 281.508C677.265 283.84 677.101 286.198 676.942 288.557L676.099 288.508ZM744.195 320.383L749.301 316.005L750.078 316.902L745.01 321.281C744.742 320.969 744.468 320.673 744.195 320.383ZM764.226 352.127L769.086 350.37L807.818 336.337L808.311 337.497C790.912 343.791 775.073 349.538 764.691 353.254C764.527 352.871 764.379 352.482 764.226 352.099V352.127ZM768.725 411.235L802.334 419.062L887.407 438.885L886.958 440.051C837.564 428.557 784.312 416.15 780.897 415.274C779.299 414.864 774.641 413.753 768.473 412.302C768.56 411.93 768.643 411.575 768.725 411.219V411.235ZM762.551 429.844L764.921 430.938L764.527 431.973L762.102 430.829C762.25 430.473 762.392 430.15 762.551 429.811V429.844ZM750.636 449.94L755.283 453.454L754.577 454.324C753.236 453.301 751.682 452.135 749.963 450.811C750.193 450.497 750.417 450.196 750.636 449.908V449.94ZM722.762 475.029L732.22 490.129L731.475 490.578C728.646 486.046 725.165 480.496 722.012 475.478L722.762 475.029ZM705.861 483.238C712.976 502.772 720.376 522.983 720.376 522.983L741.113 579.772L740.194 580.122C728.618 548.471 715.499 512.552 714.75 510.302C713.94 507.878 709.063 494.524 705.041 483.539L705.861 483.238ZM681.939 488.925L682.563 493.342L681.704 493.446C681.49 491.951 681.277 490.468 681.074 489.018L681.939 488.925ZM645.166 486.325C643.622 492.931 642.166 499.187 640.875 504.725L639.747 504.49C640.552 501.206 642.188 494.261 644.126 486.041L645.166 486.325ZM607.019 466.945C592.789 485.756 581.049 501.277 581.049 501.277C581.049 501.277 537.314 559.062 507.749 598.15L506.802 597.4C540.921 552.275 590.539 486.632 593.276 483.222C594.726 481.388 599.942 474.536 606.225 466.256L607.019 466.945ZM592.827 452.803C575.697 467.624 561.839 479.621 561.839 479.621L516.177 519.152L515.373 518.2C546.783 490.999 575.264 466.354 577.503 464.504C579.183 463.114 584.973 458.134 592.138 451.916C592.378 452.239 592.608 452.524 592.844 452.803H592.827ZM575.368 421.541C547.209 431.672 500.388 448.638 500.388 448.638L406.044 482.653L405.721 481.722L406.268 481.52C418.615 477.065 535.289 434.791 538.568 433.609L574.99 420.397C575.127 420.78 575.253 421.169 575.385 421.541H575.368ZM570.661 400.782C550.482 403.518 518.52 407.962 500.869 410.409L500.733 409.314L528.596 405.445L570.53 399.594C570.585 399.977 570.634 400.371 570.678 400.782H570.661ZM572.473 366.581C553.022 362.005 520.238 354.36 497.224 348.996L497.454 347.901L518.799 352.871L572.752 365.399C572.67 365.793 572.582 366.187 572.478 366.581H572.473ZM579.889 345.356C549.24 330.924 487.192 301.851 487.192 301.851L374.448 248.878L374.815 247.964L380.446 250.618C394.605 257.252 528.081 319.765 531.825 321.527C533.237 322.189 554.412 332.09 580.436 344.273L579.889 345.356ZM589.538 329.337L579.347 321.598L580.026 320.624L590.266 328.363L589.538 329.337ZM417.313 604.274L417.548 604.553C389.411 628.914 339.776 671.872 330.461 679.933C317.611 691.038 206.147 787.369 197.571 794.774L128.742 854.26L128.195 853.39C128.195 853.39 187.468 802.376 194.478 796.317C199.152 792.278 209.418 783.372 225.275 769.598C281.542 720.644 312.079 694.088 316.888 689.933C321.398 686.03 335.277 674.094 345.731 665.063L345.589 664.904L416.738 603.059L417.581 604.033L417.313 604.274ZM528.289 223.385L528.026 223.084L529.001 222.241L561.204 259.282L560.23 260.13L559.568 259.37L559.453 259.474L537.145 233.707L528.251 223.417L528.289 223.385ZM839.54 239.311L827.111 250.082L786.227 285.618L785.379 284.644L839.015 238.036L839.863 239.01L839.54 239.311ZM422.299 368.256L422.37 367.238L506.687 373.258L506.611 374.352L489.475 373.127L422.299 368.256ZM292.172 358.951L291.548 358.913C231.629 354.808 198.804 352.517 193.072 352.039C184.468 351.311 119.252 346.654 113.647 346.249C109.907 345.975 99.8006 345.194 83.3268 343.906L83.5786 342.554C135.952 346.25 166.71 348.44 175.854 349.122L292.26 357.589L292.172 358.951ZM916.803 404.044C901.878 402.949 851.871 399.413 811.622 396.524L811.797 395.276L913.683 402.604L916.967 402.84L916.803 404.044ZM964.571 407.563L964.752 406.277C993.212 408.324 1024.41 410.562 1031.9 411.109L1179.36 421.869L1255.74 427.441C1255.62 428.125 1255.55 428.464 1255.55 428.464C1255.55 428.464 1189.87 423.539 1182.12 422.948L1147.88 420.534C1085.25 416.214 1051.25 413.871 1045.9 413.507C1037.89 412.926 1003.4 410.305 1000.18 410.173C998.646 410.086 982.189 408.887 964.571 407.59V407.563ZM658.476 541.46C659.428 527.69 660.118 517.795 660.238 516.629C660.435 514.599 661.098 505.196 661.754 495.558H662.625C661.366 513.75 660.222 530.481 660.222 530.481C660.222 530.481 659.932 534.707 659.467 541.46H658.476ZM654.574 598.522V599.551H655.504C654.174 618.844 653.063 634.983 652.97 636.286C652.735 639.652 647.497 715.53 646.758 726.399C646.019 737.269 639.408 831.574 638.899 838.826C638.56 843.664 637.202 863.075 634.827 897.059L634.017 896.999C634.017 896.999 637.64 846.937 638.056 841.01C638.33 837.051 638.917 828.351 639.819 814.909C642.967 767.173 644.682 741.268 644.963 737.192C645.39 731.084 647.311 704.786 647.399 702.334C647.486 699.883 651.164 648.474 651.635 641.808C651.783 639.263 653.047 620.65 654.574 598.522ZM679.202 244.095L681.84 206.331L682.705 206.374C681.559 221.9 680.813 232.165 680.467 237.171C680.379 238.37 680.215 240.783 679.985 244.111L679.202 244.095ZM684.336 168.972C684.467 166.848 684.608 164.568 684.758 162.13C687.749 116.475 689.424 91.4573 689.782 87.0789C690.329 80.5113 693.717 30.7998 694.018 26.5254C694.215 23.6794 694.786 15.9715 695.731 3.40182L696.826 3.47296C694.133 43.3896 692.544 66.836 692.059 73.8123L685.398 169.043L684.336 168.972ZM971.314 123.984L972.102 124.892L965.08 130.962C935.161 156.659 916.263 172.907 908.385 179.704C904.784 182.813 891.917 193.934 875.678 208.022L875.011 207.25L964.44 130.004C965.768 128.844 968.06 126.837 971.314 123.984ZM1007.32 92.5574C1054.2 51.7724 1080.06 29.3239 1084.92 25.2119C1092.74 18.584 1151.44 -32.2549 1156.49 -36.6333C1159.86 -39.5523 1169 -47.397 1183.9 -60.1674L1184.65 -59.0235C1137.54 -18.1582 1109.87 5.8428 1101.63 12.9796L1008.26 93.6629L1007.32 92.5574ZM810.779 548.214L868.536 614.93C871.973 618.909 949.57 708.519 960.68 721.381L1075.52 854.277L1135 923.105L1134.13 923.653C1134.13 923.653 1083.11 864.418 1077.09 857.407C1073.05 852.733 1064.15 842.466 1050.37 826.605C1001.41 770.328 974.848 739.785 970.674 734.976C964.44 727.757 937.655 696.61 935.099 693.775C932.543 690.94 880.079 630.107 873.254 622.231C869.91 618.356 839.945 583.789 809.838 549.035L810.779 548.214ZM461.102 145.717L410.751 87.4292C407.624 83.817 398.319 73.1719 382.838 55.4941C336.004 1.67599 310.372 -27.8382 305.942 -33.0485C299.331 -40.8695 248.475 -99.5731 244.097 -104.625C241.178 -107.992 233.333 -117.129 220.563 -132.034L221.712 -132.778C262.596 -85.6589 286.6 -57.9854 293.726 -49.7577L411.725 86.7669C437.426 116.686 453.674 135.585 460.467 143.462L461.852 145.066L461.102 145.717ZM283.415 527.242C246.177 540.833 225.379 548.387 221.023 549.905C212.868 552.74 151.395 575.01 146.108 576.915C142.583 578.184 133.035 581.583 117.462 587.111L117.139 585.775C166.484 567.846 195.471 557.325 204.1 554.213L282.912 525.791L283.415 527.242ZM904.981 302.475L904.505 301.381C924.252 294.266 999.429 267.037 1011.36 262.736L1150.43 212.559L1222.47 186.584L1222.72 187.596C1222.72 187.596 1160.73 209.779 1153.4 212.422C1148.5 214.184 1137.75 218.09 1121.15 224.14C1062.16 245.667 1030.14 257.343 1025.1 259.167C1017.54 261.904 984.975 273.518 981.976 274.711C978.976 275.904 915.341 298.737 907.094 301.715L904.981 302.475ZM761.041 634.343C768.883 655.819 784.859 699.554 787.711 707.397C791.438 717.637 823.772 806.459 826.257 813.3L846.223 868.151L845.456 868.43C845.456 868.43 828.408 821.219 826.372 815.637C825.022 811.912 822.021 803.724 817.369 791.074C800.822 746.195 791.854 721.835 790.464 717.993C788.367 712.241 779.43 687.437 778.51 685.155C777.755 683.272 765.594 649.739 760.137 634.682L761.041 634.343ZM573.141 122.643C569.7 113.258 567.657 107.65 567.011 105.819C564.822 99.6012 547.718 52.8014 546.252 48.7787C545.277 46.0969 542.665 38.8214 538.414 26.9523L539.427 26.5855C553.204 64.1524 561.288 86.2196 563.678 92.7873L574.367 122.161L573.141 122.643ZM581.679 573.543L582.806 574.091L539.64 666.092C537.407 670.848 487.099 778.196 479.869 793.57C472.639 808.944 409.995 942.277 405.179 952.534L366.49 1034.87L365.625 1034.32C365.625 1034.32 399.011 963.611 402.962 955.227C405.589 949.637 411.347 937.324 420.235 918.289C451.749 850.675 468.858 813.986 471.561 808.221C475.617 799.59 493.18 762.45 494.718 758.964C496.256 755.478 530.5 682.779 534.933 673.355C537.32 668.27 560.438 618.893 581.679 573.543ZM753.236 208.131L754.216 208.679L733.489 252.928C733.112 253.727 729.817 260.776 724.831 271.432L723.813 270.885C737.764 241.155 753.159 208.268 753.159 208.268L753.236 208.131ZM773.579 164.823L835.375 33.3064C837.407 28.9828 843.351 16.1613 853.206 -5.15799C883.319 -69.8382 899.857 -105.256 902.819 -111.411C907.269 -120.65 940.211 -190.989 943.051 -197.031C944.945 -201.045 950.103 -211.925 958.524 -229.672L959.673 -228.923C933.267 -172.437 917.746 -139.258 913.109 -129.385C908.471 -119.511 882.89 -65.0657 836.366 33.9522C819.469 69.6035 808.813 92.1342 804.398 101.544C801.568 107.564 788.603 135.231 774.51 165.316L773.579 164.823ZM281.313 205.296L273.761 201.804C209.081 171.696 173.663 155.158 167.507 152.191C158.269 147.742 87.9296 114.8 81.8874 111.965C77.8738 110.071 66.9935 104.912 49.2463 96.487L49.9906 95.3432C106.498 121.734 139.681 137.254 149.539 141.902L281.822 204.059L281.313 205.296ZM968.266 527.614L952.306 520.083C947.419 517.784 901.56 496.324 857.722 475.784L858.165 474.618L945.044 515.349L968.742 526.464L968.266 527.614ZM1061.47 571.349L1061.93 570.166C1066.77 572.438 1070.44 574.156 1072.48 575.092L1231.45 649.782L1313.79 688.471C1313.41 689.051 1313.24 689.336 1313.24 689.336C1313.24 689.336 1242.53 655.951 1234.15 651.999C1228.56 649.372 1216.24 643.616 1197.21 634.732C1129.59 603.229 1092.91 586.126 1087.16 583.422C1082.95 581.479 1072.01 576.313 1061.48 571.349H1061.47ZM371.618 428.191L326.876 434.342C322.892 434.89 311.116 436.583 291.548 439.421C232.075 447.857 199.488 452.433 193.789 453.148C185.224 454.242 120.45 463.229 114.901 463.995C111.19 464.502 101.142 465.841 84.7553 468.012L84.7224 466.633C136.709 459.361 167.248 455.098 176.341 453.843L326.849 433.155C345.709 430.637 360.59 428.645 371.493 427.178L371.618 428.191ZM965.934 346.27C945.64 349.051 921.499 352.335 916.518 353.019C913.234 353.473 889.443 356.784 861.027 360.73L860.879 359.499L909.19 352.811L965.775 344.968L965.934 346.27ZM1061.9 332.971L1061.75 331.718L1173.07 316.393L1248.94 305.994C1248.94 306.684 1248.97 307.034 1248.97 307.034C1248.97 307.034 1183.72 315.84 1176 316.886C1170.85 317.597 1159.52 319.183 1142.01 321.642L1061.9 332.971ZM640.224 199.166L639.227 192.052C638.8 189.016 637.482 180.049 635.27 165.152C628.703 119.871 625.138 95.0604 624.576 90.7184C623.739 84.1837 616.728 34.8498 616.131 30.6082C615.73 27.7841 614.686 20.1219 613.001 7.62155L614.095 7.47375C619.758 47.0693 623.078 70.3315 624.056 77.2603C625.034 84.1891 630.405 122.413 640.169 191.931C640.508 194.394 640.833 196.766 641.143 199.046L640.224 199.166ZM689.749 551.016L690.734 550.896C694.959 580.735 702.392 633.199 702.725 635.585C703.196 638.924 713.874 714.227 715.39 725.026C716.906 735.824 730.063 829.429 731.076 836.626C731.751 841.424 734.458 860.693 739.198 894.432L738.393 894.542C738.393 894.542 731.53 844.819 730.704 838.936C730.153 835.013 728.917 826.382 726.998 813.043C720.153 765.694 716.446 740 715.877 735.961C715.023 729.902 711.438 703.774 711.012 701.36C710.585 698.947 703.497 647.894 702.572 641.277C701.959 636.921 694.746 586.312 689.749 551.016ZM429.025 702.176C413.919 722.136 400.406 739.989 396.373 745.309L290.262 885.281L235.302 957.766L234.568 957.033C234.568 957.033 281.943 894.81 287.536 887.427C291.269 882.505 299.46 871.659 312.11 854.89C356.989 795.299 381.344 762.972 385.175 757.908C390.938 750.311 415.824 717.637 418.073 714.517C418.84 713.423 425.052 705.213 433.135 694.574L428.1 701.503L429.025 702.176ZM764.757 256.858L785.379 229.613L828.227 173.098L829.141 173.586L765.676 257.525L764.757 256.858ZM857.448 134.546L902.151 75.5746C905.041 71.7654 913.521 60.4545 927.59 41.6418C970.495 -15.3652 994.029 -46.5724 998.192 -51.9797C1004.46 -60.0907 1051.28 -122.034 1055.34 -127.36C1058.03 -130.906 1065.34 -140.477 1077.27 -156.071L1078.23 -155.102C1040.65 -105.331 1018.57 -76.1012 1012.01 -67.4136L902.983 76.412C879.847 106.725 864.959 126.257 858.318 135.006L857.448 134.546ZM961.025 609.118L960.209 610.119C941.333 595.797 919.868 579.471 915.292 576.017C912.102 573.598 889.098 556.21 861.684 535.478L862.461 534.521L909.173 569.876C911.259 571.453 935.455 589.771 961.025 609.118ZM1068.16 690.266L1161.38 760.956L1233.87 815.916L1233.14 816.644C1233.14 816.644 1170.94 769.253 1163.57 763.676C1158.64 759.951 1147.8 751.761 1131.02 739.108L1067.41 691.197L1068.16 690.266ZM524.239 279.844L505.762 265.861L373.474 165.578L374.092 164.692C393.178 179.246 405.816 188.872 412.004 193.568C421.324 200.606 489.836 252.435 524.863 278.93L524.239 279.844ZM291.395 103.761C251.08 73.4073 228.67 56.4883 224.164 53.0038C216.053 46.7318 154.109 -0.0844727 148.784 -4.14548C145.238 -6.8382 135.667 -14.1465 120.073 -26.0704L121.041 -27.0337C170.813 10.5478 200.041 32.6223 208.725 39.1899L292.26 102.529L291.395 103.761ZM344.182 589.738L343.438 588.539L375.696 568.519C403.98 551.115 421.841 540.105 429.277 535.489C435.56 531.587 471.72 509.071 502.615 489.822L503.195 490.753L376.188 569.564C372.77 571.688 362.699 578.026 345.977 588.578L344.16 589.716L344.182 589.738ZM233.468 658.698C216.212 669.42 197.313 681.187 194.61 682.861C191.432 684.835 182.797 690.146 168.706 698.793L168.115 697.551C197.739 679.063 219.235 665.654 232.604 657.324L233.468 658.698ZM952.744 211.36C951.048 212.422 949.86 213.172 949.417 213.473C946.729 215.263 889.213 250.826 881.781 255.451C876.423 258.773 808.924 300.844 769.666 325.249L769.059 324.154L875 258.248L952.131 210.26L952.744 211.36ZM993.409 186.152L992.774 185.002L1101.27 117.684L1166.33 77.2932L1166.78 78.2345C1166.78 78.2345 1110.76 112.819 1104.13 116.929C1099.71 119.669 1090.01 125.726 1075.01 135.099C1031.68 162.224 1004.48 179.241 993.409 186.152ZM790.967 583.882L790.135 584.38C782.117 571.595 771.713 555.001 762.223 539.873L763.071 539.364C772.277 554.043 783.152 571.398 790.967 583.882ZM821.824 633.139C833.449 651.698 846.277 672.184 849.348 677.093L909.069 772.679L940.003 822.177L939.313 822.61C939.313 822.61 912.818 779.98 909.671 774.94C907.57 771.572 902.931 764.189 895.754 752.79C870.238 712.315 856.401 690.35 854.241 686.895C851.001 681.707 837.094 659.3 835.725 657.264C835.058 656.268 828.2 645.295 820.948 633.675L821.824 633.139ZM600.714 281.557L563.607 222.181L564.411 221.715C577.379 242.651 585.601 255.904 589.078 261.471C590.512 263.77 595.246 271.323 601.409 281.174L600.714 281.557ZM521.514 155.519C513.983 143.551 509.604 136.564 508.378 134.557C504.958 128.931 478.485 86.7122 476.213 83.0836C474.703 80.6609 470.635 74.0933 464.009 63.3807L464.923 62.8334C486.213 96.6677 498.713 116.555 502.424 122.495L522.674 154.868L521.514 155.519ZM611.195 626.747C614.883 610.875 618.807 594.023 622.524 578.075L623.744 578.332L612.431 627.004L611.195 626.747ZM600.796 671.395L594.617 700.479L595.23 700.61C587.945 731.861 569.315 811.839 566.146 825.395C562.277 841.935 528.716 985.383 526.138 996.417C524.412 1003.77 517.504 1033.3 505.412 1085L504.449 1084.63C504.449 1084.63 522.417 1008.52 524.524 999.492C525.932 993.476 529.003 980.236 533.735 959.775C550.493 887.089 559.597 847.651 561.045 841.459C563.234 832.155 572.675 792.202 573.447 788.442C574.219 784.682 592.603 706.51 594.989 696.369C595.503 694.234 597.654 684.892 600.812 671.395H600.796ZM708.872 208.465L709.966 208.657C705.396 228.316 702.074 242.589 701.79 243.815C701.565 244.762 699.447 253.902 696.317 267.399L695.178 267.202C700.159 245.928 705.637 222.416 708.888 208.465H708.872ZM728.159 125.959L755.825 7.84045C756.919 3.18835 760.068 -10.5909 765.271 -33.4973C781.274 -103.019 790.086 -141.102 791.706 -147.747C794.141 -157.708 811.737 -233.356 813.259 -239.852C814.269 -244.187 817.051 -255.903 821.605 -275L822.88 -274.507C808.796 -213.75 800.516 -178.067 798.038 -167.461C795.561 -156.854 781.854 -98.2797 756.919 8.26187C747.798 46.646 742.058 70.8988 739.701 81.0203C738.568 85.8694 734.387 103.821 729.198 126.134L728.159 125.959ZM397.227 325.626L282.84 298.863C278.188 297.768 264.409 294.62 241.503 289.417C171.981 273.414 133.898 264.607 127.253 262.998C117.292 260.563 41.6442 242.967 35.1478 241.446C30.8131 240.424 19.0972 237.636 0 233.083L0.492572 231.802C61.2504 245.886 96.9327 254.167 107.539 256.644L283.262 297.758C321.646 306.879 345.899 312.619 356.02 314.976L397.44 324.619L397.227 325.626ZM987.919 463.546L988.368 462.386C1024.63 470.836 1088.42 485.701 1100.39 488.498L1271.41 528.511L1359.99 549.238L1359.62 550.201C1359.62 550.201 1283.51 532.233 1274.49 530.126C1268.47 528.721 1255.23 525.651 1234.77 520.915C1162.08 504.156 1122.65 495.055 1116.45 493.61C1107.15 491.42 1067.2 481.974 1063.44 481.202C1060.56 480.617 1014.12 469.709 987.919 463.557V463.546Z" fill="white"/>
</svg>
