<svg width="24" height="24" viewBox="0 0 24 24" fill="none" xmlns="http://www.w3.org/2000/svg">
<path fill-rule="evenodd" clip-rule="evenodd" d="M13.6522 3.49841L11.426 6.26063L9.27795 8.86043L6.16033 12.7394H10.2451C10.7974 12.7394 11.2451 13.1871 11.2451 13.7394V20.8249L15.7231 15.2101L17.766 12.7138L18.8463 11.3328H14.6522C14.0999 11.3328 13.6522 10.8851 13.6522 10.3328V3.49841ZM14.4747 1.09946C15.1548 1.34122 15.6522 1.99375 15.6522 2.81821V9.33278H19.2643C20.0675 9.33278 20.6026 9.86793 20.8336 10.3947C21.0581 10.9069 21.0837 11.5846 20.7315 12.1584C20.7118 12.1906 20.6902 12.2217 20.6669 12.2514L19.3345 13.9547L19.3208 13.9719L17.2749 16.4719L12.5643 22.3785C12.5198 22.4343 12.4694 22.4851 12.4141 22.5302C11.838 22.9995 11.0838 23.1181 10.439 22.8817C9.76178 22.6334 9.24508 21.9993 9.24508 21.1538V14.7394H5.73547C4.93228 14.7394 4.39715 14.2042 4.16623 13.6775C3.94168 13.1653 3.91604 12.4876 4.26824 11.9138C4.29031 11.8778 4.31464 11.8433 4.34107 11.8104L7.73175 7.59171L9.88024 4.99142L12.5208 1.71503C13.0041 1.04321 13.8097 0.863046 14.4747 1.09946Z" fill="white"/>
</svg>
