<svg width="1366" height="700" viewBox="0 0 1366 700" fill="none" xmlns="http://www.w3.org/2000/svg">
<rect width="1366" height="700" fill="black"/>
<path d="M544.082 282.344V295.664H540.842V285.584H499.154V305.744H529.106V298.616H532.346V316.112H529.106V308.984H499.154V329.144H506.282V332.384H480.002V329.144H487.13V285.584H480.002V282.344H544.082ZM495.914 285.584H490.37V329.144H495.914V285.584Z" fill="white"/>
<path d="M593.25 332.384H548.322V298.616H593.25V332.384ZM590.01 301.856H560.346V329.144H590.01V301.856ZM557.106 301.856H551.562V329.144H557.106V301.856Z" fill="white"/>
<path d="M600.1 298.616H645.892V307.328H642.652V301.856H619.252V329.144H626.38V332.384H600.1V329.144H607.228V301.856H600.1V298.616ZM616.012 329.144V301.856H610.468V329.144H616.012Z" fill="white"/>
<path d="M697.899 348.656H651.963V339.872H655.203V345.416H685.875V332.384H651.963V298.616H697.899V348.656ZM685.875 301.856H655.203V329.144H685.875V301.856ZM694.659 301.856H689.115V345.416H694.659V301.856Z" fill="white"/>
<path d="M706.525 298.616H751.453V317.12H718.549V329.144H748.213V323.6H751.453V332.384H706.525V298.616ZM718.549 301.856V313.88H748.213V301.856H718.549ZM709.765 329.144H715.309V301.856H709.765V329.144Z" fill="white"/>
<path d="M809.759 332.384H797.735V285.584H758.495V295.664H755.255V282.344H809.759V332.384ZM806.447 285.584H800.975V329.144H806.447V285.584Z" fill="white"/>
<path d="M879.006 329.144H886.998V332.384H869.43V329.144H874.974L859.854 308.984H835.95V329.144H843.15V332.384H816.798V329.144H823.926V285.584H816.798V282.344H843.15V285.584H835.95V305.744H859.782L872.31 285.584H866.478V282.344H884.046V285.584H876.198L862.662 307.256L879.006 329.144ZM832.71 329.144V285.584H827.166V329.144H832.71Z" fill="white"/>
<path d="M426.944 379.366V383.436H425.954V380.356H418.518V393.666H420.718V394.656H412.666V393.666H414.844V380.356H407.408V383.436H406.418V379.366H426.944ZM417.528 380.356H415.834V393.666H417.528V380.356ZM446.055 393.666V394.656H440.357V393.666H442.711V385.328H433.647V393.666H435.825V394.656H427.795V393.666H429.973V380.356H427.795V379.366H433.647V384.338H443.701V393.666H446.055ZM432.657 380.356H430.963V393.666H432.657V380.356ZM447.732 384.338H461.46V389.992H451.406V393.666H460.47V391.972H461.46V394.656H447.732V384.338ZM451.406 385.328V389.002H460.47V385.328H451.406ZM448.722 393.666H450.416V385.328H448.722V393.666ZM488.481 379.366V383.436H487.491V380.356H474.753V386.516H483.905V384.338H484.895V389.684H483.905V387.506H474.753V393.666H476.931V394.656H468.901V393.666H471.079V380.356H468.901V379.366H488.481ZM473.763 380.356H472.069V393.666H473.763V380.356ZM495.423 393.666H497.601V394.656H489.571V393.666H491.749V385.328H489.571V384.338H495.423V393.666ZM494.433 385.328H492.739V393.666H494.433V385.328ZM495.577 382.732H491.595V379.366H495.577V382.732ZM494.587 380.356H492.585V381.742H494.587V380.356ZM498.809 384.338H512.801V387H511.811V385.328H504.661V393.666H506.839V394.656H498.809V393.666H500.987V385.328H498.809V384.338ZM503.671 393.666V385.328H501.977V393.666H503.671ZM528.274 384.338V387.022H527.284V385.328H518.22V389.002H528.274V394.656H514.546V391.972H515.536V393.666H524.6V389.992H514.546V384.338H528.274ZM525.59 389.992V393.666H527.284V389.992H525.59ZM517.23 385.328H515.536V389.002H517.23V385.328ZM540.03 393.666V394.656H532.11V385.328H529.932V384.338H532.11V379.366H535.784V384.338H540.03V385.328H535.784V393.666H540.03ZM534.794 380.356H533.1V393.666H534.794V380.356ZM565.99 387C566.576 387.455 566.87 388.056 566.87 388.804V394.656H546.718V393.666H548.896V380.356H546.718V379.366H566.87V385.196C566.87 385.944 566.576 386.545 565.99 387ZM551.58 380.356H549.886V393.666H551.58V380.356ZM565.858 388.804C565.858 388.437 565.733 388.129 565.484 387.88C565.234 387.631 564.934 387.506 564.582 387.506H552.57V393.666H565.858V388.804ZM565.858 380.356H552.57V386.494H564.582C564.934 386.494 565.234 386.369 565.484 386.12C565.733 385.871 565.858 385.563 565.858 385.196V380.356ZM574.915 393.666H577.093V394.656H569.063V393.666H571.241V385.328H569.063V384.338H574.915V393.666ZM573.925 385.328H572.231V393.666H573.925V385.328ZM575.069 382.732H571.087V379.366H575.069V382.732ZM574.079 380.356H572.077V381.742H574.079V380.356ZM587.811 393.666V394.656H579.891V385.328H577.713V384.338H579.891V379.366H583.565V384.338H587.811V385.328H583.565V393.666H587.811ZM582.575 380.356H580.881V393.666H582.575V380.356ZM602.331 391.972H603.321V394.656H589.593V384.338H603.321V387.022H602.331V385.328H593.267V393.666H602.331V391.972ZM592.277 385.328H590.583V393.666H592.277V385.328ZM619.456 394.656H605.728V384.338H619.456V394.656ZM618.466 385.328H609.402V393.666H618.466V385.328ZM608.412 385.328H606.718V393.666H608.412V385.328ZM627.401 393.666H629.579V394.656H621.549V393.666H623.727V385.328H621.549V384.338H627.401V393.666ZM626.411 385.328H624.717V393.666H626.411V385.328ZM627.555 382.732H623.573V379.366H627.555V382.732ZM626.565 380.356H624.563V381.742H626.565V380.356ZM630.788 384.338H646.694V393.666H649.048V394.656H643.35V393.666H645.704V385.328H636.64V393.666H638.818V394.656H630.788V393.666H632.966V385.328H630.788V384.338ZM635.65 393.666V385.328H633.956V393.666H635.65ZM682.022 380.356V393.666H684.2V394.656H655.622V393.666H657.8V380.356H655.622V379.366H663.674V380.356H661.474V393.666H669.416V380.356H667.238V379.366H672.584V380.356H670.406V393.666H678.348V380.356H676.17V379.366H684.2V380.356H682.022ZM660.484 380.356H658.812V393.666H660.484V380.356ZM681.032 380.356H679.338V393.666H681.032V380.356ZM686.23 384.338H699.958V389.992H689.904V393.666H698.968V391.972H699.958V394.656H686.23V384.338ZM689.904 385.328V389.002H698.968V385.328H689.904ZM687.22 393.666H688.914V385.328H687.22V393.666ZM716.53 384.338V394.656H702.494V380.356H700.316V379.366H706.168V384.338H716.53ZM705.178 380.356H703.484V393.666H705.178V380.356ZM715.54 393.666V385.328H706.168V393.666H715.54ZM743.211 383.436V380.356H729.923V393.666H743.211V387.506H734.785V386.516H744.201V394.656H724.049V393.666H726.249V380.356H724.049V379.366H744.201V383.436H743.211ZM728.911 380.356H727.239V393.666H728.911V380.356ZM760.499 393.666H762.677V394.656H746.771V389.002H756.825V385.328H747.761V387.022H746.771V384.338H760.499V393.666ZM756.825 393.666V389.992H747.761V393.666H756.825ZM759.509 385.328H757.815V393.666H759.509V385.328ZM788.837 393.666V394.656H783.139V393.666H785.493V385.328H777.903V393.666H780.257V394.656H774.559V393.666H776.913V385.328H769.499V393.666H771.677V394.656H763.647V393.666H765.825V385.328H763.647V384.338H786.483V393.666H788.837ZM768.509 385.328H766.815V393.666H768.509V385.328ZM790.515 384.338H804.243V389.992H794.189V393.666H803.253V391.972H804.243V394.656H790.515V384.338ZM794.189 385.328V389.002H803.253V385.328H794.189ZM791.505 393.666H793.199V385.328H791.505V393.666ZM830.846 383.436V380.356H817.536V386.516H827.26V384.338H828.272V389.684H827.26V387.506H817.536V393.666H830.846V390.586H831.836V394.656H811.684V393.666H813.862V380.356H811.684V379.366H831.836V383.436H830.846ZM816.546 380.356H814.852V393.666H816.546V380.356ZM833.686 384.338H849.592V393.666H851.946V394.656H846.248V393.666H848.602V385.328H839.538V393.666H841.716V394.656H833.686V393.666H835.864V385.328H833.686V384.338ZM838.548 393.666V385.328H836.854V393.666H838.548ZM867.651 399.628H853.615V396.944H854.605V398.638H863.977V394.656H853.615V384.338H867.651V399.628ZM863.977 385.328H854.605V393.666H863.977V385.328ZM866.661 385.328H864.967V398.638H866.661V385.328ZM875.589 393.666H877.767V394.656H869.737V393.666H871.915V385.328H869.737V384.338H875.589V393.666ZM874.599 385.328H872.905V393.666H874.599V385.328ZM875.743 382.732H871.761V379.366H875.743V382.732ZM874.753 380.356H872.751V381.742H874.753V380.356ZM878.975 384.338H894.881V393.666H897.235V394.656H891.537V393.666H893.891V385.328H884.827V393.666H887.005V394.656H878.975V393.666H881.153V385.328H878.975V384.338ZM883.837 393.666V385.328H882.143V393.666H883.837ZM898.904 384.338H912.632V389.992H902.578V393.666H911.642V391.972H912.632V394.656H898.904V384.338ZM902.578 385.328V389.002H911.642V385.328H902.578ZM899.894 393.666H901.588V385.328H899.894V393.666Z" fill="white"/>
<path d="M476.836 416.656H475.273L473.086 412.656H472.586L472.602 416.656H471.398V407.703H476.039V412.656H474.664L476.836 416.656ZM474.789 411.531V408.812H472.586V411.531H474.789ZM480.164 413.781V415.531H483.867V416.656H478.914V409.609H483.836V413.781H480.164ZM480.164 412.625H482.695V410.765H480.164V412.625ZM491.711 409.609L489.789 416.656H487.555L485.633 409.609H487.227L488.508 415.531H488.961L490.242 409.609H491.711ZM493.461 409.625L494.648 409.609V416.656H493.461V409.625ZM493.461 406.094H494.648V408.172H493.461V406.094ZM501.508 416.656H498.633V410.734H497.195V409.609H498.633V407.531H499.82V409.609H501.508V410.734H499.82V415.531H501.508V416.656ZM507.773 412.5V410.734H504.07V409.609H509.023V416.656H504.102V412.5H507.773ZM507.773 413.64H505.258V415.5H507.773V413.64ZM511.586 406.094H512.773V416.656H511.586V406.094ZM515.32 409.625L516.508 409.609V416.656H515.32V409.625ZM515.32 406.094H516.508V408.172H515.32V406.094ZM520.617 415.531H523.883V416.656H519.055V415.531L522.758 410.781H519.055V409.609H524.008V410.828L520.617 415.531ZM526.57 409.625L527.758 409.609V416.656H526.57V409.625ZM526.57 406.094H527.758V408.172H526.57V406.094ZM535.258 416.656H534.008V410.734H531.492V416.656H530.305V409.609H535.258V416.656ZM541.523 416.656H537.852V409.609H542.773V419.531H537.82V418.422H541.523V416.656ZM541.523 415.5V410.765H539.008V415.5H541.523ZM549.711 415.437H552.227V408.828H549.711V415.437ZM548.523 416.656V407.703H553.477V416.656H548.523ZM560.992 416.656H559.742V410.734H557.227V416.656H556.039V409.609H560.992V416.656ZM566.992 413.453H562.68V412.344H566.992V413.453ZM572.445 408.859H569.914V415.531H573.492V416.656H568.664V407.703H573.617V410.25H572.445V408.859ZM581.133 416.656H579.883V410.734H577.367V416.656H576.18V406.094H577.367V409.609H581.133V416.656ZM587.398 412.5V410.734H583.695V409.609H588.648V416.656H583.727V412.5H587.398ZM587.398 413.64H584.883V415.5H587.398V413.64ZM591.211 409.625L592.398 409.609V416.656H591.211V409.625ZM591.211 406.094H592.398V408.172H591.211V406.094ZM599.898 416.656H598.648V410.734H596.133V416.656H594.945V409.609H599.898V416.656ZM607.883 410.734H610.602V416.656H605.648V407.703H610.602V408.875H606.898V415.531H609.414V411.844H607.883V410.734ZM616.867 412.5V410.734H613.164V409.609H618.117V416.656H613.195V412.5H616.867ZM616.867 413.64H614.352V415.5H616.867V413.64ZM625.633 416.656H624.352V410.734H621.867V416.656H620.68V409.609H629.32V416.656H628.07V410.734H625.633V416.656ZM631.867 409.625L633.055 409.609V416.656H631.867V409.625ZM631.867 406.094H633.055V408.172H631.867V406.094ZM640.555 416.656H639.305V410.734H636.789V416.656H635.602V409.609H640.555V416.656ZM646.82 416.656H643.148V409.609H648.07V419.531H643.117V418.422H646.82V416.656ZM646.82 415.5V410.765H644.305V415.5H646.82ZM656.93 416.656H655.742V408.844H653.805V407.703H658.773V408.844H656.93V416.656ZM666.289 416.656H665.039V410.734H662.523V416.656H661.336V406.094H662.523V409.609H666.289V416.656ZM671.82 410.765L670.102 410.781V416.656H668.852V409.609H673.008V412.172H671.82V410.765ZM675.242 416.656V409.609H680.195V416.656H675.242ZM679.023 410.765L676.492 410.781V415.531H679.023V410.765ZM687.711 409.609V416.656H682.758V409.609H683.945V415.531H686.461V409.609H687.711ZM693.977 416.656H690.305V409.609H695.227V419.531H690.273V418.422H693.977V416.656ZM693.977 415.5V410.765H691.461V415.5H693.977ZM702.742 416.656H701.492V410.734H698.977V416.656H697.789V406.094H698.977V409.609H702.742V416.656ZM710.727 410.734H713.445V416.656H708.492V407.703H713.445V408.875H709.742V415.531H712.258V411.844H710.727V410.734ZM717.258 413.781V415.531H720.961V416.656H716.008V409.609H720.93V413.781H717.258ZM717.258 412.625H719.789V410.765H717.258V412.625ZM728.477 416.656H727.227V410.734H724.711V416.656H723.523V409.609H728.477V416.656ZM732.289 413.781V415.531H735.992V416.656H731.039V409.609H735.961V413.781H732.289ZM732.289 412.625H734.82V410.765H732.289V412.625ZM741.523 410.765L739.805 410.781V416.656H738.555V409.609H742.711V412.172H741.523V410.765ZM748.648 412.5V410.734H744.945V409.609H749.898V416.656H744.977V412.5H748.648ZM748.648 413.64H746.133V415.5H748.648V413.64ZM756.773 416.656H753.898V410.734H752.461V409.609H753.898V407.531H755.086V409.609H756.773V410.734H755.086V415.531H756.773V416.656ZM759.336 409.625L760.523 409.609V416.656H759.336V409.625ZM759.336 406.094H760.523V408.172H759.336V406.094ZM768.023 416.656H766.773V410.734H764.258V416.656H763.07V409.609H768.023V416.656ZM774.289 416.656H770.617V409.609H775.539V419.531H770.586V418.422H774.289V416.656ZM774.289 415.5V410.765H771.773V415.5H774.289ZM786.727 416.656H785.164L782.977 412.656H782.477L782.492 416.656H781.289V407.703H785.93V412.656H784.555L786.727 416.656ZM784.68 411.531V408.812H782.477V411.531H784.68ZM790.055 413.781V415.531H793.758V416.656H788.805V409.609H793.727V413.781H790.055ZM790.055 412.625H792.586V410.765H790.055V412.625ZM800.102 410.781H797.57V415.531H801.148V416.656H796.32V409.609H801.273V412.172H800.102V410.781ZM808.789 409.609V416.656H803.836V409.609H805.023V415.531H807.539V409.609H808.789ZM814.32 410.765L812.602 410.781V416.656H811.352V409.609H815.508V412.172H814.32V410.765ZM818.93 415.484H821.445V414.156L817.742 413.297V409.609H822.695V412.172H821.523V410.781H818.992V412.172L822.664 413.031V416.64L817.742 416.656V414.89H818.93V415.484ZM825.258 409.625L826.445 409.609V416.656H825.258V409.625ZM825.258 406.094H826.445V408.172H825.258V406.094ZM834.273 409.609L832.352 416.656H830.117L828.195 409.609H829.789L831.07 415.531H831.523L832.805 409.609H834.273ZM837.273 413.781V415.531H840.977V416.656H836.023V409.609H840.945V413.781H837.273ZM837.273 412.625H839.805V410.765H837.273V412.625ZM847.914 415.437H850.43V408.828H847.914V415.437ZM846.727 416.656V407.703H851.68V416.656H846.727ZM857.211 410.765L855.492 410.781V416.656H854.242V409.609H858.398V412.172H857.211V410.765ZM864.414 409.609V406.094H865.586V416.656H860.633V409.609H864.414ZM864.414 415.5V410.734H861.883V415.484L864.414 415.5ZM868.148 409.625L869.336 409.609V416.656H868.148V409.625ZM868.148 406.094H869.336V408.172H868.148V406.094ZM876.836 416.656H875.586V410.734H873.07V416.656H871.883V409.609H876.836V416.656ZM883.102 412.5V410.734H879.398V409.609H884.352V416.656H879.43V412.5H883.102ZM883.102 413.64H880.586V415.5H883.102V413.64ZM886.914 406.094H888.102V416.656H886.914V406.094ZM891.836 415.484H894.352V414.156L890.648 413.297V409.609H895.602V412.172H894.43V410.781H891.898V412.172L895.57 413.031V416.64L890.648 416.656V414.89H891.836V415.484Z" fill="white"/>
</svg>
