<svg width="202" height="47" viewBox="0 0 202 47" fill="none" xmlns="http://www.w3.org/2000/svg">
<path d="M0 29.78L6.6 23.12H13.08V17.66L19.68 11H36.42V17.66H19.68V23.12H42V29.78H19.68V46.34H13.08V29.78H0Z" fill="white"/>
<path d="M79.4 11.2L86 17.74V35.56L79.4 42.16H50.66L44 35.56V17.74L50.66 11.2H79.4ZM50.66 35.5H79.4V17.8H50.66V35.5Z" fill="white"/>
<path d="M123.34 11.06V17.66H94.66V35.36H130L123.46 42.02H94.48L88 35.48V17.54L94.54 11L123.34 11.06Z" fill="white"/>
<path d="M157.996 17.5959L135.996 42H127L148.996 17.5959H135.5L127 11H151.996L157.996 17.5959Z" fill="white"/>
<path d="M160 42V0H166.66V17.7H181.84L188.5 11.04H197.86L188.02 20.88L202 34.86V42H195.34V37.62L182.02 24.3H166.66V42H160Z" fill="white"/>
</svg>
