<svg width="130" height="22" viewBox="0 0 130 22" fill="none" xmlns="http://www.w3.org/2000/svg">
<mask id="path-1-outside-1_376_421" maskUnits="userSpaceOnUse" x="-1" y="-0.508972" width="131" height="24" fill="black">
<rect fill="white" x="-1" y="-0.508972" width="131" height="24"/>
<path d="M20.3105 0.491028V4.71288H19.2836V1.51796H6.07034V7.90779H15.5638V5.64853H16.5907V11.194H15.5638V8.93473H6.07034V15.3246H8.3296V16.3515H0V15.3246H2.25926V1.51796H0V0.491028H20.3105ZM5.0434 1.51796H3.2862V15.3246H5.0434V1.51796Z"/>
<path d="M35.8948 16.3515H21.6546V5.64853H35.8948V16.3515ZM34.8679 6.67547H25.4657V15.3246H34.8679V6.67547ZM24.4388 6.67547H22.6816V15.3246H24.4388V6.67547Z"/>
<path d="M38.066 5.64853H52.58V8.40985H51.5531V6.67547H44.1363V15.3246H46.3956V16.3515H38.066V15.3246H40.3253V6.67547H38.066V5.64853ZM43.1094 15.3246V6.67547H41.3522V15.3246H43.1094Z"/>
<path d="M69.0638 21.509H54.5041V18.7249H55.5311V20.4821H65.2527V16.3515H54.5041V5.64853H69.0638V21.509ZM65.2527 6.67547H55.5311V15.3246H65.2527V6.67547ZM68.0369 6.67547H66.2797V20.4821H68.0369V6.67547Z"/>
<path d="M71.798 5.64853H86.0382V11.5135H75.6091V15.3246H85.0113V13.5674H86.0382V16.3515H71.798V5.64853ZM75.6091 6.67547V10.4865H85.0113V6.67547H75.6091ZM72.825 15.3246H74.5822V6.67547H72.825V15.3246Z"/>
<path d="M104.518 16.3515H100.707V1.51796H88.27V4.71288H87.2431V0.491028H104.518V16.3515ZM103.469 1.51796H101.734V15.3246H103.469V1.51796Z"/>
<path d="M126.467 15.3246H129V16.3515H123.432V15.3246H125.189L120.397 8.93473H112.82V15.3246H115.102V16.3515H106.75V15.3246H109.009V1.51796H106.75V0.491028H115.102V1.51796H112.82V7.90779H120.374L124.345 1.51796H122.496V0.491028H128.064V1.51796H125.577L121.287 8.38703L126.467 15.3246ZM111.793 15.3246V1.51796H110.036V15.3246H111.793Z"/>
</mask>
<path d="M20.3105 0.491028V4.71288H19.2836V1.51796H6.07034V7.90779H15.5638V5.64853H16.5907V11.194H15.5638V8.93473H6.07034V15.3246H8.3296V16.3515H0V15.3246H2.25926V1.51796H0V0.491028H20.3105ZM5.0434 1.51796H3.2862V15.3246H5.0434V1.51796Z" fill="white"/>
<path d="M35.8948 16.3515H21.6546V5.64853H35.8948V16.3515ZM34.8679 6.67547H25.4657V15.3246H34.8679V6.67547ZM24.4388 6.67547H22.6816V15.3246H24.4388V6.67547Z" fill="white"/>
<path d="M38.066 5.64853H52.58V8.40985H51.5531V6.67547H44.1363V15.3246H46.3956V16.3515H38.066V15.3246H40.3253V6.67547H38.066V5.64853ZM43.1094 15.3246V6.67547H41.3522V15.3246H43.1094Z" fill="white"/>
<path d="M69.0638 21.509H54.5041V18.7249H55.5311V20.4821H65.2527V16.3515H54.5041V5.64853H69.0638V21.509ZM65.2527 6.67547H55.5311V15.3246H65.2527V6.67547ZM68.0369 6.67547H66.2797V20.4821H68.0369V6.67547Z" fill="white"/>
<path d="M71.798 5.64853H86.0382V11.5135H75.6091V15.3246H85.0113V13.5674H86.0382V16.3515H71.798V5.64853ZM75.6091 6.67547V10.4865H85.0113V6.67547H75.6091ZM72.825 15.3246H74.5822V6.67547H72.825V15.3246Z" fill="white"/>
<path d="M104.518 16.3515H100.707V1.51796H88.27V4.71288H87.2431V0.491028H104.518V16.3515ZM103.469 1.51796H101.734V15.3246H103.469V1.51796Z" fill="white"/>
<path d="M126.467 15.3246H129V16.3515H123.432V15.3246H125.189L120.397 8.93473H112.82V15.3246H115.102V16.3515H106.75V15.3246H109.009V1.51796H106.75V0.491028H115.102V1.51796H112.82V7.90779H120.374L124.345 1.51796H122.496V0.491028H128.064V1.51796H125.577L121.287 8.38703L126.467 15.3246ZM111.793 15.3246V1.51796H110.036V15.3246H111.793Z" fill="white"/>
<path d="M20.3105 0.491028V4.71288H19.2836V1.51796H6.07034V7.90779H15.5638V5.64853H16.5907V11.194H15.5638V8.93473H6.07034V15.3246H8.3296V16.3515H0V15.3246H2.25926V1.51796H0V0.491028H20.3105ZM5.0434 1.51796H3.2862V15.3246H5.0434V1.51796Z" stroke="black" stroke-width="2" mask="url(#path-1-outside-1_376_421)"/>
<path d="M35.8948 16.3515H21.6546V5.64853H35.8948V16.3515ZM34.8679 6.67547H25.4657V15.3246H34.8679V6.67547ZM24.4388 6.67547H22.6816V15.3246H24.4388V6.67547Z" stroke="black" stroke-width="2" mask="url(#path-1-outside-1_376_421)"/>
<path d="M38.066 5.64853H52.58V8.40985H51.5531V6.67547H44.1363V15.3246H46.3956V16.3515H38.066V15.3246H40.3253V6.67547H38.066V5.64853ZM43.1094 15.3246V6.67547H41.3522V15.3246H43.1094Z" stroke="black" stroke-width="2" mask="url(#path-1-outside-1_376_421)"/>
<path d="M69.0638 21.509H54.5041V18.7249H55.5311V20.4821H65.2527V16.3515H54.5041V5.64853H69.0638V21.509ZM65.2527 6.67547H55.5311V15.3246H65.2527V6.67547ZM68.0369 6.67547H66.2797V20.4821H68.0369V6.67547Z" stroke="black" stroke-width="2" mask="url(#path-1-outside-1_376_421)"/>
<path d="M71.798 5.64853H86.0382V11.5135H75.6091V15.3246H85.0113V13.5674H86.0382V16.3515H71.798V5.64853ZM75.6091 6.67547V10.4865H85.0113V6.67547H75.6091ZM72.825 15.3246H74.5822V6.67547H72.825V15.3246Z" stroke="black" stroke-width="2" mask="url(#path-1-outside-1_376_421)"/>
<path d="M104.518 16.3515H100.707V1.51796H88.27V4.71288H87.2431V0.491028H104.518V16.3515ZM103.469 1.51796H101.734V15.3246H103.469V1.51796Z" stroke="black" stroke-width="2" mask="url(#path-1-outside-1_376_421)"/>
<path d="M126.467 15.3246H129V16.3515H123.432V15.3246H125.189L120.397 8.93473H112.82V15.3246H115.102V16.3515H106.75V15.3246H109.009V1.51796H106.75V0.491028H115.102V1.51796H112.82V7.90779H120.374L124.345 1.51796H122.496V0.491028H128.064V1.51796H125.577L121.287 8.38703L126.467 15.3246ZM111.793 15.3246V1.51796H110.036V15.3246H111.793Z" stroke="black" stroke-width="2" mask="url(#path-1-outside-1_376_421)"/>
</svg>
