<svg width="24" height="24" viewBox="0 0 24 24" fill="none" xmlns="http://www.w3.org/2000/svg">
<path fill-rule="evenodd" clip-rule="evenodd" d="M2 4.89142C2 1.72394 5.38912 0.117865 8.01447 1.51306C8.02971 1.52116 8.04473 1.52964 8.05952 1.53852L20.0302 8.71774C22.6566 10.1995 22.6566 13.7566 20.0302 15.2384L8.05952 22.4177L8.04674 22.4252C5.37836 23.9722 2 22.2042 2 19.1646V4.89142ZM7.0548 3.26806C5.55465 2.48773 4 3.47418 4 4.89142V19.1646C4 20.5149 5.57579 21.5407 7.03774 20.6984L19.0136 13.516C19.0223 13.5108 19.031 13.5058 19.0398 13.5009C20.3201 12.7847 20.3201 11.1715 19.0398 10.4553C19.0347 10.4525 19.0297 10.4496 19.0247 10.4467C19.021 10.4446 19.0173 10.4424 19.0136 10.4402L7.0548 3.26806Z" fill="white"/>
</svg>
