<svg width="11" height="15" viewBox="0 0 11 15" fill="none" xmlns="http://www.w3.org/2000/svg">
<path d="M1.17255 5.48116L1.17202 5.4808C0.479145 5.00764 0.1 4.26487 0.1 3.38028V2.53521C0.1 1.17523 1.11176 0.1 2.3625 0.1H8.1375C9.38824 0.1 10.4 1.17523 10.4 2.53521V3.38028C10.4 4.26645 10.0201 5.00498 9.33386 5.40665L9.33374 5.40645L9.32798 5.41038L6.44048 7.38221L6.31955 7.46479L6.44048 7.54737L9.32798 9.5192C10.0209 9.99235 10.4 10.7351 10.4 11.6197V12.4648C10.4 13.8248 9.38824 14.9 8.1375 14.9H2.3625C1.11176 14.9 0.1 13.8248 0.1 12.4648V11.6197C0.1 10.7303 0.48224 9.92323 1.16614 9.52292L1.16623 9.52307L1.17106 9.51985L4.97731 6.98464L4.97798 6.98419L8.71765 4.44962C9.07434 4.2195 9.2875 3.83568 9.2875 3.38028V2.53521C9.2875 1.85294 8.78988 1.30845 8.1375 1.30845H2.3625C1.71012 1.30845 1.2125 1.85294 1.2125 2.53521V3.38028C1.2125 3.82809 1.42056 4.22046 1.78858 4.38353L3.81495 5.78644L3.81492 5.78649L3.81774 5.7883C4.08831 5.96252 4.16181 6.32109 3.97968 6.71493C3.89446 6.86549 3.77092 6.95108 3.63761 6.97969C3.50277 7.00863 3.34958 6.98095 3.2055 6.88863L1.17255 5.48116ZM5.30629 8.2272L5.25 8.18887L5.19371 8.2272L1.78226 10.5504C1.42562 10.7806 1.2125 11.1644 1.2125 11.6197V12.4648C1.2125 13.1471 1.71012 13.6915 2.3625 13.6915H8.1375C8.78988 13.6915 9.2875 13.1471 9.2875 12.4648V11.6197C9.2875 11.1644 9.07437 10.7806 8.71773 10.5504L5.30629 8.2272Z" fill="white" stroke="black" stroke-width="0.2"/>
</svg>
