<svg width="184" height="130" viewBox="0 0 184 130" fill="none" xmlns="http://www.w3.org/2000/svg">
<path d="M170.434 81.5C170.434 98.3447 135.77 112 93.0094 112C50.2487 112 15.5844 98.3447 15.5844 81.5C15.5844 64.6553 50.2487 51 93.0094 51C135.77 51 170.434 64.6553 170.434 81.5Z" fill="#ED974F"/>
<path d="M15.5844 81.5L11 51H174L170.434 81.5H15.5844Z" fill="#ED974F"/>
<path d="M174.5 48.5C174.5 52.8026 172.288 56.9543 168.176 60.7846C164.063 64.6156 158.083 68.0886 150.653 71.0158C135.795 76.8688 115.235 80.5 92.5 80.5C69.7648 80.5 49.2048 76.8688 34.347 71.0158C26.9165 68.0886 20.9373 64.6156 16.824 60.7846C12.7115 56.9543 10.5 52.8026 10.5 48.5C10.5 44.1974 12.7115 40.0457 16.824 36.2154C20.9373 32.3844 26.9165 28.9114 34.347 25.9842C49.2048 20.1312 69.7648 16.5 92.5 16.5C115.235 16.5 135.795 20.1312 150.653 25.9842C158.083 28.9114 164.063 32.3844 168.176 36.2154C172.288 40.0457 174.5 44.1974 174.5 48.5Z" fill="white" stroke="#ED974F"/>
<path d="M63.9106 87V89.8122H63.2578V87.684H54.8587V91.9403H60.8933V90.4354H61.546V94.1292H60.8933V92.6243H54.8587V96.8806H56.2948V97.5646H51V96.8806H52.4361V87.684H51V87H63.9106ZM54.2059 87.684H53.0889V96.8806H54.2059V87.684Z" fill="white"/>
<path d="M73.8169 97.5646H64.765V90.4354H73.8169V97.5646ZM73.1641 91.1194H67.1875V96.8806H73.1641V91.1194ZM66.5347 91.1194H65.4177V96.8806H66.5347V91.1194Z" fill="white"/>
<path d="M75.197 90.4354H84.423V92.2747H83.7702V91.1194H79.0557V96.8806H80.4918V97.5646H75.197V96.8806H76.6331V91.1194H75.197V90.4354ZM78.4029 96.8806V91.1194H77.2859V96.8806H78.4029Z" fill="white"/>
<path d="M94.901 101H85.646V99.1455H86.2988V100.316H92.4785V97.5646H85.646V90.4354H94.901V101ZM92.4785 91.1194H86.2988V96.8806H92.4785V91.1194ZM94.2482 91.1194H93.1313V100.316H94.2482V91.1194Z" fill="white"/>
<path d="M96.6391 90.4354H105.691V94.342H99.0616V96.8806H105.038V95.7101H105.691V97.5646H96.6391V90.4354ZM99.0616 91.1194V93.658H105.038V91.1194H99.0616ZM97.2918 96.8806H98.4088V91.1194H97.2918V96.8806Z" fill="white"/>
<path d="M117.438 97.5646H115.016V87.684H107.11V89.8122H106.457V87H117.438V97.5646ZM116.771 87.684H115.668V96.8806H116.771V87.684Z" fill="white"/>
<path d="M131.39 96.8806H133V97.5646H129.46V96.8806H130.577L127.531 92.6243H122.715V96.8806H124.166V97.5646H118.856V96.8806H120.293V87.684H118.856V87H124.166V87.684H122.715V91.9403H127.517L130.041 87.684H128.866V87H132.405V87.684H130.824L128.097 92.2595L131.39 96.8806ZM122.062 96.8806V87.684H120.945V96.8806H122.062Z" fill="white"/>
<path d="M63.9106 87V89.8122H63.2578V87.684H54.8587V91.9403H60.8933V90.4354H61.546V94.1292H60.8933V92.6243H54.8587V96.8806H56.2948V97.5646H51V96.8806H52.4361V87.684H51V87H63.9106ZM54.2059 87.684H53.0889V96.8806H54.2059V87.684Z" stroke="white"/>
<path d="M73.8169 97.5646H64.765V90.4354H73.8169V97.5646ZM73.1641 91.1194H67.1875V96.8806H73.1641V91.1194ZM66.5347 91.1194H65.4177V96.8806H66.5347V91.1194Z" stroke="white"/>
<path d="M75.197 90.4354H84.423V92.2747H83.7702V91.1194H79.0557V96.8806H80.4918V97.5646H75.197V96.8806H76.6331V91.1194H75.197V90.4354ZM78.4029 96.8806V91.1194H77.2859V96.8806H78.4029Z" stroke="white"/>
<path d="M94.901 101H85.646V99.1455H86.2988V100.316H92.4785V97.5646H85.646V90.4354H94.901V101ZM92.4785 91.1194H86.2988V96.8806H92.4785V91.1194ZM94.2482 91.1194H93.1313V100.316H94.2482V91.1194Z" stroke="white"/>
<path d="M96.6391 90.4354H105.691V94.342H99.0616V96.8806H105.038V95.7101H105.691V97.5646H96.6391V90.4354ZM99.0616 91.1194V93.658H105.038V91.1194H99.0616ZM97.2918 96.8806H98.4088V91.1194H97.2918V96.8806Z" stroke="white"/>
<path d="M117.438 97.5646H115.016V87.684H107.11V89.8122H106.457V87H117.438V97.5646ZM116.771 87.684H115.668V96.8806H116.771V87.684Z" stroke="white"/>
<path d="M131.39 96.8806H133V97.5646H129.46V96.8806H130.577L127.531 92.6243H122.715V96.8806H124.166V97.5646H118.856V96.8806H120.293V87.684H118.856V87H124.166V87.684H122.715V91.9403H127.517L130.041 87.684H128.866V87H132.405V87.684H130.824L128.097 92.2595L131.39 96.8806ZM122.062 96.8806V87.684H120.945V96.8806H122.062Z" stroke="white"/>
</svg>
