<svg width="98" height="108" viewBox="0 0 98 108" fill="none" xmlns="http://www.w3.org/2000/svg">
<rect x="4.5" y="0.5" width="89" height="25" rx="3.5" fill="white" stroke="#959595"/>
<mask id="path-2-outside-1_551_533" maskUnits="userSpaceOnUse" x="13" y="9" width="72" height="10" fill="black">
<rect fill="white" x="13" y="9" width="72" height="10"/>
<path d="M21.7032 10.15V15.595H22.5942V16H20.4072V15.595H21.2982V13.075H15.8532V15.595H16.7532V16H13.4592V15.595H14.3592V10.15H13.4592V9.745H16.7532V10.15H15.8532V12.67H21.2982V10.15H20.4072V9.745H22.5942V10.15H21.7032ZM15.4482 10.15H14.7642V15.595H15.4482V10.15ZM25.5923 15.595H26.4833V16H23.1983V15.595H24.0893V12.184H23.1983V11.779H25.5923V15.595ZM25.1873 12.184H24.4943V15.595H25.1873V12.184ZM25.6553 11.122H24.0263V9.745H25.6553V11.122ZM25.2503 10.15H24.4313V10.717H25.2503V10.15ZM32.9446 18.034H27.2026V16.936H27.6076V17.629H31.4416V16H27.2026V11.779H32.9446V18.034ZM31.4416 12.184H27.6076V15.595H31.4416V12.184ZM32.5396 12.184H31.8466V17.629H32.5396V12.184ZM41.1329 15.595V16H38.8019V15.595H39.7649V12.184H36.0569V15.595H36.9479V16H33.6629V15.595H34.5539V10.15H33.6629V9.745H36.0569V11.779H40.1699V15.595H41.1329ZM35.6519 10.15H34.9589V15.595H35.6519V10.15ZM51.4396 9.745V11.41H51.0346V10.15H45.5986V12.67H51.4396V16H44.0956V14.335H44.5006V15.595H49.9366V13.075H44.0956V9.745H51.4396ZM50.3416 13.075V15.595H51.0346V13.075H50.3416ZM45.1846 10.15H44.5006V12.67H45.1846V10.15ZM57.7525 14.902H58.1575V16H52.5415V11.779H58.1575V12.877H57.7525V12.184H54.0445V15.595H57.7525V14.902ZM53.6395 12.184H52.9465V15.595H53.6395V12.184ZM64.7581 16H59.1421V11.779H64.7581V16ZM64.3531 12.184H60.6451V15.595H64.3531V12.184ZM60.2401 12.184H59.5471V15.595H60.2401V12.184ZM65.6143 11.779H71.3383V12.868H70.9333V12.184H68.0083V15.595H68.8993V16H65.6143V15.595H66.5053V12.184H65.6143V11.779ZM67.6033 15.595V12.184H66.9103V15.595H67.6033ZM72.0971 11.779H77.7131V14.092H73.6001V15.595H77.3081V14.902H77.7131V16H72.0971V11.779ZM73.6001 12.184V13.687H77.3081V12.184H73.6001ZM72.5021 15.595H73.1951V12.184H72.5021V15.595ZM84.3214 11.779V12.877H83.9164V12.184H80.2084V13.687H84.3214V16H78.7054V14.902H79.1104V15.595H82.8184V14.092H78.7054V11.779H84.3214ZM83.2234 14.092V15.595H83.9164V14.092H83.2234ZM79.8034 12.184H79.1104V13.687H79.8034V12.184Z"/>
</mask>
<path d="M21.7032 10.15V15.595H22.5942V16H20.4072V15.595H21.2982V13.075H15.8532V15.595H16.7532V16H13.4592V15.595H14.3592V10.15H13.4592V9.745H16.7532V10.15H15.8532V12.67H21.2982V10.15H20.4072V9.745H22.5942V10.15H21.7032ZM15.4482 10.15H14.7642V15.595H15.4482V10.15ZM25.5923 15.595H26.4833V16H23.1983V15.595H24.0893V12.184H23.1983V11.779H25.5923V15.595ZM25.1873 12.184H24.4943V15.595H25.1873V12.184ZM25.6553 11.122H24.0263V9.745H25.6553V11.122ZM25.2503 10.15H24.4313V10.717H25.2503V10.15ZM32.9446 18.034H27.2026V16.936H27.6076V17.629H31.4416V16H27.2026V11.779H32.9446V18.034ZM31.4416 12.184H27.6076V15.595H31.4416V12.184ZM32.5396 12.184H31.8466V17.629H32.5396V12.184ZM41.1329 15.595V16H38.8019V15.595H39.7649V12.184H36.0569V15.595H36.9479V16H33.6629V15.595H34.5539V10.15H33.6629V9.745H36.0569V11.779H40.1699V15.595H41.1329ZM35.6519 10.15H34.9589V15.595H35.6519V10.15ZM51.4396 9.745V11.41H51.0346V10.15H45.5986V12.67H51.4396V16H44.0956V14.335H44.5006V15.595H49.9366V13.075H44.0956V9.745H51.4396ZM50.3416 13.075V15.595H51.0346V13.075H50.3416ZM45.1846 10.15H44.5006V12.67H45.1846V10.15ZM57.7525 14.902H58.1575V16H52.5415V11.779H58.1575V12.877H57.7525V12.184H54.0445V15.595H57.7525V14.902ZM53.6395 12.184H52.9465V15.595H53.6395V12.184ZM64.7581 16H59.1421V11.779H64.7581V16ZM64.3531 12.184H60.6451V15.595H64.3531V12.184ZM60.2401 12.184H59.5471V15.595H60.2401V12.184ZM65.6143 11.779H71.3383V12.868H70.9333V12.184H68.0083V15.595H68.8993V16H65.6143V15.595H66.5053V12.184H65.6143V11.779ZM67.6033 15.595V12.184H66.9103V15.595H67.6033ZM72.0971 11.779H77.7131V14.092H73.6001V15.595H77.3081V14.902H77.7131V16H72.0971V11.779ZM73.6001 12.184V13.687H77.3081V12.184H73.6001ZM72.5021 15.595H73.1951V12.184H72.5021V15.595ZM84.3214 11.779V12.877H83.9164V12.184H80.2084V13.687H84.3214V16H78.7054V14.902H79.1104V15.595H82.8184V14.092H78.7054V11.779H84.3214ZM83.2234 14.092V15.595H83.9164V14.092H83.2234ZM79.8034 12.184H79.1104V13.687H79.8034V12.184Z" fill="black"/>
<path d="M21.7032 10.15V10.05H21.6032V10.15H21.7032ZM21.7032 15.595H21.6032V15.695H21.7032V15.595ZM22.5942 15.595H22.6942V15.495H22.5942V15.595ZM22.5942 16V16.1H22.6942V16H22.5942ZM20.4072 16H20.3072V16.1H20.4072V16ZM20.4072 15.595V15.495H20.3072V15.595H20.4072ZM21.2982 15.595V15.695H21.3982V15.595H21.2982ZM21.2982 13.075H21.3982V12.975H21.2982V13.075ZM15.8532 13.075V12.975H15.7532V13.075H15.8532ZM15.8532 15.595H15.7532V15.695H15.8532V15.595ZM16.7532 15.595H16.8532V15.495H16.7532V15.595ZM16.7532 16V16.1H16.8532V16H16.7532ZM13.4592 16H13.3592V16.1H13.4592V16ZM13.4592 15.595V15.495H13.3592V15.595H13.4592ZM14.3592 15.595V15.695H14.4592V15.595H14.3592ZM14.3592 10.15H14.4592V10.05H14.3592V10.15ZM13.4592 10.15H13.3592V10.25H13.4592V10.15ZM13.4592 9.745V9.645H13.3592V9.745H13.4592ZM16.7532 9.745H16.8532V9.645H16.7532V9.745ZM16.7532 10.15V10.25H16.8532V10.15H16.7532ZM15.8532 10.15V10.05H15.7532V10.15H15.8532ZM15.8532 12.67H15.7532V12.77H15.8532V12.67ZM21.2982 12.67V12.77H21.3982V12.67H21.2982ZM21.2982 10.15H21.3982V10.05H21.2982V10.15ZM20.4072 10.15H20.3072V10.25H20.4072V10.15ZM20.4072 9.745V9.645H20.3072V9.745H20.4072ZM22.5942 9.745H22.6942V9.645H22.5942V9.745ZM22.5942 10.15V10.25H22.6942V10.15H22.5942ZM15.4482 10.15H15.5482V10.05H15.4482V10.15ZM14.7642 10.15V10.05H14.6642V10.15H14.7642ZM14.7642 15.595H14.6642V15.695H14.7642V15.595ZM15.4482 15.595V15.695H15.5482V15.595H15.4482ZM21.6032 10.15V15.595H21.8032V10.15H21.6032ZM21.7032 15.695H22.5942V15.495H21.7032V15.695ZM22.4942 15.595V16H22.6942V15.595H22.4942ZM22.5942 15.9H20.4072V16.1H22.5942V15.9ZM20.5072 16V15.595H20.3072V16H20.5072ZM20.4072 15.695H21.2982V15.495H20.4072V15.695ZM21.3982 15.595V13.075H21.1982V15.595H21.3982ZM21.2982 12.975H15.8532V13.175H21.2982V12.975ZM15.7532 13.075V15.595H15.9532V13.075H15.7532ZM15.8532 15.695H16.7532V15.495H15.8532V15.695ZM16.6532 15.595V16H16.8532V15.595H16.6532ZM16.7532 15.9H13.4592V16.1H16.7532V15.9ZM13.5592 16V15.595H13.3592V16H13.5592ZM13.4592 15.695H14.3592V15.495H13.4592V15.695ZM14.4592 15.595V10.15H14.2592V15.595H14.4592ZM14.3592 10.05H13.4592V10.25H14.3592V10.05ZM13.5592 10.15V9.745H13.3592V10.15H13.5592ZM13.4592 9.845H16.7532V9.645H13.4592V9.845ZM16.6532 9.745V10.15H16.8532V9.745H16.6532ZM16.7532 10.05H15.8532V10.25H16.7532V10.05ZM15.7532 10.15V12.67H15.9532V10.15H15.7532ZM15.8532 12.77H21.2982V12.57H15.8532V12.77ZM21.3982 12.67V10.15H21.1982V12.67H21.3982ZM21.2982 10.05H20.4072V10.25H21.2982V10.05ZM20.5072 10.15V9.745H20.3072V10.15H20.5072ZM20.4072 9.845H22.5942V9.645H20.4072V9.845ZM22.4942 9.745V10.15H22.6942V9.745H22.4942ZM22.5942 10.05H21.7032V10.25H22.5942V10.05ZM15.4482 10.05H14.7642V10.25H15.4482V10.05ZM14.6642 10.15V15.595H14.8642V10.15H14.6642ZM14.7642 15.695H15.4482V15.495H14.7642V15.695ZM15.5482 15.595V10.15H15.3482V15.595H15.5482ZM25.5923 15.595H25.4923V15.695H25.5923V15.595ZM26.4833 15.595H26.5833V15.495H26.4833V15.595ZM26.4833 16V16.1H26.5833V16H26.4833ZM23.1983 16H23.0983V16.1H23.1983V16ZM23.1983 15.595V15.495H23.0983V15.595H23.1983ZM24.0893 15.595V15.695H24.1893V15.595H24.0893ZM24.0893 12.184H24.1893V12.084H24.0893V12.184ZM23.1983 12.184H23.0983V12.284H23.1983V12.184ZM23.1983 11.779V11.679H23.0983V11.779H23.1983ZM25.5923 11.779H25.6923V11.679H25.5923V11.779ZM25.1873 12.184H25.2873V12.084H25.1873V12.184ZM24.4943 12.184V12.084H24.3943V12.184H24.4943ZM24.4943 15.595H24.3943V15.695H24.4943V15.595ZM25.1873 15.595V15.695H25.2873V15.595H25.1873ZM25.6553 11.122V11.222H25.7553V11.122H25.6553ZM24.0263 11.122H23.9263V11.222H24.0263V11.122ZM24.0263 9.745V9.645H23.9263V9.745H24.0263ZM25.6553 9.745H25.7553V9.645H25.6553V9.745ZM25.2503 10.15H25.3503V10.05H25.2503V10.15ZM24.4313 10.15V10.05H24.3313V10.15H24.4313ZM24.4313 10.717H24.3313V10.817H24.4313V10.717ZM25.2503 10.717V10.817H25.3503V10.717H25.2503ZM25.5923 15.695H26.4833V15.495H25.5923V15.695ZM26.3833 15.595V16H26.5833V15.595H26.3833ZM26.4833 15.9H23.1983V16.1H26.4833V15.9ZM23.2983 16V15.595H23.0983V16H23.2983ZM23.1983 15.695H24.0893V15.495H23.1983V15.695ZM24.1893 15.595V12.184H23.9893V15.595H24.1893ZM24.0893 12.084H23.1983V12.284H24.0893V12.084ZM23.2983 12.184V11.779H23.0983V12.184H23.2983ZM23.1983 11.879H25.5923V11.679H23.1983V11.879ZM25.4923 11.779V15.595H25.6923V11.779H25.4923ZM25.1873 12.084H24.4943V12.284H25.1873V12.084ZM24.3943 12.184V15.595H24.5943V12.184H24.3943ZM24.4943 15.695H25.1873V15.495H24.4943V15.695ZM25.2873 15.595V12.184H25.0873V15.595H25.2873ZM25.6553 11.022H24.0263V11.222H25.6553V11.022ZM24.1263 11.122V9.745H23.9263V11.122H24.1263ZM24.0263 9.845H25.6553V9.645H24.0263V9.845ZM25.5553 9.745V11.122H25.7553V9.745H25.5553ZM25.2503 10.05H24.4313V10.25H25.2503V10.05ZM24.3313 10.15V10.717H24.5313V10.15H24.3313ZM24.4313 10.817H25.2503V10.617H24.4313V10.817ZM25.3503 10.717V10.15H25.1503V10.717H25.3503ZM32.9446 18.034V18.134H33.0446V18.034H32.9446ZM27.2026 18.034H27.1026V18.134H27.2026V18.034ZM27.2026 16.936V16.836H27.1026V16.936H27.2026ZM27.6076 16.936H27.7076V16.836H27.6076V16.936ZM27.6076 17.629H27.5076V17.729H27.6076V17.629ZM31.4416 17.629V17.729H31.5416V17.629H31.4416ZM31.4416 16H31.5416V15.9H31.4416V16ZM27.2026 16H27.1026V16.1H27.2026V16ZM27.2026 11.779V11.679H27.1026V11.779H27.2026ZM32.9446 11.779H33.0446V11.679H32.9446V11.779ZM31.4416 12.184H31.5416V12.084H31.4416V12.184ZM27.6076 12.184V12.084H27.5076V12.184H27.6076ZM27.6076 15.595H27.5076V15.695H27.6076V15.595ZM31.4416 15.595V15.695H31.5416V15.595H31.4416ZM32.5396 12.184H32.6396V12.084H32.5396V12.184ZM31.8466 12.184V12.084H31.7466V12.184H31.8466ZM31.8466 17.629H31.7466V17.729H31.8466V17.629ZM32.5396 17.629V17.729H32.6396V17.629H32.5396ZM32.9446 17.934H27.2026V18.134H32.9446V17.934ZM27.3026 18.034V16.936H27.1026V18.034H27.3026ZM27.2026 17.036H27.6076V16.836H27.2026V17.036ZM27.5076 16.936V17.629H27.7076V16.936H27.5076ZM27.6076 17.729H31.4416V17.529H27.6076V17.729ZM31.5416 17.629V16H31.3416V17.629H31.5416ZM31.4416 15.9H27.2026V16.1H31.4416V15.9ZM27.3026 16V11.779H27.1026V16H27.3026ZM27.2026 11.879H32.9446V11.679H27.2026V11.879ZM32.8446 11.779V18.034H33.0446V11.779H32.8446ZM31.4416 12.084H27.6076V12.284H31.4416V12.084ZM27.5076 12.184V15.595H27.7076V12.184H27.5076ZM27.6076 15.695H31.4416V15.495H27.6076V15.695ZM31.5416 15.595V12.184H31.3416V15.595H31.5416ZM32.5396 12.084H31.8466V12.284H32.5396V12.084ZM31.7466 12.184V17.629H31.9466V12.184H31.7466ZM31.8466 17.729H32.5396V17.529H31.8466V17.729ZM32.6396 17.629V12.184H32.4396V17.629H32.6396ZM41.1329 15.595H41.2329V15.495H41.1329V15.595ZM41.1329 16V16.1H41.2329V16H41.1329ZM38.8019 16H38.7019V16.1H38.8019V16ZM38.8019 15.595V15.495H38.7019V15.595H38.8019ZM39.7649 15.595V15.695H39.8649V15.595H39.7649ZM39.7649 12.184H39.8649V12.084H39.7649V12.184ZM36.0569 12.184V12.084H35.9569V12.184H36.0569ZM36.0569 15.595H35.9569V15.695H36.0569V15.595ZM36.9479 15.595H37.0479V15.495H36.9479V15.595ZM36.9479 16V16.1H37.0479V16H36.9479ZM33.6629 16H33.5629V16.1H33.6629V16ZM33.6629 15.595V15.495H33.5629V15.595H33.6629ZM34.5539 15.595V15.695H34.6539V15.595H34.5539ZM34.5539 10.15H34.6539V10.05H34.5539V10.15ZM33.6629 10.15H33.5629V10.25H33.6629V10.15ZM33.6629 9.745V9.645H33.5629V9.745H33.6629ZM36.0569 9.745H36.1569V9.645H36.0569V9.745ZM36.0569 11.779H35.9569V11.879H36.0569V11.779ZM40.1699 11.779H40.2699V11.679H40.1699V11.779ZM40.1699 15.595H40.0699V15.695H40.1699V15.595ZM35.6519 10.15H35.7519V10.05H35.6519V10.15ZM34.9589 10.15V10.05H34.8589V10.15H34.9589ZM34.9589 15.595H34.8589V15.695H34.9589V15.595ZM35.6519 15.595V15.695H35.7519V15.595H35.6519ZM41.0329 15.595V16H41.2329V15.595H41.0329ZM41.1329 15.9H38.8019V16.1H41.1329V15.9ZM38.9019 16V15.595H38.7019V16H38.9019ZM38.8019 15.695H39.7649V15.495H38.8019V15.695ZM39.8649 15.595V12.184H39.6649V15.595H39.8649ZM39.7649 12.084H36.0569V12.284H39.7649V12.084ZM35.9569 12.184V15.595H36.1569V12.184H35.9569ZM36.0569 15.695H36.9479V15.495H36.0569V15.695ZM36.8479 15.595V16H37.0479V15.595H36.8479ZM36.9479 15.9H33.6629V16.1H36.9479V15.9ZM33.7629 16V15.595H33.5629V16H33.7629ZM33.6629 15.695H34.5539V15.495H33.6629V15.695ZM34.6539 15.595V10.15H34.4539V15.595H34.6539ZM34.5539 10.05H33.6629V10.25H34.5539V10.05ZM33.7629 10.15V9.745H33.5629V10.15H33.7629ZM33.6629 9.845H36.0569V9.645H33.6629V9.845ZM35.9569 9.745V11.779H36.1569V9.745H35.9569ZM36.0569 11.879H40.1699V11.679H36.0569V11.879ZM40.0699 11.779V15.595H40.2699V11.779H40.0699ZM40.1699 15.695H41.1329V15.495H40.1699V15.695ZM35.6519 10.05H34.9589V10.25H35.6519V10.05ZM34.8589 10.15V15.595H35.0589V10.15H34.8589ZM34.9589 15.695H35.6519V15.495H34.9589V15.695ZM35.7519 15.595V10.15H35.5519V15.595H35.7519ZM51.4396 9.745H51.5396V9.645H51.4396V9.745ZM51.4396 11.41V11.51H51.5396V11.41H51.4396ZM51.0346 11.41H50.9346V11.51H51.0346V11.41ZM51.0346 10.15H51.1346V10.05H51.0346V10.15ZM45.5986 10.15V10.05H45.4986V10.15H45.5986ZM45.5986 12.67H45.4986V12.77H45.5986V12.67ZM51.4396 12.67H51.5396V12.57H51.4396V12.67ZM51.4396 16V16.1H51.5396V16H51.4396ZM44.0956 16H43.9956V16.1H44.0956V16ZM44.0956 14.335V14.235H43.9956V14.335H44.0956ZM44.5006 14.335H44.6006V14.235H44.5006V14.335ZM44.5006 15.595H44.4006V15.695H44.5006V15.595ZM49.9366 15.595V15.695H50.0366V15.595H49.9366ZM49.9366 13.075H50.0366V12.975H49.9366V13.075ZM44.0956 13.075H43.9956V13.175H44.0956V13.075ZM44.0956 9.745V9.645H43.9956V9.745H44.0956ZM50.3416 13.075V12.975H50.2416V13.075H50.3416ZM50.3416 15.595H50.2416V15.695H50.3416V15.595ZM51.0346 15.595V15.695H51.1346V15.595H51.0346ZM51.0346 13.075H51.1346V12.975H51.0346V13.075ZM45.1846 10.15H45.2846V10.05H45.1846V10.15ZM44.5006 10.15V10.05H44.4006V10.15H44.5006ZM44.5006 12.67H44.4006V12.77H44.5006V12.67ZM45.1846 12.67V12.77H45.2846V12.67H45.1846ZM51.3396 9.745V11.41H51.5396V9.745H51.3396ZM51.4396 11.31H51.0346V11.51H51.4396V11.31ZM51.1346 11.41V10.15H50.9346V11.41H51.1346ZM51.0346 10.05H45.5986V10.25H51.0346V10.05ZM45.4986 10.15V12.67H45.6986V10.15H45.4986ZM45.5986 12.77H51.4396V12.57H45.5986V12.77ZM51.3396 12.67V16H51.5396V12.67H51.3396ZM51.4396 15.9H44.0956V16.1H51.4396V15.9ZM44.1956 16V14.335H43.9956V16H44.1956ZM44.0956 14.435H44.5006V14.235H44.0956V14.435ZM44.4006 14.335V15.595H44.6006V14.335H44.4006ZM44.5006 15.695H49.9366V15.495H44.5006V15.695ZM50.0366 15.595V13.075H49.8366V15.595H50.0366ZM49.9366 12.975H44.0956V13.175H49.9366V12.975ZM44.1956 13.075V9.745H43.9956V13.075H44.1956ZM44.0956 9.845H51.4396V9.645H44.0956V9.845ZM50.2416 13.075V15.595H50.4416V13.075H50.2416ZM50.3416 15.695H51.0346V15.495H50.3416V15.695ZM51.1346 15.595V13.075H50.9346V15.595H51.1346ZM51.0346 12.975H50.3416V13.175H51.0346V12.975ZM45.1846 10.05H44.5006V10.25H45.1846V10.05ZM44.4006 10.15V12.67H44.6006V10.15H44.4006ZM44.5006 12.77H45.1846V12.57H44.5006V12.77ZM45.2846 12.67V10.15H45.0846V12.67H45.2846ZM57.7525 14.902V14.802H57.6525V14.902H57.7525ZM58.1575 14.902H58.2575V14.802H58.1575V14.902ZM58.1575 16V16.1H58.2575V16H58.1575ZM52.5415 16H52.4415V16.1H52.5415V16ZM52.5415 11.779V11.679H52.4415V11.779H52.5415ZM58.1575 11.779H58.2575V11.679H58.1575V11.779ZM58.1575 12.877V12.977H58.2575V12.877H58.1575ZM57.7525 12.877H57.6525V12.977H57.7525V12.877ZM57.7525 12.184H57.8525V12.084H57.7525V12.184ZM54.0445 12.184V12.084H53.9445V12.184H54.0445ZM54.0445 15.595H53.9445V15.695H54.0445V15.595ZM57.7525 15.595V15.695H57.8525V15.595H57.7525ZM53.6395 12.184H53.7395V12.084H53.6395V12.184ZM52.9465 12.184V12.084H52.8465V12.184H52.9465ZM52.9465 15.595H52.8465V15.695H52.9465V15.595ZM53.6395 15.595V15.695H53.7395V15.595H53.6395ZM57.7525 15.002H58.1575V14.802H57.7525V15.002ZM58.0575 14.902V16H58.2575V14.902H58.0575ZM58.1575 15.9H52.5415V16.1H58.1575V15.9ZM52.6415 16V11.779H52.4415V16H52.6415ZM52.5415 11.879H58.1575V11.679H52.5415V11.879ZM58.0575 11.779V12.877H58.2575V11.779H58.0575ZM58.1575 12.777H57.7525V12.977H58.1575V12.777ZM57.8525 12.877V12.184H57.6525V12.877H57.8525ZM57.7525 12.084H54.0445V12.284H57.7525V12.084ZM53.9445 12.184V15.595H54.1445V12.184H53.9445ZM54.0445 15.695H57.7525V15.495H54.0445V15.695ZM57.8525 15.595V14.902H57.6525V15.595H57.8525ZM53.6395 12.084H52.9465V12.284H53.6395V12.084ZM52.8465 12.184V15.595H53.0465V12.184H52.8465ZM52.9465 15.695H53.6395V15.495H52.9465V15.695ZM53.7395 15.595V12.184H53.5395V15.595H53.7395ZM64.758 16V16.1H64.8581V16H64.758ZM59.1421 16H59.042V16.1H59.1421V16ZM59.1421 11.779V11.679H59.042V11.779H59.1421ZM64.758 11.779H64.8581V11.679H64.758V11.779ZM64.3531 12.184H64.4531V12.084H64.3531V12.184ZM60.6451 12.184V12.084H60.5451V12.184H60.6451ZM60.6451 15.595H60.5451V15.695H60.6451V15.595ZM64.3531 15.595V15.695H64.4531V15.595H64.3531ZM60.2401 12.184H60.34V12.084H60.2401V12.184ZM59.5471 12.184V12.084H59.4471V12.184H59.5471ZM59.5471 15.595H59.4471V15.695H59.5471V15.595ZM60.2401 15.595V15.695H60.34V15.595H60.2401ZM64.758 15.9H59.1421V16.1H64.758V15.9ZM59.2421 16V11.779H59.042V16H59.2421ZM59.1421 11.879H64.758V11.679H59.1421V11.879ZM64.6581 11.779V16H64.8581V11.779H64.6581ZM64.3531 12.084H60.6451V12.284H64.3531V12.084ZM60.5451 12.184V15.595H60.7451V12.184H60.5451ZM60.6451 15.695H64.3531V15.495H60.6451V15.695ZM64.4531 15.595V12.184H64.2531V15.595H64.4531ZM60.2401 12.084H59.5471V12.284H60.2401V12.084ZM59.4471 12.184V15.595H59.647V12.184H59.4471ZM59.5471 15.695H60.2401V15.495H59.5471V15.695ZM60.34 15.595V12.184H60.14V15.595H60.34ZM65.6143 11.779V11.679H65.5143V11.779H65.6143ZM71.3383 11.779H71.4383V11.679H71.3383V11.779ZM71.3383 12.868V12.968H71.4383V12.868H71.3383ZM70.9333 12.868H70.8333V12.968H70.9333V12.868ZM70.9333 12.184H71.0333V12.084H70.9333V12.184ZM68.0083 12.184V12.084H67.9083V12.184H68.0083ZM68.0083 15.595H67.9083V15.695H68.0083V15.595ZM68.8993 15.595H68.9993V15.495H68.8993V15.595ZM68.8993 16V16.1H68.9993V16H68.8993ZM65.6143 16H65.5143V16.1H65.6143V16ZM65.6143 15.595V15.495H65.5143V15.595H65.6143ZM66.5053 15.595V15.695H66.6053V15.595H66.5053ZM66.5053 12.184H66.6053V12.084H66.5053V12.184ZM65.6143 12.184H65.5143V12.284H65.6143V12.184ZM67.6033 15.595V15.695H67.7033V15.595H67.6033ZM67.6033 12.184H67.7033V12.084H67.6033V12.184ZM66.9103 12.184V12.084H66.8103V12.184H66.9103ZM66.9103 15.595H66.8103V15.695H66.9103V15.595ZM65.6143 11.879H71.3383V11.679H65.6143V11.879ZM71.2383 11.779V12.868H71.4383V11.779H71.2383ZM71.3383 12.768H70.9333V12.968H71.3383V12.768ZM71.0333 12.868V12.184H70.8333V12.868H71.0333ZM70.9333 12.084H68.0083V12.284H70.9333V12.084ZM67.9083 12.184V15.595H68.1083V12.184H67.9083ZM68.0083 15.695H68.8993V15.495H68.0083V15.695ZM68.7993 15.595V16H68.9993V15.595H68.7993ZM68.8993 15.9H65.6143V16.1H68.8993V15.9ZM65.7143 16V15.595H65.5143V16H65.7143ZM65.6143 15.695H66.5053V15.495H65.6143V15.695ZM66.6053 15.595V12.184H66.4053V15.595H66.6053ZM66.5053 12.084H65.6143V12.284H66.5053V12.084ZM65.7143 12.184V11.779H65.5143V12.184H65.7143ZM67.7033 15.595V12.184H67.5033V15.595H67.7033ZM67.6033 12.084H66.9103V12.284H67.6033V12.084ZM66.8103 12.184V15.595H67.0103V12.184H66.8103ZM66.9103 15.695H67.6033V15.495H66.9103V15.695ZM72.0971 11.779V11.679H71.9971V11.779H72.0971ZM77.7131 11.779H77.8131V11.679H77.7131V11.779ZM77.7131 14.092V14.192H77.8131V14.092H77.7131ZM73.6001 14.092V13.992H73.5001V14.092H73.6001ZM73.6001 15.595H73.5001V15.695H73.6001V15.595ZM77.3081 15.595V15.695H77.4081V15.595H77.3081ZM77.3081 14.902V14.802H77.2081V14.902H77.3081ZM77.7131 14.902H77.8131V14.802H77.7131V14.902ZM77.7131 16V16.1H77.8131V16H77.7131ZM72.0971 16H71.9971V16.1H72.0971V16ZM73.6001 12.184V12.084H73.5001V12.184H73.6001ZM73.6001 13.687H73.5001V13.787H73.6001V13.687ZM77.3081 13.687V13.787H77.4081V13.687H77.3081ZM77.3081 12.184H77.4081V12.084H77.3081V12.184ZM72.5021 15.595H72.4021V15.695H72.5021V15.595ZM73.1951 15.595V15.695H73.2951V15.595H73.1951ZM73.1951 12.184H73.2951V12.084H73.1951V12.184ZM72.5021 12.184V12.084H72.4021V12.184H72.5021ZM72.0971 11.879H77.7131V11.679H72.0971V11.879ZM77.6131 11.779V14.092H77.8131V11.779H77.6131ZM77.7131 13.992H73.6001V14.192H77.7131V13.992ZM73.5001 14.092V15.595H73.7001V14.092H73.5001ZM73.6001 15.695H77.3081V15.495H73.6001V15.695ZM77.4081 15.595V14.902H77.2081V15.595H77.4081ZM77.3081 15.002H77.7131V14.802H77.3081V15.002ZM77.6131 14.902V16H77.8131V14.902H77.6131ZM77.7131 15.9H72.0971V16.1H77.7131V15.9ZM72.1971 16V11.779H71.9971V16H72.1971ZM73.5001 12.184V13.687H73.7001V12.184H73.5001ZM73.6001 13.787H77.3081V13.587H73.6001V13.787ZM77.4081 13.687V12.184H77.2081V13.687H77.4081ZM77.3081 12.084H73.6001V12.284H77.3081V12.084ZM72.5021 15.695H73.1951V15.495H72.5021V15.695ZM73.2951 15.595V12.184H73.0951V15.595H73.2951ZM73.1951 12.084H72.5021V12.284H73.1951V12.084ZM72.4021 12.184V15.595H72.6021V12.184H72.4021ZM84.3214 11.779H84.4214V11.679H84.3214V11.779ZM84.3214 12.877V12.977H84.4214V12.877H84.3214ZM83.9165 12.877H83.8165V12.977H83.9165V12.877ZM83.9165 12.184H84.0164V12.084H83.9165V12.184ZM80.2085 12.184V12.084H80.1085V12.184H80.2085ZM80.2085 13.687H80.1085V13.787H80.2085V13.687ZM84.3214 13.687H84.4214V13.587H84.3214V13.687ZM84.3214 16V16.1H84.4214V16H84.3214ZM78.7055 16H78.6054V16.1H78.7055V16ZM78.7055 14.902V14.802H78.6054V14.902H78.7055ZM79.1105 14.902H79.2104V14.802H79.1105V14.902ZM79.1105 15.595H79.0105V15.695H79.1105V15.595ZM82.8185 15.595V15.695H82.9184V15.595H82.8185ZM82.8185 14.092H82.9184V13.992H82.8185V14.092ZM78.7055 14.092H78.6054V14.192H78.7055V14.092ZM78.7055 11.779V11.679H78.6054V11.779H78.7055ZM83.2234 14.092V13.992H83.1235V14.092H83.2234ZM83.2234 15.595H83.1235V15.695H83.2234V15.595ZM83.9165 15.595V15.695H84.0164V15.595H83.9165ZM83.9165 14.092H84.0164V13.992H83.9165V14.092ZM79.8035 12.184H79.9035V12.084H79.8035V12.184ZM79.1105 12.184V12.084H79.0105V12.184H79.1105ZM79.1105 13.687H79.0105V13.787H79.1105V13.687ZM79.8035 13.687V13.787H79.9035V13.687H79.8035ZM84.2215 11.779V12.877H84.4214V11.779H84.2215ZM84.3214 12.777H83.9165V12.977H84.3214V12.777ZM84.0164 12.877V12.184H83.8165V12.877H84.0164ZM83.9165 12.084H80.2085V12.284H83.9165V12.084ZM80.1085 12.184V13.687H80.3084V12.184H80.1085ZM80.2085 13.787H84.3214V13.587H80.2085V13.787ZM84.2215 13.687V16H84.4214V13.687H84.2215ZM84.3214 15.9H78.7055V16.1H84.3214V15.9ZM78.8055 16V14.902H78.6054V16H78.8055ZM78.7055 15.002H79.1105V14.802H78.7055V15.002ZM79.0105 14.902V15.595H79.2104V14.902H79.0105ZM79.1105 15.695H82.8185V15.495H79.1105V15.695ZM82.9184 15.595V14.092H82.7185V15.595H82.9184ZM82.8185 13.992H78.7055V14.192H82.8185V13.992ZM78.8055 14.092V11.779H78.6054V14.092H78.8055ZM78.7055 11.879H84.3214V11.679H78.7055V11.879ZM83.1235 14.092V15.595H83.3234V14.092H83.1235ZM83.2234 15.695H83.9165V15.495H83.2234V15.695ZM84.0164 15.595V14.092H83.8165V15.595H84.0164ZM83.9165 13.992H83.2234V14.192H83.9165V13.992ZM79.8035 12.084H79.1105V12.284H79.8035V12.084ZM79.0105 12.184V13.687H79.2104V12.184H79.0105ZM79.1105 13.787H79.8035V13.587H79.1105V13.787ZM79.9035 13.687V12.184H79.7034V13.687H79.9035Z" fill="black" mask="url(#path-2-outside-1_551_533)"/>
<rect x="4.5" y="36.5" width="89" height="25" rx="3.5" fill="#EACB50" stroke="#EACB50"/>
<mask id="path-5-outside-2_551_533" maskUnits="userSpaceOnUse" x="13" y="45" width="72" height="10" fill="black">
<rect fill="white" x="13" y="45" width="72" height="10"/>
<path d="M21.7032 46.15V51.595H22.5942V52H20.4072V51.595H21.2982V49.075H15.8532V51.595H16.7532V52H13.4592V51.595H14.3592V46.15H13.4592V45.745H16.7532V46.15H15.8532V48.67H21.2982V46.15H20.4072V45.745H22.5942V46.15H21.7032ZM15.4482 46.15H14.7642V51.595H15.4482V46.15ZM25.5923 51.595H26.4833V52H23.1983V51.595H24.0893V48.184H23.1983V47.779H25.5923V51.595ZM25.1873 48.184H24.4943V51.595H25.1873V48.184ZM25.6553 47.122H24.0263V45.745H25.6553V47.122ZM25.2503 46.15H24.4313V46.717H25.2503V46.15ZM32.9446 54.034H27.2026V52.936H27.6076V53.629H31.4416V52H27.2026V47.779H32.9446V54.034ZM31.4416 48.184H27.6076V51.595H31.4416V48.184ZM32.5396 48.184H31.8466V53.629H32.5396V48.184ZM41.1329 51.595V52H38.8019V51.595H39.7649V48.184H36.0569V51.595H36.9479V52H33.6629V51.595H34.5539V46.15H33.6629V45.745H36.0569V47.779H40.1699V51.595H41.1329ZM35.6519 46.15H34.9589V51.595H35.6519V46.15ZM51.4396 45.745V47.41H51.0346V46.15H45.5986V48.67H51.4396V52H44.0956V50.335H44.5006V51.595H49.9366V49.075H44.0956V45.745H51.4396ZM50.3416 49.075V51.595H51.0346V49.075H50.3416ZM45.1846 46.15H44.5006V48.67H45.1846V46.15ZM57.7525 50.902H58.1575V52H52.5415V47.779H58.1575V48.877H57.7525V48.184H54.0445V51.595H57.7525V50.902ZM53.6395 48.184H52.9465V51.595H53.6395V48.184ZM64.7581 52H59.1421V47.779H64.7581V52ZM64.3531 48.184H60.6451V51.595H64.3531V48.184ZM60.2401 48.184H59.5471V51.595H60.2401V48.184ZM65.6143 47.779H71.3383V48.868H70.9333V48.184H68.0083V51.595H68.8993V52H65.6143V51.595H66.5053V48.184H65.6143V47.779ZM67.6033 51.595V48.184H66.9103V51.595H67.6033ZM72.0971 47.779H77.7131V50.092H73.6001V51.595H77.3081V50.902H77.7131V52H72.0971V47.779ZM73.6001 48.184V49.687H77.3081V48.184H73.6001ZM72.5021 51.595H73.1951V48.184H72.5021V51.595ZM84.3214 47.779V48.877H83.9164V48.184H80.2084V49.687H84.3214V52H78.7054V50.902H79.1104V51.595H82.8184V50.092H78.7054V47.779H84.3214ZM83.2234 50.092V51.595H83.9164V50.092H83.2234ZM79.8034 48.184H79.1104V49.687H79.8034V48.184Z"/>
</mask>
<path d="M21.7032 46.15V51.595H22.5942V52H20.4072V51.595H21.2982V49.075H15.8532V51.595H16.7532V52H13.4592V51.595H14.3592V46.15H13.4592V45.745H16.7532V46.15H15.8532V48.67H21.2982V46.15H20.4072V45.745H22.5942V46.15H21.7032ZM15.4482 46.15H14.7642V51.595H15.4482V46.15ZM25.5923 51.595H26.4833V52H23.1983V51.595H24.0893V48.184H23.1983V47.779H25.5923V51.595ZM25.1873 48.184H24.4943V51.595H25.1873V48.184ZM25.6553 47.122H24.0263V45.745H25.6553V47.122ZM25.2503 46.15H24.4313V46.717H25.2503V46.15ZM32.9446 54.034H27.2026V52.936H27.6076V53.629H31.4416V52H27.2026V47.779H32.9446V54.034ZM31.4416 48.184H27.6076V51.595H31.4416V48.184ZM32.5396 48.184H31.8466V53.629H32.5396V48.184ZM41.1329 51.595V52H38.8019V51.595H39.7649V48.184H36.0569V51.595H36.9479V52H33.6629V51.595H34.5539V46.15H33.6629V45.745H36.0569V47.779H40.1699V51.595H41.1329ZM35.6519 46.15H34.9589V51.595H35.6519V46.15ZM51.4396 45.745V47.41H51.0346V46.15H45.5986V48.67H51.4396V52H44.0956V50.335H44.5006V51.595H49.9366V49.075H44.0956V45.745H51.4396ZM50.3416 49.075V51.595H51.0346V49.075H50.3416ZM45.1846 46.15H44.5006V48.67H45.1846V46.15ZM57.7525 50.902H58.1575V52H52.5415V47.779H58.1575V48.877H57.7525V48.184H54.0445V51.595H57.7525V50.902ZM53.6395 48.184H52.9465V51.595H53.6395V48.184ZM64.7581 52H59.1421V47.779H64.7581V52ZM64.3531 48.184H60.6451V51.595H64.3531V48.184ZM60.2401 48.184H59.5471V51.595H60.2401V48.184ZM65.6143 47.779H71.3383V48.868H70.9333V48.184H68.0083V51.595H68.8993V52H65.6143V51.595H66.5053V48.184H65.6143V47.779ZM67.6033 51.595V48.184H66.9103V51.595H67.6033ZM72.0971 47.779H77.7131V50.092H73.6001V51.595H77.3081V50.902H77.7131V52H72.0971V47.779ZM73.6001 48.184V49.687H77.3081V48.184H73.6001ZM72.5021 51.595H73.1951V48.184H72.5021V51.595ZM84.3214 47.779V48.877H83.9164V48.184H80.2084V49.687H84.3214V52H78.7054V50.902H79.1104V51.595H82.8184V50.092H78.7054V47.779H84.3214ZM83.2234 50.092V51.595H83.9164V50.092H83.2234ZM79.8034 48.184H79.1104V49.687H79.8034V48.184Z" fill="white"/>
<path d="M21.7032 46.15V46.05H21.6032V46.15H21.7032ZM21.7032 51.595H21.6032V51.695H21.7032V51.595ZM22.5942 51.595H22.6942V51.495H22.5942V51.595ZM22.5942 52V52.1H22.6942V52H22.5942ZM20.4072 52H20.3072V52.1H20.4072V52ZM20.4072 51.595V51.495H20.3072V51.595H20.4072ZM21.2982 51.595V51.695H21.3982V51.595H21.2982ZM21.2982 49.075H21.3982V48.975H21.2982V49.075ZM15.8532 49.075V48.975H15.7532V49.075H15.8532ZM15.8532 51.595H15.7532V51.695H15.8532V51.595ZM16.7532 51.595H16.8532V51.495H16.7532V51.595ZM16.7532 52V52.1H16.8532V52H16.7532ZM13.4592 52H13.3592V52.1H13.4592V52ZM13.4592 51.595V51.495H13.3592V51.595H13.4592ZM14.3592 51.595V51.695H14.4592V51.595H14.3592ZM14.3592 46.15H14.4592V46.05H14.3592V46.15ZM13.4592 46.15H13.3592V46.25H13.4592V46.15ZM13.4592 45.745V45.645H13.3592V45.745H13.4592ZM16.7532 45.745H16.8532V45.645H16.7532V45.745ZM16.7532 46.15V46.25H16.8532V46.15H16.7532ZM15.8532 46.15V46.05H15.7532V46.15H15.8532ZM15.8532 48.67H15.7532V48.77H15.8532V48.67ZM21.2982 48.67V48.77H21.3982V48.67H21.2982ZM21.2982 46.15H21.3982V46.05H21.2982V46.15ZM20.4072 46.15H20.3072V46.25H20.4072V46.15ZM20.4072 45.745V45.645H20.3072V45.745H20.4072ZM22.5942 45.745H22.6942V45.645H22.5942V45.745ZM22.5942 46.15V46.25H22.6942V46.15H22.5942ZM15.4482 46.15H15.5482V46.05H15.4482V46.15ZM14.7642 46.15V46.05H14.6642V46.15H14.7642ZM14.7642 51.595H14.6642V51.695H14.7642V51.595ZM15.4482 51.595V51.695H15.5482V51.595H15.4482ZM21.6032 46.15V51.595H21.8032V46.15H21.6032ZM21.7032 51.695H22.5942V51.495H21.7032V51.695ZM22.4942 51.595V52H22.6942V51.595H22.4942ZM22.5942 51.9H20.4072V52.1H22.5942V51.9ZM20.5072 52V51.595H20.3072V52H20.5072ZM20.4072 51.695H21.2982V51.495H20.4072V51.695ZM21.3982 51.595V49.075H21.1982V51.595H21.3982ZM21.2982 48.975H15.8532V49.175H21.2982V48.975ZM15.7532 49.075V51.595H15.9532V49.075H15.7532ZM15.8532 51.695H16.7532V51.495H15.8532V51.695ZM16.6532 51.595V52H16.8532V51.595H16.6532ZM16.7532 51.9H13.4592V52.1H16.7532V51.9ZM13.5592 52V51.595H13.3592V52H13.5592ZM13.4592 51.695H14.3592V51.495H13.4592V51.695ZM14.4592 51.595V46.15H14.2592V51.595H14.4592ZM14.3592 46.05H13.4592V46.25H14.3592V46.05ZM13.5592 46.15V45.745H13.3592V46.15H13.5592ZM13.4592 45.845H16.7532V45.645H13.4592V45.845ZM16.6532 45.745V46.15H16.8532V45.745H16.6532ZM16.7532 46.05H15.8532V46.25H16.7532V46.05ZM15.7532 46.15V48.67H15.9532V46.15H15.7532ZM15.8532 48.77H21.2982V48.57H15.8532V48.77ZM21.3982 48.67V46.15H21.1982V48.67H21.3982ZM21.2982 46.05H20.4072V46.25H21.2982V46.05ZM20.5072 46.15V45.745H20.3072V46.15H20.5072ZM20.4072 45.845H22.5942V45.645H20.4072V45.845ZM22.4942 45.745V46.15H22.6942V45.745H22.4942ZM22.5942 46.05H21.7032V46.25H22.5942V46.05ZM15.4482 46.05H14.7642V46.25H15.4482V46.05ZM14.6642 46.15V51.595H14.8642V46.15H14.6642ZM14.7642 51.695H15.4482V51.495H14.7642V51.695ZM15.5482 51.595V46.15H15.3482V51.595H15.5482ZM25.5923 51.595H25.4923V51.695H25.5923V51.595ZM26.4833 51.595H26.5833V51.495H26.4833V51.595ZM26.4833 52V52.1H26.5833V52H26.4833ZM23.1983 52H23.0983V52.1H23.1983V52ZM23.1983 51.595V51.495H23.0983V51.595H23.1983ZM24.0893 51.595V51.695H24.1893V51.595H24.0893ZM24.0893 48.184H24.1893V48.084H24.0893V48.184ZM23.1983 48.184H23.0983V48.284H23.1983V48.184ZM23.1983 47.779V47.679H23.0983V47.779H23.1983ZM25.5923 47.779H25.6923V47.679H25.5923V47.779ZM25.1873 48.184H25.2873V48.084H25.1873V48.184ZM24.4943 48.184V48.084H24.3943V48.184H24.4943ZM24.4943 51.595H24.3943V51.695H24.4943V51.595ZM25.1873 51.595V51.695H25.2873V51.595H25.1873ZM25.6553 47.122V47.222H25.7553V47.122H25.6553ZM24.0263 47.122H23.9263V47.222H24.0263V47.122ZM24.0263 45.745V45.645H23.9263V45.745H24.0263ZM25.6553 45.745H25.7553V45.645H25.6553V45.745ZM25.2503 46.15H25.3503V46.05H25.2503V46.15ZM24.4313 46.15V46.05H24.3313V46.15H24.4313ZM24.4313 46.717H24.3313V46.817H24.4313V46.717ZM25.2503 46.717V46.817H25.3503V46.717H25.2503ZM25.5923 51.695H26.4833V51.495H25.5923V51.695ZM26.3833 51.595V52H26.5833V51.595H26.3833ZM26.4833 51.9H23.1983V52.1H26.4833V51.9ZM23.2983 52V51.595H23.0983V52H23.2983ZM23.1983 51.695H24.0893V51.495H23.1983V51.695ZM24.1893 51.595V48.184H23.9893V51.595H24.1893ZM24.0893 48.084H23.1983V48.284H24.0893V48.084ZM23.2983 48.184V47.779H23.0983V48.184H23.2983ZM23.1983 47.879H25.5923V47.679H23.1983V47.879ZM25.4923 47.779V51.595H25.6923V47.779H25.4923ZM25.1873 48.084H24.4943V48.284H25.1873V48.084ZM24.3943 48.184V51.595H24.5943V48.184H24.3943ZM24.4943 51.695H25.1873V51.495H24.4943V51.695ZM25.2873 51.595V48.184H25.0873V51.595H25.2873ZM25.6553 47.022H24.0263V47.222H25.6553V47.022ZM24.1263 47.122V45.745H23.9263V47.122H24.1263ZM24.0263 45.845H25.6553V45.645H24.0263V45.845ZM25.5553 45.745V47.122H25.7553V45.745H25.5553ZM25.2503 46.05H24.4313V46.25H25.2503V46.05ZM24.3313 46.15V46.717H24.5313V46.15H24.3313ZM24.4313 46.817H25.2503V46.617H24.4313V46.817ZM25.3503 46.717V46.15H25.1503V46.717H25.3503ZM32.9446 54.034V54.134H33.0446V54.034H32.9446ZM27.2026 54.034H27.1026V54.134H27.2026V54.034ZM27.2026 52.936V52.836H27.1026V52.936H27.2026ZM27.6076 52.936H27.7076V52.836H27.6076V52.936ZM27.6076 53.629H27.5076V53.729H27.6076V53.629ZM31.4416 53.629V53.729H31.5416V53.629H31.4416ZM31.4416 52H31.5416V51.9H31.4416V52ZM27.2026 52H27.1026V52.1H27.2026V52ZM27.2026 47.779V47.679H27.1026V47.779H27.2026ZM32.9446 47.779H33.0446V47.679H32.9446V47.779ZM31.4416 48.184H31.5416V48.084H31.4416V48.184ZM27.6076 48.184V48.084H27.5076V48.184H27.6076ZM27.6076 51.595H27.5076V51.695H27.6076V51.595ZM31.4416 51.595V51.695H31.5416V51.595H31.4416ZM32.5396 48.184H32.6396V48.084H32.5396V48.184ZM31.8466 48.184V48.084H31.7466V48.184H31.8466ZM31.8466 53.629H31.7466V53.729H31.8466V53.629ZM32.5396 53.629V53.729H32.6396V53.629H32.5396ZM32.9446 53.934H27.2026V54.134H32.9446V53.934ZM27.3026 54.034V52.936H27.1026V54.034H27.3026ZM27.2026 53.036H27.6076V52.836H27.2026V53.036ZM27.5076 52.936V53.629H27.7076V52.936H27.5076ZM27.6076 53.729H31.4416V53.529H27.6076V53.729ZM31.5416 53.629V52H31.3416V53.629H31.5416ZM31.4416 51.9H27.2026V52.1H31.4416V51.9ZM27.3026 52V47.779H27.1026V52H27.3026ZM27.2026 47.879H32.9446V47.679H27.2026V47.879ZM32.8446 47.779V54.034H33.0446V47.779H32.8446ZM31.4416 48.084H27.6076V48.284H31.4416V48.084ZM27.5076 48.184V51.595H27.7076V48.184H27.5076ZM27.6076 51.695H31.4416V51.495H27.6076V51.695ZM31.5416 51.595V48.184H31.3416V51.595H31.5416ZM32.5396 48.084H31.8466V48.284H32.5396V48.084ZM31.7466 48.184V53.629H31.9466V48.184H31.7466ZM31.8466 53.729H32.5396V53.529H31.8466V53.729ZM32.6396 53.629V48.184H32.4396V53.629H32.6396ZM41.1329 51.595H41.2329V51.495H41.1329V51.595ZM41.1329 52V52.1H41.2329V52H41.1329ZM38.8019 52H38.7019V52.1H38.8019V52ZM38.8019 51.595V51.495H38.7019V51.595H38.8019ZM39.7649 51.595V51.695H39.8649V51.595H39.7649ZM39.7649 48.184H39.8649V48.084H39.7649V48.184ZM36.0569 48.184V48.084H35.9569V48.184H36.0569ZM36.0569 51.595H35.9569V51.695H36.0569V51.595ZM36.9479 51.595H37.0479V51.495H36.9479V51.595ZM36.9479 52V52.1H37.0479V52H36.9479ZM33.6629 52H33.5629V52.1H33.6629V52ZM33.6629 51.595V51.495H33.5629V51.595H33.6629ZM34.5539 51.595V51.695H34.6539V51.595H34.5539ZM34.5539 46.15H34.6539V46.05H34.5539V46.15ZM33.6629 46.15H33.5629V46.25H33.6629V46.15ZM33.6629 45.745V45.645H33.5629V45.745H33.6629ZM36.0569 45.745H36.1569V45.645H36.0569V45.745ZM36.0569 47.779H35.9569V47.879H36.0569V47.779ZM40.1699 47.779H40.2699V47.679H40.1699V47.779ZM40.1699 51.595H40.0699V51.695H40.1699V51.595ZM35.6519 46.15H35.7519V46.05H35.6519V46.15ZM34.9589 46.15V46.05H34.8589V46.15H34.9589ZM34.9589 51.595H34.8589V51.695H34.9589V51.595ZM35.6519 51.595V51.695H35.7519V51.595H35.6519ZM41.0329 51.595V52H41.2329V51.595H41.0329ZM41.1329 51.9H38.8019V52.1H41.1329V51.9ZM38.9019 52V51.595H38.7019V52H38.9019ZM38.8019 51.695H39.7649V51.495H38.8019V51.695ZM39.8649 51.595V48.184H39.6649V51.595H39.8649ZM39.7649 48.084H36.0569V48.284H39.7649V48.084ZM35.9569 48.184V51.595H36.1569V48.184H35.9569ZM36.0569 51.695H36.9479V51.495H36.0569V51.695ZM36.8479 51.595V52H37.0479V51.595H36.8479ZM36.9479 51.9H33.6629V52.1H36.9479V51.9ZM33.7629 52V51.595H33.5629V52H33.7629ZM33.6629 51.695H34.5539V51.495H33.6629V51.695ZM34.6539 51.595V46.15H34.4539V51.595H34.6539ZM34.5539 46.05H33.6629V46.25H34.5539V46.05ZM33.7629 46.15V45.745H33.5629V46.15H33.7629ZM33.6629 45.845H36.0569V45.645H33.6629V45.845ZM35.9569 45.745V47.779H36.1569V45.745H35.9569ZM36.0569 47.879H40.1699V47.679H36.0569V47.879ZM40.0699 47.779V51.595H40.2699V47.779H40.0699ZM40.1699 51.695H41.1329V51.495H40.1699V51.695ZM35.6519 46.05H34.9589V46.25H35.6519V46.05ZM34.8589 46.15V51.595H35.0589V46.15H34.8589ZM34.9589 51.695H35.6519V51.495H34.9589V51.695ZM35.7519 51.595V46.15H35.5519V51.595H35.7519ZM51.4396 45.745H51.5396V45.645H51.4396V45.745ZM51.4396 47.41V47.51H51.5396V47.41H51.4396ZM51.0346 47.41H50.9346V47.51H51.0346V47.41ZM51.0346 46.15H51.1346V46.05H51.0346V46.15ZM45.5986 46.15V46.05H45.4986V46.15H45.5986ZM45.5986 48.67H45.4986V48.77H45.5986V48.67ZM51.4396 48.67H51.5396V48.57H51.4396V48.67ZM51.4396 52V52.1H51.5396V52H51.4396ZM44.0956 52H43.9956V52.1H44.0956V52ZM44.0956 50.335V50.235H43.9956V50.335H44.0956ZM44.5006 50.335H44.6006V50.235H44.5006V50.335ZM44.5006 51.595H44.4006V51.695H44.5006V51.595ZM49.9366 51.595V51.695H50.0366V51.595H49.9366ZM49.9366 49.075H50.0366V48.975H49.9366V49.075ZM44.0956 49.075H43.9956V49.175H44.0956V49.075ZM44.0956 45.745V45.645H43.9956V45.745H44.0956ZM50.3416 49.075V48.975H50.2416V49.075H50.3416ZM50.3416 51.595H50.2416V51.695H50.3416V51.595ZM51.0346 51.595V51.695H51.1346V51.595H51.0346ZM51.0346 49.075H51.1346V48.975H51.0346V49.075ZM45.1846 46.15H45.2846V46.05H45.1846V46.15ZM44.5006 46.15V46.05H44.4006V46.15H44.5006ZM44.5006 48.67H44.4006V48.77H44.5006V48.67ZM45.1846 48.67V48.77H45.2846V48.67H45.1846ZM51.3396 45.745V47.41H51.5396V45.745H51.3396ZM51.4396 47.31H51.0346V47.51H51.4396V47.31ZM51.1346 47.41V46.15H50.9346V47.41H51.1346ZM51.0346 46.05H45.5986V46.25H51.0346V46.05ZM45.4986 46.15V48.67H45.6986V46.15H45.4986ZM45.5986 48.77H51.4396V48.57H45.5986V48.77ZM51.3396 48.67V52H51.5396V48.67H51.3396ZM51.4396 51.9H44.0956V52.1H51.4396V51.9ZM44.1956 52V50.335H43.9956V52H44.1956ZM44.0956 50.435H44.5006V50.235H44.0956V50.435ZM44.4006 50.335V51.595H44.6006V50.335H44.4006ZM44.5006 51.695H49.9366V51.495H44.5006V51.695ZM50.0366 51.595V49.075H49.8366V51.595H50.0366ZM49.9366 48.975H44.0956V49.175H49.9366V48.975ZM44.1956 49.075V45.745H43.9956V49.075H44.1956ZM44.0956 45.845H51.4396V45.645H44.0956V45.845ZM50.2416 49.075V51.595H50.4416V49.075H50.2416ZM50.3416 51.695H51.0346V51.495H50.3416V51.695ZM51.1346 51.595V49.075H50.9346V51.595H51.1346ZM51.0346 48.975H50.3416V49.175H51.0346V48.975ZM45.1846 46.05H44.5006V46.25H45.1846V46.05ZM44.4006 46.15V48.67H44.6006V46.15H44.4006ZM44.5006 48.77H45.1846V48.57H44.5006V48.77ZM45.2846 48.67V46.15H45.0846V48.67H45.2846ZM57.7525 50.902V50.802H57.6525V50.902H57.7525ZM58.1575 50.902H58.2575V50.802H58.1575V50.902ZM58.1575 52V52.1H58.2575V52H58.1575ZM52.5415 52H52.4415V52.1H52.5415V52ZM52.5415 47.779V47.679H52.4415V47.779H52.5415ZM58.1575 47.779H58.2575V47.679H58.1575V47.779ZM58.1575 48.877V48.977H58.2575V48.877H58.1575ZM57.7525 48.877H57.6525V48.977H57.7525V48.877ZM57.7525 48.184H57.8525V48.084H57.7525V48.184ZM54.0445 48.184V48.084H53.9445V48.184H54.0445ZM54.0445 51.595H53.9445V51.695H54.0445V51.595ZM57.7525 51.595V51.695H57.8525V51.595H57.7525ZM53.6395 48.184H53.7395V48.084H53.6395V48.184ZM52.9465 48.184V48.084H52.8465V48.184H52.9465ZM52.9465 51.595H52.8465V51.695H52.9465V51.595ZM53.6395 51.595V51.695H53.7395V51.595H53.6395ZM57.7525 51.002H58.1575V50.802H57.7525V51.002ZM58.0575 50.902V52H58.2575V50.902H58.0575ZM58.1575 51.9H52.5415V52.1H58.1575V51.9ZM52.6415 52V47.779H52.4415V52H52.6415ZM52.5415 47.879H58.1575V47.679H52.5415V47.879ZM58.0575 47.779V48.877H58.2575V47.779H58.0575ZM58.1575 48.777H57.7525V48.977H58.1575V48.777ZM57.8525 48.877V48.184H57.6525V48.877H57.8525ZM57.7525 48.084H54.0445V48.284H57.7525V48.084ZM53.9445 48.184V51.595H54.1445V48.184H53.9445ZM54.0445 51.695H57.7525V51.495H54.0445V51.695ZM57.8525 51.595V50.902H57.6525V51.595H57.8525ZM53.6395 48.084H52.9465V48.284H53.6395V48.084ZM52.8465 48.184V51.595H53.0465V48.184H52.8465ZM52.9465 51.695H53.6395V51.495H52.9465V51.695ZM53.7395 51.595V48.184H53.5395V51.595H53.7395ZM64.758 52V52.1H64.8581V52H64.758ZM59.1421 52H59.042V52.1H59.1421V52ZM59.1421 47.779V47.679H59.042V47.779H59.1421ZM64.758 47.779H64.8581V47.679H64.758V47.779ZM64.3531 48.184H64.4531V48.084H64.3531V48.184ZM60.6451 48.184V48.084H60.5451V48.184H60.6451ZM60.6451 51.595H60.5451V51.695H60.6451V51.595ZM64.3531 51.595V51.695H64.4531V51.595H64.3531ZM60.2401 48.184H60.34V48.084H60.2401V48.184ZM59.5471 48.184V48.084H59.4471V48.184H59.5471ZM59.5471 51.595H59.4471V51.695H59.5471V51.595ZM60.2401 51.595V51.695H60.34V51.595H60.2401ZM64.758 51.9H59.1421V52.1H64.758V51.9ZM59.2421 52V47.779H59.042V52H59.2421ZM59.1421 47.879H64.758V47.679H59.1421V47.879ZM64.6581 47.779V52H64.8581V47.779H64.6581ZM64.3531 48.084H60.6451V48.284H64.3531V48.084ZM60.5451 48.184V51.595H60.7451V48.184H60.5451ZM60.6451 51.695H64.3531V51.495H60.6451V51.695ZM64.4531 51.595V48.184H64.2531V51.595H64.4531ZM60.2401 48.084H59.5471V48.284H60.2401V48.084ZM59.4471 48.184V51.595H59.647V48.184H59.4471ZM59.5471 51.695H60.2401V51.495H59.5471V51.695ZM60.34 51.595V48.184H60.14V51.595H60.34ZM65.6143 47.779V47.679H65.5143V47.779H65.6143ZM71.3383 47.779H71.4383V47.679H71.3383V47.779ZM71.3383 48.868V48.968H71.4383V48.868H71.3383ZM70.9333 48.868H70.8333V48.968H70.9333V48.868ZM70.9333 48.184H71.0333V48.084H70.9333V48.184ZM68.0083 48.184V48.084H67.9083V48.184H68.0083ZM68.0083 51.595H67.9083V51.695H68.0083V51.595ZM68.8993 51.595H68.9993V51.495H68.8993V51.595ZM68.8993 52V52.1H68.9993V52H68.8993ZM65.6143 52H65.5143V52.1H65.6143V52ZM65.6143 51.595V51.495H65.5143V51.595H65.6143ZM66.5053 51.595V51.695H66.6053V51.595H66.5053ZM66.5053 48.184H66.6053V48.084H66.5053V48.184ZM65.6143 48.184H65.5143V48.284H65.6143V48.184ZM67.6033 51.595V51.695H67.7033V51.595H67.6033ZM67.6033 48.184H67.7033V48.084H67.6033V48.184ZM66.9103 48.184V48.084H66.8103V48.184H66.9103ZM66.9103 51.595H66.8103V51.695H66.9103V51.595ZM65.6143 47.879H71.3383V47.679H65.6143V47.879ZM71.2383 47.779V48.868H71.4383V47.779H71.2383ZM71.3383 48.768H70.9333V48.968H71.3383V48.768ZM71.0333 48.868V48.184H70.8333V48.868H71.0333ZM70.9333 48.084H68.0083V48.284H70.9333V48.084ZM67.9083 48.184V51.595H68.1083V48.184H67.9083ZM68.0083 51.695H68.8993V51.495H68.0083V51.695ZM68.7993 51.595V52H68.9993V51.595H68.7993ZM68.8993 51.9H65.6143V52.1H68.8993V51.9ZM65.7143 52V51.595H65.5143V52H65.7143ZM65.6143 51.695H66.5053V51.495H65.6143V51.695ZM66.6053 51.595V48.184H66.4053V51.595H66.6053ZM66.5053 48.084H65.6143V48.284H66.5053V48.084ZM65.7143 48.184V47.779H65.5143V48.184H65.7143ZM67.7033 51.595V48.184H67.5033V51.595H67.7033ZM67.6033 48.084H66.9103V48.284H67.6033V48.084ZM66.8103 48.184V51.595H67.0103V48.184H66.8103ZM66.9103 51.695H67.6033V51.495H66.9103V51.695ZM72.0971 47.779V47.679H71.9971V47.779H72.0971ZM77.7131 47.779H77.8131V47.679H77.7131V47.779ZM77.7131 50.092V50.192H77.8131V50.092H77.7131ZM73.6001 50.092V49.992H73.5001V50.092H73.6001ZM73.6001 51.595H73.5001V51.695H73.6001V51.595ZM77.3081 51.595V51.695H77.4081V51.595H77.3081ZM77.3081 50.902V50.802H77.2081V50.902H77.3081ZM77.7131 50.902H77.8131V50.802H77.7131V50.902ZM77.7131 52V52.1H77.8131V52H77.7131ZM72.0971 52H71.9971V52.1H72.0971V52ZM73.6001 48.184V48.084H73.5001V48.184H73.6001ZM73.6001 49.687H73.5001V49.787H73.6001V49.687ZM77.3081 49.687V49.787H77.4081V49.687H77.3081ZM77.3081 48.184H77.4081V48.084H77.3081V48.184ZM72.5021 51.595H72.4021V51.695H72.5021V51.595ZM73.1951 51.595V51.695H73.2951V51.595H73.1951ZM73.1951 48.184H73.2951V48.084H73.1951V48.184ZM72.5021 48.184V48.084H72.4021V48.184H72.5021ZM72.0971 47.879H77.7131V47.679H72.0971V47.879ZM77.6131 47.779V50.092H77.8131V47.779H77.6131ZM77.7131 49.992H73.6001V50.192H77.7131V49.992ZM73.5001 50.092V51.595H73.7001V50.092H73.5001ZM73.6001 51.695H77.3081V51.495H73.6001V51.695ZM77.4081 51.595V50.902H77.2081V51.595H77.4081ZM77.3081 51.002H77.7131V50.802H77.3081V51.002ZM77.6131 50.902V52H77.8131V50.902H77.6131ZM77.7131 51.9H72.0971V52.1H77.7131V51.9ZM72.1971 52V47.779H71.9971V52H72.1971ZM73.5001 48.184V49.687H73.7001V48.184H73.5001ZM73.6001 49.787H77.3081V49.587H73.6001V49.787ZM77.4081 49.687V48.184H77.2081V49.687H77.4081ZM77.3081 48.084H73.6001V48.284H77.3081V48.084ZM72.5021 51.695H73.1951V51.495H72.5021V51.695ZM73.2951 51.595V48.184H73.0951V51.595H73.2951ZM73.1951 48.084H72.5021V48.284H73.1951V48.084ZM72.4021 48.184V51.595H72.6021V48.184H72.4021ZM84.3214 47.779H84.4214V47.679H84.3214V47.779ZM84.3214 48.877V48.977H84.4214V48.877H84.3214ZM83.9165 48.877H83.8165V48.977H83.9165V48.877ZM83.9165 48.184H84.0164V48.084H83.9165V48.184ZM80.2085 48.184V48.084H80.1085V48.184H80.2085ZM80.2085 49.687H80.1085V49.787H80.2085V49.687ZM84.3214 49.687H84.4214V49.587H84.3214V49.687ZM84.3214 52V52.1H84.4214V52H84.3214ZM78.7055 52H78.6054V52.1H78.7055V52ZM78.7055 50.902V50.802H78.6054V50.902H78.7055ZM79.1105 50.902H79.2104V50.802H79.1105V50.902ZM79.1105 51.595H79.0105V51.695H79.1105V51.595ZM82.8185 51.595V51.695H82.9184V51.595H82.8185ZM82.8185 50.092H82.9184V49.992H82.8185V50.092ZM78.7055 50.092H78.6054V50.192H78.7055V50.092ZM78.7055 47.779V47.679H78.6054V47.779H78.7055ZM83.2234 50.092V49.992H83.1235V50.092H83.2234ZM83.2234 51.595H83.1235V51.695H83.2234V51.595ZM83.9165 51.595V51.695H84.0164V51.595H83.9165ZM83.9165 50.092H84.0164V49.992H83.9165V50.092ZM79.8035 48.184H79.9035V48.084H79.8035V48.184ZM79.1105 48.184V48.084H79.0105V48.184H79.1105ZM79.1105 49.687H79.0105V49.787H79.1105V49.687ZM79.8035 49.687V49.787H79.9035V49.687H79.8035ZM84.2215 47.779V48.877H84.4214V47.779H84.2215ZM84.3214 48.777H83.9165V48.977H84.3214V48.777ZM84.0164 48.877V48.184H83.8165V48.877H84.0164ZM83.9165 48.084H80.2085V48.284H83.9165V48.084ZM80.1085 48.184V49.687H80.3084V48.184H80.1085ZM80.2085 49.787H84.3214V49.587H80.2085V49.787ZM84.2215 49.687V52H84.4214V49.687H84.2215ZM84.3214 51.9H78.7055V52.1H84.3214V51.9ZM78.8055 52V50.902H78.6054V52H78.8055ZM78.7055 51.002H79.1105V50.802H78.7055V51.002ZM79.0105 50.902V51.595H79.2104V50.902H79.0105ZM79.1105 51.695H82.8185V51.495H79.1105V51.695ZM82.9184 51.595V50.092H82.7185V51.595H82.9184ZM82.8185 49.992H78.7055V50.192H82.8185V49.992ZM78.8055 50.092V47.779H78.6054V50.092H78.8055ZM78.7055 47.879H84.3214V47.679H78.7055V47.879ZM83.1235 50.092V51.595H83.3234V50.092H83.1235ZM83.2234 51.695H83.9165V51.495H83.2234V51.695ZM84.0164 51.595V50.092H83.8165V51.595H84.0164ZM83.9165 49.992H83.2234V50.192H83.9165V49.992ZM79.8035 48.084H79.1105V48.284H79.8035V48.084ZM79.0105 48.184V49.687H79.2104V48.184H79.0105ZM79.1105 49.787H79.8035V49.587H79.1105V49.787ZM79.9035 49.687V48.184H79.7034V49.687H79.9035Z" fill="white" mask="url(#path-5-outside-2_551_533)"/>
<rect x="4.5" y="72.5" width="89" height="25" rx="3.5" fill="white" stroke="#EACB50"/>
<mask id="path-8-outside-3_551_533" maskUnits="userSpaceOnUse" x="13" y="81" width="72" height="10" fill="black">
<rect fill="white" x="13" y="81" width="72" height="10"/>
<path d="M21.7032 82.15V87.595H22.5942V88H20.4072V87.595H21.2982V85.075H15.8532V87.595H16.7532V88H13.4592V87.595H14.3592V82.15H13.4592V81.745H16.7532V82.15H15.8532V84.67H21.2982V82.15H20.4072V81.745H22.5942V82.15H21.7032ZM15.4482 82.15H14.7642V87.595H15.4482V82.15ZM25.5923 87.595H26.4833V88H23.1983V87.595H24.0893V84.184H23.1983V83.779H25.5923V87.595ZM25.1873 84.184H24.4943V87.595H25.1873V84.184ZM25.6553 83.122H24.0263V81.745H25.6553V83.122ZM25.2503 82.15H24.4313V82.717H25.2503V82.15ZM32.9446 90.034H27.2026V88.936H27.6076V89.629H31.4416V88H27.2026V83.779H32.9446V90.034ZM31.4416 84.184H27.6076V87.595H31.4416V84.184ZM32.5396 84.184H31.8466V89.629H32.5396V84.184ZM41.1329 87.595V88H38.8019V87.595H39.7649V84.184H36.0569V87.595H36.9479V88H33.6629V87.595H34.5539V82.15H33.6629V81.745H36.0569V83.779H40.1699V87.595H41.1329ZM35.6519 82.15H34.9589V87.595H35.6519V82.15ZM51.4396 81.745V83.41H51.0346V82.15H45.5986V84.67H51.4396V88H44.0956V86.335H44.5006V87.595H49.9366V85.075H44.0956V81.745H51.4396ZM50.3416 85.075V87.595H51.0346V85.075H50.3416ZM45.1846 82.15H44.5006V84.67H45.1846V82.15ZM57.7525 86.902H58.1575V88H52.5415V83.779H58.1575V84.877H57.7525V84.184H54.0445V87.595H57.7525V86.902ZM53.6395 84.184H52.9465V87.595H53.6395V84.184ZM64.7581 88H59.1421V83.779H64.7581V88ZM64.3531 84.184H60.6451V87.595H64.3531V84.184ZM60.2401 84.184H59.5471V87.595H60.2401V84.184ZM65.6143 83.779H71.3383V84.868H70.9333V84.184H68.0083V87.595H68.8993V88H65.6143V87.595H66.5053V84.184H65.6143V83.779ZM67.6033 87.595V84.184H66.9103V87.595H67.6033ZM72.0971 83.779H77.7131V86.092H73.6001V87.595H77.3081V86.902H77.7131V88H72.0971V83.779ZM73.6001 84.184V85.687H77.3081V84.184H73.6001ZM72.5021 87.595H73.1951V84.184H72.5021V87.595ZM84.3214 83.779V84.877H83.9164V84.184H80.2084V85.687H84.3214V88H78.7054V86.902H79.1104V87.595H82.8184V86.092H78.7054V83.779H84.3214ZM83.2234 86.092V87.595H83.9164V86.092H83.2234ZM79.8034 84.184H79.1104V85.687H79.8034V84.184Z"/>
</mask>
<path d="M21.7032 82.15V87.595H22.5942V88H20.4072V87.595H21.2982V85.075H15.8532V87.595H16.7532V88H13.4592V87.595H14.3592V82.15H13.4592V81.745H16.7532V82.15H15.8532V84.67H21.2982V82.15H20.4072V81.745H22.5942V82.15H21.7032ZM15.4482 82.15H14.7642V87.595H15.4482V82.15ZM25.5923 87.595H26.4833V88H23.1983V87.595H24.0893V84.184H23.1983V83.779H25.5923V87.595ZM25.1873 84.184H24.4943V87.595H25.1873V84.184ZM25.6553 83.122H24.0263V81.745H25.6553V83.122ZM25.2503 82.15H24.4313V82.717H25.2503V82.15ZM32.9446 90.034H27.2026V88.936H27.6076V89.629H31.4416V88H27.2026V83.779H32.9446V90.034ZM31.4416 84.184H27.6076V87.595H31.4416V84.184ZM32.5396 84.184H31.8466V89.629H32.5396V84.184ZM41.1329 87.595V88H38.8019V87.595H39.7649V84.184H36.0569V87.595H36.9479V88H33.6629V87.595H34.5539V82.15H33.6629V81.745H36.0569V83.779H40.1699V87.595H41.1329ZM35.6519 82.15H34.9589V87.595H35.6519V82.15ZM51.4396 81.745V83.41H51.0346V82.15H45.5986V84.67H51.4396V88H44.0956V86.335H44.5006V87.595H49.9366V85.075H44.0956V81.745H51.4396ZM50.3416 85.075V87.595H51.0346V85.075H50.3416ZM45.1846 82.15H44.5006V84.67H45.1846V82.15ZM57.7525 86.902H58.1575V88H52.5415V83.779H58.1575V84.877H57.7525V84.184H54.0445V87.595H57.7525V86.902ZM53.6395 84.184H52.9465V87.595H53.6395V84.184ZM64.7581 88H59.1421V83.779H64.7581V88ZM64.3531 84.184H60.6451V87.595H64.3531V84.184ZM60.2401 84.184H59.5471V87.595H60.2401V84.184ZM65.6143 83.779H71.3383V84.868H70.9333V84.184H68.0083V87.595H68.8993V88H65.6143V87.595H66.5053V84.184H65.6143V83.779ZM67.6033 87.595V84.184H66.9103V87.595H67.6033ZM72.0971 83.779H77.7131V86.092H73.6001V87.595H77.3081V86.902H77.7131V88H72.0971V83.779ZM73.6001 84.184V85.687H77.3081V84.184H73.6001ZM72.5021 87.595H73.1951V84.184H72.5021V87.595ZM84.3214 83.779V84.877H83.9164V84.184H80.2084V85.687H84.3214V88H78.7054V86.902H79.1104V87.595H82.8184V86.092H78.7054V83.779H84.3214ZM83.2234 86.092V87.595H83.9164V86.092H83.2234ZM79.8034 84.184H79.1104V85.687H79.8034V84.184Z" fill="black"/>
<path d="M21.7032 82.15V82.05H21.6032V82.15H21.7032ZM21.7032 87.595H21.6032V87.695H21.7032V87.595ZM22.5942 87.595H22.6942V87.495H22.5942V87.595ZM22.5942 88V88.1H22.6942V88H22.5942ZM20.4072 88H20.3072V88.1H20.4072V88ZM20.4072 87.595V87.495H20.3072V87.595H20.4072ZM21.2982 87.595V87.695H21.3982V87.595H21.2982ZM21.2982 85.075H21.3982V84.975H21.2982V85.075ZM15.8532 85.075V84.975H15.7532V85.075H15.8532ZM15.8532 87.595H15.7532V87.695H15.8532V87.595ZM16.7532 87.595H16.8532V87.495H16.7532V87.595ZM16.7532 88V88.1H16.8532V88H16.7532ZM13.4592 88H13.3592V88.1H13.4592V88ZM13.4592 87.595V87.495H13.3592V87.595H13.4592ZM14.3592 87.595V87.695H14.4592V87.595H14.3592ZM14.3592 82.15H14.4592V82.05H14.3592V82.15ZM13.4592 82.15H13.3592V82.25H13.4592V82.15ZM13.4592 81.745V81.645H13.3592V81.745H13.4592ZM16.7532 81.745H16.8532V81.645H16.7532V81.745ZM16.7532 82.15V82.25H16.8532V82.15H16.7532ZM15.8532 82.15V82.05H15.7532V82.15H15.8532ZM15.8532 84.67H15.7532V84.77H15.8532V84.67ZM21.2982 84.67V84.77H21.3982V84.67H21.2982ZM21.2982 82.15H21.3982V82.05H21.2982V82.15ZM20.4072 82.15H20.3072V82.25H20.4072V82.15ZM20.4072 81.745V81.645H20.3072V81.745H20.4072ZM22.5942 81.745H22.6942V81.645H22.5942V81.745ZM22.5942 82.15V82.25H22.6942V82.15H22.5942ZM15.4482 82.15H15.5482V82.05H15.4482V82.15ZM14.7642 82.15V82.05H14.6642V82.15H14.7642ZM14.7642 87.595H14.6642V87.695H14.7642V87.595ZM15.4482 87.595V87.695H15.5482V87.595H15.4482ZM21.6032 82.15V87.595H21.8032V82.15H21.6032ZM21.7032 87.695H22.5942V87.495H21.7032V87.695ZM22.4942 87.595V88H22.6942V87.595H22.4942ZM22.5942 87.9H20.4072V88.1H22.5942V87.9ZM20.5072 88V87.595H20.3072V88H20.5072ZM20.4072 87.695H21.2982V87.495H20.4072V87.695ZM21.3982 87.595V85.075H21.1982V87.595H21.3982ZM21.2982 84.975H15.8532V85.175H21.2982V84.975ZM15.7532 85.075V87.595H15.9532V85.075H15.7532ZM15.8532 87.695H16.7532V87.495H15.8532V87.695ZM16.6532 87.595V88H16.8532V87.595H16.6532ZM16.7532 87.9H13.4592V88.1H16.7532V87.9ZM13.5592 88V87.595H13.3592V88H13.5592ZM13.4592 87.695H14.3592V87.495H13.4592V87.695ZM14.4592 87.595V82.15H14.2592V87.595H14.4592ZM14.3592 82.05H13.4592V82.25H14.3592V82.05ZM13.5592 82.15V81.745H13.3592V82.15H13.5592ZM13.4592 81.845H16.7532V81.645H13.4592V81.845ZM16.6532 81.745V82.15H16.8532V81.745H16.6532ZM16.7532 82.05H15.8532V82.25H16.7532V82.05ZM15.7532 82.15V84.67H15.9532V82.15H15.7532ZM15.8532 84.77H21.2982V84.57H15.8532V84.77ZM21.3982 84.67V82.15H21.1982V84.67H21.3982ZM21.2982 82.05H20.4072V82.25H21.2982V82.05ZM20.5072 82.15V81.745H20.3072V82.15H20.5072ZM20.4072 81.845H22.5942V81.645H20.4072V81.845ZM22.4942 81.745V82.15H22.6942V81.745H22.4942ZM22.5942 82.05H21.7032V82.25H22.5942V82.05ZM15.4482 82.05H14.7642V82.25H15.4482V82.05ZM14.6642 82.15V87.595H14.8642V82.15H14.6642ZM14.7642 87.695H15.4482V87.495H14.7642V87.695ZM15.5482 87.595V82.15H15.3482V87.595H15.5482ZM25.5923 87.595H25.4923V87.695H25.5923V87.595ZM26.4833 87.595H26.5833V87.495H26.4833V87.595ZM26.4833 88V88.1H26.5833V88H26.4833ZM23.1983 88H23.0983V88.1H23.1983V88ZM23.1983 87.595V87.495H23.0983V87.595H23.1983ZM24.0893 87.595V87.695H24.1893V87.595H24.0893ZM24.0893 84.184H24.1893V84.084H24.0893V84.184ZM23.1983 84.184H23.0983V84.284H23.1983V84.184ZM23.1983 83.779V83.679H23.0983V83.779H23.1983ZM25.5923 83.779H25.6923V83.679H25.5923V83.779ZM25.1873 84.184H25.2873V84.084H25.1873V84.184ZM24.4943 84.184V84.084H24.3943V84.184H24.4943ZM24.4943 87.595H24.3943V87.695H24.4943V87.595ZM25.1873 87.595V87.695H25.2873V87.595H25.1873ZM25.6553 83.122V83.222H25.7553V83.122H25.6553ZM24.0263 83.122H23.9263V83.222H24.0263V83.122ZM24.0263 81.745V81.645H23.9263V81.745H24.0263ZM25.6553 81.745H25.7553V81.645H25.6553V81.745ZM25.2503 82.15H25.3503V82.05H25.2503V82.15ZM24.4313 82.15V82.05H24.3313V82.15H24.4313ZM24.4313 82.717H24.3313V82.817H24.4313V82.717ZM25.2503 82.717V82.817H25.3503V82.717H25.2503ZM25.5923 87.695H26.4833V87.495H25.5923V87.695ZM26.3833 87.595V88H26.5833V87.595H26.3833ZM26.4833 87.9H23.1983V88.1H26.4833V87.9ZM23.2983 88V87.595H23.0983V88H23.2983ZM23.1983 87.695H24.0893V87.495H23.1983V87.695ZM24.1893 87.595V84.184H23.9893V87.595H24.1893ZM24.0893 84.084H23.1983V84.284H24.0893V84.084ZM23.2983 84.184V83.779H23.0983V84.184H23.2983ZM23.1983 83.879H25.5923V83.679H23.1983V83.879ZM25.4923 83.779V87.595H25.6923V83.779H25.4923ZM25.1873 84.084H24.4943V84.284H25.1873V84.084ZM24.3943 84.184V87.595H24.5943V84.184H24.3943ZM24.4943 87.695H25.1873V87.495H24.4943V87.695ZM25.2873 87.595V84.184H25.0873V87.595H25.2873ZM25.6553 83.022H24.0263V83.222H25.6553V83.022ZM24.1263 83.122V81.745H23.9263V83.122H24.1263ZM24.0263 81.845H25.6553V81.645H24.0263V81.845ZM25.5553 81.745V83.122H25.7553V81.745H25.5553ZM25.2503 82.05H24.4313V82.25H25.2503V82.05ZM24.3313 82.15V82.717H24.5313V82.15H24.3313ZM24.4313 82.817H25.2503V82.617H24.4313V82.817ZM25.3503 82.717V82.15H25.1503V82.717H25.3503ZM32.9446 90.034V90.134H33.0446V90.034H32.9446ZM27.2026 90.034H27.1026V90.134H27.2026V90.034ZM27.2026 88.936V88.836H27.1026V88.936H27.2026ZM27.6076 88.936H27.7076V88.836H27.6076V88.936ZM27.6076 89.629H27.5076V89.729H27.6076V89.629ZM31.4416 89.629V89.729H31.5416V89.629H31.4416ZM31.4416 88H31.5416V87.9H31.4416V88ZM27.2026 88H27.1026V88.1H27.2026V88ZM27.2026 83.779V83.679H27.1026V83.779H27.2026ZM32.9446 83.779H33.0446V83.679H32.9446V83.779ZM31.4416 84.184H31.5416V84.084H31.4416V84.184ZM27.6076 84.184V84.084H27.5076V84.184H27.6076ZM27.6076 87.595H27.5076V87.695H27.6076V87.595ZM31.4416 87.595V87.695H31.5416V87.595H31.4416ZM32.5396 84.184H32.6396V84.084H32.5396V84.184ZM31.8466 84.184V84.084H31.7466V84.184H31.8466ZM31.8466 89.629H31.7466V89.729H31.8466V89.629ZM32.5396 89.629V89.729H32.6396V89.629H32.5396ZM32.9446 89.934H27.2026V90.134H32.9446V89.934ZM27.3026 90.034V88.936H27.1026V90.034H27.3026ZM27.2026 89.036H27.6076V88.836H27.2026V89.036ZM27.5076 88.936V89.629H27.7076V88.936H27.5076ZM27.6076 89.729H31.4416V89.529H27.6076V89.729ZM31.5416 89.629V88H31.3416V89.629H31.5416ZM31.4416 87.9H27.2026V88.1H31.4416V87.9ZM27.3026 88V83.779H27.1026V88H27.3026ZM27.2026 83.879H32.9446V83.679H27.2026V83.879ZM32.8446 83.779V90.034H33.0446V83.779H32.8446ZM31.4416 84.084H27.6076V84.284H31.4416V84.084ZM27.5076 84.184V87.595H27.7076V84.184H27.5076ZM27.6076 87.695H31.4416V87.495H27.6076V87.695ZM31.5416 87.595V84.184H31.3416V87.595H31.5416ZM32.5396 84.084H31.8466V84.284H32.5396V84.084ZM31.7466 84.184V89.629H31.9466V84.184H31.7466ZM31.8466 89.729H32.5396V89.529H31.8466V89.729ZM32.6396 89.629V84.184H32.4396V89.629H32.6396ZM41.1329 87.595H41.2329V87.495H41.1329V87.595ZM41.1329 88V88.1H41.2329V88H41.1329ZM38.8019 88H38.7019V88.1H38.8019V88ZM38.8019 87.595V87.495H38.7019V87.595H38.8019ZM39.7649 87.595V87.695H39.8649V87.595H39.7649ZM39.7649 84.184H39.8649V84.084H39.7649V84.184ZM36.0569 84.184V84.084H35.9569V84.184H36.0569ZM36.0569 87.595H35.9569V87.695H36.0569V87.595ZM36.9479 87.595H37.0479V87.495H36.9479V87.595ZM36.9479 88V88.1H37.0479V88H36.9479ZM33.6629 88H33.5629V88.1H33.6629V88ZM33.6629 87.595V87.495H33.5629V87.595H33.6629ZM34.5539 87.595V87.695H34.6539V87.595H34.5539ZM34.5539 82.15H34.6539V82.05H34.5539V82.15ZM33.6629 82.15H33.5629V82.25H33.6629V82.15ZM33.6629 81.745V81.645H33.5629V81.745H33.6629ZM36.0569 81.745H36.1569V81.645H36.0569V81.745ZM36.0569 83.779H35.9569V83.879H36.0569V83.779ZM40.1699 83.779H40.2699V83.679H40.1699V83.779ZM40.1699 87.595H40.0699V87.695H40.1699V87.595ZM35.6519 82.15H35.7519V82.05H35.6519V82.15ZM34.9589 82.15V82.05H34.8589V82.15H34.9589ZM34.9589 87.595H34.8589V87.695H34.9589V87.595ZM35.6519 87.595V87.695H35.7519V87.595H35.6519ZM41.0329 87.595V88H41.2329V87.595H41.0329ZM41.1329 87.9H38.8019V88.1H41.1329V87.9ZM38.9019 88V87.595H38.7019V88H38.9019ZM38.8019 87.695H39.7649V87.495H38.8019V87.695ZM39.8649 87.595V84.184H39.6649V87.595H39.8649ZM39.7649 84.084H36.0569V84.284H39.7649V84.084ZM35.9569 84.184V87.595H36.1569V84.184H35.9569ZM36.0569 87.695H36.9479V87.495H36.0569V87.695ZM36.8479 87.595V88H37.0479V87.595H36.8479ZM36.9479 87.9H33.6629V88.1H36.9479V87.9ZM33.7629 88V87.595H33.5629V88H33.7629ZM33.6629 87.695H34.5539V87.495H33.6629V87.695ZM34.6539 87.595V82.15H34.4539V87.595H34.6539ZM34.5539 82.05H33.6629V82.25H34.5539V82.05ZM33.7629 82.15V81.745H33.5629V82.15H33.7629ZM33.6629 81.845H36.0569V81.645H33.6629V81.845ZM35.9569 81.745V83.779H36.1569V81.745H35.9569ZM36.0569 83.879H40.1699V83.679H36.0569V83.879ZM40.0699 83.779V87.595H40.2699V83.779H40.0699ZM40.1699 87.695H41.1329V87.495H40.1699V87.695ZM35.6519 82.05H34.9589V82.25H35.6519V82.05ZM34.8589 82.15V87.595H35.0589V82.15H34.8589ZM34.9589 87.695H35.6519V87.495H34.9589V87.695ZM35.7519 87.595V82.15H35.5519V87.595H35.7519ZM51.4396 81.745H51.5396V81.645H51.4396V81.745ZM51.4396 83.41V83.51H51.5396V83.41H51.4396ZM51.0346 83.41H50.9346V83.51H51.0346V83.41ZM51.0346 82.15H51.1346V82.05H51.0346V82.15ZM45.5986 82.15V82.05H45.4986V82.15H45.5986ZM45.5986 84.67H45.4986V84.77H45.5986V84.67ZM51.4396 84.67H51.5396V84.57H51.4396V84.67ZM51.4396 88V88.1H51.5396V88H51.4396ZM44.0956 88H43.9956V88.1H44.0956V88ZM44.0956 86.335V86.235H43.9956V86.335H44.0956ZM44.5006 86.335H44.6006V86.235H44.5006V86.335ZM44.5006 87.595H44.4006V87.695H44.5006V87.595ZM49.9366 87.595V87.695H50.0366V87.595H49.9366ZM49.9366 85.075H50.0366V84.975H49.9366V85.075ZM44.0956 85.075H43.9956V85.175H44.0956V85.075ZM44.0956 81.745V81.645H43.9956V81.745H44.0956ZM50.3416 85.075V84.975H50.2416V85.075H50.3416ZM50.3416 87.595H50.2416V87.695H50.3416V87.595ZM51.0346 87.595V87.695H51.1346V87.595H51.0346ZM51.0346 85.075H51.1346V84.975H51.0346V85.075ZM45.1846 82.15H45.2846V82.05H45.1846V82.15ZM44.5006 82.15V82.05H44.4006V82.15H44.5006ZM44.5006 84.67H44.4006V84.77H44.5006V84.67ZM45.1846 84.67V84.77H45.2846V84.67H45.1846ZM51.3396 81.745V83.41H51.5396V81.745H51.3396ZM51.4396 83.31H51.0346V83.51H51.4396V83.31ZM51.1346 83.41V82.15H50.9346V83.41H51.1346ZM51.0346 82.05H45.5986V82.25H51.0346V82.05ZM45.4986 82.15V84.67H45.6986V82.15H45.4986ZM45.5986 84.77H51.4396V84.57H45.5986V84.77ZM51.3396 84.67V88H51.5396V84.67H51.3396ZM51.4396 87.9H44.0956V88.1H51.4396V87.9ZM44.1956 88V86.335H43.9956V88H44.1956ZM44.0956 86.435H44.5006V86.235H44.0956V86.435ZM44.4006 86.335V87.595H44.6006V86.335H44.4006ZM44.5006 87.695H49.9366V87.495H44.5006V87.695ZM50.0366 87.595V85.075H49.8366V87.595H50.0366ZM49.9366 84.975H44.0956V85.175H49.9366V84.975ZM44.1956 85.075V81.745H43.9956V85.075H44.1956ZM44.0956 81.845H51.4396V81.645H44.0956V81.845ZM50.2416 85.075V87.595H50.4416V85.075H50.2416ZM50.3416 87.695H51.0346V87.495H50.3416V87.695ZM51.1346 87.595V85.075H50.9346V87.595H51.1346ZM51.0346 84.975H50.3416V85.175H51.0346V84.975ZM45.1846 82.05H44.5006V82.25H45.1846V82.05ZM44.4006 82.15V84.67H44.6006V82.15H44.4006ZM44.5006 84.77H45.1846V84.57H44.5006V84.77ZM45.2846 84.67V82.15H45.0846V84.67H45.2846ZM57.7525 86.902V86.802H57.6525V86.902H57.7525ZM58.1575 86.902H58.2575V86.802H58.1575V86.902ZM58.1575 88V88.1H58.2575V88H58.1575ZM52.5415 88H52.4415V88.1H52.5415V88ZM52.5415 83.779V83.679H52.4415V83.779H52.5415ZM58.1575 83.779H58.2575V83.679H58.1575V83.779ZM58.1575 84.877V84.977H58.2575V84.877H58.1575ZM57.7525 84.877H57.6525V84.977H57.7525V84.877ZM57.7525 84.184H57.8525V84.084H57.7525V84.184ZM54.0445 84.184V84.084H53.9445V84.184H54.0445ZM54.0445 87.595H53.9445V87.695H54.0445V87.595ZM57.7525 87.595V87.695H57.8525V87.595H57.7525ZM53.6395 84.184H53.7395V84.084H53.6395V84.184ZM52.9465 84.184V84.084H52.8465V84.184H52.9465ZM52.9465 87.595H52.8465V87.695H52.9465V87.595ZM53.6395 87.595V87.695H53.7395V87.595H53.6395ZM57.7525 87.002H58.1575V86.802H57.7525V87.002ZM58.0575 86.902V88H58.2575V86.902H58.0575ZM58.1575 87.9H52.5415V88.1H58.1575V87.9ZM52.6415 88V83.779H52.4415V88H52.6415ZM52.5415 83.879H58.1575V83.679H52.5415V83.879ZM58.0575 83.779V84.877H58.2575V83.779H58.0575ZM58.1575 84.777H57.7525V84.977H58.1575V84.777ZM57.8525 84.877V84.184H57.6525V84.877H57.8525ZM57.7525 84.084H54.0445V84.284H57.7525V84.084ZM53.9445 84.184V87.595H54.1445V84.184H53.9445ZM54.0445 87.695H57.7525V87.495H54.0445V87.695ZM57.8525 87.595V86.902H57.6525V87.595H57.8525ZM53.6395 84.084H52.9465V84.284H53.6395V84.084ZM52.8465 84.184V87.595H53.0465V84.184H52.8465ZM52.9465 87.695H53.6395V87.495H52.9465V87.695ZM53.7395 87.595V84.184H53.5395V87.595H53.7395ZM64.758 88V88.1H64.8581V88H64.758ZM59.1421 88H59.042V88.1H59.1421V88ZM59.1421 83.779V83.679H59.042V83.779H59.1421ZM64.758 83.779H64.8581V83.679H64.758V83.779ZM64.3531 84.184H64.4531V84.084H64.3531V84.184ZM60.6451 84.184V84.084H60.5451V84.184H60.6451ZM60.6451 87.595H60.5451V87.695H60.6451V87.595ZM64.3531 87.595V87.695H64.4531V87.595H64.3531ZM60.2401 84.184H60.34V84.084H60.2401V84.184ZM59.5471 84.184V84.084H59.4471V84.184H59.5471ZM59.5471 87.595H59.4471V87.695H59.5471V87.595ZM60.2401 87.595V87.695H60.34V87.595H60.2401ZM64.758 87.9H59.1421V88.1H64.758V87.9ZM59.2421 88V83.779H59.042V88H59.2421ZM59.1421 83.879H64.758V83.679H59.1421V83.879ZM64.6581 83.779V88H64.8581V83.779H64.6581ZM64.3531 84.084H60.6451V84.284H64.3531V84.084ZM60.5451 84.184V87.595H60.7451V84.184H60.5451ZM60.6451 87.695H64.3531V87.495H60.6451V87.695ZM64.4531 87.595V84.184H64.2531V87.595H64.4531ZM60.2401 84.084H59.5471V84.284H60.2401V84.084ZM59.4471 84.184V87.595H59.647V84.184H59.4471ZM59.5471 87.695H60.2401V87.495H59.5471V87.695ZM60.34 87.595V84.184H60.14V87.595H60.34ZM65.6143 83.779V83.679H65.5143V83.779H65.6143ZM71.3383 83.779H71.4383V83.679H71.3383V83.779ZM71.3383 84.868V84.968H71.4383V84.868H71.3383ZM70.9333 84.868H70.8333V84.968H70.9333V84.868ZM70.9333 84.184H71.0333V84.084H70.9333V84.184ZM68.0083 84.184V84.084H67.9083V84.184H68.0083ZM68.0083 87.595H67.9083V87.695H68.0083V87.595ZM68.8993 87.595H68.9993V87.495H68.8993V87.595ZM68.8993 88V88.1H68.9993V88H68.8993ZM65.6143 88H65.5143V88.1H65.6143V88ZM65.6143 87.595V87.495H65.5143V87.595H65.6143ZM66.5053 87.595V87.695H66.6053V87.595H66.5053ZM66.5053 84.184H66.6053V84.084H66.5053V84.184ZM65.6143 84.184H65.5143V84.284H65.6143V84.184ZM67.6033 87.595V87.695H67.7033V87.595H67.6033ZM67.6033 84.184H67.7033V84.084H67.6033V84.184ZM66.9103 84.184V84.084H66.8103V84.184H66.9103ZM66.9103 87.595H66.8103V87.695H66.9103V87.595ZM65.6143 83.879H71.3383V83.679H65.6143V83.879ZM71.2383 83.779V84.868H71.4383V83.779H71.2383ZM71.3383 84.768H70.9333V84.968H71.3383V84.768ZM71.0333 84.868V84.184H70.8333V84.868H71.0333ZM70.9333 84.084H68.0083V84.284H70.9333V84.084ZM67.9083 84.184V87.595H68.1083V84.184H67.9083ZM68.0083 87.695H68.8993V87.495H68.0083V87.695ZM68.7993 87.595V88H68.9993V87.595H68.7993ZM68.8993 87.9H65.6143V88.1H68.8993V87.9ZM65.7143 88V87.595H65.5143V88H65.7143ZM65.6143 87.695H66.5053V87.495H65.6143V87.695ZM66.6053 87.595V84.184H66.4053V87.595H66.6053ZM66.5053 84.084H65.6143V84.284H66.5053V84.084ZM65.7143 84.184V83.779H65.5143V84.184H65.7143ZM67.7033 87.595V84.184H67.5033V87.595H67.7033ZM67.6033 84.084H66.9103V84.284H67.6033V84.084ZM66.8103 84.184V87.595H67.0103V84.184H66.8103ZM66.9103 87.695H67.6033V87.495H66.9103V87.695ZM72.0971 83.779V83.679H71.9971V83.779H72.0971ZM77.7131 83.779H77.8131V83.679H77.7131V83.779ZM77.7131 86.092V86.192H77.8131V86.092H77.7131ZM73.6001 86.092V85.992H73.5001V86.092H73.6001ZM73.6001 87.595H73.5001V87.695H73.6001V87.595ZM77.3081 87.595V87.695H77.4081V87.595H77.3081ZM77.3081 86.902V86.802H77.2081V86.902H77.3081ZM77.7131 86.902H77.8131V86.802H77.7131V86.902ZM77.7131 88V88.1H77.8131V88H77.7131ZM72.0971 88H71.9971V88.1H72.0971V88ZM73.6001 84.184V84.084H73.5001V84.184H73.6001ZM73.6001 85.687H73.5001V85.787H73.6001V85.687ZM77.3081 85.687V85.787H77.4081V85.687H77.3081ZM77.3081 84.184H77.4081V84.084H77.3081V84.184ZM72.5021 87.595H72.4021V87.695H72.5021V87.595ZM73.1951 87.595V87.695H73.2951V87.595H73.1951ZM73.1951 84.184H73.2951V84.084H73.1951V84.184ZM72.5021 84.184V84.084H72.4021V84.184H72.5021ZM72.0971 83.879H77.7131V83.679H72.0971V83.879ZM77.6131 83.779V86.092H77.8131V83.779H77.6131ZM77.7131 85.992H73.6001V86.192H77.7131V85.992ZM73.5001 86.092V87.595H73.7001V86.092H73.5001ZM73.6001 87.695H77.3081V87.495H73.6001V87.695ZM77.4081 87.595V86.902H77.2081V87.595H77.4081ZM77.3081 87.002H77.7131V86.802H77.3081V87.002ZM77.6131 86.902V88H77.8131V86.902H77.6131ZM77.7131 87.9H72.0971V88.1H77.7131V87.9ZM72.1971 88V83.779H71.9971V88H72.1971ZM73.5001 84.184V85.687H73.7001V84.184H73.5001ZM73.6001 85.787H77.3081V85.587H73.6001V85.787ZM77.4081 85.687V84.184H77.2081V85.687H77.4081ZM77.3081 84.084H73.6001V84.284H77.3081V84.084ZM72.5021 87.695H73.1951V87.495H72.5021V87.695ZM73.2951 87.595V84.184H73.0951V87.595H73.2951ZM73.1951 84.084H72.5021V84.284H73.1951V84.084ZM72.4021 84.184V87.595H72.6021V84.184H72.4021ZM84.3214 83.779H84.4214V83.679H84.3214V83.779ZM84.3214 84.877V84.977H84.4214V84.877H84.3214ZM83.9165 84.877H83.8165V84.977H83.9165V84.877ZM83.9165 84.184H84.0164V84.084H83.9165V84.184ZM80.2085 84.184V84.084H80.1085V84.184H80.2085ZM80.2085 85.687H80.1085V85.787H80.2085V85.687ZM84.3214 85.687H84.4214V85.587H84.3214V85.687ZM84.3214 88V88.1H84.4214V88H84.3214ZM78.7055 88H78.6054V88.1H78.7055V88ZM78.7055 86.902V86.802H78.6054V86.902H78.7055ZM79.1105 86.902H79.2104V86.802H79.1105V86.902ZM79.1105 87.595H79.0105V87.695H79.1105V87.595ZM82.8185 87.595V87.695H82.9184V87.595H82.8185ZM82.8185 86.092H82.9184V85.992H82.8185V86.092ZM78.7055 86.092H78.6054V86.192H78.7055V86.092ZM78.7055 83.779V83.679H78.6054V83.779H78.7055ZM83.2234 86.092V85.992H83.1235V86.092H83.2234ZM83.2234 87.595H83.1235V87.695H83.2234V87.595ZM83.9165 87.595V87.695H84.0164V87.595H83.9165ZM83.9165 86.092H84.0164V85.992H83.9165V86.092ZM79.8035 84.184H79.9035V84.084H79.8035V84.184ZM79.1105 84.184V84.084H79.0105V84.184H79.1105ZM79.1105 85.687H79.0105V85.787H79.1105V85.687ZM79.8035 85.687V85.787H79.9035V85.687H79.8035ZM84.2215 83.779V84.877H84.4214V83.779H84.2215ZM84.3214 84.777H83.9165V84.977H84.3214V84.777ZM84.0164 84.877V84.184H83.8165V84.877H84.0164ZM83.9165 84.084H80.2085V84.284H83.9165V84.084ZM80.1085 84.184V85.687H80.3084V84.184H80.1085ZM80.2085 85.787H84.3214V85.587H80.2085V85.787ZM84.2215 85.687V88H84.4214V85.687H84.2215ZM84.3214 87.9H78.7055V88.1H84.3214V87.9ZM78.8055 88V86.902H78.6054V88H78.8055ZM78.7055 87.002H79.1105V86.802H78.7055V87.002ZM79.0105 86.902V87.595H79.2104V86.902H79.0105ZM79.1105 87.695H82.8185V87.495H79.1105V87.695ZM82.9184 87.595V86.092H82.7185V87.595H82.9184ZM82.8185 85.992H78.7055V86.192H82.8185V85.992ZM78.8055 86.092V83.779H78.6054V86.092H78.8055ZM78.7055 83.879H84.3214V83.679H78.7055V83.879ZM83.1235 86.092V87.595H83.3234V86.092H83.1235ZM83.2234 87.695H83.9165V87.495H83.2234V87.695ZM84.0164 87.595V86.092H83.8165V87.595H84.0164ZM83.9165 85.992H83.2234V86.192H83.9165V85.992ZM79.8035 84.084H79.1105V84.284H79.8035V84.084ZM79.0105 84.184V85.687H79.2104V84.184H79.0105ZM79.1105 85.787H79.8035V85.587H79.1105V85.787ZM79.9035 85.687V84.184H79.7034V85.687H79.9035Z" fill="black" mask="url(#path-8-outside-3_551_533)"/>
</svg>
