<svg width="86" height="108" viewBox="0 0 86 108" fill="none" xmlns="http://www.w3.org/2000/svg">
<rect x="4.5" y="0.5" width="77" height="25" rx="3.5" fill="white" stroke="#959595"/>
<mask id="path-2-outside-1_515_968" maskUnits="userSpaceOnUse" x="9" y="9" width="68" height="8" fill="black">
<rect fill="white" x="9" y="9" width="68" height="8"/>
<path d="M20.1581 10.15V15.595H21.0491V16H17.7641V15.595H18.6551V10.726L15.5681 16.207L12.4901 10.726V15.595H13.3811V16H10.0871V15.595H10.9871V10.15H10.0871V9.745H12.4001L15.5681 15.379L18.7451 9.745H21.0491V10.15H20.1581ZM12.0761 15.595V10.15H11.3921V15.595H12.0761ZM19.7531 15.595V10.15H19.0601V15.595H19.7531ZM27.4504 15.595H28.3414V16H21.8344V13.687H25.9474V12.184H22.2394V12.877H21.8344V11.779H27.4504V15.595ZM25.9474 15.595V14.092H22.2394V15.595H25.9474ZM27.0454 12.184H26.3524V15.595H27.0454V12.184ZM31.1323 15.595H32.0233V16H28.7383V15.595H29.6293V12.184H28.7383V11.779H31.1323V15.595ZM30.7273 12.184H30.0343V15.595H30.7273V12.184ZM31.1953 11.122H29.5663V9.745H31.1953V11.122ZM30.7903 10.15H29.9713V10.717H30.7903V10.15ZM32.5176 11.779H39.0246V15.595H39.9876V16H37.6566V15.595H38.6196V12.184H34.9116V15.595H35.8026V16H32.5176V15.595H33.4086V12.184H32.5176V11.779ZM34.5066 15.595V12.184H33.8136V15.595H34.5066ZM52.7392 10.15V15.595H53.6302V16H50.3452V15.595H51.2362V10.726L48.1492 16.207L45.0712 10.726V15.595H45.9622V16H42.6682V15.595H43.5682V10.15H42.6682V9.745H44.9812L48.1492 15.379L51.3262 9.745H53.6302V10.15H52.7392ZM44.6572 15.595V10.15H43.9732V15.595H44.6572ZM52.3342 15.595V10.15H51.6412V15.595H52.3342ZM54.4604 11.779H60.0764V14.092H55.9634V15.595H59.6714V14.902H60.0764V16H54.4604V11.779ZM55.9634 12.184V13.687H59.6714V12.184H55.9634ZM54.8654 15.595H55.5584V12.184H54.8654V15.595ZM60.8887 11.779H67.3957V15.595H68.3587V16H66.0277V15.595H66.9907V12.184H63.2827V15.595H64.1737V16H60.8887V15.595H61.7797V12.184H60.8887V11.779ZM62.8777 15.595V12.184H62.1847V15.595H62.8777ZM76.046 15.595V16H69.467V12.184H68.576V11.779H70.97V15.595H74.678V12.184H73.715V11.779H75.083V15.595H76.046ZM70.565 12.184H69.872V15.595H70.565V12.184Z"/>
</mask>
<path d="M20.1581 10.15V15.595H21.0491V16H17.7641V15.595H18.6551V10.726L15.5681 16.207L12.4901 10.726V15.595H13.3811V16H10.0871V15.595H10.9871V10.15H10.0871V9.745H12.4001L15.5681 15.379L18.7451 9.745H21.0491V10.15H20.1581ZM12.0761 15.595V10.15H11.3921V15.595H12.0761ZM19.7531 15.595V10.15H19.0601V15.595H19.7531ZM27.4504 15.595H28.3414V16H21.8344V13.687H25.9474V12.184H22.2394V12.877H21.8344V11.779H27.4504V15.595ZM25.9474 15.595V14.092H22.2394V15.595H25.9474ZM27.0454 12.184H26.3524V15.595H27.0454V12.184ZM31.1323 15.595H32.0233V16H28.7383V15.595H29.6293V12.184H28.7383V11.779H31.1323V15.595ZM30.7273 12.184H30.0343V15.595H30.7273V12.184ZM31.1953 11.122H29.5663V9.745H31.1953V11.122ZM30.7903 10.15H29.9713V10.717H30.7903V10.15ZM32.5176 11.779H39.0246V15.595H39.9876V16H37.6566V15.595H38.6196V12.184H34.9116V15.595H35.8026V16H32.5176V15.595H33.4086V12.184H32.5176V11.779ZM34.5066 15.595V12.184H33.8136V15.595H34.5066ZM52.7392 10.15V15.595H53.6302V16H50.3452V15.595H51.2362V10.726L48.1492 16.207L45.0712 10.726V15.595H45.9622V16H42.6682V15.595H43.5682V10.15H42.6682V9.745H44.9812L48.1492 15.379L51.3262 9.745H53.6302V10.15H52.7392ZM44.6572 15.595V10.15H43.9732V15.595H44.6572ZM52.3342 15.595V10.15H51.6412V15.595H52.3342ZM54.4604 11.779H60.0764V14.092H55.9634V15.595H59.6714V14.902H60.0764V16H54.4604V11.779ZM55.9634 12.184V13.687H59.6714V12.184H55.9634ZM54.8654 15.595H55.5584V12.184H54.8654V15.595ZM60.8887 11.779H67.3957V15.595H68.3587V16H66.0277V15.595H66.9907V12.184H63.2827V15.595H64.1737V16H60.8887V15.595H61.7797V12.184H60.8887V11.779ZM62.8777 15.595V12.184H62.1847V15.595H62.8777ZM76.046 15.595V16H69.467V12.184H68.576V11.779H70.97V15.595H74.678V12.184H73.715V11.779H75.083V15.595H76.046ZM70.565 12.184H69.872V15.595H70.565V12.184Z" fill="black"/>
<path d="M20.1581 10.15V10.05H20.0581V10.15H20.1581ZM20.1581 15.595H20.0581V15.695H20.1581V15.595ZM21.0491 15.595H21.1491V15.495H21.0491V15.595ZM21.0491 16V16.1H21.1491V16H21.0491ZM17.7641 16H17.6641V16.1H17.7641V16ZM17.7641 15.595V15.495H17.6641V15.595H17.7641ZM18.6551 15.595V15.695H18.7551V15.595H18.6551ZM18.6551 10.726H18.7551V10.3447L18.568 10.6769L18.6551 10.726ZM15.5681 16.207L15.4809 16.256L15.568 16.411L15.6552 16.2561L15.5681 16.207ZM12.4901 10.726L12.5773 10.677L12.3901 10.3437V10.726H12.4901ZM12.4901 15.595H12.3901V15.695H12.4901V15.595ZM13.3811 15.595H13.4811V15.495H13.3811V15.595ZM13.3811 16V16.1H13.4811V16H13.3811ZM10.0871 16H9.98711V16.1H10.0871V16ZM10.0871 15.595V15.495H9.98711V15.595H10.0871ZM10.9871 15.595V15.695H11.0871V15.595H10.9871ZM10.9871 10.15H11.0871V10.05H10.9871V10.15ZM10.0871 10.15H9.98711V10.25H10.0871V10.15ZM10.0871 9.745V9.645H9.98711V9.745H10.0871ZM12.4001 9.745L12.4873 9.69599L12.4586 9.645H12.4001V9.745ZM15.5681 15.379L15.4809 15.428L15.568 15.5828L15.6552 15.4281L15.5681 15.379ZM18.7451 9.745V9.645H18.6867L18.658 9.69588L18.7451 9.745ZM21.0491 9.745H21.1491V9.645H21.0491V9.745ZM21.0491 10.15V10.25H21.1491V10.15H21.0491ZM12.0761 15.595V15.695H12.1761V15.595H12.0761ZM12.0761 10.15H12.1761V10.05H12.0761V10.15ZM11.3921 10.15V10.05H11.2921V10.15H11.3921ZM11.3921 15.595H11.2921V15.695H11.3921V15.595ZM19.7531 15.595V15.695H19.8531V15.595H19.7531ZM19.7531 10.15H19.8531V10.05H19.7531V10.15ZM19.0601 10.15V10.05H18.9601V10.15H19.0601ZM19.0601 15.595H18.9601V15.695H19.0601V15.595ZM20.0581 10.15V15.595H20.2581V10.15H20.0581ZM20.1581 15.695H21.0491V15.495H20.1581V15.695ZM20.9491 15.595V16H21.1491V15.595H20.9491ZM21.0491 15.9H17.7641V16.1H21.0491V15.9ZM17.8641 16V15.595H17.6641V16H17.8641ZM17.7641 15.695H18.6551V15.495H17.7641V15.695ZM18.7551 15.595V10.726H18.5551V15.595H18.7551ZM18.568 10.6769L15.481 16.1579L15.6552 16.2561L18.7422 10.7751L18.568 10.6769ZM15.6553 16.158L12.5773 10.677L12.4029 10.775L15.4809 16.256L15.6553 16.158ZM12.3901 10.726V15.595H12.5901V10.726H12.3901ZM12.4901 15.695H13.3811V15.495H12.4901V15.695ZM13.2811 15.595V16H13.4811V15.595H13.2811ZM13.3811 15.9H10.0871V16.1H13.3811V15.9ZM10.1871 16V15.595H9.98711V16H10.1871ZM10.0871 15.695H10.9871V15.495H10.0871V15.695ZM11.0871 15.595V10.15H10.8871V15.595H11.0871ZM10.9871 10.05H10.0871V10.25H10.9871V10.05ZM10.1871 10.15V9.745H9.98711V10.15H10.1871ZM10.0871 9.845H12.4001V9.645H10.0871V9.845ZM12.3129 9.79401L15.4809 15.428L15.6553 15.33L12.4873 9.69599L12.3129 9.79401ZM15.6552 15.4281L18.8322 9.79412L18.658 9.69588L15.481 15.3299L15.6552 15.4281ZM18.7451 9.845H21.0491V9.645H18.7451V9.845ZM20.9491 9.745V10.15H21.1491V9.745H20.9491ZM21.0491 10.05H20.1581V10.25H21.0491V10.05ZM12.1761 15.595V10.15H11.9761V15.595H12.1761ZM12.0761 10.05H11.3921V10.25H12.0761V10.05ZM11.2921 10.15V15.595H11.4921V10.15H11.2921ZM11.3921 15.695H12.0761V15.495H11.3921V15.695ZM19.8531 15.595V10.15H19.6531V15.595H19.8531ZM19.7531 10.05H19.0601V10.25H19.7531V10.05ZM18.9601 10.15V15.595H19.1601V10.15H18.9601ZM19.0601 15.695H19.7531V15.495H19.0601V15.695ZM27.4504 15.595H27.3504V15.695H27.4504V15.595ZM28.3414 15.595H28.4414V15.495H28.3414V15.595ZM28.3414 16V16.1H28.4414V16H28.3414ZM21.8344 16H21.7344V16.1H21.8344V16ZM21.8344 13.687V13.587H21.7344V13.687H21.8344ZM25.9474 13.687V13.787H26.0474V13.687H25.9474ZM25.9474 12.184H26.0474V12.084H25.9474V12.184ZM22.2394 12.184V12.084H22.1394V12.184H22.2394ZM22.2394 12.877V12.977H22.3394V12.877H22.2394ZM21.8344 12.877H21.7344V12.977H21.8344V12.877ZM21.8344 11.779V11.679H21.7344V11.779H21.8344ZM27.4504 11.779H27.5504V11.679H27.4504V11.779ZM25.9474 15.595V15.695H26.0474V15.595H25.9474ZM25.9474 14.092H26.0474V13.992H25.9474V14.092ZM22.2394 14.092V13.992H22.1394V14.092H22.2394ZM22.2394 15.595H22.1394V15.695H22.2394V15.595ZM27.0454 12.184H27.1454V12.084H27.0454V12.184ZM26.3524 12.184V12.084H26.2524V12.184H26.3524ZM26.3524 15.595H26.2524V15.695H26.3524V15.595ZM27.0454 15.595V15.695H27.1454V15.595H27.0454ZM27.4504 15.695H28.3414V15.495H27.4504V15.695ZM28.2414 15.595V16H28.4414V15.595H28.2414ZM28.3414 15.9H21.8344V16.1H28.3414V15.9ZM21.9344 16V13.687H21.7344V16H21.9344ZM21.8344 13.787H25.9474V13.587H21.8344V13.787ZM26.0474 13.687V12.184H25.8474V13.687H26.0474ZM25.9474 12.084H22.2394V12.284H25.9474V12.084ZM22.1394 12.184V12.877H22.3394V12.184H22.1394ZM22.2394 12.777H21.8344V12.977H22.2394V12.777ZM21.9344 12.877V11.779H21.7344V12.877H21.9344ZM21.8344 11.879H27.4504V11.679H21.8344V11.879ZM27.3504 11.779V15.595H27.5504V11.779H27.3504ZM26.0474 15.595V14.092H25.8474V15.595H26.0474ZM25.9474 13.992H22.2394V14.192H25.9474V13.992ZM22.1394 14.092V15.595H22.3394V14.092H22.1394ZM22.2394 15.695H25.9474V15.495H22.2394V15.695ZM27.0454 12.084H26.3524V12.284H27.0454V12.084ZM26.2524 12.184V15.595H26.4524V12.184H26.2524ZM26.3524 15.695H27.0454V15.495H26.3524V15.695ZM27.1454 15.595V12.184H26.9454V15.595H27.1454ZM31.1323 15.595H31.0323V15.695H31.1323V15.595ZM32.0233 15.595H32.1233V15.495H32.0233V15.595ZM32.0233 16V16.1H32.1233V16H32.0233ZM28.7383 16H28.6383V16.1H28.7383V16ZM28.7383 15.595V15.495H28.6383V15.595H28.7383ZM29.6293 15.595V15.695H29.7293V15.595H29.6293ZM29.6293 12.184H29.7293V12.084H29.6293V12.184ZM28.7383 12.184H28.6383V12.284H28.7383V12.184ZM28.7383 11.779V11.679H28.6383V11.779H28.7383ZM31.1323 11.779H31.2323V11.679H31.1323V11.779ZM30.7273 12.184H30.8273V12.084H30.7273V12.184ZM30.0343 12.184V12.084H29.9343V12.184H30.0343ZM30.0343 15.595H29.9343V15.695H30.0343V15.595ZM30.7273 15.595V15.695H30.8273V15.595H30.7273ZM31.1953 11.122V11.222H31.2953V11.122H31.1953ZM29.5663 11.122H29.4663V11.222H29.5663V11.122ZM29.5663 9.745V9.645H29.4663V9.745H29.5663ZM31.1953 9.745H31.2953V9.645H31.1953V9.745ZM30.7903 10.15H30.8903V10.05H30.7903V10.15ZM29.9713 10.15V10.05H29.8713V10.15H29.9713ZM29.9713 10.717H29.8713V10.817H29.9713V10.717ZM30.7903 10.717V10.817H30.8903V10.717H30.7903ZM31.1323 15.695H32.0233V15.495H31.1323V15.695ZM31.9233 15.595V16H32.1233V15.595H31.9233ZM32.0233 15.9H28.7383V16.1H32.0233V15.9ZM28.8383 16V15.595H28.6383V16H28.8383ZM28.7383 15.695H29.6293V15.495H28.7383V15.695ZM29.7293 15.595V12.184H29.5293V15.595H29.7293ZM29.6293 12.084H28.7383V12.284H29.6293V12.084ZM28.8383 12.184V11.779H28.6383V12.184H28.8383ZM28.7383 11.879H31.1323V11.679H28.7383V11.879ZM31.0323 11.779V15.595H31.2323V11.779H31.0323ZM30.7273 12.084H30.0343V12.284H30.7273V12.084ZM29.9343 12.184V15.595H30.1343V12.184H29.9343ZM30.0343 15.695H30.7273V15.495H30.0343V15.695ZM30.8273 15.595V12.184H30.6273V15.595H30.8273ZM31.1953 11.022H29.5663V11.222H31.1953V11.022ZM29.6663 11.122V9.745H29.4663V11.122H29.6663ZM29.5663 9.845H31.1953V9.645H29.5663V9.845ZM31.0953 9.745V11.122H31.2953V9.745H31.0953ZM30.7903 10.05H29.9713V10.25H30.7903V10.05ZM29.8713 10.15V10.717H30.0713V10.15H29.8713ZM29.9713 10.817H30.7903V10.617H29.9713V10.817ZM30.8903 10.717V10.15H30.6903V10.717H30.8903ZM32.5176 11.779V11.679H32.4176V11.779H32.5176ZM39.0246 11.779H39.1246V11.679H39.0246V11.779ZM39.0246 15.595H38.9246V15.695H39.0246V15.595ZM39.9876 15.595H40.0876V15.495H39.9876V15.595ZM39.9876 16V16.1H40.0876V16H39.9876ZM37.6566 16H37.5566V16.1H37.6566V16ZM37.6566 15.595V15.495H37.5566V15.595H37.6566ZM38.6196 15.595V15.695H38.7196V15.595H38.6196ZM38.6196 12.184H38.7196V12.084H38.6196V12.184ZM34.9116 12.184V12.084H34.8116V12.184H34.9116ZM34.9116 15.595H34.8116V15.695H34.9116V15.595ZM35.8026 15.595H35.9026V15.495H35.8026V15.595ZM35.8026 16V16.1H35.9026V16H35.8026ZM32.5176 16H32.4176V16.1H32.5176V16ZM32.5176 15.595V15.495H32.4176V15.595H32.5176ZM33.4086 15.595V15.695H33.5086V15.595H33.4086ZM33.4086 12.184H33.5086V12.084H33.4086V12.184ZM32.5176 12.184H32.4176V12.284H32.5176V12.184ZM34.5066 15.595V15.695H34.6066V15.595H34.5066ZM34.5066 12.184H34.6066V12.084H34.5066V12.184ZM33.8136 12.184V12.084H33.7136V12.184H33.8136ZM33.8136 15.595H33.7136V15.695H33.8136V15.595ZM32.5176 11.879H39.0246V11.679H32.5176V11.879ZM38.9246 11.779V15.595H39.1246V11.779H38.9246ZM39.0246 15.695H39.9876V15.495H39.0246V15.695ZM39.8876 15.595V16H40.0876V15.595H39.8876ZM39.9876 15.9H37.6566V16.1H39.9876V15.9ZM37.7566 16V15.595H37.5566V16H37.7566ZM37.6566 15.695H38.6196V15.495H37.6566V15.695ZM38.7196 15.595V12.184H38.5196V15.595H38.7196ZM38.6196 12.084H34.9116V12.284H38.6196V12.084ZM34.8116 12.184V15.595H35.0116V12.184H34.8116ZM34.9116 15.695H35.8026V15.495H34.9116V15.695ZM35.7026 15.595V16H35.9026V15.595H35.7026ZM35.8026 15.9H32.5176V16.1H35.8026V15.9ZM32.6176 16V15.595H32.4176V16H32.6176ZM32.5176 15.695H33.4086V15.495H32.5176V15.695ZM33.5086 15.595V12.184H33.3086V15.595H33.5086ZM33.4086 12.084H32.5176V12.284H33.4086V12.084ZM32.6176 12.184V11.779H32.4176V12.184H32.6176ZM34.6066 15.595V12.184H34.4066V15.595H34.6066ZM34.5066 12.084H33.8136V12.284H34.5066V12.084ZM33.7136 12.184V15.595H33.9136V12.184H33.7136ZM33.8136 15.695H34.5066V15.495H33.8136V15.695ZM52.7392 10.15V10.05H52.6392V10.15H52.7392ZM52.7392 15.595H52.6392V15.695H52.7392V15.595ZM53.6302 15.595H53.7302V15.495H53.6302V15.595ZM53.6302 16V16.1H53.7302V16H53.6302ZM50.3452 16H50.2452V16.1H50.3452V16ZM50.3452 15.595V15.495H50.2452V15.595H50.3452ZM51.2362 15.595V15.695H51.3362V15.595H51.2362ZM51.2362 10.726H51.3362V10.3447L51.149 10.6769L51.2362 10.726ZM48.1492 16.207L48.062 16.256L48.149 16.411L48.2363 16.2561L48.1492 16.207ZM45.0712 10.726L45.1584 10.677L44.9712 10.3437V10.726H45.0712ZM45.0712 15.595H44.9712V15.695H45.0712V15.595ZM45.9622 15.595H46.0622V15.495H45.9622V15.595ZM45.9622 16V16.1H46.0622V16H45.9622ZM42.6682 16H42.5682V16.1H42.6682V16ZM42.6682 15.595V15.495H42.5682V15.595H42.6682ZM43.5682 15.595V15.695H43.6682V15.595H43.5682ZM43.5682 10.15H43.6682V10.05H43.5682V10.15ZM42.6682 10.15H42.5682V10.25H42.6682V10.15ZM42.6682 9.745V9.645H42.5682V9.745H42.6682ZM44.9812 9.745L45.0683 9.69599L45.0397 9.645H44.9812V9.745ZM48.1492 15.379L48.062 15.428L48.149 15.5828L48.2363 15.4281L48.1492 15.379ZM51.3262 9.745V9.645H51.2677L51.2391 9.69588L51.3262 9.745ZM53.6302 9.745H53.7302V9.645H53.6302V9.745ZM53.6302 10.15V10.25H53.7302V10.15H53.6302ZM44.6572 15.595V15.695H44.7572V15.595H44.6572ZM44.6572 10.15H44.7572V10.05H44.6572V10.15ZM43.9732 10.15V10.05H43.8732V10.15H43.9732ZM43.9732 15.595H43.8732V15.695H43.9732V15.595ZM52.3342 15.595V15.695H52.4342V15.595H52.3342ZM52.3342 10.15H52.4342V10.05H52.3342V10.15ZM51.6412 10.15V10.05H51.5412V10.15H51.6412ZM51.6412 15.595H51.5412V15.695H51.6412V15.595ZM52.6392 10.15V15.595H52.8392V10.15H52.6392ZM52.7392 15.695H53.6302V15.495H52.7392V15.695ZM53.5302 15.595V16H53.7302V15.595H53.5302ZM53.6302 15.9H50.3452V16.1H53.6302V15.9ZM50.4452 16V15.595H50.2452V16H50.4452ZM50.3452 15.695H51.2362V15.495H50.3452V15.695ZM51.3362 15.595V10.726H51.1362V15.595H51.3362ZM51.149 10.6769L48.062 16.1579L48.2363 16.2561L51.3233 10.7751L51.149 10.6769ZM48.2364 16.158L45.1584 10.677L44.984 10.775L48.062 16.256L48.2364 16.158ZM44.9712 10.726V15.595H45.1712V10.726H44.9712ZM45.0712 15.695H45.9622V15.495H45.0712V15.695ZM45.8622 15.595V16H46.0622V15.595H45.8622ZM45.9622 15.9H42.6682V16.1H45.9622V15.9ZM42.7682 16V15.595H42.5682V16H42.7682ZM42.6682 15.695H43.5682V15.495H42.6682V15.695ZM43.6682 15.595V10.15H43.4682V15.595H43.6682ZM43.5682 10.05H42.6682V10.25H43.5682V10.05ZM42.7682 10.15V9.745H42.5682V10.15H42.7682ZM42.6682 9.845H44.9812V9.645H42.6682V9.845ZM44.894 9.79401L48.062 15.428L48.2363 15.33L45.0683 9.69599L44.894 9.79401ZM48.2363 15.4281L51.4133 9.79412L51.2391 9.69588L48.0621 15.3299L48.2363 15.4281ZM51.3262 9.845H53.6302V9.645H51.3262V9.845ZM53.5302 9.745V10.15H53.7302V9.745H53.5302ZM53.6302 10.05H52.7392V10.25H53.6302V10.05ZM44.7572 15.595V10.15H44.5572V15.595H44.7572ZM44.6572 10.05H43.9732V10.25H44.6572V10.05ZM43.8732 10.15V15.595H44.0732V10.15H43.8732ZM43.9732 15.695H44.6572V15.495H43.9732V15.695ZM52.4342 15.595V10.15H52.2342V15.595H52.4342ZM52.3342 10.05H51.6412V10.25H52.3342V10.05ZM51.5412 10.15V15.595H51.7412V10.15H51.5412ZM51.6412 15.695H52.3342V15.495H51.6412V15.695ZM54.4604 11.779V11.679H54.3604V11.779H54.4604ZM60.0764 11.779H60.1764V11.679H60.0764V11.779ZM60.0764 14.092V14.192H60.1764V14.092H60.0764ZM55.9634 14.092V13.992H55.8634V14.092H55.9634ZM55.9634 15.595H55.8634V15.695H55.9634V15.595ZM59.6714 15.595V15.695H59.7714V15.595H59.6714ZM59.6714 14.902V14.802H59.5714V14.902H59.6714ZM60.0764 14.902H60.1764V14.802H60.0764V14.902ZM60.0764 16V16.1H60.1764V16H60.0764ZM54.4604 16H54.3604V16.1H54.4604V16ZM55.9634 12.184V12.084H55.8634V12.184H55.9634ZM55.9634 13.687H55.8634V13.787H55.9634V13.687ZM59.6714 13.687V13.787H59.7714V13.687H59.6714ZM59.6714 12.184H59.7714V12.084H59.6714V12.184ZM54.8654 15.595H54.7654V15.695H54.8654V15.595ZM55.5584 15.595V15.695H55.6584V15.595H55.5584ZM55.5584 12.184H55.6584V12.084H55.5584V12.184ZM54.8654 12.184V12.084H54.7654V12.184H54.8654ZM54.4604 11.879H60.0764V11.679H54.4604V11.879ZM59.9764 11.779V14.092H60.1764V11.779H59.9764ZM60.0764 13.992H55.9634V14.192H60.0764V13.992ZM55.8634 14.092V15.595H56.0634V14.092H55.8634ZM55.9634 15.695H59.6714V15.495H55.9634V15.695ZM59.7714 15.595V14.902H59.5714V15.595H59.7714ZM59.6714 15.002H60.0764V14.802H59.6714V15.002ZM59.9764 14.902V16H60.1764V14.902H59.9764ZM60.0764 15.9H54.4604V16.1H60.0764V15.9ZM54.5604 16V11.779H54.3604V16H54.5604ZM55.8634 12.184V13.687H56.0634V12.184H55.8634ZM55.9634 13.787H59.6714V13.587H55.9634V13.787ZM59.7714 13.687V12.184H59.5714V13.687H59.7714ZM59.6714 12.084H55.9634V12.284H59.6714V12.084ZM54.8654 15.695H55.5584V15.495H54.8654V15.695ZM55.6584 15.595V12.184H55.4584V15.595H55.6584ZM55.5584 12.084H54.8654V12.284H55.5584V12.084ZM54.7654 12.184V15.595H54.9654V12.184H54.7654ZM60.8887 11.779V11.679H60.7887V11.779H60.8887ZM67.3957 11.779H67.4957V11.679H67.3957V11.779ZM67.3957 15.595H67.2957V15.695H67.3957V15.595ZM68.3587 15.595H68.4587V15.495H68.3587V15.595ZM68.3587 16V16.1H68.4587V16H68.3587ZM66.0277 16H65.9277V16.1H66.0277V16ZM66.0277 15.595V15.495H65.9277V15.595H66.0277ZM66.9907 15.595V15.695H67.0907V15.595H66.9907ZM66.9907 12.184H67.0907V12.084H66.9907V12.184ZM63.2827 12.184V12.084H63.1827V12.184H63.2827ZM63.2827 15.595H63.1827V15.695H63.2827V15.595ZM64.1737 15.595H64.2737V15.495H64.1737V15.595ZM64.1737 16V16.1H64.2737V16H64.1737ZM60.8887 16H60.7887V16.1H60.8887V16ZM60.8887 15.595V15.495H60.7887V15.595H60.8887ZM61.7797 15.595V15.695H61.8797V15.595H61.7797ZM61.7797 12.184H61.8797V12.084H61.7797V12.184ZM60.8887 12.184H60.7887V12.284H60.8887V12.184ZM62.8777 15.595V15.695H62.9777V15.595H62.8777ZM62.8777 12.184H62.9777V12.084H62.8777V12.184ZM62.1847 12.184V12.084H62.0847V12.184H62.1847ZM62.1847 15.595H62.0847V15.695H62.1847V15.595ZM60.8887 11.879H67.3957V11.679H60.8887V11.879ZM67.2957 11.779V15.595H67.4957V11.779H67.2957ZM67.3957 15.695H68.3587V15.495H67.3957V15.695ZM68.2587 15.595V16H68.4587V15.595H68.2587ZM68.3587 15.9H66.0277V16.1H68.3587V15.9ZM66.1277 16V15.595H65.9277V16H66.1277ZM66.0277 15.695H66.9907V15.495H66.0277V15.695ZM67.0907 15.595V12.184H66.8907V15.595H67.0907ZM66.9907 12.084H63.2827V12.284H66.9907V12.084ZM63.1827 12.184V15.595H63.3827V12.184H63.1827ZM63.2827 15.695H64.1737V15.495H63.2827V15.695ZM64.0737 15.595V16H64.2737V15.595H64.0737ZM64.1737 15.9H60.8887V16.1H64.1737V15.9ZM60.9887 16V15.595H60.7887V16H60.9887ZM60.8887 15.695H61.7797V15.495H60.8887V15.695ZM61.8797 15.595V12.184H61.6797V15.595H61.8797ZM61.7797 12.084H60.8887V12.284H61.7797V12.084ZM60.9887 12.184V11.779H60.7887V12.184H60.9887ZM62.9777 15.595V12.184H62.7777V15.595H62.9777ZM62.8777 12.084H62.1847V12.284H62.8777V12.084ZM62.0847 12.184V15.595H62.2847V12.184H62.0847ZM62.1847 15.695H62.8777V15.495H62.1847V15.695ZM76.046 15.595H76.146V15.495H76.046V15.595ZM76.046 16V16.1H76.146V16H76.046ZM69.467 16H69.367V16.1H69.467V16ZM69.467 12.184H69.567V12.084H69.467V12.184ZM68.576 12.184H68.476V12.284H68.576V12.184ZM68.576 11.779V11.679H68.476V11.779H68.576ZM70.97 11.779H71.07V11.679H70.97V11.779ZM70.97 15.595H70.87V15.695H70.97V15.595ZM74.678 15.595V15.695H74.778V15.595H74.678ZM74.678 12.184H74.778V12.084H74.678V12.184ZM73.715 12.184H73.615V12.284H73.715V12.184ZM73.715 11.779V11.679H73.615V11.779H73.715ZM75.083 11.779H75.183V11.679H75.083V11.779ZM75.083 15.595H74.983V15.695H75.083V15.595ZM70.565 12.184H70.665V12.084H70.565V12.184ZM69.872 12.184V12.084H69.772V12.184H69.872ZM69.872 15.595H69.772V15.695H69.872V15.595ZM70.565 15.595V15.695H70.665V15.595H70.565ZM75.946 15.595V16H76.146V15.595H75.946ZM76.046 15.9H69.467V16.1H76.046V15.9ZM69.567 16V12.184H69.367V16H69.567ZM69.467 12.084H68.576V12.284H69.467V12.084ZM68.676 12.184V11.779H68.476V12.184H68.676ZM68.576 11.879H70.97V11.679H68.576V11.879ZM70.87 11.779V15.595H71.07V11.779H70.87ZM70.97 15.695H74.678V15.495H70.97V15.695ZM74.778 15.595V12.184H74.578V15.595H74.778ZM74.678 12.084H73.715V12.284H74.678V12.084ZM73.815 12.184V11.779H73.615V12.184H73.815ZM73.715 11.879H75.083V11.679H73.715V11.879ZM74.983 11.779V15.595H75.183V11.779H74.983ZM75.083 15.695H76.046V15.495H75.083V15.695ZM70.565 12.084H69.872V12.284H70.565V12.084ZM69.772 12.184V15.595H69.972V12.184H69.772ZM69.872 15.695H70.565V15.495H69.872V15.695ZM70.665 15.595V12.184H70.465V15.595H70.665Z" fill="black" mask="url(#path-2-outside-1_515_968)"/>
<rect x="4.5" y="36.5" width="77" height="25" rx="3.5" fill="#D86929" stroke="#D86929"/>
<mask id="path-5-outside-2_515_968" maskUnits="userSpaceOnUse" x="9" y="45" width="68" height="8" fill="black">
<rect fill="white" x="9" y="45" width="68" height="8"/>
<path d="M20.1581 46.15V51.595H21.0491V52H17.7641V51.595H18.6551V46.726L15.5681 52.207L12.4901 46.726V51.595H13.3811V52H10.0871V51.595H10.9871V46.15H10.0871V45.745H12.4001L15.5681 51.379L18.7451 45.745H21.0491V46.15H20.1581ZM12.0761 51.595V46.15H11.3921V51.595H12.0761ZM19.7531 51.595V46.15H19.0601V51.595H19.7531ZM27.4504 51.595H28.3414V52H21.8344V49.687H25.9474V48.184H22.2394V48.877H21.8344V47.779H27.4504V51.595ZM25.9474 51.595V50.092H22.2394V51.595H25.9474ZM27.0454 48.184H26.3524V51.595H27.0454V48.184ZM31.1323 51.595H32.0233V52H28.7383V51.595H29.6293V48.184H28.7383V47.779H31.1323V51.595ZM30.7273 48.184H30.0343V51.595H30.7273V48.184ZM31.1953 47.122H29.5663V45.745H31.1953V47.122ZM30.7903 46.15H29.9713V46.717H30.7903V46.15ZM32.5176 47.779H39.0246V51.595H39.9876V52H37.6566V51.595H38.6196V48.184H34.9116V51.595H35.8026V52H32.5176V51.595H33.4086V48.184H32.5176V47.779ZM34.5066 51.595V48.184H33.8136V51.595H34.5066ZM52.7392 46.15V51.595H53.6302V52H50.3452V51.595H51.2362V46.726L48.1492 52.207L45.0712 46.726V51.595H45.9622V52H42.6682V51.595H43.5682V46.15H42.6682V45.745H44.9812L48.1492 51.379L51.3262 45.745H53.6302V46.15H52.7392ZM44.6572 51.595V46.15H43.9732V51.595H44.6572ZM52.3342 51.595V46.15H51.6412V51.595H52.3342ZM54.4604 47.779H60.0764V50.092H55.9634V51.595H59.6714V50.902H60.0764V52H54.4604V47.779ZM55.9634 48.184V49.687H59.6714V48.184H55.9634ZM54.8654 51.595H55.5584V48.184H54.8654V51.595ZM60.8887 47.779H67.3957V51.595H68.3587V52H66.0277V51.595H66.9907V48.184H63.2827V51.595H64.1737V52H60.8887V51.595H61.7797V48.184H60.8887V47.779ZM62.8777 51.595V48.184H62.1847V51.595H62.8777ZM76.046 51.595V52H69.467V48.184H68.576V47.779H70.97V51.595H74.678V48.184H73.715V47.779H75.083V51.595H76.046ZM70.565 48.184H69.872V51.595H70.565V48.184Z"/>
</mask>
<path d="M20.1581 46.15V51.595H21.0491V52H17.7641V51.595H18.6551V46.726L15.5681 52.207L12.4901 46.726V51.595H13.3811V52H10.0871V51.595H10.9871V46.15H10.0871V45.745H12.4001L15.5681 51.379L18.7451 45.745H21.0491V46.15H20.1581ZM12.0761 51.595V46.15H11.3921V51.595H12.0761ZM19.7531 51.595V46.15H19.0601V51.595H19.7531ZM27.4504 51.595H28.3414V52H21.8344V49.687H25.9474V48.184H22.2394V48.877H21.8344V47.779H27.4504V51.595ZM25.9474 51.595V50.092H22.2394V51.595H25.9474ZM27.0454 48.184H26.3524V51.595H27.0454V48.184ZM31.1323 51.595H32.0233V52H28.7383V51.595H29.6293V48.184H28.7383V47.779H31.1323V51.595ZM30.7273 48.184H30.0343V51.595H30.7273V48.184ZM31.1953 47.122H29.5663V45.745H31.1953V47.122ZM30.7903 46.15H29.9713V46.717H30.7903V46.15ZM32.5176 47.779H39.0246V51.595H39.9876V52H37.6566V51.595H38.6196V48.184H34.9116V51.595H35.8026V52H32.5176V51.595H33.4086V48.184H32.5176V47.779ZM34.5066 51.595V48.184H33.8136V51.595H34.5066ZM52.7392 46.15V51.595H53.6302V52H50.3452V51.595H51.2362V46.726L48.1492 52.207L45.0712 46.726V51.595H45.9622V52H42.6682V51.595H43.5682V46.15H42.6682V45.745H44.9812L48.1492 51.379L51.3262 45.745H53.6302V46.15H52.7392ZM44.6572 51.595V46.15H43.9732V51.595H44.6572ZM52.3342 51.595V46.15H51.6412V51.595H52.3342ZM54.4604 47.779H60.0764V50.092H55.9634V51.595H59.6714V50.902H60.0764V52H54.4604V47.779ZM55.9634 48.184V49.687H59.6714V48.184H55.9634ZM54.8654 51.595H55.5584V48.184H54.8654V51.595ZM60.8887 47.779H67.3957V51.595H68.3587V52H66.0277V51.595H66.9907V48.184H63.2827V51.595H64.1737V52H60.8887V51.595H61.7797V48.184H60.8887V47.779ZM62.8777 51.595V48.184H62.1847V51.595H62.8777ZM76.046 51.595V52H69.467V48.184H68.576V47.779H70.97V51.595H74.678V48.184H73.715V47.779H75.083V51.595H76.046ZM70.565 48.184H69.872V51.595H70.565V48.184Z" fill="white"/>
<path d="M20.1581 46.15V46.05H20.0581V46.15H20.1581ZM20.1581 51.595H20.0581V51.695H20.1581V51.595ZM21.0491 51.595H21.1491V51.495H21.0491V51.595ZM21.0491 52V52.1H21.1491V52H21.0491ZM17.7641 52H17.6641V52.1H17.7641V52ZM17.7641 51.595V51.495H17.6641V51.595H17.7641ZM18.6551 51.595V51.695H18.7551V51.595H18.6551ZM18.6551 46.726H18.7551V46.3447L18.568 46.6769L18.6551 46.726ZM15.5681 52.207L15.4809 52.256L15.568 52.411L15.6552 52.2561L15.5681 52.207ZM12.4901 46.726L12.5773 46.677L12.3901 46.3437V46.726H12.4901ZM12.4901 51.595H12.3901V51.695H12.4901V51.595ZM13.3811 51.595H13.4811V51.495H13.3811V51.595ZM13.3811 52V52.1H13.4811V52H13.3811ZM10.0871 52H9.98711V52.1H10.0871V52ZM10.0871 51.595V51.495H9.98711V51.595H10.0871ZM10.9871 51.595V51.695H11.0871V51.595H10.9871ZM10.9871 46.15H11.0871V46.05H10.9871V46.15ZM10.0871 46.15H9.98711V46.25H10.0871V46.15ZM10.0871 45.745V45.645H9.98711V45.745H10.0871ZM12.4001 45.745L12.4873 45.696L12.4586 45.645H12.4001V45.745ZM15.5681 51.379L15.4809 51.428L15.568 51.5828L15.6552 51.4281L15.5681 51.379ZM18.7451 45.745V45.645H18.6867L18.658 45.6959L18.7451 45.745ZM21.0491 45.745H21.1491V45.645H21.0491V45.745ZM21.0491 46.15V46.25H21.1491V46.15H21.0491ZM12.0761 51.595V51.695H12.1761V51.595H12.0761ZM12.0761 46.15H12.1761V46.05H12.0761V46.15ZM11.3921 46.15V46.05H11.2921V46.15H11.3921ZM11.3921 51.595H11.2921V51.695H11.3921V51.595ZM19.7531 51.595V51.695H19.8531V51.595H19.7531ZM19.7531 46.15H19.8531V46.05H19.7531V46.15ZM19.0601 46.15V46.05H18.9601V46.15H19.0601ZM19.0601 51.595H18.9601V51.695H19.0601V51.595ZM20.0581 46.15V51.595H20.2581V46.15H20.0581ZM20.1581 51.695H21.0491V51.495H20.1581V51.695ZM20.9491 51.595V52H21.1491V51.595H20.9491ZM21.0491 51.9H17.7641V52.1H21.0491V51.9ZM17.8641 52V51.595H17.6641V52H17.8641ZM17.7641 51.695H18.6551V51.495H17.7641V51.695ZM18.7551 51.595V46.726H18.5551V51.595H18.7551ZM18.568 46.6769L15.481 52.1579L15.6552 52.2561L18.7422 46.7751L18.568 46.6769ZM15.6553 52.158L12.5773 46.677L12.4029 46.775L15.4809 52.256L15.6553 52.158ZM12.3901 46.726V51.595H12.5901V46.726H12.3901ZM12.4901 51.695H13.3811V51.495H12.4901V51.695ZM13.2811 51.595V52H13.4811V51.595H13.2811ZM13.3811 51.9H10.0871V52.1H13.3811V51.9ZM10.1871 52V51.595H9.98711V52H10.1871ZM10.0871 51.695H10.9871V51.495H10.0871V51.695ZM11.0871 51.595V46.15H10.8871V51.595H11.0871ZM10.9871 46.05H10.0871V46.25H10.9871V46.05ZM10.1871 46.15V45.745H9.98711V46.15H10.1871ZM10.0871 45.845H12.4001V45.645H10.0871V45.845ZM12.3129 45.794L15.4809 51.428L15.6553 51.33L12.4873 45.696L12.3129 45.794ZM15.6552 51.4281L18.8322 45.7941L18.658 45.6959L15.481 51.3299L15.6552 51.4281ZM18.7451 45.845H21.0491V45.645H18.7451V45.845ZM20.9491 45.745V46.15H21.1491V45.745H20.9491ZM21.0491 46.05H20.1581V46.25H21.0491V46.05ZM12.1761 51.595V46.15H11.9761V51.595H12.1761ZM12.0761 46.05H11.3921V46.25H12.0761V46.05ZM11.2921 46.15V51.595H11.4921V46.15H11.2921ZM11.3921 51.695H12.0761V51.495H11.3921V51.695ZM19.8531 51.595V46.15H19.6531V51.595H19.8531ZM19.7531 46.05H19.0601V46.25H19.7531V46.05ZM18.9601 46.15V51.595H19.1601V46.15H18.9601ZM19.0601 51.695H19.7531V51.495H19.0601V51.695ZM27.4504 51.595H27.3504V51.695H27.4504V51.595ZM28.3414 51.595H28.4414V51.495H28.3414V51.595ZM28.3414 52V52.1H28.4414V52H28.3414ZM21.8344 52H21.7344V52.1H21.8344V52ZM21.8344 49.687V49.587H21.7344V49.687H21.8344ZM25.9474 49.687V49.787H26.0474V49.687H25.9474ZM25.9474 48.184H26.0474V48.084H25.9474V48.184ZM22.2394 48.184V48.084H22.1394V48.184H22.2394ZM22.2394 48.877V48.977H22.3394V48.877H22.2394ZM21.8344 48.877H21.7344V48.977H21.8344V48.877ZM21.8344 47.779V47.679H21.7344V47.779H21.8344ZM27.4504 47.779H27.5504V47.679H27.4504V47.779ZM25.9474 51.595V51.695H26.0474V51.595H25.9474ZM25.9474 50.092H26.0474V49.992H25.9474V50.092ZM22.2394 50.092V49.992H22.1394V50.092H22.2394ZM22.2394 51.595H22.1394V51.695H22.2394V51.595ZM27.0454 48.184H27.1454V48.084H27.0454V48.184ZM26.3524 48.184V48.084H26.2524V48.184H26.3524ZM26.3524 51.595H26.2524V51.695H26.3524V51.595ZM27.0454 51.595V51.695H27.1454V51.595H27.0454ZM27.4504 51.695H28.3414V51.495H27.4504V51.695ZM28.2414 51.595V52H28.4414V51.595H28.2414ZM28.3414 51.9H21.8344V52.1H28.3414V51.9ZM21.9344 52V49.687H21.7344V52H21.9344ZM21.8344 49.787H25.9474V49.587H21.8344V49.787ZM26.0474 49.687V48.184H25.8474V49.687H26.0474ZM25.9474 48.084H22.2394V48.284H25.9474V48.084ZM22.1394 48.184V48.877H22.3394V48.184H22.1394ZM22.2394 48.777H21.8344V48.977H22.2394V48.777ZM21.9344 48.877V47.779H21.7344V48.877H21.9344ZM21.8344 47.879H27.4504V47.679H21.8344V47.879ZM27.3504 47.779V51.595H27.5504V47.779H27.3504ZM26.0474 51.595V50.092H25.8474V51.595H26.0474ZM25.9474 49.992H22.2394V50.192H25.9474V49.992ZM22.1394 50.092V51.595H22.3394V50.092H22.1394ZM22.2394 51.695H25.9474V51.495H22.2394V51.695ZM27.0454 48.084H26.3524V48.284H27.0454V48.084ZM26.2524 48.184V51.595H26.4524V48.184H26.2524ZM26.3524 51.695H27.0454V51.495H26.3524V51.695ZM27.1454 51.595V48.184H26.9454V51.595H27.1454ZM31.1323 51.595H31.0323V51.695H31.1323V51.595ZM32.0233 51.595H32.1233V51.495H32.0233V51.595ZM32.0233 52V52.1H32.1233V52H32.0233ZM28.7383 52H28.6383V52.1H28.7383V52ZM28.7383 51.595V51.495H28.6383V51.595H28.7383ZM29.6293 51.595V51.695H29.7293V51.595H29.6293ZM29.6293 48.184H29.7293V48.084H29.6293V48.184ZM28.7383 48.184H28.6383V48.284H28.7383V48.184ZM28.7383 47.779V47.679H28.6383V47.779H28.7383ZM31.1323 47.779H31.2323V47.679H31.1323V47.779ZM30.7273 48.184H30.8273V48.084H30.7273V48.184ZM30.0343 48.184V48.084H29.9343V48.184H30.0343ZM30.0343 51.595H29.9343V51.695H30.0343V51.595ZM30.7273 51.595V51.695H30.8273V51.595H30.7273ZM31.1953 47.122V47.222H31.2953V47.122H31.1953ZM29.5663 47.122H29.4663V47.222H29.5663V47.122ZM29.5663 45.745V45.645H29.4663V45.745H29.5663ZM31.1953 45.745H31.2953V45.645H31.1953V45.745ZM30.7903 46.15H30.8903V46.05H30.7903V46.15ZM29.9713 46.15V46.05H29.8713V46.15H29.9713ZM29.9713 46.717H29.8713V46.817H29.9713V46.717ZM30.7903 46.717V46.817H30.8903V46.717H30.7903ZM31.1323 51.695H32.0233V51.495H31.1323V51.695ZM31.9233 51.595V52H32.1233V51.595H31.9233ZM32.0233 51.9H28.7383V52.1H32.0233V51.9ZM28.8383 52V51.595H28.6383V52H28.8383ZM28.7383 51.695H29.6293V51.495H28.7383V51.695ZM29.7293 51.595V48.184H29.5293V51.595H29.7293ZM29.6293 48.084H28.7383V48.284H29.6293V48.084ZM28.8383 48.184V47.779H28.6383V48.184H28.8383ZM28.7383 47.879H31.1323V47.679H28.7383V47.879ZM31.0323 47.779V51.595H31.2323V47.779H31.0323ZM30.7273 48.084H30.0343V48.284H30.7273V48.084ZM29.9343 48.184V51.595H30.1343V48.184H29.9343ZM30.0343 51.695H30.7273V51.495H30.0343V51.695ZM30.8273 51.595V48.184H30.6273V51.595H30.8273ZM31.1953 47.022H29.5663V47.222H31.1953V47.022ZM29.6663 47.122V45.745H29.4663V47.122H29.6663ZM29.5663 45.845H31.1953V45.645H29.5663V45.845ZM31.0953 45.745V47.122H31.2953V45.745H31.0953ZM30.7903 46.05H29.9713V46.25H30.7903V46.05ZM29.8713 46.15V46.717H30.0713V46.15H29.8713ZM29.9713 46.817H30.7903V46.617H29.9713V46.817ZM30.8903 46.717V46.15H30.6903V46.717H30.8903ZM32.5176 47.779V47.679H32.4176V47.779H32.5176ZM39.0246 47.779H39.1246V47.679H39.0246V47.779ZM39.0246 51.595H38.9246V51.695H39.0246V51.595ZM39.9876 51.595H40.0876V51.495H39.9876V51.595ZM39.9876 52V52.1H40.0876V52H39.9876ZM37.6566 52H37.5566V52.1H37.6566V52ZM37.6566 51.595V51.495H37.5566V51.595H37.6566ZM38.6196 51.595V51.695H38.7196V51.595H38.6196ZM38.6196 48.184H38.7196V48.084H38.6196V48.184ZM34.9116 48.184V48.084H34.8116V48.184H34.9116ZM34.9116 51.595H34.8116V51.695H34.9116V51.595ZM35.8026 51.595H35.9026V51.495H35.8026V51.595ZM35.8026 52V52.1H35.9026V52H35.8026ZM32.5176 52H32.4176V52.1H32.5176V52ZM32.5176 51.595V51.495H32.4176V51.595H32.5176ZM33.4086 51.595V51.695H33.5086V51.595H33.4086ZM33.4086 48.184H33.5086V48.084H33.4086V48.184ZM32.5176 48.184H32.4176V48.284H32.5176V48.184ZM34.5066 51.595V51.695H34.6066V51.595H34.5066ZM34.5066 48.184H34.6066V48.084H34.5066V48.184ZM33.8136 48.184V48.084H33.7136V48.184H33.8136ZM33.8136 51.595H33.7136V51.695H33.8136V51.595ZM32.5176 47.879H39.0246V47.679H32.5176V47.879ZM38.9246 47.779V51.595H39.1246V47.779H38.9246ZM39.0246 51.695H39.9876V51.495H39.0246V51.695ZM39.8876 51.595V52H40.0876V51.595H39.8876ZM39.9876 51.9H37.6566V52.1H39.9876V51.9ZM37.7566 52V51.595H37.5566V52H37.7566ZM37.6566 51.695H38.6196V51.495H37.6566V51.695ZM38.7196 51.595V48.184H38.5196V51.595H38.7196ZM38.6196 48.084H34.9116V48.284H38.6196V48.084ZM34.8116 48.184V51.595H35.0116V48.184H34.8116ZM34.9116 51.695H35.8026V51.495H34.9116V51.695ZM35.7026 51.595V52H35.9026V51.595H35.7026ZM35.8026 51.9H32.5176V52.1H35.8026V51.9ZM32.6176 52V51.595H32.4176V52H32.6176ZM32.5176 51.695H33.4086V51.495H32.5176V51.695ZM33.5086 51.595V48.184H33.3086V51.595H33.5086ZM33.4086 48.084H32.5176V48.284H33.4086V48.084ZM32.6176 48.184V47.779H32.4176V48.184H32.6176ZM34.6066 51.595V48.184H34.4066V51.595H34.6066ZM34.5066 48.084H33.8136V48.284H34.5066V48.084ZM33.7136 48.184V51.595H33.9136V48.184H33.7136ZM33.8136 51.695H34.5066V51.495H33.8136V51.695ZM52.7392 46.15V46.05H52.6392V46.15H52.7392ZM52.7392 51.595H52.6392V51.695H52.7392V51.595ZM53.6302 51.595H53.7302V51.495H53.6302V51.595ZM53.6302 52V52.1H53.7302V52H53.6302ZM50.3452 52H50.2452V52.1H50.3452V52ZM50.3452 51.595V51.495H50.2452V51.595H50.3452ZM51.2362 51.595V51.695H51.3362V51.595H51.2362ZM51.2362 46.726H51.3362V46.3447L51.149 46.6769L51.2362 46.726ZM48.1492 52.207L48.062 52.256L48.149 52.411L48.2363 52.2561L48.1492 52.207ZM45.0712 46.726L45.1584 46.677L44.9712 46.3437V46.726H45.0712ZM45.0712 51.595H44.9712V51.695H45.0712V51.595ZM45.9622 51.595H46.0622V51.495H45.9622V51.595ZM45.9622 52V52.1H46.0622V52H45.9622ZM42.6682 52H42.5682V52.1H42.6682V52ZM42.6682 51.595V51.495H42.5682V51.595H42.6682ZM43.5682 51.595V51.695H43.6682V51.595H43.5682ZM43.5682 46.15H43.6682V46.05H43.5682V46.15ZM42.6682 46.15H42.5682V46.25H42.6682V46.15ZM42.6682 45.745V45.645H42.5682V45.745H42.6682ZM44.9812 45.745L45.0683 45.696L45.0397 45.645H44.9812V45.745ZM48.1492 51.379L48.062 51.428L48.149 51.5828L48.2363 51.4281L48.1492 51.379ZM51.3262 45.745V45.645H51.2677L51.2391 45.6959L51.3262 45.745ZM53.6302 45.745H53.7302V45.645H53.6302V45.745ZM53.6302 46.15V46.25H53.7302V46.15H53.6302ZM44.6572 51.595V51.695H44.7572V51.595H44.6572ZM44.6572 46.15H44.7572V46.05H44.6572V46.15ZM43.9732 46.15V46.05H43.8732V46.15H43.9732ZM43.9732 51.595H43.8732V51.695H43.9732V51.595ZM52.3342 51.595V51.695H52.4342V51.595H52.3342ZM52.3342 46.15H52.4342V46.05H52.3342V46.15ZM51.6412 46.15V46.05H51.5412V46.15H51.6412ZM51.6412 51.595H51.5412V51.695H51.6412V51.595ZM52.6392 46.15V51.595H52.8392V46.15H52.6392ZM52.7392 51.695H53.6302V51.495H52.7392V51.695ZM53.5302 51.595V52H53.7302V51.595H53.5302ZM53.6302 51.9H50.3452V52.1H53.6302V51.9ZM50.4452 52V51.595H50.2452V52H50.4452ZM50.3452 51.695H51.2362V51.495H50.3452V51.695ZM51.3362 51.595V46.726H51.1362V51.595H51.3362ZM51.149 46.6769L48.062 52.1579L48.2363 52.2561L51.3233 46.7751L51.149 46.6769ZM48.2364 52.158L45.1584 46.677L44.984 46.775L48.062 52.256L48.2364 52.158ZM44.9712 46.726V51.595H45.1712V46.726H44.9712ZM45.0712 51.695H45.9622V51.495H45.0712V51.695ZM45.8622 51.595V52H46.0622V51.595H45.8622ZM45.9622 51.9H42.6682V52.1H45.9622V51.9ZM42.7682 52V51.595H42.5682V52H42.7682ZM42.6682 51.695H43.5682V51.495H42.6682V51.695ZM43.6682 51.595V46.15H43.4682V51.595H43.6682ZM43.5682 46.05H42.6682V46.25H43.5682V46.05ZM42.7682 46.15V45.745H42.5682V46.15H42.7682ZM42.6682 45.845H44.9812V45.645H42.6682V45.845ZM44.894 45.794L48.062 51.428L48.2363 51.33L45.0683 45.696L44.894 45.794ZM48.2363 51.4281L51.4133 45.7941L51.2391 45.6959L48.0621 51.3299L48.2363 51.4281ZM51.3262 45.845H53.6302V45.645H51.3262V45.845ZM53.5302 45.745V46.15H53.7302V45.745H53.5302ZM53.6302 46.05H52.7392V46.25H53.6302V46.05ZM44.7572 51.595V46.15H44.5572V51.595H44.7572ZM44.6572 46.05H43.9732V46.25H44.6572V46.05ZM43.8732 46.15V51.595H44.0732V46.15H43.8732ZM43.9732 51.695H44.6572V51.495H43.9732V51.695ZM52.4342 51.595V46.15H52.2342V51.595H52.4342ZM52.3342 46.05H51.6412V46.25H52.3342V46.05ZM51.5412 46.15V51.595H51.7412V46.15H51.5412ZM51.6412 51.695H52.3342V51.495H51.6412V51.695ZM54.4604 47.779V47.679H54.3604V47.779H54.4604ZM60.0764 47.779H60.1764V47.679H60.0764V47.779ZM60.0764 50.092V50.192H60.1764V50.092H60.0764ZM55.9634 50.092V49.992H55.8634V50.092H55.9634ZM55.9634 51.595H55.8634V51.695H55.9634V51.595ZM59.6714 51.595V51.695H59.7714V51.595H59.6714ZM59.6714 50.902V50.802H59.5714V50.902H59.6714ZM60.0764 50.902H60.1764V50.802H60.0764V50.902ZM60.0764 52V52.1H60.1764V52H60.0764ZM54.4604 52H54.3604V52.1H54.4604V52ZM55.9634 48.184V48.084H55.8634V48.184H55.9634ZM55.9634 49.687H55.8634V49.787H55.9634V49.687ZM59.6714 49.687V49.787H59.7714V49.687H59.6714ZM59.6714 48.184H59.7714V48.084H59.6714V48.184ZM54.8654 51.595H54.7654V51.695H54.8654V51.595ZM55.5584 51.595V51.695H55.6584V51.595H55.5584ZM55.5584 48.184H55.6584V48.084H55.5584V48.184ZM54.8654 48.184V48.084H54.7654V48.184H54.8654ZM54.4604 47.879H60.0764V47.679H54.4604V47.879ZM59.9764 47.779V50.092H60.1764V47.779H59.9764ZM60.0764 49.992H55.9634V50.192H60.0764V49.992ZM55.8634 50.092V51.595H56.0634V50.092H55.8634ZM55.9634 51.695H59.6714V51.495H55.9634V51.695ZM59.7714 51.595V50.902H59.5714V51.595H59.7714ZM59.6714 51.002H60.0764V50.802H59.6714V51.002ZM59.9764 50.902V52H60.1764V50.902H59.9764ZM60.0764 51.9H54.4604V52.1H60.0764V51.9ZM54.5604 52V47.779H54.3604V52H54.5604ZM55.8634 48.184V49.687H56.0634V48.184H55.8634ZM55.9634 49.787H59.6714V49.587H55.9634V49.787ZM59.7714 49.687V48.184H59.5714V49.687H59.7714ZM59.6714 48.084H55.9634V48.284H59.6714V48.084ZM54.8654 51.695H55.5584V51.495H54.8654V51.695ZM55.6584 51.595V48.184H55.4584V51.595H55.6584ZM55.5584 48.084H54.8654V48.284H55.5584V48.084ZM54.7654 48.184V51.595H54.9654V48.184H54.7654ZM60.8887 47.779V47.679H60.7887V47.779H60.8887ZM67.3957 47.779H67.4957V47.679H67.3957V47.779ZM67.3957 51.595H67.2957V51.695H67.3957V51.595ZM68.3587 51.595H68.4587V51.495H68.3587V51.595ZM68.3587 52V52.1H68.4587V52H68.3587ZM66.0277 52H65.9277V52.1H66.0277V52ZM66.0277 51.595V51.495H65.9277V51.595H66.0277ZM66.9907 51.595V51.695H67.0907V51.595H66.9907ZM66.9907 48.184H67.0907V48.084H66.9907V48.184ZM63.2827 48.184V48.084H63.1827V48.184H63.2827ZM63.2827 51.595H63.1827V51.695H63.2827V51.595ZM64.1737 51.595H64.2737V51.495H64.1737V51.595ZM64.1737 52V52.1H64.2737V52H64.1737ZM60.8887 52H60.7887V52.1H60.8887V52ZM60.8887 51.595V51.495H60.7887V51.595H60.8887ZM61.7797 51.595V51.695H61.8797V51.595H61.7797ZM61.7797 48.184H61.8797V48.084H61.7797V48.184ZM60.8887 48.184H60.7887V48.284H60.8887V48.184ZM62.8777 51.595V51.695H62.9777V51.595H62.8777ZM62.8777 48.184H62.9777V48.084H62.8777V48.184ZM62.1847 48.184V48.084H62.0847V48.184H62.1847ZM62.1847 51.595H62.0847V51.695H62.1847V51.595ZM60.8887 47.879H67.3957V47.679H60.8887V47.879ZM67.2957 47.779V51.595H67.4957V47.779H67.2957ZM67.3957 51.695H68.3587V51.495H67.3957V51.695ZM68.2587 51.595V52H68.4587V51.595H68.2587ZM68.3587 51.9H66.0277V52.1H68.3587V51.9ZM66.1277 52V51.595H65.9277V52H66.1277ZM66.0277 51.695H66.9907V51.495H66.0277V51.695ZM67.0907 51.595V48.184H66.8907V51.595H67.0907ZM66.9907 48.084H63.2827V48.284H66.9907V48.084ZM63.1827 48.184V51.595H63.3827V48.184H63.1827ZM63.2827 51.695H64.1737V51.495H63.2827V51.695ZM64.0737 51.595V52H64.2737V51.595H64.0737ZM64.1737 51.9H60.8887V52.1H64.1737V51.9ZM60.9887 52V51.595H60.7887V52H60.9887ZM60.8887 51.695H61.7797V51.495H60.8887V51.695ZM61.8797 51.595V48.184H61.6797V51.595H61.8797ZM61.7797 48.084H60.8887V48.284H61.7797V48.084ZM60.9887 48.184V47.779H60.7887V48.184H60.9887ZM62.9777 51.595V48.184H62.7777V51.595H62.9777ZM62.8777 48.084H62.1847V48.284H62.8777V48.084ZM62.0847 48.184V51.595H62.2847V48.184H62.0847ZM62.1847 51.695H62.8777V51.495H62.1847V51.695ZM76.046 51.595H76.146V51.495H76.046V51.595ZM76.046 52V52.1H76.146V52H76.046ZM69.467 52H69.367V52.1H69.467V52ZM69.467 48.184H69.567V48.084H69.467V48.184ZM68.576 48.184H68.476V48.284H68.576V48.184ZM68.576 47.779V47.679H68.476V47.779H68.576ZM70.97 47.779H71.07V47.679H70.97V47.779ZM70.97 51.595H70.87V51.695H70.97V51.595ZM74.678 51.595V51.695H74.778V51.595H74.678ZM74.678 48.184H74.778V48.084H74.678V48.184ZM73.715 48.184H73.615V48.284H73.715V48.184ZM73.715 47.779V47.679H73.615V47.779H73.715ZM75.083 47.779H75.183V47.679H75.083V47.779ZM75.083 51.595H74.983V51.695H75.083V51.595ZM70.565 48.184H70.665V48.084H70.565V48.184ZM69.872 48.184V48.084H69.772V48.184H69.872ZM69.872 51.595H69.772V51.695H69.872V51.595ZM70.565 51.595V51.695H70.665V51.595H70.565ZM75.946 51.595V52H76.146V51.595H75.946ZM76.046 51.9H69.467V52.1H76.046V51.9ZM69.567 52V48.184H69.367V52H69.567ZM69.467 48.084H68.576V48.284H69.467V48.084ZM68.676 48.184V47.779H68.476V48.184H68.676ZM68.576 47.879H70.97V47.679H68.576V47.879ZM70.87 47.779V51.595H71.07V47.779H70.87ZM70.97 51.695H74.678V51.495H70.97V51.695ZM74.778 51.595V48.184H74.578V51.595H74.778ZM74.678 48.084H73.715V48.284H74.678V48.084ZM73.815 48.184V47.779H73.615V48.184H73.815ZM73.715 47.879H75.083V47.679H73.715V47.879ZM74.983 47.779V51.595H75.183V47.779H74.983ZM75.083 51.695H76.046V51.495H75.083V51.695ZM70.565 48.084H69.872V48.284H70.565V48.084ZM69.772 48.184V51.595H69.972V48.184H69.772ZM69.872 51.695H70.565V51.495H69.872V51.695ZM70.665 51.595V48.184H70.465V51.595H70.665Z" fill="white" mask="url(#path-5-outside-2_515_968)"/>
<rect x="4.5" y="72.5" width="77" height="25" rx="3.5" fill="white" stroke="#D86929"/>
<mask id="path-8-outside-3_515_968" maskUnits="userSpaceOnUse" x="9" y="81" width="68" height="8" fill="black">
<rect fill="white" x="9" y="81" width="68" height="8"/>
<path d="M20.1581 82.15V87.595H21.0491V88H17.7641V87.595H18.6551V82.726L15.5681 88.207L12.4901 82.726V87.595H13.3811V88H10.0871V87.595H10.9871V82.15H10.0871V81.745H12.4001L15.5681 87.379L18.7451 81.745H21.0491V82.15H20.1581ZM12.0761 87.595V82.15H11.3921V87.595H12.0761ZM19.7531 87.595V82.15H19.0601V87.595H19.7531ZM27.4504 87.595H28.3414V88H21.8344V85.687H25.9474V84.184H22.2394V84.877H21.8344V83.779H27.4504V87.595ZM25.9474 87.595V86.092H22.2394V87.595H25.9474ZM27.0454 84.184H26.3524V87.595H27.0454V84.184ZM31.1323 87.595H32.0233V88H28.7383V87.595H29.6293V84.184H28.7383V83.779H31.1323V87.595ZM30.7273 84.184H30.0343V87.595H30.7273V84.184ZM31.1953 83.122H29.5663V81.745H31.1953V83.122ZM30.7903 82.15H29.9713V82.717H30.7903V82.15ZM32.5176 83.779H39.0246V87.595H39.9876V88H37.6566V87.595H38.6196V84.184H34.9116V87.595H35.8026V88H32.5176V87.595H33.4086V84.184H32.5176V83.779ZM34.5066 87.595V84.184H33.8136V87.595H34.5066ZM52.7392 82.15V87.595H53.6302V88H50.3452V87.595H51.2362V82.726L48.1492 88.207L45.0712 82.726V87.595H45.9622V88H42.6682V87.595H43.5682V82.15H42.6682V81.745H44.9812L48.1492 87.379L51.3262 81.745H53.6302V82.15H52.7392ZM44.6572 87.595V82.15H43.9732V87.595H44.6572ZM52.3342 87.595V82.15H51.6412V87.595H52.3342ZM54.4604 83.779H60.0764V86.092H55.9634V87.595H59.6714V86.902H60.0764V88H54.4604V83.779ZM55.9634 84.184V85.687H59.6714V84.184H55.9634ZM54.8654 87.595H55.5584V84.184H54.8654V87.595ZM60.8887 83.779H67.3957V87.595H68.3587V88H66.0277V87.595H66.9907V84.184H63.2827V87.595H64.1737V88H60.8887V87.595H61.7797V84.184H60.8887V83.779ZM62.8777 87.595V84.184H62.1847V87.595H62.8777ZM76.046 87.595V88H69.467V84.184H68.576V83.779H70.97V87.595H74.678V84.184H73.715V83.779H75.083V87.595H76.046ZM70.565 84.184H69.872V87.595H70.565V84.184Z"/>
</mask>
<path d="M20.1581 82.15V87.595H21.0491V88H17.7641V87.595H18.6551V82.726L15.5681 88.207L12.4901 82.726V87.595H13.3811V88H10.0871V87.595H10.9871V82.15H10.0871V81.745H12.4001L15.5681 87.379L18.7451 81.745H21.0491V82.15H20.1581ZM12.0761 87.595V82.15H11.3921V87.595H12.0761ZM19.7531 87.595V82.15H19.0601V87.595H19.7531ZM27.4504 87.595H28.3414V88H21.8344V85.687H25.9474V84.184H22.2394V84.877H21.8344V83.779H27.4504V87.595ZM25.9474 87.595V86.092H22.2394V87.595H25.9474ZM27.0454 84.184H26.3524V87.595H27.0454V84.184ZM31.1323 87.595H32.0233V88H28.7383V87.595H29.6293V84.184H28.7383V83.779H31.1323V87.595ZM30.7273 84.184H30.0343V87.595H30.7273V84.184ZM31.1953 83.122H29.5663V81.745H31.1953V83.122ZM30.7903 82.15H29.9713V82.717H30.7903V82.15ZM32.5176 83.779H39.0246V87.595H39.9876V88H37.6566V87.595H38.6196V84.184H34.9116V87.595H35.8026V88H32.5176V87.595H33.4086V84.184H32.5176V83.779ZM34.5066 87.595V84.184H33.8136V87.595H34.5066ZM52.7392 82.15V87.595H53.6302V88H50.3452V87.595H51.2362V82.726L48.1492 88.207L45.0712 82.726V87.595H45.9622V88H42.6682V87.595H43.5682V82.15H42.6682V81.745H44.9812L48.1492 87.379L51.3262 81.745H53.6302V82.15H52.7392ZM44.6572 87.595V82.15H43.9732V87.595H44.6572ZM52.3342 87.595V82.15H51.6412V87.595H52.3342ZM54.4604 83.779H60.0764V86.092H55.9634V87.595H59.6714V86.902H60.0764V88H54.4604V83.779ZM55.9634 84.184V85.687H59.6714V84.184H55.9634ZM54.8654 87.595H55.5584V84.184H54.8654V87.595ZM60.8887 83.779H67.3957V87.595H68.3587V88H66.0277V87.595H66.9907V84.184H63.2827V87.595H64.1737V88H60.8887V87.595H61.7797V84.184H60.8887V83.779ZM62.8777 87.595V84.184H62.1847V87.595H62.8777ZM76.046 87.595V88H69.467V84.184H68.576V83.779H70.97V87.595H74.678V84.184H73.715V83.779H75.083V87.595H76.046ZM70.565 84.184H69.872V87.595H70.565V84.184Z" fill="black"/>
<path d="M20.1581 82.15V82.05H20.0581V82.15H20.1581ZM20.1581 87.595H20.0581V87.695H20.1581V87.595ZM21.0491 87.595H21.1491V87.495H21.0491V87.595ZM21.0491 88V88.1H21.1491V88H21.0491ZM17.7641 88H17.6641V88.1H17.7641V88ZM17.7641 87.595V87.495H17.6641V87.595H17.7641ZM18.6551 87.595V87.695H18.7551V87.595H18.6551ZM18.6551 82.726H18.7551V82.3447L18.568 82.6769L18.6551 82.726ZM15.5681 88.207L15.4809 88.256L15.568 88.411L15.6552 88.2561L15.5681 88.207ZM12.4901 82.726L12.5773 82.677L12.3901 82.3437V82.726H12.4901ZM12.4901 87.595H12.3901V87.695H12.4901V87.595ZM13.3811 87.595H13.4811V87.495H13.3811V87.595ZM13.3811 88V88.1H13.4811V88H13.3811ZM10.0871 88H9.98711V88.1H10.0871V88ZM10.0871 87.595V87.495H9.98711V87.595H10.0871ZM10.9871 87.595V87.695H11.0871V87.595H10.9871ZM10.9871 82.15H11.0871V82.05H10.9871V82.15ZM10.0871 82.15H9.98711V82.25H10.0871V82.15ZM10.0871 81.745V81.645H9.98711V81.745H10.0871ZM12.4001 81.745L12.4873 81.696L12.4586 81.645H12.4001V81.745ZM15.5681 87.379L15.4809 87.428L15.568 87.5828L15.6552 87.4281L15.5681 87.379ZM18.7451 81.745V81.645H18.6867L18.658 81.6959L18.7451 81.745ZM21.0491 81.745H21.1491V81.645H21.0491V81.745ZM21.0491 82.15V82.25H21.1491V82.15H21.0491ZM12.0761 87.595V87.695H12.1761V87.595H12.0761ZM12.0761 82.15H12.1761V82.05H12.0761V82.15ZM11.3921 82.15V82.05H11.2921V82.15H11.3921ZM11.3921 87.595H11.2921V87.695H11.3921V87.595ZM19.7531 87.595V87.695H19.8531V87.595H19.7531ZM19.7531 82.15H19.8531V82.05H19.7531V82.15ZM19.0601 82.15V82.05H18.9601V82.15H19.0601ZM19.0601 87.595H18.9601V87.695H19.0601V87.595ZM20.0581 82.15V87.595H20.2581V82.15H20.0581ZM20.1581 87.695H21.0491V87.495H20.1581V87.695ZM20.9491 87.595V88H21.1491V87.595H20.9491ZM21.0491 87.9H17.7641V88.1H21.0491V87.9ZM17.8641 88V87.595H17.6641V88H17.8641ZM17.7641 87.695H18.6551V87.495H17.7641V87.695ZM18.7551 87.595V82.726H18.5551V87.595H18.7551ZM18.568 82.6769L15.481 88.1579L15.6552 88.2561L18.7422 82.7751L18.568 82.6769ZM15.6553 88.158L12.5773 82.677L12.4029 82.775L15.4809 88.256L15.6553 88.158ZM12.3901 82.726V87.595H12.5901V82.726H12.3901ZM12.4901 87.695H13.3811V87.495H12.4901V87.695ZM13.2811 87.595V88H13.4811V87.595H13.2811ZM13.3811 87.9H10.0871V88.1H13.3811V87.9ZM10.1871 88V87.595H9.98711V88H10.1871ZM10.0871 87.695H10.9871V87.495H10.0871V87.695ZM11.0871 87.595V82.15H10.8871V87.595H11.0871ZM10.9871 82.05H10.0871V82.25H10.9871V82.05ZM10.1871 82.15V81.745H9.98711V82.15H10.1871ZM10.0871 81.845H12.4001V81.645H10.0871V81.845ZM12.3129 81.794L15.4809 87.428L15.6553 87.33L12.4873 81.696L12.3129 81.794ZM15.6552 87.4281L18.8322 81.7941L18.658 81.6959L15.481 87.3299L15.6552 87.4281ZM18.7451 81.845H21.0491V81.645H18.7451V81.845ZM20.9491 81.745V82.15H21.1491V81.745H20.9491ZM21.0491 82.05H20.1581V82.25H21.0491V82.05ZM12.1761 87.595V82.15H11.9761V87.595H12.1761ZM12.0761 82.05H11.3921V82.25H12.0761V82.05ZM11.2921 82.15V87.595H11.4921V82.15H11.2921ZM11.3921 87.695H12.0761V87.495H11.3921V87.695ZM19.8531 87.595V82.15H19.6531V87.595H19.8531ZM19.7531 82.05H19.0601V82.25H19.7531V82.05ZM18.9601 82.15V87.595H19.1601V82.15H18.9601ZM19.0601 87.695H19.7531V87.495H19.0601V87.695ZM27.4504 87.595H27.3504V87.695H27.4504V87.595ZM28.3414 87.595H28.4414V87.495H28.3414V87.595ZM28.3414 88V88.1H28.4414V88H28.3414ZM21.8344 88H21.7344V88.1H21.8344V88ZM21.8344 85.687V85.587H21.7344V85.687H21.8344ZM25.9474 85.687V85.787H26.0474V85.687H25.9474ZM25.9474 84.184H26.0474V84.084H25.9474V84.184ZM22.2394 84.184V84.084H22.1394V84.184H22.2394ZM22.2394 84.877V84.977H22.3394V84.877H22.2394ZM21.8344 84.877H21.7344V84.977H21.8344V84.877ZM21.8344 83.779V83.679H21.7344V83.779H21.8344ZM27.4504 83.779H27.5504V83.679H27.4504V83.779ZM25.9474 87.595V87.695H26.0474V87.595H25.9474ZM25.9474 86.092H26.0474V85.992H25.9474V86.092ZM22.2394 86.092V85.992H22.1394V86.092H22.2394ZM22.2394 87.595H22.1394V87.695H22.2394V87.595ZM27.0454 84.184H27.1454V84.084H27.0454V84.184ZM26.3524 84.184V84.084H26.2524V84.184H26.3524ZM26.3524 87.595H26.2524V87.695H26.3524V87.595ZM27.0454 87.595V87.695H27.1454V87.595H27.0454ZM27.4504 87.695H28.3414V87.495H27.4504V87.695ZM28.2414 87.595V88H28.4414V87.595H28.2414ZM28.3414 87.9H21.8344V88.1H28.3414V87.9ZM21.9344 88V85.687H21.7344V88H21.9344ZM21.8344 85.787H25.9474V85.587H21.8344V85.787ZM26.0474 85.687V84.184H25.8474V85.687H26.0474ZM25.9474 84.084H22.2394V84.284H25.9474V84.084ZM22.1394 84.184V84.877H22.3394V84.184H22.1394ZM22.2394 84.777H21.8344V84.977H22.2394V84.777ZM21.9344 84.877V83.779H21.7344V84.877H21.9344ZM21.8344 83.879H27.4504V83.679H21.8344V83.879ZM27.3504 83.779V87.595H27.5504V83.779H27.3504ZM26.0474 87.595V86.092H25.8474V87.595H26.0474ZM25.9474 85.992H22.2394V86.192H25.9474V85.992ZM22.1394 86.092V87.595H22.3394V86.092H22.1394ZM22.2394 87.695H25.9474V87.495H22.2394V87.695ZM27.0454 84.084H26.3524V84.284H27.0454V84.084ZM26.2524 84.184V87.595H26.4524V84.184H26.2524ZM26.3524 87.695H27.0454V87.495H26.3524V87.695ZM27.1454 87.595V84.184H26.9454V87.595H27.1454ZM31.1323 87.595H31.0323V87.695H31.1323V87.595ZM32.0233 87.595H32.1233V87.495H32.0233V87.595ZM32.0233 88V88.1H32.1233V88H32.0233ZM28.7383 88H28.6383V88.1H28.7383V88ZM28.7383 87.595V87.495H28.6383V87.595H28.7383ZM29.6293 87.595V87.695H29.7293V87.595H29.6293ZM29.6293 84.184H29.7293V84.084H29.6293V84.184ZM28.7383 84.184H28.6383V84.284H28.7383V84.184ZM28.7383 83.779V83.679H28.6383V83.779H28.7383ZM31.1323 83.779H31.2323V83.679H31.1323V83.779ZM30.7273 84.184H30.8273V84.084H30.7273V84.184ZM30.0343 84.184V84.084H29.9343V84.184H30.0343ZM30.0343 87.595H29.9343V87.695H30.0343V87.595ZM30.7273 87.595V87.695H30.8273V87.595H30.7273ZM31.1953 83.122V83.222H31.2953V83.122H31.1953ZM29.5663 83.122H29.4663V83.222H29.5663V83.122ZM29.5663 81.745V81.645H29.4663V81.745H29.5663ZM31.1953 81.745H31.2953V81.645H31.1953V81.745ZM30.7903 82.15H30.8903V82.05H30.7903V82.15ZM29.9713 82.15V82.05H29.8713V82.15H29.9713ZM29.9713 82.717H29.8713V82.817H29.9713V82.717ZM30.7903 82.717V82.817H30.8903V82.717H30.7903ZM31.1323 87.695H32.0233V87.495H31.1323V87.695ZM31.9233 87.595V88H32.1233V87.595H31.9233ZM32.0233 87.9H28.7383V88.1H32.0233V87.9ZM28.8383 88V87.595H28.6383V88H28.8383ZM28.7383 87.695H29.6293V87.495H28.7383V87.695ZM29.7293 87.595V84.184H29.5293V87.595H29.7293ZM29.6293 84.084H28.7383V84.284H29.6293V84.084ZM28.8383 84.184V83.779H28.6383V84.184H28.8383ZM28.7383 83.879H31.1323V83.679H28.7383V83.879ZM31.0323 83.779V87.595H31.2323V83.779H31.0323ZM30.7273 84.084H30.0343V84.284H30.7273V84.084ZM29.9343 84.184V87.595H30.1343V84.184H29.9343ZM30.0343 87.695H30.7273V87.495H30.0343V87.695ZM30.8273 87.595V84.184H30.6273V87.595H30.8273ZM31.1953 83.022H29.5663V83.222H31.1953V83.022ZM29.6663 83.122V81.745H29.4663V83.122H29.6663ZM29.5663 81.845H31.1953V81.645H29.5663V81.845ZM31.0953 81.745V83.122H31.2953V81.745H31.0953ZM30.7903 82.05H29.9713V82.25H30.7903V82.05ZM29.8713 82.15V82.717H30.0713V82.15H29.8713ZM29.9713 82.817H30.7903V82.617H29.9713V82.817ZM30.8903 82.717V82.15H30.6903V82.717H30.8903ZM32.5176 83.779V83.679H32.4176V83.779H32.5176ZM39.0246 83.779H39.1246V83.679H39.0246V83.779ZM39.0246 87.595H38.9246V87.695H39.0246V87.595ZM39.9876 87.595H40.0876V87.495H39.9876V87.595ZM39.9876 88V88.1H40.0876V88H39.9876ZM37.6566 88H37.5566V88.1H37.6566V88ZM37.6566 87.595V87.495H37.5566V87.595H37.6566ZM38.6196 87.595V87.695H38.7196V87.595H38.6196ZM38.6196 84.184H38.7196V84.084H38.6196V84.184ZM34.9116 84.184V84.084H34.8116V84.184H34.9116ZM34.9116 87.595H34.8116V87.695H34.9116V87.595ZM35.8026 87.595H35.9026V87.495H35.8026V87.595ZM35.8026 88V88.1H35.9026V88H35.8026ZM32.5176 88H32.4176V88.1H32.5176V88ZM32.5176 87.595V87.495H32.4176V87.595H32.5176ZM33.4086 87.595V87.695H33.5086V87.595H33.4086ZM33.4086 84.184H33.5086V84.084H33.4086V84.184ZM32.5176 84.184H32.4176V84.284H32.5176V84.184ZM34.5066 87.595V87.695H34.6066V87.595H34.5066ZM34.5066 84.184H34.6066V84.084H34.5066V84.184ZM33.8136 84.184V84.084H33.7136V84.184H33.8136ZM33.8136 87.595H33.7136V87.695H33.8136V87.595ZM32.5176 83.879H39.0246V83.679H32.5176V83.879ZM38.9246 83.779V87.595H39.1246V83.779H38.9246ZM39.0246 87.695H39.9876V87.495H39.0246V87.695ZM39.8876 87.595V88H40.0876V87.595H39.8876ZM39.9876 87.9H37.6566V88.1H39.9876V87.9ZM37.7566 88V87.595H37.5566V88H37.7566ZM37.6566 87.695H38.6196V87.495H37.6566V87.695ZM38.7196 87.595V84.184H38.5196V87.595H38.7196ZM38.6196 84.084H34.9116V84.284H38.6196V84.084ZM34.8116 84.184V87.595H35.0116V84.184H34.8116ZM34.9116 87.695H35.8026V87.495H34.9116V87.695ZM35.7026 87.595V88H35.9026V87.595H35.7026ZM35.8026 87.9H32.5176V88.1H35.8026V87.9ZM32.6176 88V87.595H32.4176V88H32.6176ZM32.5176 87.695H33.4086V87.495H32.5176V87.695ZM33.5086 87.595V84.184H33.3086V87.595H33.5086ZM33.4086 84.084H32.5176V84.284H33.4086V84.084ZM32.6176 84.184V83.779H32.4176V84.184H32.6176ZM34.6066 87.595V84.184H34.4066V87.595H34.6066ZM34.5066 84.084H33.8136V84.284H34.5066V84.084ZM33.7136 84.184V87.595H33.9136V84.184H33.7136ZM33.8136 87.695H34.5066V87.495H33.8136V87.695ZM52.7392 82.15V82.05H52.6392V82.15H52.7392ZM52.7392 87.595H52.6392V87.695H52.7392V87.595ZM53.6302 87.595H53.7302V87.495H53.6302V87.595ZM53.6302 88V88.1H53.7302V88H53.6302ZM50.3452 88H50.2452V88.1H50.3452V88ZM50.3452 87.595V87.495H50.2452V87.595H50.3452ZM51.2362 87.595V87.695H51.3362V87.595H51.2362ZM51.2362 82.726H51.3362V82.3447L51.149 82.6769L51.2362 82.726ZM48.1492 88.207L48.062 88.256L48.149 88.411L48.2363 88.2561L48.1492 88.207ZM45.0712 82.726L45.1584 82.677L44.9712 82.3437V82.726H45.0712ZM45.0712 87.595H44.9712V87.695H45.0712V87.595ZM45.9622 87.595H46.0622V87.495H45.9622V87.595ZM45.9622 88V88.1H46.0622V88H45.9622ZM42.6682 88H42.5682V88.1H42.6682V88ZM42.6682 87.595V87.495H42.5682V87.595H42.6682ZM43.5682 87.595V87.695H43.6682V87.595H43.5682ZM43.5682 82.15H43.6682V82.05H43.5682V82.15ZM42.6682 82.15H42.5682V82.25H42.6682V82.15ZM42.6682 81.745V81.645H42.5682V81.745H42.6682ZM44.9812 81.745L45.0683 81.696L45.0397 81.645H44.9812V81.745ZM48.1492 87.379L48.062 87.428L48.149 87.5828L48.2363 87.4281L48.1492 87.379ZM51.3262 81.745V81.645H51.2677L51.2391 81.6959L51.3262 81.745ZM53.6302 81.745H53.7302V81.645H53.6302V81.745ZM53.6302 82.15V82.25H53.7302V82.15H53.6302ZM44.6572 87.595V87.695H44.7572V87.595H44.6572ZM44.6572 82.15H44.7572V82.05H44.6572V82.15ZM43.9732 82.15V82.05H43.8732V82.15H43.9732ZM43.9732 87.595H43.8732V87.695H43.9732V87.595ZM52.3342 87.595V87.695H52.4342V87.595H52.3342ZM52.3342 82.15H52.4342V82.05H52.3342V82.15ZM51.6412 82.15V82.05H51.5412V82.15H51.6412ZM51.6412 87.595H51.5412V87.695H51.6412V87.595ZM52.6392 82.15V87.595H52.8392V82.15H52.6392ZM52.7392 87.695H53.6302V87.495H52.7392V87.695ZM53.5302 87.595V88H53.7302V87.595H53.5302ZM53.6302 87.9H50.3452V88.1H53.6302V87.9ZM50.4452 88V87.595H50.2452V88H50.4452ZM50.3452 87.695H51.2362V87.495H50.3452V87.695ZM51.3362 87.595V82.726H51.1362V87.595H51.3362ZM51.149 82.6769L48.062 88.1579L48.2363 88.2561L51.3233 82.7751L51.149 82.6769ZM48.2364 88.158L45.1584 82.677L44.984 82.775L48.062 88.256L48.2364 88.158ZM44.9712 82.726V87.595H45.1712V82.726H44.9712ZM45.0712 87.695H45.9622V87.495H45.0712V87.695ZM45.8622 87.595V88H46.0622V87.595H45.8622ZM45.9622 87.9H42.6682V88.1H45.9622V87.9ZM42.7682 88V87.595H42.5682V88H42.7682ZM42.6682 87.695H43.5682V87.495H42.6682V87.695ZM43.6682 87.595V82.15H43.4682V87.595H43.6682ZM43.5682 82.05H42.6682V82.25H43.5682V82.05ZM42.7682 82.15V81.745H42.5682V82.15H42.7682ZM42.6682 81.845H44.9812V81.645H42.6682V81.845ZM44.894 81.794L48.062 87.428L48.2363 87.33L45.0683 81.696L44.894 81.794ZM48.2363 87.4281L51.4133 81.7941L51.2391 81.6959L48.0621 87.3299L48.2363 87.4281ZM51.3262 81.845H53.6302V81.645H51.3262V81.845ZM53.5302 81.745V82.15H53.7302V81.745H53.5302ZM53.6302 82.05H52.7392V82.25H53.6302V82.05ZM44.7572 87.595V82.15H44.5572V87.595H44.7572ZM44.6572 82.05H43.9732V82.25H44.6572V82.05ZM43.8732 82.15V87.595H44.0732V82.15H43.8732ZM43.9732 87.695H44.6572V87.495H43.9732V87.695ZM52.4342 87.595V82.15H52.2342V87.595H52.4342ZM52.3342 82.05H51.6412V82.25H52.3342V82.05ZM51.5412 82.15V87.595H51.7412V82.15H51.5412ZM51.6412 87.695H52.3342V87.495H51.6412V87.695ZM54.4604 83.779V83.679H54.3604V83.779H54.4604ZM60.0764 83.779H60.1764V83.679H60.0764V83.779ZM60.0764 86.092V86.192H60.1764V86.092H60.0764ZM55.9634 86.092V85.992H55.8634V86.092H55.9634ZM55.9634 87.595H55.8634V87.695H55.9634V87.595ZM59.6714 87.595V87.695H59.7714V87.595H59.6714ZM59.6714 86.902V86.802H59.5714V86.902H59.6714ZM60.0764 86.902H60.1764V86.802H60.0764V86.902ZM60.0764 88V88.1H60.1764V88H60.0764ZM54.4604 88H54.3604V88.1H54.4604V88ZM55.9634 84.184V84.084H55.8634V84.184H55.9634ZM55.9634 85.687H55.8634V85.787H55.9634V85.687ZM59.6714 85.687V85.787H59.7714V85.687H59.6714ZM59.6714 84.184H59.7714V84.084H59.6714V84.184ZM54.8654 87.595H54.7654V87.695H54.8654V87.595ZM55.5584 87.595V87.695H55.6584V87.595H55.5584ZM55.5584 84.184H55.6584V84.084H55.5584V84.184ZM54.8654 84.184V84.084H54.7654V84.184H54.8654ZM54.4604 83.879H60.0764V83.679H54.4604V83.879ZM59.9764 83.779V86.092H60.1764V83.779H59.9764ZM60.0764 85.992H55.9634V86.192H60.0764V85.992ZM55.8634 86.092V87.595H56.0634V86.092H55.8634ZM55.9634 87.695H59.6714V87.495H55.9634V87.695ZM59.7714 87.595V86.902H59.5714V87.595H59.7714ZM59.6714 87.002H60.0764V86.802H59.6714V87.002ZM59.9764 86.902V88H60.1764V86.902H59.9764ZM60.0764 87.9H54.4604V88.1H60.0764V87.9ZM54.5604 88V83.779H54.3604V88H54.5604ZM55.8634 84.184V85.687H56.0634V84.184H55.8634ZM55.9634 85.787H59.6714V85.587H55.9634V85.787ZM59.7714 85.687V84.184H59.5714V85.687H59.7714ZM59.6714 84.084H55.9634V84.284H59.6714V84.084ZM54.8654 87.695H55.5584V87.495H54.8654V87.695ZM55.6584 87.595V84.184H55.4584V87.595H55.6584ZM55.5584 84.084H54.8654V84.284H55.5584V84.084ZM54.7654 84.184V87.595H54.9654V84.184H54.7654ZM60.8887 83.779V83.679H60.7887V83.779H60.8887ZM67.3957 83.779H67.4957V83.679H67.3957V83.779ZM67.3957 87.595H67.2957V87.695H67.3957V87.595ZM68.3587 87.595H68.4587V87.495H68.3587V87.595ZM68.3587 88V88.1H68.4587V88H68.3587ZM66.0277 88H65.9277V88.1H66.0277V88ZM66.0277 87.595V87.495H65.9277V87.595H66.0277ZM66.9907 87.595V87.695H67.0907V87.595H66.9907ZM66.9907 84.184H67.0907V84.084H66.9907V84.184ZM63.2827 84.184V84.084H63.1827V84.184H63.2827ZM63.2827 87.595H63.1827V87.695H63.2827V87.595ZM64.1737 87.595H64.2737V87.495H64.1737V87.595ZM64.1737 88V88.1H64.2737V88H64.1737ZM60.8887 88H60.7887V88.1H60.8887V88ZM60.8887 87.595V87.495H60.7887V87.595H60.8887ZM61.7797 87.595V87.695H61.8797V87.595H61.7797ZM61.7797 84.184H61.8797V84.084H61.7797V84.184ZM60.8887 84.184H60.7887V84.284H60.8887V84.184ZM62.8777 87.595V87.695H62.9777V87.595H62.8777ZM62.8777 84.184H62.9777V84.084H62.8777V84.184ZM62.1847 84.184V84.084H62.0847V84.184H62.1847ZM62.1847 87.595H62.0847V87.695H62.1847V87.595ZM60.8887 83.879H67.3957V83.679H60.8887V83.879ZM67.2957 83.779V87.595H67.4957V83.779H67.2957ZM67.3957 87.695H68.3587V87.495H67.3957V87.695ZM68.2587 87.595V88H68.4587V87.595H68.2587ZM68.3587 87.9H66.0277V88.1H68.3587V87.9ZM66.1277 88V87.595H65.9277V88H66.1277ZM66.0277 87.695H66.9907V87.495H66.0277V87.695ZM67.0907 87.595V84.184H66.8907V87.595H67.0907ZM66.9907 84.084H63.2827V84.284H66.9907V84.084ZM63.1827 84.184V87.595H63.3827V84.184H63.1827ZM63.2827 87.695H64.1737V87.495H63.2827V87.695ZM64.0737 87.595V88H64.2737V87.595H64.0737ZM64.1737 87.9H60.8887V88.1H64.1737V87.9ZM60.9887 88V87.595H60.7887V88H60.9887ZM60.8887 87.695H61.7797V87.495H60.8887V87.695ZM61.8797 87.595V84.184H61.6797V87.595H61.8797ZM61.7797 84.084H60.8887V84.284H61.7797V84.084ZM60.9887 84.184V83.779H60.7887V84.184H60.9887ZM62.9777 87.595V84.184H62.7777V87.595H62.9777ZM62.8777 84.084H62.1847V84.284H62.8777V84.084ZM62.0847 84.184V87.595H62.2847V84.184H62.0847ZM62.1847 87.695H62.8777V87.495H62.1847V87.695ZM76.046 87.595H76.146V87.495H76.046V87.595ZM76.046 88V88.1H76.146V88H76.046ZM69.467 88H69.367V88.1H69.467V88ZM69.467 84.184H69.567V84.084H69.467V84.184ZM68.576 84.184H68.476V84.284H68.576V84.184ZM68.576 83.779V83.679H68.476V83.779H68.576ZM70.97 83.779H71.07V83.679H70.97V83.779ZM70.97 87.595H70.87V87.695H70.97V87.595ZM74.678 87.595V87.695H74.778V87.595H74.678ZM74.678 84.184H74.778V84.084H74.678V84.184ZM73.715 84.184H73.615V84.284H73.715V84.184ZM73.715 83.779V83.679H73.615V83.779H73.715ZM75.083 83.779H75.183V83.679H75.083V83.779ZM75.083 87.595H74.983V87.695H75.083V87.595ZM70.565 84.184H70.665V84.084H70.565V84.184ZM69.872 84.184V84.084H69.772V84.184H69.872ZM69.872 87.595H69.772V87.695H69.872V87.595ZM70.565 87.595V87.695H70.665V87.595H70.565ZM75.946 87.595V88H76.146V87.595H75.946ZM76.046 87.9H69.467V88.1H76.046V87.9ZM69.567 88V84.184H69.367V88H69.567ZM69.467 84.084H68.576V84.284H69.467V84.084ZM68.676 84.184V83.779H68.476V84.184H68.676ZM68.576 83.879H70.97V83.679H68.576V83.879ZM70.87 83.779V87.595H71.07V83.779H70.87ZM70.97 87.695H74.678V87.495H70.97V87.695ZM74.778 87.595V84.184H74.578V87.595H74.778ZM74.678 84.084H73.715V84.284H74.678V84.084ZM73.815 84.184V83.779H73.615V84.184H73.815ZM73.715 83.879H75.083V83.679H73.715V83.879ZM74.983 83.779V87.595H75.183V83.779H74.983ZM75.083 87.695H76.046V87.495H75.083V87.695ZM70.565 84.084H69.872V84.284H70.565V84.084ZM69.772 84.184V87.595H69.972V84.184H69.772ZM69.872 87.695H70.565V87.495H69.872V87.695ZM70.665 87.595V84.184H70.465V87.595H70.665Z" fill="black" mask="url(#path-8-outside-3_515_968)"/>
</svg>
