<svg width="75" height="108" viewBox="0 0 75 108" fill="none" xmlns="http://www.w3.org/2000/svg">
<rect x="4.5" y="0.5" width="66" height="25" rx="3.5" fill="white" stroke="#959595"/>
<mask id="path-2-outside-1_546_523" maskUnits="userSpaceOnUse" x="13" y="9" width="49" height="10" fill="black">
<rect fill="white" x="13" y="9" width="49" height="10"/>
<path d="M20.775 9.745V11.41H20.37V10.15H14.934V12.67H20.775V16H13.431V14.335H13.836V15.595H19.272V13.075H13.431V9.745H20.775ZM19.677 13.075V15.595H20.37V13.075H19.677ZM14.52 10.15H13.836V12.67H14.52V10.15ZM21.8769 11.779H27.4929V14.092H23.3799V15.595H27.0879V14.902H27.4929V16H21.8769V11.779ZM23.3799 12.184V13.687H27.0879V12.184H23.3799ZM22.2819 15.595H22.9749V12.184H22.2819V15.595ZM32.3012 15.595V16H29.0612V12.184H28.1702V11.779H29.0612V9.745H30.5642V11.779H32.3012V12.184H30.5642V15.595H32.3012ZM30.1592 10.15H29.4662V15.595H30.1592V10.15ZM36.8012 15.595V16H33.5612V12.184H32.6702V11.779H33.5612V9.745H35.0642V11.779H36.8012V12.184H35.0642V15.595H36.8012ZM34.6592 10.15H33.9662V15.595H34.6592V10.15ZM39.6992 15.595H40.5902V16H37.3052V15.595H38.1962V12.184H37.3052V11.779H39.6992V15.595ZM39.2942 12.184H38.6012V15.595H39.2942V12.184ZM39.7622 11.122H38.1332V9.745H39.7622V11.122ZM39.3572 10.15H38.5382V10.717H39.3572V10.15ZM41.0845 11.779H47.5915V15.595H48.5545V16H46.2235V15.595H47.1865V12.184H43.4785V15.595H44.3695V16H41.0845V15.595H41.9755V12.184H41.0845V11.779ZM43.0735 15.595V12.184H42.3805V15.595H43.0735ZM54.9793 18.034H49.2373V16.936H49.6423V17.629H53.4763V16H49.2373V11.779H54.9793V18.034ZM53.4763 12.184H49.6423V15.595H53.4763V12.184ZM54.5743 12.184H53.8813V17.629H54.5743V12.184ZM61.6286 11.779V12.877H61.2236V12.184H57.5156V13.687H61.6286V16H56.0126V14.902H56.4176V15.595H60.1256V14.092H56.0126V11.779H61.6286ZM60.5306 14.092V15.595H61.2236V14.092H60.5306ZM57.1106 12.184H56.4176V13.687H57.1106V12.184Z"/>
</mask>
<path d="M20.775 9.745V11.41H20.37V10.15H14.934V12.67H20.775V16H13.431V14.335H13.836V15.595H19.272V13.075H13.431V9.745H20.775ZM19.677 13.075V15.595H20.37V13.075H19.677ZM14.52 10.15H13.836V12.67H14.52V10.15ZM21.8769 11.779H27.4929V14.092H23.3799V15.595H27.0879V14.902H27.4929V16H21.8769V11.779ZM23.3799 12.184V13.687H27.0879V12.184H23.3799ZM22.2819 15.595H22.9749V12.184H22.2819V15.595ZM32.3012 15.595V16H29.0612V12.184H28.1702V11.779H29.0612V9.745H30.5642V11.779H32.3012V12.184H30.5642V15.595H32.3012ZM30.1592 10.15H29.4662V15.595H30.1592V10.15ZM36.8012 15.595V16H33.5612V12.184H32.6702V11.779H33.5612V9.745H35.0642V11.779H36.8012V12.184H35.0642V15.595H36.8012ZM34.6592 10.15H33.9662V15.595H34.6592V10.15ZM39.6992 15.595H40.5902V16H37.3052V15.595H38.1962V12.184H37.3052V11.779H39.6992V15.595ZM39.2942 12.184H38.6012V15.595H39.2942V12.184ZM39.7622 11.122H38.1332V9.745H39.7622V11.122ZM39.3572 10.15H38.5382V10.717H39.3572V10.15ZM41.0845 11.779H47.5915V15.595H48.5545V16H46.2235V15.595H47.1865V12.184H43.4785V15.595H44.3695V16H41.0845V15.595H41.9755V12.184H41.0845V11.779ZM43.0735 15.595V12.184H42.3805V15.595H43.0735ZM54.9793 18.034H49.2373V16.936H49.6423V17.629H53.4763V16H49.2373V11.779H54.9793V18.034ZM53.4763 12.184H49.6423V15.595H53.4763V12.184ZM54.5743 12.184H53.8813V17.629H54.5743V12.184ZM61.6286 11.779V12.877H61.2236V12.184H57.5156V13.687H61.6286V16H56.0126V14.902H56.4176V15.595H60.1256V14.092H56.0126V11.779H61.6286ZM60.5306 14.092V15.595H61.2236V14.092H60.5306ZM57.1106 12.184H56.4176V13.687H57.1106V12.184Z" fill="black"/>
<path d="M20.775 9.745H20.875V9.645H20.775V9.745ZM20.775 11.41V11.51H20.875V11.41H20.775ZM20.37 11.41H20.27V11.51H20.37V11.41ZM20.37 10.15H20.47V10.05H20.37V10.15ZM14.934 10.15V10.05H14.834V10.15H14.934ZM14.934 12.67H14.834V12.77H14.934V12.67ZM20.775 12.67H20.875V12.57H20.775V12.67ZM20.775 16V16.1H20.875V16H20.775ZM13.431 16H13.331V16.1H13.431V16ZM13.431 14.335V14.235H13.331V14.335H13.431ZM13.836 14.335H13.936V14.235H13.836V14.335ZM13.836 15.595H13.736V15.695H13.836V15.595ZM19.272 15.595V15.695H19.372V15.595H19.272ZM19.272 13.075H19.372V12.975H19.272V13.075ZM13.431 13.075H13.331V13.175H13.431V13.075ZM13.431 9.745V9.645H13.331V9.745H13.431ZM19.677 13.075V12.975H19.577V13.075H19.677ZM19.677 15.595H19.577V15.695H19.677V15.595ZM20.37 15.595V15.695H20.47V15.595H20.37ZM20.37 13.075H20.47V12.975H20.37V13.075ZM14.52 10.15H14.62V10.05H14.52V10.15ZM13.836 10.15V10.05H13.736V10.15H13.836ZM13.836 12.67H13.736V12.77H13.836V12.67ZM14.52 12.67V12.77H14.62V12.67H14.52ZM20.675 9.745V11.41H20.875V9.745H20.675ZM20.775 11.31H20.37V11.51H20.775V11.31ZM20.47 11.41V10.15H20.27V11.41H20.47ZM20.37 10.05H14.934V10.25H20.37V10.05ZM14.834 10.15V12.67H15.034V10.15H14.834ZM14.934 12.77H20.775V12.57H14.934V12.77ZM20.675 12.67V16H20.875V12.67H20.675ZM20.775 15.9H13.431V16.1H20.775V15.9ZM13.531 16V14.335H13.331V16H13.531ZM13.431 14.435H13.836V14.235H13.431V14.435ZM13.736 14.335V15.595H13.936V14.335H13.736ZM13.836 15.695H19.272V15.495H13.836V15.695ZM19.372 15.595V13.075H19.172V15.595H19.372ZM19.272 12.975H13.431V13.175H19.272V12.975ZM13.531 13.075V9.745H13.331V13.075H13.531ZM13.431 9.845H20.775V9.645H13.431V9.845ZM19.577 13.075V15.595H19.777V13.075H19.577ZM19.677 15.695H20.37V15.495H19.677V15.695ZM20.47 15.595V13.075H20.27V15.595H20.47ZM20.37 12.975H19.677V13.175H20.37V12.975ZM14.52 10.05H13.836V10.25H14.52V10.05ZM13.736 10.15V12.67H13.936V10.15H13.736ZM13.836 12.77H14.52V12.57H13.836V12.77ZM14.62 12.67V10.15H14.42V12.67H14.62ZM21.8769 11.779V11.679H21.7769V11.779H21.8769ZM27.4929 11.779H27.5929V11.679H27.4929V11.779ZM27.4929 14.092V14.192H27.5929V14.092H27.4929ZM23.3799 14.092V13.992H23.2799V14.092H23.3799ZM23.3799 15.595H23.2799V15.695H23.3799V15.595ZM27.0879 15.595V15.695H27.1879V15.595H27.0879ZM27.0879 14.902V14.802H26.9879V14.902H27.0879ZM27.4929 14.902H27.5929V14.802H27.4929V14.902ZM27.4929 16V16.1H27.5929V16H27.4929ZM21.8769 16H21.7769V16.1H21.8769V16ZM23.3799 12.184V12.084H23.2799V12.184H23.3799ZM23.3799 13.687H23.2799V13.787H23.3799V13.687ZM27.0879 13.687V13.787H27.1879V13.687H27.0879ZM27.0879 12.184H27.1879V12.084H27.0879V12.184ZM22.2819 15.595H22.1819V15.695H22.2819V15.595ZM22.9749 15.595V15.695H23.0749V15.595H22.9749ZM22.9749 12.184H23.0749V12.084H22.9749V12.184ZM22.2819 12.184V12.084H22.1819V12.184H22.2819ZM21.8769 11.879H27.4929V11.679H21.8769V11.879ZM27.3929 11.779V14.092H27.5929V11.779H27.3929ZM27.4929 13.992H23.3799V14.192H27.4929V13.992ZM23.2799 14.092V15.595H23.4799V14.092H23.2799ZM23.3799 15.695H27.0879V15.495H23.3799V15.695ZM27.1879 15.595V14.902H26.9879V15.595H27.1879ZM27.0879 15.002H27.4929V14.802H27.0879V15.002ZM27.3929 14.902V16H27.5929V14.902H27.3929ZM27.4929 15.9H21.8769V16.1H27.4929V15.9ZM21.9769 16V11.779H21.7769V16H21.9769ZM23.2799 12.184V13.687H23.4799V12.184H23.2799ZM23.3799 13.787H27.0879V13.587H23.3799V13.787ZM27.1879 13.687V12.184H26.9879V13.687H27.1879ZM27.0879 12.084H23.3799V12.284H27.0879V12.084ZM22.2819 15.695H22.9749V15.495H22.2819V15.695ZM23.0749 15.595V12.184H22.8749V15.595H23.0749ZM22.9749 12.084H22.2819V12.284H22.9749V12.084ZM22.1819 12.184V15.595H22.3819V12.184H22.1819ZM32.3012 15.595H32.4012V15.495H32.3012V15.595ZM32.3012 16V16.1H32.4012V16H32.3012ZM29.0612 16H28.9612V16.1H29.0612V16ZM29.0612 12.184H29.1612V12.084H29.0612V12.184ZM28.1702 12.184H28.0702V12.284H28.1702V12.184ZM28.1702 11.779V11.679H28.0702V11.779H28.1702ZM29.0612 11.779V11.879H29.1612V11.779H29.0612ZM29.0612 9.745V9.645H28.9612V9.745H29.0612ZM30.5642 9.745H30.6642V9.645H30.5642V9.745ZM30.5642 11.779H30.4642V11.879H30.5642V11.779ZM32.3012 11.779H32.4012V11.679H32.3012V11.779ZM32.3012 12.184V12.284H32.4012V12.184H32.3012ZM30.5642 12.184V12.084H30.4642V12.184H30.5642ZM30.5642 15.595H30.4642V15.695H30.5642V15.595ZM30.1592 10.15H30.2592V10.05H30.1592V10.15ZM29.4662 10.15V10.05H29.3662V10.15H29.4662ZM29.4662 15.595H29.3662V15.695H29.4662V15.595ZM30.1592 15.595V15.695H30.2592V15.595H30.1592ZM32.2012 15.595V16H32.4012V15.595H32.2012ZM32.3012 15.9H29.0612V16.1H32.3012V15.9ZM29.1612 16V12.184H28.9612V16H29.1612ZM29.0612 12.084H28.1702V12.284H29.0612V12.084ZM28.2702 12.184V11.779H28.0702V12.184H28.2702ZM28.1702 11.879H29.0612V11.679H28.1702V11.879ZM29.1612 11.779V9.745H28.9612V11.779H29.1612ZM29.0612 9.845H30.5642V9.645H29.0612V9.845ZM30.4642 9.745V11.779H30.6642V9.745H30.4642ZM30.5642 11.879H32.3012V11.679H30.5642V11.879ZM32.2012 11.779V12.184H32.4012V11.779H32.2012ZM32.3012 12.084H30.5642V12.284H32.3012V12.084ZM30.4642 12.184V15.595H30.6642V12.184H30.4642ZM30.5642 15.695H32.3012V15.495H30.5642V15.695ZM30.1592 10.05H29.4662V10.25H30.1592V10.05ZM29.3662 10.15V15.595H29.5662V10.15H29.3662ZM29.4662 15.695H30.1592V15.495H29.4662V15.695ZM30.2592 15.595V10.15H30.0592V15.595H30.2592ZM36.8012 15.595H36.9012V15.495H36.8012V15.595ZM36.8012 16V16.1H36.9012V16H36.8012ZM33.5612 16H33.4612V16.1H33.5612V16ZM33.5612 12.184H33.6612V12.084H33.5612V12.184ZM32.6702 12.184H32.5702V12.284H32.6702V12.184ZM32.6702 11.779V11.679H32.5702V11.779H32.6702ZM33.5612 11.779V11.879H33.6612V11.779H33.5612ZM33.5612 9.745V9.645H33.4612V9.745H33.5612ZM35.0642 9.745H35.1642V9.645H35.0642V9.745ZM35.0642 11.779H34.9642V11.879H35.0642V11.779ZM36.8012 11.779H36.9012V11.679H36.8012V11.779ZM36.8012 12.184V12.284H36.9012V12.184H36.8012ZM35.0642 12.184V12.084H34.9642V12.184H35.0642ZM35.0642 15.595H34.9642V15.695H35.0642V15.595ZM34.6592 10.15H34.7592V10.05H34.6592V10.15ZM33.9662 10.15V10.05H33.8662V10.15H33.9662ZM33.9662 15.595H33.8662V15.695H33.9662V15.595ZM34.6592 15.595V15.695H34.7592V15.595H34.6592ZM36.7012 15.595V16H36.9012V15.595H36.7012ZM36.8012 15.9H33.5612V16.1H36.8012V15.9ZM33.6612 16V12.184H33.4612V16H33.6612ZM33.5612 12.084H32.6702V12.284H33.5612V12.084ZM32.7702 12.184V11.779H32.5702V12.184H32.7702ZM32.6702 11.879H33.5612V11.679H32.6702V11.879ZM33.6612 11.779V9.745H33.4612V11.779H33.6612ZM33.5612 9.845H35.0642V9.645H33.5612V9.845ZM34.9642 9.745V11.779H35.1642V9.745H34.9642ZM35.0642 11.879H36.8012V11.679H35.0642V11.879ZM36.7012 11.779V12.184H36.9012V11.779H36.7012ZM36.8012 12.084H35.0642V12.284H36.8012V12.084ZM34.9642 12.184V15.595H35.1642V12.184H34.9642ZM35.0642 15.695H36.8012V15.495H35.0642V15.695ZM34.6592 10.05H33.9662V10.25H34.6592V10.05ZM33.8662 10.15V15.595H34.0662V10.15H33.8662ZM33.9662 15.695H34.6592V15.495H33.9662V15.695ZM34.7592 15.595V10.15H34.5592V15.595H34.7592ZM39.6992 15.595H39.5992V15.695H39.6992V15.595ZM40.5902 15.595H40.6902V15.495H40.5902V15.595ZM40.5902 16V16.1H40.6902V16H40.5902ZM37.3052 16H37.2052V16.1H37.3052V16ZM37.3052 15.595V15.495H37.2052V15.595H37.3052ZM38.1962 15.595V15.695H38.2962V15.595H38.1962ZM38.1962 12.184H38.2962V12.084H38.1962V12.184ZM37.3052 12.184H37.2052V12.284H37.3052V12.184ZM37.3052 11.779V11.679H37.2052V11.779H37.3052ZM39.6992 11.779H39.7992V11.679H39.6992V11.779ZM39.2942 12.184H39.3942V12.084H39.2942V12.184ZM38.6012 12.184V12.084H38.5012V12.184H38.6012ZM38.6012 15.595H38.5012V15.695H38.6012V15.595ZM39.2942 15.595V15.695H39.3942V15.595H39.2942ZM39.7622 11.122V11.222H39.8622V11.122H39.7622ZM38.1332 11.122H38.0332V11.222H38.1332V11.122ZM38.1332 9.745V9.645H38.0332V9.745H38.1332ZM39.7622 9.745H39.8622V9.645H39.7622V9.745ZM39.3572 10.15H39.4572V10.05H39.3572V10.15ZM38.5382 10.15V10.05H38.4382V10.15H38.5382ZM38.5382 10.717H38.4382V10.817H38.5382V10.717ZM39.3572 10.717V10.817H39.4572V10.717H39.3572ZM39.6992 15.695H40.5902V15.495H39.6992V15.695ZM40.4902 15.595V16H40.6902V15.595H40.4902ZM40.5902 15.9H37.3052V16.1H40.5902V15.9ZM37.4052 16V15.595H37.2052V16H37.4052ZM37.3052 15.695H38.1962V15.495H37.3052V15.695ZM38.2962 15.595V12.184H38.0962V15.595H38.2962ZM38.1962 12.084H37.3052V12.284H38.1962V12.084ZM37.4052 12.184V11.779H37.2052V12.184H37.4052ZM37.3052 11.879H39.6992V11.679H37.3052V11.879ZM39.5992 11.779V15.595H39.7992V11.779H39.5992ZM39.2942 12.084H38.6012V12.284H39.2942V12.084ZM38.5012 12.184V15.595H38.7012V12.184H38.5012ZM38.6012 15.695H39.2942V15.495H38.6012V15.695ZM39.3942 15.595V12.184H39.1942V15.595H39.3942ZM39.7622 11.022H38.1332V11.222H39.7622V11.022ZM38.2332 11.122V9.745H38.0332V11.122H38.2332ZM38.1332 9.845H39.7622V9.645H38.1332V9.845ZM39.6622 9.745V11.122H39.8622V9.745H39.6622ZM39.3572 10.05H38.5382V10.25H39.3572V10.05ZM38.4382 10.15V10.717H38.6382V10.15H38.4382ZM38.5382 10.817H39.3572V10.617H38.5382V10.817ZM39.4572 10.717V10.15H39.2572V10.717H39.4572ZM41.0845 11.779V11.679H40.9845V11.779H41.0845ZM47.5915 11.779H47.6915V11.679H47.5915V11.779ZM47.5915 15.595H47.4915V15.695H47.5915V15.595ZM48.5545 15.595H48.6545V15.495H48.5545V15.595ZM48.5545 16V16.1H48.6545V16H48.5545ZM46.2235 16H46.1235V16.1H46.2235V16ZM46.2235 15.595V15.495H46.1235V15.595H46.2235ZM47.1865 15.595V15.695H47.2865V15.595H47.1865ZM47.1865 12.184H47.2865V12.084H47.1865V12.184ZM43.4785 12.184V12.084H43.3785V12.184H43.4785ZM43.4785 15.595H43.3785V15.695H43.4785V15.595ZM44.3695 15.595H44.4695V15.495H44.3695V15.595ZM44.3695 16V16.1H44.4695V16H44.3695ZM41.0845 16H40.9845V16.1H41.0845V16ZM41.0845 15.595V15.495H40.9845V15.595H41.0845ZM41.9755 15.595V15.695H42.0755V15.595H41.9755ZM41.9755 12.184H42.0755V12.084H41.9755V12.184ZM41.0845 12.184H40.9845V12.284H41.0845V12.184ZM43.0735 15.595V15.695H43.1735V15.595H43.0735ZM43.0735 12.184H43.1735V12.084H43.0735V12.184ZM42.3805 12.184V12.084H42.2805V12.184H42.3805ZM42.3805 15.595H42.2805V15.695H42.3805V15.595ZM41.0845 11.879H47.5915V11.679H41.0845V11.879ZM47.4915 11.779V15.595H47.6915V11.779H47.4915ZM47.5915 15.695H48.5545V15.495H47.5915V15.695ZM48.4545 15.595V16H48.6545V15.595H48.4545ZM48.5545 15.9H46.2235V16.1H48.5545V15.9ZM46.3235 16V15.595H46.1235V16H46.3235ZM46.2235 15.695H47.1865V15.495H46.2235V15.695ZM47.2865 15.595V12.184H47.0865V15.595H47.2865ZM47.1865 12.084H43.4785V12.284H47.1865V12.084ZM43.3785 12.184V15.595H43.5785V12.184H43.3785ZM43.4785 15.695H44.3695V15.495H43.4785V15.695ZM44.2695 15.595V16H44.4695V15.595H44.2695ZM44.3695 15.9H41.0845V16.1H44.3695V15.9ZM41.1845 16V15.595H40.9845V16H41.1845ZM41.0845 15.695H41.9755V15.495H41.0845V15.695ZM42.0755 15.595V12.184H41.8755V15.595H42.0755ZM41.9755 12.084H41.0845V12.284H41.9755V12.084ZM41.1845 12.184V11.779H40.9845V12.184H41.1845ZM43.1735 15.595V12.184H42.9735V15.595H43.1735ZM43.0735 12.084H42.3805V12.284H43.0735V12.084ZM42.2805 12.184V15.595H42.4805V12.184H42.2805ZM42.3805 15.695H43.0735V15.495H42.3805V15.695ZM54.9793 18.034V18.134H55.0793V18.034H54.9793ZM49.2373 18.034H49.1373V18.134H49.2373V18.034ZM49.2373 16.936V16.836H49.1373V16.936H49.2373ZM49.6423 16.936H49.7423V16.836H49.6423V16.936ZM49.6423 17.629H49.5423V17.729H49.6423V17.629ZM53.4763 17.629V17.729H53.5763V17.629H53.4763ZM53.4763 16H53.5763V15.9H53.4763V16ZM49.2373 16H49.1373V16.1H49.2373V16ZM49.2373 11.779V11.679H49.1373V11.779H49.2373ZM54.9793 11.779H55.0793V11.679H54.9793V11.779ZM53.4763 12.184H53.5763V12.084H53.4763V12.184ZM49.6423 12.184V12.084H49.5423V12.184H49.6423ZM49.6423 15.595H49.5423V15.695H49.6423V15.595ZM53.4763 15.595V15.695H53.5763V15.595H53.4763ZM54.5743 12.184H54.6743V12.084H54.5743V12.184ZM53.8813 12.184V12.084H53.7813V12.184H53.8813ZM53.8813 17.629H53.7813V17.729H53.8813V17.629ZM54.5743 17.629V17.729H54.6743V17.629H54.5743ZM54.9793 17.934H49.2373V18.134H54.9793V17.934ZM49.3373 18.034V16.936H49.1373V18.034H49.3373ZM49.2373 17.036H49.6423V16.836H49.2373V17.036ZM49.5423 16.936V17.629H49.7423V16.936H49.5423ZM49.6423 17.729H53.4763V17.529H49.6423V17.729ZM53.5763 17.629V16H53.3763V17.629H53.5763ZM53.4763 15.9H49.2373V16.1H53.4763V15.9ZM49.3373 16V11.779H49.1373V16H49.3373ZM49.2373 11.879H54.9793V11.679H49.2373V11.879ZM54.8793 11.779V18.034H55.0793V11.779H54.8793ZM53.4763 12.084H49.6423V12.284H53.4763V12.084ZM49.5423 12.184V15.595H49.7423V12.184H49.5423ZM49.6423 15.695H53.4763V15.495H49.6423V15.695ZM53.5763 15.595V12.184H53.3763V15.595H53.5763ZM54.5743 12.084H53.8813V12.284H54.5743V12.084ZM53.7813 12.184V17.629H53.9813V12.184H53.7813ZM53.8813 17.729H54.5743V17.529H53.8813V17.729ZM54.6743 17.629V12.184H54.4743V17.629H54.6743ZM61.6286 11.779H61.7286V11.679H61.6286V11.779ZM61.6286 12.877V12.977H61.7286V12.877H61.6286ZM61.2236 12.877H61.1236V12.977H61.2236V12.877ZM61.2236 12.184H61.3236V12.084H61.2236V12.184ZM57.5156 12.184V12.084H57.4156V12.184H57.5156ZM57.5156 13.687H57.4156V13.787H57.5156V13.687ZM61.6286 13.687H61.7286V13.587H61.6286V13.687ZM61.6286 16V16.1H61.7286V16H61.6286ZM56.0126 16H55.9126V16.1H56.0126V16ZM56.0126 14.902V14.802H55.9126V14.902H56.0126ZM56.4176 14.902H56.5176V14.802H56.4176V14.902ZM56.4176 15.595H56.3176V15.695H56.4176V15.595ZM60.1256 15.595V15.695H60.2256V15.595H60.1256ZM60.1256 14.092H60.2256V13.992H60.1256V14.092ZM56.0126 14.092H55.9126V14.192H56.0126V14.092ZM56.0126 11.779V11.679H55.9126V11.779H56.0126ZM60.5306 14.092V13.992H60.4306V14.092H60.5306ZM60.5306 15.595H60.4306V15.695H60.5306V15.595ZM61.2236 15.595V15.695H61.3236V15.595H61.2236ZM61.2236 14.092H61.3236V13.992H61.2236V14.092ZM57.1106 12.184H57.2106V12.084H57.1106V12.184ZM56.4176 12.184V12.084H56.3176V12.184H56.4176ZM56.4176 13.687H56.3176V13.787H56.4176V13.687ZM57.1106 13.687V13.787H57.2106V13.687H57.1106ZM61.5286 11.779V12.877H61.7286V11.779H61.5286ZM61.6286 12.777H61.2236V12.977H61.6286V12.777ZM61.3236 12.877V12.184H61.1236V12.877H61.3236ZM61.2236 12.084H57.5156V12.284H61.2236V12.084ZM57.4156 12.184V13.687H57.6156V12.184H57.4156ZM57.5156 13.787H61.6286V13.587H57.5156V13.787ZM61.5286 13.687V16H61.7286V13.687H61.5286ZM61.6286 15.9H56.0126V16.1H61.6286V15.9ZM56.1126 16V14.902H55.9126V16H56.1126ZM56.0126 15.002H56.4176V14.802H56.0126V15.002ZM56.3176 14.902V15.595H56.5176V14.902H56.3176ZM56.4176 15.695H60.1256V15.495H56.4176V15.695ZM60.2256 15.595V14.092H60.0256V15.595H60.2256ZM60.1256 13.992H56.0126V14.192H60.1256V13.992ZM56.1126 14.092V11.779H55.9126V14.092H56.1126ZM56.0126 11.879H61.6286V11.679H56.0126V11.879ZM60.4306 14.092V15.595H60.6306V14.092H60.4306ZM60.5306 15.695H61.2236V15.495H60.5306V15.695ZM61.3236 15.595V14.092H61.1236V15.595H61.3236ZM61.2236 13.992H60.5306V14.192H61.2236V13.992ZM57.1106 12.084H56.4176V12.284H57.1106V12.084ZM56.3176 12.184V13.687H56.5176V12.184H56.3176ZM56.4176 13.787H57.1106V13.587H56.4176V13.787ZM57.2106 13.687V12.184H57.0106V13.687H57.2106Z" fill="black" mask="url(#path-2-outside-1_546_523)"/>
<rect x="4.5" y="36.5" width="66" height="25" rx="3.5" fill="#EACB50" stroke="#EACB50"/>
<mask id="path-5-outside-2_546_523" maskUnits="userSpaceOnUse" x="13" y="45" width="49" height="10" fill="black">
<rect fill="white" x="13" y="45" width="49" height="10"/>
<path d="M20.775 45.745V47.41H20.37V46.15H14.934V48.67H20.775V52H13.431V50.335H13.836V51.595H19.272V49.075H13.431V45.745H20.775ZM19.677 49.075V51.595H20.37V49.075H19.677ZM14.52 46.15H13.836V48.67H14.52V46.15ZM21.8769 47.779H27.4929V50.092H23.3799V51.595H27.0879V50.902H27.4929V52H21.8769V47.779ZM23.3799 48.184V49.687H27.0879V48.184H23.3799ZM22.2819 51.595H22.9749V48.184H22.2819V51.595ZM32.3012 51.595V52H29.0612V48.184H28.1702V47.779H29.0612V45.745H30.5642V47.779H32.3012V48.184H30.5642V51.595H32.3012ZM30.1592 46.15H29.4662V51.595H30.1592V46.15ZM36.8012 51.595V52H33.5612V48.184H32.6702V47.779H33.5612V45.745H35.0642V47.779H36.8012V48.184H35.0642V51.595H36.8012ZM34.6592 46.15H33.9662V51.595H34.6592V46.15ZM39.6992 51.595H40.5902V52H37.3052V51.595H38.1962V48.184H37.3052V47.779H39.6992V51.595ZM39.2942 48.184H38.6012V51.595H39.2942V48.184ZM39.7622 47.122H38.1332V45.745H39.7622V47.122ZM39.3572 46.15H38.5382V46.717H39.3572V46.15ZM41.0845 47.779H47.5915V51.595H48.5545V52H46.2235V51.595H47.1865V48.184H43.4785V51.595H44.3695V52H41.0845V51.595H41.9755V48.184H41.0845V47.779ZM43.0735 51.595V48.184H42.3805V51.595H43.0735ZM54.9793 54.034H49.2373V52.936H49.6423V53.629H53.4763V52H49.2373V47.779H54.9793V54.034ZM53.4763 48.184H49.6423V51.595H53.4763V48.184ZM54.5743 48.184H53.8813V53.629H54.5743V48.184ZM61.6286 47.779V48.877H61.2236V48.184H57.5156V49.687H61.6286V52H56.0126V50.902H56.4176V51.595H60.1256V50.092H56.0126V47.779H61.6286ZM60.5306 50.092V51.595H61.2236V50.092H60.5306ZM57.1106 48.184H56.4176V49.687H57.1106V48.184Z"/>
</mask>
<path d="M20.775 45.745V47.41H20.37V46.15H14.934V48.67H20.775V52H13.431V50.335H13.836V51.595H19.272V49.075H13.431V45.745H20.775ZM19.677 49.075V51.595H20.37V49.075H19.677ZM14.52 46.15H13.836V48.67H14.52V46.15ZM21.8769 47.779H27.4929V50.092H23.3799V51.595H27.0879V50.902H27.4929V52H21.8769V47.779ZM23.3799 48.184V49.687H27.0879V48.184H23.3799ZM22.2819 51.595H22.9749V48.184H22.2819V51.595ZM32.3012 51.595V52H29.0612V48.184H28.1702V47.779H29.0612V45.745H30.5642V47.779H32.3012V48.184H30.5642V51.595H32.3012ZM30.1592 46.15H29.4662V51.595H30.1592V46.15ZM36.8012 51.595V52H33.5612V48.184H32.6702V47.779H33.5612V45.745H35.0642V47.779H36.8012V48.184H35.0642V51.595H36.8012ZM34.6592 46.15H33.9662V51.595H34.6592V46.15ZM39.6992 51.595H40.5902V52H37.3052V51.595H38.1962V48.184H37.3052V47.779H39.6992V51.595ZM39.2942 48.184H38.6012V51.595H39.2942V48.184ZM39.7622 47.122H38.1332V45.745H39.7622V47.122ZM39.3572 46.15H38.5382V46.717H39.3572V46.15ZM41.0845 47.779H47.5915V51.595H48.5545V52H46.2235V51.595H47.1865V48.184H43.4785V51.595H44.3695V52H41.0845V51.595H41.9755V48.184H41.0845V47.779ZM43.0735 51.595V48.184H42.3805V51.595H43.0735ZM54.9793 54.034H49.2373V52.936H49.6423V53.629H53.4763V52H49.2373V47.779H54.9793V54.034ZM53.4763 48.184H49.6423V51.595H53.4763V48.184ZM54.5743 48.184H53.8813V53.629H54.5743V48.184ZM61.6286 47.779V48.877H61.2236V48.184H57.5156V49.687H61.6286V52H56.0126V50.902H56.4176V51.595H60.1256V50.092H56.0126V47.779H61.6286ZM60.5306 50.092V51.595H61.2236V50.092H60.5306ZM57.1106 48.184H56.4176V49.687H57.1106V48.184Z" fill="white"/>
<path d="M20.775 45.745H20.875V45.645H20.775V45.745ZM20.775 47.41V47.51H20.875V47.41H20.775ZM20.37 47.41H20.27V47.51H20.37V47.41ZM20.37 46.15H20.47V46.05H20.37V46.15ZM14.934 46.15V46.05H14.834V46.15H14.934ZM14.934 48.67H14.834V48.77H14.934V48.67ZM20.775 48.67H20.875V48.57H20.775V48.67ZM20.775 52V52.1H20.875V52H20.775ZM13.431 52H13.331V52.1H13.431V52ZM13.431 50.335V50.235H13.331V50.335H13.431ZM13.836 50.335H13.936V50.235H13.836V50.335ZM13.836 51.595H13.736V51.695H13.836V51.595ZM19.272 51.595V51.695H19.372V51.595H19.272ZM19.272 49.075H19.372V48.975H19.272V49.075ZM13.431 49.075H13.331V49.175H13.431V49.075ZM13.431 45.745V45.645H13.331V45.745H13.431ZM19.677 49.075V48.975H19.577V49.075H19.677ZM19.677 51.595H19.577V51.695H19.677V51.595ZM20.37 51.595V51.695H20.47V51.595H20.37ZM20.37 49.075H20.47V48.975H20.37V49.075ZM14.52 46.15H14.62V46.05H14.52V46.15ZM13.836 46.15V46.05H13.736V46.15H13.836ZM13.836 48.67H13.736V48.77H13.836V48.67ZM14.52 48.67V48.77H14.62V48.67H14.52ZM20.675 45.745V47.41H20.875V45.745H20.675ZM20.775 47.31H20.37V47.51H20.775V47.31ZM20.47 47.41V46.15H20.27V47.41H20.47ZM20.37 46.05H14.934V46.25H20.37V46.05ZM14.834 46.15V48.67H15.034V46.15H14.834ZM14.934 48.77H20.775V48.57H14.934V48.77ZM20.675 48.67V52H20.875V48.67H20.675ZM20.775 51.9H13.431V52.1H20.775V51.9ZM13.531 52V50.335H13.331V52H13.531ZM13.431 50.435H13.836V50.235H13.431V50.435ZM13.736 50.335V51.595H13.936V50.335H13.736ZM13.836 51.695H19.272V51.495H13.836V51.695ZM19.372 51.595V49.075H19.172V51.595H19.372ZM19.272 48.975H13.431V49.175H19.272V48.975ZM13.531 49.075V45.745H13.331V49.075H13.531ZM13.431 45.845H20.775V45.645H13.431V45.845ZM19.577 49.075V51.595H19.777V49.075H19.577ZM19.677 51.695H20.37V51.495H19.677V51.695ZM20.47 51.595V49.075H20.27V51.595H20.47ZM20.37 48.975H19.677V49.175H20.37V48.975ZM14.52 46.05H13.836V46.25H14.52V46.05ZM13.736 46.15V48.67H13.936V46.15H13.736ZM13.836 48.77H14.52V48.57H13.836V48.77ZM14.62 48.67V46.15H14.42V48.67H14.62ZM21.8769 47.779V47.679H21.7769V47.779H21.8769ZM27.4929 47.779H27.5929V47.679H27.4929V47.779ZM27.4929 50.092V50.192H27.5929V50.092H27.4929ZM23.3799 50.092V49.992H23.2799V50.092H23.3799ZM23.3799 51.595H23.2799V51.695H23.3799V51.595ZM27.0879 51.595V51.695H27.1879V51.595H27.0879ZM27.0879 50.902V50.802H26.9879V50.902H27.0879ZM27.4929 50.902H27.5929V50.802H27.4929V50.902ZM27.4929 52V52.1H27.5929V52H27.4929ZM21.8769 52H21.7769V52.1H21.8769V52ZM23.3799 48.184V48.084H23.2799V48.184H23.3799ZM23.3799 49.687H23.2799V49.787H23.3799V49.687ZM27.0879 49.687V49.787H27.1879V49.687H27.0879ZM27.0879 48.184H27.1879V48.084H27.0879V48.184ZM22.2819 51.595H22.1819V51.695H22.2819V51.595ZM22.9749 51.595V51.695H23.0749V51.595H22.9749ZM22.9749 48.184H23.0749V48.084H22.9749V48.184ZM22.2819 48.184V48.084H22.1819V48.184H22.2819ZM21.8769 47.879H27.4929V47.679H21.8769V47.879ZM27.3929 47.779V50.092H27.5929V47.779H27.3929ZM27.4929 49.992H23.3799V50.192H27.4929V49.992ZM23.2799 50.092V51.595H23.4799V50.092H23.2799ZM23.3799 51.695H27.0879V51.495H23.3799V51.695ZM27.1879 51.595V50.902H26.9879V51.595H27.1879ZM27.0879 51.002H27.4929V50.802H27.0879V51.002ZM27.3929 50.902V52H27.5929V50.902H27.3929ZM27.4929 51.9H21.8769V52.1H27.4929V51.9ZM21.9769 52V47.779H21.7769V52H21.9769ZM23.2799 48.184V49.687H23.4799V48.184H23.2799ZM23.3799 49.787H27.0879V49.587H23.3799V49.787ZM27.1879 49.687V48.184H26.9879V49.687H27.1879ZM27.0879 48.084H23.3799V48.284H27.0879V48.084ZM22.2819 51.695H22.9749V51.495H22.2819V51.695ZM23.0749 51.595V48.184H22.8749V51.595H23.0749ZM22.9749 48.084H22.2819V48.284H22.9749V48.084ZM22.1819 48.184V51.595H22.3819V48.184H22.1819ZM32.3012 51.595H32.4012V51.495H32.3012V51.595ZM32.3012 52V52.1H32.4012V52H32.3012ZM29.0612 52H28.9612V52.1H29.0612V52ZM29.0612 48.184H29.1612V48.084H29.0612V48.184ZM28.1702 48.184H28.0702V48.284H28.1702V48.184ZM28.1702 47.779V47.679H28.0702V47.779H28.1702ZM29.0612 47.779V47.879H29.1612V47.779H29.0612ZM29.0612 45.745V45.645H28.9612V45.745H29.0612ZM30.5642 45.745H30.6642V45.645H30.5642V45.745ZM30.5642 47.779H30.4642V47.879H30.5642V47.779ZM32.3012 47.779H32.4012V47.679H32.3012V47.779ZM32.3012 48.184V48.284H32.4012V48.184H32.3012ZM30.5642 48.184V48.084H30.4642V48.184H30.5642ZM30.5642 51.595H30.4642V51.695H30.5642V51.595ZM30.1592 46.15H30.2592V46.05H30.1592V46.15ZM29.4662 46.15V46.05H29.3662V46.15H29.4662ZM29.4662 51.595H29.3662V51.695H29.4662V51.595ZM30.1592 51.595V51.695H30.2592V51.595H30.1592ZM32.2012 51.595V52H32.4012V51.595H32.2012ZM32.3012 51.9H29.0612V52.1H32.3012V51.9ZM29.1612 52V48.184H28.9612V52H29.1612ZM29.0612 48.084H28.1702V48.284H29.0612V48.084ZM28.2702 48.184V47.779H28.0702V48.184H28.2702ZM28.1702 47.879H29.0612V47.679H28.1702V47.879ZM29.1612 47.779V45.745H28.9612V47.779H29.1612ZM29.0612 45.845H30.5642V45.645H29.0612V45.845ZM30.4642 45.745V47.779H30.6642V45.745H30.4642ZM30.5642 47.879H32.3012V47.679H30.5642V47.879ZM32.2012 47.779V48.184H32.4012V47.779H32.2012ZM32.3012 48.084H30.5642V48.284H32.3012V48.084ZM30.4642 48.184V51.595H30.6642V48.184H30.4642ZM30.5642 51.695H32.3012V51.495H30.5642V51.695ZM30.1592 46.05H29.4662V46.25H30.1592V46.05ZM29.3662 46.15V51.595H29.5662V46.15H29.3662ZM29.4662 51.695H30.1592V51.495H29.4662V51.695ZM30.2592 51.595V46.15H30.0592V51.595H30.2592ZM36.8012 51.595H36.9012V51.495H36.8012V51.595ZM36.8012 52V52.1H36.9012V52H36.8012ZM33.5612 52H33.4612V52.1H33.5612V52ZM33.5612 48.184H33.6612V48.084H33.5612V48.184ZM32.6702 48.184H32.5702V48.284H32.6702V48.184ZM32.6702 47.779V47.679H32.5702V47.779H32.6702ZM33.5612 47.779V47.879H33.6612V47.779H33.5612ZM33.5612 45.745V45.645H33.4612V45.745H33.5612ZM35.0642 45.745H35.1642V45.645H35.0642V45.745ZM35.0642 47.779H34.9642V47.879H35.0642V47.779ZM36.8012 47.779H36.9012V47.679H36.8012V47.779ZM36.8012 48.184V48.284H36.9012V48.184H36.8012ZM35.0642 48.184V48.084H34.9642V48.184H35.0642ZM35.0642 51.595H34.9642V51.695H35.0642V51.595ZM34.6592 46.15H34.7592V46.05H34.6592V46.15ZM33.9662 46.15V46.05H33.8662V46.15H33.9662ZM33.9662 51.595H33.8662V51.695H33.9662V51.595ZM34.6592 51.595V51.695H34.7592V51.595H34.6592ZM36.7012 51.595V52H36.9012V51.595H36.7012ZM36.8012 51.9H33.5612V52.1H36.8012V51.9ZM33.6612 52V48.184H33.4612V52H33.6612ZM33.5612 48.084H32.6702V48.284H33.5612V48.084ZM32.7702 48.184V47.779H32.5702V48.184H32.7702ZM32.6702 47.879H33.5612V47.679H32.6702V47.879ZM33.6612 47.779V45.745H33.4612V47.779H33.6612ZM33.5612 45.845H35.0642V45.645H33.5612V45.845ZM34.9642 45.745V47.779H35.1642V45.745H34.9642ZM35.0642 47.879H36.8012V47.679H35.0642V47.879ZM36.7012 47.779V48.184H36.9012V47.779H36.7012ZM36.8012 48.084H35.0642V48.284H36.8012V48.084ZM34.9642 48.184V51.595H35.1642V48.184H34.9642ZM35.0642 51.695H36.8012V51.495H35.0642V51.695ZM34.6592 46.05H33.9662V46.25H34.6592V46.05ZM33.8662 46.15V51.595H34.0662V46.15H33.8662ZM33.9662 51.695H34.6592V51.495H33.9662V51.695ZM34.7592 51.595V46.15H34.5592V51.595H34.7592ZM39.6992 51.595H39.5992V51.695H39.6992V51.595ZM40.5902 51.595H40.6902V51.495H40.5902V51.595ZM40.5902 52V52.1H40.6902V52H40.5902ZM37.3052 52H37.2052V52.1H37.3052V52ZM37.3052 51.595V51.495H37.2052V51.595H37.3052ZM38.1962 51.595V51.695H38.2962V51.595H38.1962ZM38.1962 48.184H38.2962V48.084H38.1962V48.184ZM37.3052 48.184H37.2052V48.284H37.3052V48.184ZM37.3052 47.779V47.679H37.2052V47.779H37.3052ZM39.6992 47.779H39.7992V47.679H39.6992V47.779ZM39.2942 48.184H39.3942V48.084H39.2942V48.184ZM38.6012 48.184V48.084H38.5012V48.184H38.6012ZM38.6012 51.595H38.5012V51.695H38.6012V51.595ZM39.2942 51.595V51.695H39.3942V51.595H39.2942ZM39.7622 47.122V47.222H39.8622V47.122H39.7622ZM38.1332 47.122H38.0332V47.222H38.1332V47.122ZM38.1332 45.745V45.645H38.0332V45.745H38.1332ZM39.7622 45.745H39.8622V45.645H39.7622V45.745ZM39.3572 46.15H39.4572V46.05H39.3572V46.15ZM38.5382 46.15V46.05H38.4382V46.15H38.5382ZM38.5382 46.717H38.4382V46.817H38.5382V46.717ZM39.3572 46.717V46.817H39.4572V46.717H39.3572ZM39.6992 51.695H40.5902V51.495H39.6992V51.695ZM40.4902 51.595V52H40.6902V51.595H40.4902ZM40.5902 51.9H37.3052V52.1H40.5902V51.9ZM37.4052 52V51.595H37.2052V52H37.4052ZM37.3052 51.695H38.1962V51.495H37.3052V51.695ZM38.2962 51.595V48.184H38.0962V51.595H38.2962ZM38.1962 48.084H37.3052V48.284H38.1962V48.084ZM37.4052 48.184V47.779H37.2052V48.184H37.4052ZM37.3052 47.879H39.6992V47.679H37.3052V47.879ZM39.5992 47.779V51.595H39.7992V47.779H39.5992ZM39.2942 48.084H38.6012V48.284H39.2942V48.084ZM38.5012 48.184V51.595H38.7012V48.184H38.5012ZM38.6012 51.695H39.2942V51.495H38.6012V51.695ZM39.3942 51.595V48.184H39.1942V51.595H39.3942ZM39.7622 47.022H38.1332V47.222H39.7622V47.022ZM38.2332 47.122V45.745H38.0332V47.122H38.2332ZM38.1332 45.845H39.7622V45.645H38.1332V45.845ZM39.6622 45.745V47.122H39.8622V45.745H39.6622ZM39.3572 46.05H38.5382V46.25H39.3572V46.05ZM38.4382 46.15V46.717H38.6382V46.15H38.4382ZM38.5382 46.817H39.3572V46.617H38.5382V46.817ZM39.4572 46.717V46.15H39.2572V46.717H39.4572ZM41.0845 47.779V47.679H40.9845V47.779H41.0845ZM47.5915 47.779H47.6915V47.679H47.5915V47.779ZM47.5915 51.595H47.4915V51.695H47.5915V51.595ZM48.5545 51.595H48.6545V51.495H48.5545V51.595ZM48.5545 52V52.1H48.6545V52H48.5545ZM46.2235 52H46.1235V52.1H46.2235V52ZM46.2235 51.595V51.495H46.1235V51.595H46.2235ZM47.1865 51.595V51.695H47.2865V51.595H47.1865ZM47.1865 48.184H47.2865V48.084H47.1865V48.184ZM43.4785 48.184V48.084H43.3785V48.184H43.4785ZM43.4785 51.595H43.3785V51.695H43.4785V51.595ZM44.3695 51.595H44.4695V51.495H44.3695V51.595ZM44.3695 52V52.1H44.4695V52H44.3695ZM41.0845 52H40.9845V52.1H41.0845V52ZM41.0845 51.595V51.495H40.9845V51.595H41.0845ZM41.9755 51.595V51.695H42.0755V51.595H41.9755ZM41.9755 48.184H42.0755V48.084H41.9755V48.184ZM41.0845 48.184H40.9845V48.284H41.0845V48.184ZM43.0735 51.595V51.695H43.1735V51.595H43.0735ZM43.0735 48.184H43.1735V48.084H43.0735V48.184ZM42.3805 48.184V48.084H42.2805V48.184H42.3805ZM42.3805 51.595H42.2805V51.695H42.3805V51.595ZM41.0845 47.879H47.5915V47.679H41.0845V47.879ZM47.4915 47.779V51.595H47.6915V47.779H47.4915ZM47.5915 51.695H48.5545V51.495H47.5915V51.695ZM48.4545 51.595V52H48.6545V51.595H48.4545ZM48.5545 51.9H46.2235V52.1H48.5545V51.9ZM46.3235 52V51.595H46.1235V52H46.3235ZM46.2235 51.695H47.1865V51.495H46.2235V51.695ZM47.2865 51.595V48.184H47.0865V51.595H47.2865ZM47.1865 48.084H43.4785V48.284H47.1865V48.084ZM43.3785 48.184V51.595H43.5785V48.184H43.3785ZM43.4785 51.695H44.3695V51.495H43.4785V51.695ZM44.2695 51.595V52H44.4695V51.595H44.2695ZM44.3695 51.9H41.0845V52.1H44.3695V51.9ZM41.1845 52V51.595H40.9845V52H41.1845ZM41.0845 51.695H41.9755V51.495H41.0845V51.695ZM42.0755 51.595V48.184H41.8755V51.595H42.0755ZM41.9755 48.084H41.0845V48.284H41.9755V48.084ZM41.1845 48.184V47.779H40.9845V48.184H41.1845ZM43.1735 51.595V48.184H42.9735V51.595H43.1735ZM43.0735 48.084H42.3805V48.284H43.0735V48.084ZM42.2805 48.184V51.595H42.4805V48.184H42.2805ZM42.3805 51.695H43.0735V51.495H42.3805V51.695ZM54.9793 54.034V54.134H55.0793V54.034H54.9793ZM49.2373 54.034H49.1373V54.134H49.2373V54.034ZM49.2373 52.936V52.836H49.1373V52.936H49.2373ZM49.6423 52.936H49.7423V52.836H49.6423V52.936ZM49.6423 53.629H49.5423V53.729H49.6423V53.629ZM53.4763 53.629V53.729H53.5763V53.629H53.4763ZM53.4763 52H53.5763V51.9H53.4763V52ZM49.2373 52H49.1373V52.1H49.2373V52ZM49.2373 47.779V47.679H49.1373V47.779H49.2373ZM54.9793 47.779H55.0793V47.679H54.9793V47.779ZM53.4763 48.184H53.5763V48.084H53.4763V48.184ZM49.6423 48.184V48.084H49.5423V48.184H49.6423ZM49.6423 51.595H49.5423V51.695H49.6423V51.595ZM53.4763 51.595V51.695H53.5763V51.595H53.4763ZM54.5743 48.184H54.6743V48.084H54.5743V48.184ZM53.8813 48.184V48.084H53.7813V48.184H53.8813ZM53.8813 53.629H53.7813V53.729H53.8813V53.629ZM54.5743 53.629V53.729H54.6743V53.629H54.5743ZM54.9793 53.934H49.2373V54.134H54.9793V53.934ZM49.3373 54.034V52.936H49.1373V54.034H49.3373ZM49.2373 53.036H49.6423V52.836H49.2373V53.036ZM49.5423 52.936V53.629H49.7423V52.936H49.5423ZM49.6423 53.729H53.4763V53.529H49.6423V53.729ZM53.5763 53.629V52H53.3763V53.629H53.5763ZM53.4763 51.9H49.2373V52.1H53.4763V51.9ZM49.3373 52V47.779H49.1373V52H49.3373ZM49.2373 47.879H54.9793V47.679H49.2373V47.879ZM54.8793 47.779V54.034H55.0793V47.779H54.8793ZM53.4763 48.084H49.6423V48.284H53.4763V48.084ZM49.5423 48.184V51.595H49.7423V48.184H49.5423ZM49.6423 51.695H53.4763V51.495H49.6423V51.695ZM53.5763 51.595V48.184H53.3763V51.595H53.5763ZM54.5743 48.084H53.8813V48.284H54.5743V48.084ZM53.7813 48.184V53.629H53.9813V48.184H53.7813ZM53.8813 53.729H54.5743V53.529H53.8813V53.729ZM54.6743 53.629V48.184H54.4743V53.629H54.6743ZM61.6286 47.779H61.7286V47.679H61.6286V47.779ZM61.6286 48.877V48.977H61.7286V48.877H61.6286ZM61.2236 48.877H61.1236V48.977H61.2236V48.877ZM61.2236 48.184H61.3236V48.084H61.2236V48.184ZM57.5156 48.184V48.084H57.4156V48.184H57.5156ZM57.5156 49.687H57.4156V49.787H57.5156V49.687ZM61.6286 49.687H61.7286V49.587H61.6286V49.687ZM61.6286 52V52.1H61.7286V52H61.6286ZM56.0126 52H55.9126V52.1H56.0126V52ZM56.0126 50.902V50.802H55.9126V50.902H56.0126ZM56.4176 50.902H56.5176V50.802H56.4176V50.902ZM56.4176 51.595H56.3176V51.695H56.4176V51.595ZM60.1256 51.595V51.695H60.2256V51.595H60.1256ZM60.1256 50.092H60.2256V49.992H60.1256V50.092ZM56.0126 50.092H55.9126V50.192H56.0126V50.092ZM56.0126 47.779V47.679H55.9126V47.779H56.0126ZM60.5306 50.092V49.992H60.4306V50.092H60.5306ZM60.5306 51.595H60.4306V51.695H60.5306V51.595ZM61.2236 51.595V51.695H61.3236V51.595H61.2236ZM61.2236 50.092H61.3236V49.992H61.2236V50.092ZM57.1106 48.184H57.2106V48.084H57.1106V48.184ZM56.4176 48.184V48.084H56.3176V48.184H56.4176ZM56.4176 49.687H56.3176V49.787H56.4176V49.687ZM57.1106 49.687V49.787H57.2106V49.687H57.1106ZM61.5286 47.779V48.877H61.7286V47.779H61.5286ZM61.6286 48.777H61.2236V48.977H61.6286V48.777ZM61.3236 48.877V48.184H61.1236V48.877H61.3236ZM61.2236 48.084H57.5156V48.284H61.2236V48.084ZM57.4156 48.184V49.687H57.6156V48.184H57.4156ZM57.5156 49.787H61.6286V49.587H57.5156V49.787ZM61.5286 49.687V52H61.7286V49.687H61.5286ZM61.6286 51.9H56.0126V52.1H61.6286V51.9ZM56.1126 52V50.902H55.9126V52H56.1126ZM56.0126 51.002H56.4176V50.802H56.0126V51.002ZM56.3176 50.902V51.595H56.5176V50.902H56.3176ZM56.4176 51.695H60.1256V51.495H56.4176V51.695ZM60.2256 51.595V50.092H60.0256V51.595H60.2256ZM60.1256 49.992H56.0126V50.192H60.1256V49.992ZM56.1126 50.092V47.779H55.9126V50.092H56.1126ZM56.0126 47.879H61.6286V47.679H56.0126V47.879ZM60.4306 50.092V51.595H60.6306V50.092H60.4306ZM60.5306 51.695H61.2236V51.495H60.5306V51.695ZM61.3236 51.595V50.092H61.1236V51.595H61.3236ZM61.2236 49.992H60.5306V50.192H61.2236V49.992ZM57.1106 48.084H56.4176V48.284H57.1106V48.084ZM56.3176 48.184V49.687H56.5176V48.184H56.3176ZM56.4176 49.787H57.1106V49.587H56.4176V49.787ZM57.2106 49.687V48.184H57.0106V49.687H57.2106Z" fill="white" mask="url(#path-5-outside-2_546_523)"/>
<rect x="4.5" y="72.5" width="66" height="25" rx="3.5" fill="white" stroke="#EACB50"/>
<mask id="path-8-outside-3_546_523" maskUnits="userSpaceOnUse" x="13" y="81" width="49" height="10" fill="black">
<rect fill="white" x="13" y="81" width="49" height="10"/>
<path d="M20.775 81.745V83.41H20.37V82.15H14.934V84.67H20.775V88H13.431V86.335H13.836V87.595H19.272V85.075H13.431V81.745H20.775ZM19.677 85.075V87.595H20.37V85.075H19.677ZM14.52 82.15H13.836V84.67H14.52V82.15ZM21.8769 83.779H27.4929V86.092H23.3799V87.595H27.0879V86.902H27.4929V88H21.8769V83.779ZM23.3799 84.184V85.687H27.0879V84.184H23.3799ZM22.2819 87.595H22.9749V84.184H22.2819V87.595ZM32.3012 87.595V88H29.0612V84.184H28.1702V83.779H29.0612V81.745H30.5642V83.779H32.3012V84.184H30.5642V87.595H32.3012ZM30.1592 82.15H29.4662V87.595H30.1592V82.15ZM36.8012 87.595V88H33.5612V84.184H32.6702V83.779H33.5612V81.745H35.0642V83.779H36.8012V84.184H35.0642V87.595H36.8012ZM34.6592 82.15H33.9662V87.595H34.6592V82.15ZM39.6992 87.595H40.5902V88H37.3052V87.595H38.1962V84.184H37.3052V83.779H39.6992V87.595ZM39.2942 84.184H38.6012V87.595H39.2942V84.184ZM39.7622 83.122H38.1332V81.745H39.7622V83.122ZM39.3572 82.15H38.5382V82.717H39.3572V82.15ZM41.0845 83.779H47.5915V87.595H48.5545V88H46.2235V87.595H47.1865V84.184H43.4785V87.595H44.3695V88H41.0845V87.595H41.9755V84.184H41.0845V83.779ZM43.0735 87.595V84.184H42.3805V87.595H43.0735ZM54.9793 90.034H49.2373V88.936H49.6423V89.629H53.4763V88H49.2373V83.779H54.9793V90.034ZM53.4763 84.184H49.6423V87.595H53.4763V84.184ZM54.5743 84.184H53.8813V89.629H54.5743V84.184ZM61.6286 83.779V84.877H61.2236V84.184H57.5156V85.687H61.6286V88H56.0126V86.902H56.4176V87.595H60.1256V86.092H56.0126V83.779H61.6286ZM60.5306 86.092V87.595H61.2236V86.092H60.5306ZM57.1106 84.184H56.4176V85.687H57.1106V84.184Z"/>
</mask>
<path d="M20.775 81.745V83.41H20.37V82.15H14.934V84.67H20.775V88H13.431V86.335H13.836V87.595H19.272V85.075H13.431V81.745H20.775ZM19.677 85.075V87.595H20.37V85.075H19.677ZM14.52 82.15H13.836V84.67H14.52V82.15ZM21.8769 83.779H27.4929V86.092H23.3799V87.595H27.0879V86.902H27.4929V88H21.8769V83.779ZM23.3799 84.184V85.687H27.0879V84.184H23.3799ZM22.2819 87.595H22.9749V84.184H22.2819V87.595ZM32.3012 87.595V88H29.0612V84.184H28.1702V83.779H29.0612V81.745H30.5642V83.779H32.3012V84.184H30.5642V87.595H32.3012ZM30.1592 82.15H29.4662V87.595H30.1592V82.15ZM36.8012 87.595V88H33.5612V84.184H32.6702V83.779H33.5612V81.745H35.0642V83.779H36.8012V84.184H35.0642V87.595H36.8012ZM34.6592 82.15H33.9662V87.595H34.6592V82.15ZM39.6992 87.595H40.5902V88H37.3052V87.595H38.1962V84.184H37.3052V83.779H39.6992V87.595ZM39.2942 84.184H38.6012V87.595H39.2942V84.184ZM39.7622 83.122H38.1332V81.745H39.7622V83.122ZM39.3572 82.15H38.5382V82.717H39.3572V82.15ZM41.0845 83.779H47.5915V87.595H48.5545V88H46.2235V87.595H47.1865V84.184H43.4785V87.595H44.3695V88H41.0845V87.595H41.9755V84.184H41.0845V83.779ZM43.0735 87.595V84.184H42.3805V87.595H43.0735ZM54.9793 90.034H49.2373V88.936H49.6423V89.629H53.4763V88H49.2373V83.779H54.9793V90.034ZM53.4763 84.184H49.6423V87.595H53.4763V84.184ZM54.5743 84.184H53.8813V89.629H54.5743V84.184ZM61.6286 83.779V84.877H61.2236V84.184H57.5156V85.687H61.6286V88H56.0126V86.902H56.4176V87.595H60.1256V86.092H56.0126V83.779H61.6286ZM60.5306 86.092V87.595H61.2236V86.092H60.5306ZM57.1106 84.184H56.4176V85.687H57.1106V84.184Z" fill="black"/>
<path d="M20.775 81.745H20.875V81.645H20.775V81.745ZM20.775 83.41V83.51H20.875V83.41H20.775ZM20.37 83.41H20.27V83.51H20.37V83.41ZM20.37 82.15H20.47V82.05H20.37V82.15ZM14.934 82.15V82.05H14.834V82.15H14.934ZM14.934 84.67H14.834V84.77H14.934V84.67ZM20.775 84.67H20.875V84.57H20.775V84.67ZM20.775 88V88.1H20.875V88H20.775ZM13.431 88H13.331V88.1H13.431V88ZM13.431 86.335V86.235H13.331V86.335H13.431ZM13.836 86.335H13.936V86.235H13.836V86.335ZM13.836 87.595H13.736V87.695H13.836V87.595ZM19.272 87.595V87.695H19.372V87.595H19.272ZM19.272 85.075H19.372V84.975H19.272V85.075ZM13.431 85.075H13.331V85.175H13.431V85.075ZM13.431 81.745V81.645H13.331V81.745H13.431ZM19.677 85.075V84.975H19.577V85.075H19.677ZM19.677 87.595H19.577V87.695H19.677V87.595ZM20.37 87.595V87.695H20.47V87.595H20.37ZM20.37 85.075H20.47V84.975H20.37V85.075ZM14.52 82.15H14.62V82.05H14.52V82.15ZM13.836 82.15V82.05H13.736V82.15H13.836ZM13.836 84.67H13.736V84.77H13.836V84.67ZM14.52 84.67V84.77H14.62V84.67H14.52ZM20.675 81.745V83.41H20.875V81.745H20.675ZM20.775 83.31H20.37V83.51H20.775V83.31ZM20.47 83.41V82.15H20.27V83.41H20.47ZM20.37 82.05H14.934V82.25H20.37V82.05ZM14.834 82.15V84.67H15.034V82.15H14.834ZM14.934 84.77H20.775V84.57H14.934V84.77ZM20.675 84.67V88H20.875V84.67H20.675ZM20.775 87.9H13.431V88.1H20.775V87.9ZM13.531 88V86.335H13.331V88H13.531ZM13.431 86.435H13.836V86.235H13.431V86.435ZM13.736 86.335V87.595H13.936V86.335H13.736ZM13.836 87.695H19.272V87.495H13.836V87.695ZM19.372 87.595V85.075H19.172V87.595H19.372ZM19.272 84.975H13.431V85.175H19.272V84.975ZM13.531 85.075V81.745H13.331V85.075H13.531ZM13.431 81.845H20.775V81.645H13.431V81.845ZM19.577 85.075V87.595H19.777V85.075H19.577ZM19.677 87.695H20.37V87.495H19.677V87.695ZM20.47 87.595V85.075H20.27V87.595H20.47ZM20.37 84.975H19.677V85.175H20.37V84.975ZM14.52 82.05H13.836V82.25H14.52V82.05ZM13.736 82.15V84.67H13.936V82.15H13.736ZM13.836 84.77H14.52V84.57H13.836V84.77ZM14.62 84.67V82.15H14.42V84.67H14.62ZM21.8769 83.779V83.679H21.7769V83.779H21.8769ZM27.4929 83.779H27.5929V83.679H27.4929V83.779ZM27.4929 86.092V86.192H27.5929V86.092H27.4929ZM23.3799 86.092V85.992H23.2799V86.092H23.3799ZM23.3799 87.595H23.2799V87.695H23.3799V87.595ZM27.0879 87.595V87.695H27.1879V87.595H27.0879ZM27.0879 86.902V86.802H26.9879V86.902H27.0879ZM27.4929 86.902H27.5929V86.802H27.4929V86.902ZM27.4929 88V88.1H27.5929V88H27.4929ZM21.8769 88H21.7769V88.1H21.8769V88ZM23.3799 84.184V84.084H23.2799V84.184H23.3799ZM23.3799 85.687H23.2799V85.787H23.3799V85.687ZM27.0879 85.687V85.787H27.1879V85.687H27.0879ZM27.0879 84.184H27.1879V84.084H27.0879V84.184ZM22.2819 87.595H22.1819V87.695H22.2819V87.595ZM22.9749 87.595V87.695H23.0749V87.595H22.9749ZM22.9749 84.184H23.0749V84.084H22.9749V84.184ZM22.2819 84.184V84.084H22.1819V84.184H22.2819ZM21.8769 83.879H27.4929V83.679H21.8769V83.879ZM27.3929 83.779V86.092H27.5929V83.779H27.3929ZM27.4929 85.992H23.3799V86.192H27.4929V85.992ZM23.2799 86.092V87.595H23.4799V86.092H23.2799ZM23.3799 87.695H27.0879V87.495H23.3799V87.695ZM27.1879 87.595V86.902H26.9879V87.595H27.1879ZM27.0879 87.002H27.4929V86.802H27.0879V87.002ZM27.3929 86.902V88H27.5929V86.902H27.3929ZM27.4929 87.9H21.8769V88.1H27.4929V87.9ZM21.9769 88V83.779H21.7769V88H21.9769ZM23.2799 84.184V85.687H23.4799V84.184H23.2799ZM23.3799 85.787H27.0879V85.587H23.3799V85.787ZM27.1879 85.687V84.184H26.9879V85.687H27.1879ZM27.0879 84.084H23.3799V84.284H27.0879V84.084ZM22.2819 87.695H22.9749V87.495H22.2819V87.695ZM23.0749 87.595V84.184H22.8749V87.595H23.0749ZM22.9749 84.084H22.2819V84.284H22.9749V84.084ZM22.1819 84.184V87.595H22.3819V84.184H22.1819ZM32.3012 87.595H32.4012V87.495H32.3012V87.595ZM32.3012 88V88.1H32.4012V88H32.3012ZM29.0612 88H28.9612V88.1H29.0612V88ZM29.0612 84.184H29.1612V84.084H29.0612V84.184ZM28.1702 84.184H28.0702V84.284H28.1702V84.184ZM28.1702 83.779V83.679H28.0702V83.779H28.1702ZM29.0612 83.779V83.879H29.1612V83.779H29.0612ZM29.0612 81.745V81.645H28.9612V81.745H29.0612ZM30.5642 81.745H30.6642V81.645H30.5642V81.745ZM30.5642 83.779H30.4642V83.879H30.5642V83.779ZM32.3012 83.779H32.4012V83.679H32.3012V83.779ZM32.3012 84.184V84.284H32.4012V84.184H32.3012ZM30.5642 84.184V84.084H30.4642V84.184H30.5642ZM30.5642 87.595H30.4642V87.695H30.5642V87.595ZM30.1592 82.15H30.2592V82.05H30.1592V82.15ZM29.4662 82.15V82.05H29.3662V82.15H29.4662ZM29.4662 87.595H29.3662V87.695H29.4662V87.595ZM30.1592 87.595V87.695H30.2592V87.595H30.1592ZM32.2012 87.595V88H32.4012V87.595H32.2012ZM32.3012 87.9H29.0612V88.1H32.3012V87.9ZM29.1612 88V84.184H28.9612V88H29.1612ZM29.0612 84.084H28.1702V84.284H29.0612V84.084ZM28.2702 84.184V83.779H28.0702V84.184H28.2702ZM28.1702 83.879H29.0612V83.679H28.1702V83.879ZM29.1612 83.779V81.745H28.9612V83.779H29.1612ZM29.0612 81.845H30.5642V81.645H29.0612V81.845ZM30.4642 81.745V83.779H30.6642V81.745H30.4642ZM30.5642 83.879H32.3012V83.679H30.5642V83.879ZM32.2012 83.779V84.184H32.4012V83.779H32.2012ZM32.3012 84.084H30.5642V84.284H32.3012V84.084ZM30.4642 84.184V87.595H30.6642V84.184H30.4642ZM30.5642 87.695H32.3012V87.495H30.5642V87.695ZM30.1592 82.05H29.4662V82.25H30.1592V82.05ZM29.3662 82.15V87.595H29.5662V82.15H29.3662ZM29.4662 87.695H30.1592V87.495H29.4662V87.695ZM30.2592 87.595V82.15H30.0592V87.595H30.2592ZM36.8012 87.595H36.9012V87.495H36.8012V87.595ZM36.8012 88V88.1H36.9012V88H36.8012ZM33.5612 88H33.4612V88.1H33.5612V88ZM33.5612 84.184H33.6612V84.084H33.5612V84.184ZM32.6702 84.184H32.5702V84.284H32.6702V84.184ZM32.6702 83.779V83.679H32.5702V83.779H32.6702ZM33.5612 83.779V83.879H33.6612V83.779H33.5612ZM33.5612 81.745V81.645H33.4612V81.745H33.5612ZM35.0642 81.745H35.1642V81.645H35.0642V81.745ZM35.0642 83.779H34.9642V83.879H35.0642V83.779ZM36.8012 83.779H36.9012V83.679H36.8012V83.779ZM36.8012 84.184V84.284H36.9012V84.184H36.8012ZM35.0642 84.184V84.084H34.9642V84.184H35.0642ZM35.0642 87.595H34.9642V87.695H35.0642V87.595ZM34.6592 82.15H34.7592V82.05H34.6592V82.15ZM33.9662 82.15V82.05H33.8662V82.15H33.9662ZM33.9662 87.595H33.8662V87.695H33.9662V87.595ZM34.6592 87.595V87.695H34.7592V87.595H34.6592ZM36.7012 87.595V88H36.9012V87.595H36.7012ZM36.8012 87.9H33.5612V88.1H36.8012V87.9ZM33.6612 88V84.184H33.4612V88H33.6612ZM33.5612 84.084H32.6702V84.284H33.5612V84.084ZM32.7702 84.184V83.779H32.5702V84.184H32.7702ZM32.6702 83.879H33.5612V83.679H32.6702V83.879ZM33.6612 83.779V81.745H33.4612V83.779H33.6612ZM33.5612 81.845H35.0642V81.645H33.5612V81.845ZM34.9642 81.745V83.779H35.1642V81.745H34.9642ZM35.0642 83.879H36.8012V83.679H35.0642V83.879ZM36.7012 83.779V84.184H36.9012V83.779H36.7012ZM36.8012 84.084H35.0642V84.284H36.8012V84.084ZM34.9642 84.184V87.595H35.1642V84.184H34.9642ZM35.0642 87.695H36.8012V87.495H35.0642V87.695ZM34.6592 82.05H33.9662V82.25H34.6592V82.05ZM33.8662 82.15V87.595H34.0662V82.15H33.8662ZM33.9662 87.695H34.6592V87.495H33.9662V87.695ZM34.7592 87.595V82.15H34.5592V87.595H34.7592ZM39.6992 87.595H39.5992V87.695H39.6992V87.595ZM40.5902 87.595H40.6902V87.495H40.5902V87.595ZM40.5902 88V88.1H40.6902V88H40.5902ZM37.3052 88H37.2052V88.1H37.3052V88ZM37.3052 87.595V87.495H37.2052V87.595H37.3052ZM38.1962 87.595V87.695H38.2962V87.595H38.1962ZM38.1962 84.184H38.2962V84.084H38.1962V84.184ZM37.3052 84.184H37.2052V84.284H37.3052V84.184ZM37.3052 83.779V83.679H37.2052V83.779H37.3052ZM39.6992 83.779H39.7992V83.679H39.6992V83.779ZM39.2942 84.184H39.3942V84.084H39.2942V84.184ZM38.6012 84.184V84.084H38.5012V84.184H38.6012ZM38.6012 87.595H38.5012V87.695H38.6012V87.595ZM39.2942 87.595V87.695H39.3942V87.595H39.2942ZM39.7622 83.122V83.222H39.8622V83.122H39.7622ZM38.1332 83.122H38.0332V83.222H38.1332V83.122ZM38.1332 81.745V81.645H38.0332V81.745H38.1332ZM39.7622 81.745H39.8622V81.645H39.7622V81.745ZM39.3572 82.15H39.4572V82.05H39.3572V82.15ZM38.5382 82.15V82.05H38.4382V82.15H38.5382ZM38.5382 82.717H38.4382V82.817H38.5382V82.717ZM39.3572 82.717V82.817H39.4572V82.717H39.3572ZM39.6992 87.695H40.5902V87.495H39.6992V87.695ZM40.4902 87.595V88H40.6902V87.595H40.4902ZM40.5902 87.9H37.3052V88.1H40.5902V87.9ZM37.4052 88V87.595H37.2052V88H37.4052ZM37.3052 87.695H38.1962V87.495H37.3052V87.695ZM38.2962 87.595V84.184H38.0962V87.595H38.2962ZM38.1962 84.084H37.3052V84.284H38.1962V84.084ZM37.4052 84.184V83.779H37.2052V84.184H37.4052ZM37.3052 83.879H39.6992V83.679H37.3052V83.879ZM39.5992 83.779V87.595H39.7992V83.779H39.5992ZM39.2942 84.084H38.6012V84.284H39.2942V84.084ZM38.5012 84.184V87.595H38.7012V84.184H38.5012ZM38.6012 87.695H39.2942V87.495H38.6012V87.695ZM39.3942 87.595V84.184H39.1942V87.595H39.3942ZM39.7622 83.022H38.1332V83.222H39.7622V83.022ZM38.2332 83.122V81.745H38.0332V83.122H38.2332ZM38.1332 81.845H39.7622V81.645H38.1332V81.845ZM39.6622 81.745V83.122H39.8622V81.745H39.6622ZM39.3572 82.05H38.5382V82.25H39.3572V82.05ZM38.4382 82.15V82.717H38.6382V82.15H38.4382ZM38.5382 82.817H39.3572V82.617H38.5382V82.817ZM39.4572 82.717V82.15H39.2572V82.717H39.4572ZM41.0845 83.779V83.679H40.9845V83.779H41.0845ZM47.5915 83.779H47.6915V83.679H47.5915V83.779ZM47.5915 87.595H47.4915V87.695H47.5915V87.595ZM48.5545 87.595H48.6545V87.495H48.5545V87.595ZM48.5545 88V88.1H48.6545V88H48.5545ZM46.2235 88H46.1235V88.1H46.2235V88ZM46.2235 87.595V87.495H46.1235V87.595H46.2235ZM47.1865 87.595V87.695H47.2865V87.595H47.1865ZM47.1865 84.184H47.2865V84.084H47.1865V84.184ZM43.4785 84.184V84.084H43.3785V84.184H43.4785ZM43.4785 87.595H43.3785V87.695H43.4785V87.595ZM44.3695 87.595H44.4695V87.495H44.3695V87.595ZM44.3695 88V88.1H44.4695V88H44.3695ZM41.0845 88H40.9845V88.1H41.0845V88ZM41.0845 87.595V87.495H40.9845V87.595H41.0845ZM41.9755 87.595V87.695H42.0755V87.595H41.9755ZM41.9755 84.184H42.0755V84.084H41.9755V84.184ZM41.0845 84.184H40.9845V84.284H41.0845V84.184ZM43.0735 87.595V87.695H43.1735V87.595H43.0735ZM43.0735 84.184H43.1735V84.084H43.0735V84.184ZM42.3805 84.184V84.084H42.2805V84.184H42.3805ZM42.3805 87.595H42.2805V87.695H42.3805V87.595ZM41.0845 83.879H47.5915V83.679H41.0845V83.879ZM47.4915 83.779V87.595H47.6915V83.779H47.4915ZM47.5915 87.695H48.5545V87.495H47.5915V87.695ZM48.4545 87.595V88H48.6545V87.595H48.4545ZM48.5545 87.9H46.2235V88.1H48.5545V87.9ZM46.3235 88V87.595H46.1235V88H46.3235ZM46.2235 87.695H47.1865V87.495H46.2235V87.695ZM47.2865 87.595V84.184H47.0865V87.595H47.2865ZM47.1865 84.084H43.4785V84.284H47.1865V84.084ZM43.3785 84.184V87.595H43.5785V84.184H43.3785ZM43.4785 87.695H44.3695V87.495H43.4785V87.695ZM44.2695 87.595V88H44.4695V87.595H44.2695ZM44.3695 87.9H41.0845V88.1H44.3695V87.9ZM41.1845 88V87.595H40.9845V88H41.1845ZM41.0845 87.695H41.9755V87.495H41.0845V87.695ZM42.0755 87.595V84.184H41.8755V87.595H42.0755ZM41.9755 84.084H41.0845V84.284H41.9755V84.084ZM41.1845 84.184V83.779H40.9845V84.184H41.1845ZM43.1735 87.595V84.184H42.9735V87.595H43.1735ZM43.0735 84.084H42.3805V84.284H43.0735V84.084ZM42.2805 84.184V87.595H42.4805V84.184H42.2805ZM42.3805 87.695H43.0735V87.495H42.3805V87.695ZM54.9793 90.034V90.134H55.0793V90.034H54.9793ZM49.2373 90.034H49.1373V90.134H49.2373V90.034ZM49.2373 88.936V88.836H49.1373V88.936H49.2373ZM49.6423 88.936H49.7423V88.836H49.6423V88.936ZM49.6423 89.629H49.5423V89.729H49.6423V89.629ZM53.4763 89.629V89.729H53.5763V89.629H53.4763ZM53.4763 88H53.5763V87.9H53.4763V88ZM49.2373 88H49.1373V88.1H49.2373V88ZM49.2373 83.779V83.679H49.1373V83.779H49.2373ZM54.9793 83.779H55.0793V83.679H54.9793V83.779ZM53.4763 84.184H53.5763V84.084H53.4763V84.184ZM49.6423 84.184V84.084H49.5423V84.184H49.6423ZM49.6423 87.595H49.5423V87.695H49.6423V87.595ZM53.4763 87.595V87.695H53.5763V87.595H53.4763ZM54.5743 84.184H54.6743V84.084H54.5743V84.184ZM53.8813 84.184V84.084H53.7813V84.184H53.8813ZM53.8813 89.629H53.7813V89.729H53.8813V89.629ZM54.5743 89.629V89.729H54.6743V89.629H54.5743ZM54.9793 89.934H49.2373V90.134H54.9793V89.934ZM49.3373 90.034V88.936H49.1373V90.034H49.3373ZM49.2373 89.036H49.6423V88.836H49.2373V89.036ZM49.5423 88.936V89.629H49.7423V88.936H49.5423ZM49.6423 89.729H53.4763V89.529H49.6423V89.729ZM53.5763 89.629V88H53.3763V89.629H53.5763ZM53.4763 87.9H49.2373V88.1H53.4763V87.9ZM49.3373 88V83.779H49.1373V88H49.3373ZM49.2373 83.879H54.9793V83.679H49.2373V83.879ZM54.8793 83.779V90.034H55.0793V83.779H54.8793ZM53.4763 84.084H49.6423V84.284H53.4763V84.084ZM49.5423 84.184V87.595H49.7423V84.184H49.5423ZM49.6423 87.695H53.4763V87.495H49.6423V87.695ZM53.5763 87.595V84.184H53.3763V87.595H53.5763ZM54.5743 84.084H53.8813V84.284H54.5743V84.084ZM53.7813 84.184V89.629H53.9813V84.184H53.7813ZM53.8813 89.729H54.5743V89.529H53.8813V89.729ZM54.6743 89.629V84.184H54.4743V89.629H54.6743ZM61.6286 83.779H61.7286V83.679H61.6286V83.779ZM61.6286 84.877V84.977H61.7286V84.877H61.6286ZM61.2236 84.877H61.1236V84.977H61.2236V84.877ZM61.2236 84.184H61.3236V84.084H61.2236V84.184ZM57.5156 84.184V84.084H57.4156V84.184H57.5156ZM57.5156 85.687H57.4156V85.787H57.5156V85.687ZM61.6286 85.687H61.7286V85.587H61.6286V85.687ZM61.6286 88V88.1H61.7286V88H61.6286ZM56.0126 88H55.9126V88.1H56.0126V88ZM56.0126 86.902V86.802H55.9126V86.902H56.0126ZM56.4176 86.902H56.5176V86.802H56.4176V86.902ZM56.4176 87.595H56.3176V87.695H56.4176V87.595ZM60.1256 87.595V87.695H60.2256V87.595H60.1256ZM60.1256 86.092H60.2256V85.992H60.1256V86.092ZM56.0126 86.092H55.9126V86.192H56.0126V86.092ZM56.0126 83.779V83.679H55.9126V83.779H56.0126ZM60.5306 86.092V85.992H60.4306V86.092H60.5306ZM60.5306 87.595H60.4306V87.695H60.5306V87.595ZM61.2236 87.595V87.695H61.3236V87.595H61.2236ZM61.2236 86.092H61.3236V85.992H61.2236V86.092ZM57.1106 84.184H57.2106V84.084H57.1106V84.184ZM56.4176 84.184V84.084H56.3176V84.184H56.4176ZM56.4176 85.687H56.3176V85.787H56.4176V85.687ZM57.1106 85.687V85.787H57.2106V85.687H57.1106ZM61.5286 83.779V84.877H61.7286V83.779H61.5286ZM61.6286 84.777H61.2236V84.977H61.6286V84.777ZM61.3236 84.877V84.184H61.1236V84.877H61.3236ZM61.2236 84.084H57.5156V84.284H61.2236V84.084ZM57.4156 84.184V85.687H57.6156V84.184H57.4156ZM57.5156 85.787H61.6286V85.587H57.5156V85.787ZM61.5286 85.687V88H61.7286V85.687H61.5286ZM61.6286 87.9H56.0126V88.1H61.6286V87.9ZM56.1126 88V86.902H55.9126V88H56.1126ZM56.0126 87.002H56.4176V86.802H56.0126V87.002ZM56.3176 86.902V87.595H56.5176V86.902H56.3176ZM56.4176 87.695H60.1256V87.495H56.4176V87.695ZM60.2256 87.595V86.092H60.0256V87.595H60.2256ZM60.1256 85.992H56.0126V86.192H60.1256V85.992ZM56.1126 86.092V83.779H55.9126V86.092H56.1126ZM56.0126 83.879H61.6286V83.679H56.0126V83.879ZM60.4306 86.092V87.595H60.6306V86.092H60.4306ZM60.5306 87.695H61.2236V87.495H60.5306V87.695ZM61.3236 87.595V86.092H61.1236V87.595H61.3236ZM61.2236 85.992H60.5306V86.192H61.2236V85.992ZM57.1106 84.084H56.4176V84.284H57.1106V84.084ZM56.3176 84.184V85.687H56.5176V84.184H56.3176ZM56.4176 85.787H57.1106V85.587H56.4176V85.787ZM57.2106 85.687V84.184H57.0106V85.687H57.2106Z" fill="black" mask="url(#path-8-outside-3_546_523)"/>
</svg>
