<svg width="86" height="108" viewBox="0 0 86 108" fill="none" xmlns="http://www.w3.org/2000/svg">
<rect x="4.5" y="0.5" width="77" height="25" rx="3.5" fill="white" stroke="#959595"/>
<mask id="path-2-outside-1_544_459" maskUnits="userSpaceOnUse" x="20" y="9" width="46" height="8" fill="black">
<rect fill="white" x="20" y="9" width="46" height="8"/>
<path d="M28.5797 12.868C28.8197 13.054 28.9397 13.3 28.9397 13.606V15.595H29.8307V16H27.6437V15.595H28.5257V13.606C28.5257 13.456 28.4747 13.33 28.3727 13.228C28.2707 13.126 28.1477 13.075 28.0037 13.075H23.0897V15.595H23.9897V16H20.6957V15.595H21.5867V10.15H20.6957V9.745H28.9397V12.13C28.9397 12.436 28.8197 12.682 28.5797 12.868ZM22.6847 10.15H22.0007V15.595H22.6847V10.15ZM28.5257 10.15H23.0897V12.661H28.0037C28.1477 12.661 28.2707 12.61 28.3727 12.508C28.4747 12.406 28.5257 12.28 28.5257 12.13V10.15ZM30.5278 11.779H36.1438V14.092H32.0308V15.595H35.7388V14.902H36.1438V16H30.5278V11.779ZM32.0308 12.184V13.687H35.7388V12.184H32.0308ZM30.9328 15.595H31.6258V12.184H30.9328V15.595ZM42.7521 11.779V12.877H42.3471V12.184H38.6391V13.687H42.7521V16H37.1361V14.902H37.5411V15.595H41.2491V14.092H37.1361V11.779H42.7521ZM41.6541 14.092V15.595H42.3471V14.092H41.6541ZM38.2341 12.184H37.5411V13.687H38.2341V12.184ZM47.5615 15.595V16H44.3215V12.184H43.4305V11.779H44.3215V9.745H45.8245V11.779H47.5615V12.184H45.8245V15.595H47.5615ZM45.4195 10.15H44.7265V15.595H45.4195V10.15ZM53.8615 15.595H54.7525V16H48.2455V13.687H52.3585V12.184H48.6505V12.877H48.2455V11.779H53.8615V15.595ZM52.3585 15.595V14.092H48.6505V15.595H52.3585ZM53.4565 12.184H52.7635V15.595H53.4565V12.184ZM55.1495 11.779H60.8735V12.868H60.4685V12.184H57.5435V15.595H58.4345V16H55.1495V15.595H56.0405V12.184H55.1495V11.779ZM57.1385 15.595V12.184H56.4455V15.595H57.1385ZM65.4033 15.595V16H62.1633V12.184H61.2723V11.779H62.1633V9.745H63.6663V11.779H65.4033V12.184H63.6663V15.595H65.4033ZM63.2613 10.15H62.5683V15.595H63.2613V10.15Z"/>
</mask>
<path d="M28.5797 12.868C28.8197 13.054 28.9397 13.3 28.9397 13.606V15.595H29.8307V16H27.6437V15.595H28.5257V13.606C28.5257 13.456 28.4747 13.33 28.3727 13.228C28.2707 13.126 28.1477 13.075 28.0037 13.075H23.0897V15.595H23.9897V16H20.6957V15.595H21.5867V10.15H20.6957V9.745H28.9397V12.13C28.9397 12.436 28.8197 12.682 28.5797 12.868ZM22.6847 10.15H22.0007V15.595H22.6847V10.15ZM28.5257 10.15H23.0897V12.661H28.0037C28.1477 12.661 28.2707 12.61 28.3727 12.508C28.4747 12.406 28.5257 12.28 28.5257 12.13V10.15ZM30.5278 11.779H36.1438V14.092H32.0308V15.595H35.7388V14.902H36.1438V16H30.5278V11.779ZM32.0308 12.184V13.687H35.7388V12.184H32.0308ZM30.9328 15.595H31.6258V12.184H30.9328V15.595ZM42.7521 11.779V12.877H42.3471V12.184H38.6391V13.687H42.7521V16H37.1361V14.902H37.5411V15.595H41.2491V14.092H37.1361V11.779H42.7521ZM41.6541 14.092V15.595H42.3471V14.092H41.6541ZM38.2341 12.184H37.5411V13.687H38.2341V12.184ZM47.5615 15.595V16H44.3215V12.184H43.4305V11.779H44.3215V9.745H45.8245V11.779H47.5615V12.184H45.8245V15.595H47.5615ZM45.4195 10.15H44.7265V15.595H45.4195V10.15ZM53.8615 15.595H54.7525V16H48.2455V13.687H52.3585V12.184H48.6505V12.877H48.2455V11.779H53.8615V15.595ZM52.3585 15.595V14.092H48.6505V15.595H52.3585ZM53.4565 12.184H52.7635V15.595H53.4565V12.184ZM55.1495 11.779H60.8735V12.868H60.4685V12.184H57.5435V15.595H58.4345V16H55.1495V15.595H56.0405V12.184H55.1495V11.779ZM57.1385 15.595V12.184H56.4455V15.595H57.1385ZM65.4033 15.595V16H62.1633V12.184H61.2723V11.779H62.1633V9.745H63.6663V11.779H65.4033V12.184H63.6663V15.595H65.4033ZM63.2613 10.15H62.5683V15.595H63.2613V10.15Z" fill="black"/>
<path d="M28.5797 12.868L28.5185 12.789L28.4165 12.868L28.5185 12.947L28.5797 12.868ZM28.9397 15.595H28.8397V15.695H28.9397V15.595ZM29.8307 15.595H29.9307V15.495H29.8307V15.595ZM29.8307 16V16.1H29.9307V16H29.8307ZM27.6437 16H27.5437V16.1H27.6437V16ZM27.6437 15.595V15.495H27.5437V15.595H27.6437ZM28.5257 15.595V15.695H28.6257V15.595H28.5257ZM28.3727 13.228L28.4434 13.1573V13.1573L28.3727 13.228ZM23.0897 13.075V12.975H22.9897V13.075H23.0897ZM23.0897 15.595H22.9897V15.695H23.0897V15.595ZM23.9897 15.595H24.0897V15.495H23.9897V15.595ZM23.9897 16V16.1H24.0897V16H23.9897ZM20.6957 16H20.5957V16.1H20.6957V16ZM20.6957 15.595V15.495H20.5957V15.595H20.6957ZM21.5867 15.595V15.695H21.6867V15.595H21.5867ZM21.5867 10.15H21.6867V10.05H21.5867V10.15ZM20.6957 10.15H20.5957V10.25H20.6957V10.15ZM20.6957 9.745V9.645H20.5957V9.745H20.6957ZM28.9397 9.745H29.0397V9.645H28.9397V9.745ZM22.6847 10.15H22.7847V10.05H22.6847V10.15ZM22.0007 10.15V10.05H21.9007V10.15H22.0007ZM22.0007 15.595H21.9007V15.695H22.0007V15.595ZM22.6847 15.595V15.695H22.7847V15.595H22.6847ZM28.5257 10.15H28.6257V10.05H28.5257V10.15ZM23.0897 10.15V10.05H22.9897V10.15H23.0897ZM23.0897 12.661H22.9897V12.761H23.0897V12.661ZM28.3727 12.508L28.4434 12.5787L28.3727 12.508ZM28.5185 12.947C28.7338 13.1139 28.8397 13.3306 28.8397 13.606H29.0397C29.0397 13.2694 28.9056 12.9941 28.641 12.789L28.5185 12.947ZM28.8397 13.606V15.595H29.0397V13.606H28.8397ZM28.9397 15.695H29.8307V15.495H28.9397V15.695ZM29.7307 15.595V16H29.9307V15.595H29.7307ZM29.8307 15.9H27.6437V16.1H29.8307V15.9ZM27.7437 16V15.595H27.5437V16H27.7437ZM27.6437 15.695H28.5257V15.495H27.6437V15.695ZM28.6257 15.595V13.606H28.4257V15.595H28.6257ZM28.6257 13.606C28.6257 13.4307 28.565 13.2789 28.4434 13.1573L28.302 13.2987C28.3844 13.3811 28.4257 13.4813 28.4257 13.606H28.6257ZM28.4434 13.1573C28.3227 13.0366 28.1743 12.975 28.0037 12.975V13.175C28.1211 13.175 28.2187 13.2154 28.302 13.2987L28.4434 13.1573ZM28.0037 12.975H23.0897V13.175H28.0037V12.975ZM22.9897 13.075V15.595H23.1897V13.075H22.9897ZM23.0897 15.695H23.9897V15.495H23.0897V15.695ZM23.8897 15.595V16H24.0897V15.595H23.8897ZM23.9897 15.9H20.6957V16.1H23.9897V15.9ZM20.7957 16V15.595H20.5957V16H20.7957ZM20.6957 15.695H21.5867V15.495H20.6957V15.695ZM21.6867 15.595V10.15H21.4867V15.595H21.6867ZM21.5867 10.05H20.6957V10.25H21.5867V10.05ZM20.7957 10.15V9.745H20.5957V10.15H20.7957ZM20.6957 9.845H28.9397V9.645H20.6957V9.845ZM28.8397 9.745V12.13H29.0397V9.745H28.8397ZM28.8397 12.13C28.8397 12.4054 28.7338 12.6221 28.5185 12.789L28.641 12.947C28.9056 12.7419 29.0397 12.4666 29.0397 12.13H28.8397ZM22.6847 10.05H22.0007V10.25H22.6847V10.05ZM21.9007 10.15V15.595H22.1007V10.15H21.9007ZM22.0007 15.695H22.6847V15.495H22.0007V15.695ZM22.7847 15.595V10.15H22.5847V15.595H22.7847ZM28.5257 10.05H23.0897V10.25H28.5257V10.05ZM22.9897 10.15V12.661H23.1897V10.15H22.9897ZM23.0897 12.761H28.0037V12.561H23.0897V12.761ZM28.0037 12.761C28.1743 12.761 28.3227 12.6994 28.4434 12.5787L28.302 12.4373C28.2187 12.5206 28.1211 12.561 28.0037 12.561V12.761ZM28.4434 12.5787C28.565 12.4571 28.6257 12.3053 28.6257 12.13H28.4257C28.4257 12.2547 28.3844 12.3549 28.302 12.4373L28.4434 12.5787ZM28.6257 12.13V10.15H28.4257V12.13H28.6257ZM30.5278 11.779V11.679H30.4278V11.779H30.5278ZM36.1438 11.779H36.2438V11.679H36.1438V11.779ZM36.1438 14.092V14.192H36.2438V14.092H36.1438ZM32.0308 14.092V13.992H31.9308V14.092H32.0308ZM32.0308 15.595H31.9308V15.695H32.0308V15.595ZM35.7388 15.595V15.695H35.8388V15.595H35.7388ZM35.7388 14.902V14.802H35.6388V14.902H35.7388ZM36.1438 14.902H36.2438V14.802H36.1438V14.902ZM36.1438 16V16.1H36.2438V16H36.1438ZM30.5278 16H30.4278V16.1H30.5278V16ZM32.0308 12.184V12.084H31.9308V12.184H32.0308ZM32.0308 13.687H31.9308V13.787H32.0308V13.687ZM35.7388 13.687V13.787H35.8388V13.687H35.7388ZM35.7388 12.184H35.8388V12.084H35.7388V12.184ZM30.9328 15.595H30.8328V15.695H30.9328V15.595ZM31.6258 15.595V15.695H31.7258V15.595H31.6258ZM31.6258 12.184H31.7258V12.084H31.6258V12.184ZM30.9328 12.184V12.084H30.8328V12.184H30.9328ZM30.5278 11.879H36.1438V11.679H30.5278V11.879ZM36.0438 11.779V14.092H36.2438V11.779H36.0438ZM36.1438 13.992H32.0308V14.192H36.1438V13.992ZM31.9308 14.092V15.595H32.1308V14.092H31.9308ZM32.0308 15.695H35.7388V15.495H32.0308V15.695ZM35.8388 15.595V14.902H35.6388V15.595H35.8388ZM35.7388 15.002H36.1438V14.802H35.7388V15.002ZM36.0438 14.902V16H36.2438V14.902H36.0438ZM36.1438 15.9H30.5278V16.1H36.1438V15.9ZM30.6278 16V11.779H30.4278V16H30.6278ZM31.9308 12.184V13.687H32.1308V12.184H31.9308ZM32.0308 13.787H35.7388V13.587H32.0308V13.787ZM35.8388 13.687V12.184H35.6388V13.687H35.8388ZM35.7388 12.084H32.0308V12.284H35.7388V12.084ZM30.9328 15.695H31.6258V15.495H30.9328V15.695ZM31.7258 15.595V12.184H31.5258V15.595H31.7258ZM31.6258 12.084H30.9328V12.284H31.6258V12.084ZM30.8328 12.184V15.595H31.0328V12.184H30.8328ZM42.7521 11.779H42.8521V11.679H42.7521V11.779ZM42.7521 12.877V12.977H42.8521V12.877H42.7521ZM42.3471 12.877H42.2471V12.977H42.3471V12.877ZM42.3471 12.184H42.4471V12.084H42.3471V12.184ZM38.6391 12.184V12.084H38.5391V12.184H38.6391ZM38.6391 13.687H38.5391V13.787H38.6391V13.687ZM42.7521 13.687H42.8521V13.587H42.7521V13.687ZM42.7521 16V16.1H42.8521V16H42.7521ZM37.1361 16H37.0361V16.1H37.1361V16ZM37.1361 14.902V14.802H37.0361V14.902H37.1361ZM37.5411 14.902H37.6411V14.802H37.5411V14.902ZM37.5411 15.595H37.4411V15.695H37.5411V15.595ZM41.2491 15.595V15.695H41.3491V15.595H41.2491ZM41.2491 14.092H41.3491V13.992H41.2491V14.092ZM37.1361 14.092H37.0361V14.192H37.1361V14.092ZM37.1361 11.779V11.679H37.0361V11.779H37.1361ZM41.6541 14.092V13.992H41.5541V14.092H41.6541ZM41.6541 15.595H41.5541V15.695H41.6541V15.595ZM42.3471 15.595V15.695H42.4471V15.595H42.3471ZM42.3471 14.092H42.4471V13.992H42.3471V14.092ZM38.2341 12.184H38.3341V12.084H38.2341V12.184ZM37.5411 12.184V12.084H37.4411V12.184H37.5411ZM37.5411 13.687H37.4411V13.787H37.5411V13.687ZM38.2341 13.687V13.787H38.3341V13.687H38.2341ZM42.6521 11.779V12.877H42.8521V11.779H42.6521ZM42.7521 12.777H42.3471V12.977H42.7521V12.777ZM42.4471 12.877V12.184H42.2471V12.877H42.4471ZM42.3471 12.084H38.6391V12.284H42.3471V12.084ZM38.5391 12.184V13.687H38.7391V12.184H38.5391ZM38.6391 13.787H42.7521V13.587H38.6391V13.787ZM42.6521 13.687V16H42.8521V13.687H42.6521ZM42.7521 15.9H37.1361V16.1H42.7521V15.9ZM37.2361 16V14.902H37.0361V16H37.2361ZM37.1361 15.002H37.5411V14.802H37.1361V15.002ZM37.4411 14.902V15.595H37.6411V14.902H37.4411ZM37.5411 15.695H41.2491V15.495H37.5411V15.695ZM41.3491 15.595V14.092H41.1491V15.595H41.3491ZM41.2491 13.992H37.1361V14.192H41.2491V13.992ZM37.2361 14.092V11.779H37.0361V14.092H37.2361ZM37.1361 11.879H42.7521V11.679H37.1361V11.879ZM41.5541 14.092V15.595H41.7541V14.092H41.5541ZM41.6541 15.695H42.3471V15.495H41.6541V15.695ZM42.4471 15.595V14.092H42.2471V15.595H42.4471ZM42.3471 13.992H41.6541V14.192H42.3471V13.992ZM38.2341 12.084H37.5411V12.284H38.2341V12.084ZM37.4411 12.184V13.687H37.6411V12.184H37.4411ZM37.5411 13.787H38.2341V13.587H37.5411V13.787ZM38.3341 13.687V12.184H38.1341V13.687H38.3341ZM47.5615 15.595H47.6615V15.495H47.5615V15.595ZM47.5615 16V16.1H47.6615V16H47.5615ZM44.3215 16H44.2215V16.1H44.3215V16ZM44.3215 12.184H44.4215V12.084H44.3215V12.184ZM43.4305 12.184H43.3305V12.284H43.4305V12.184ZM43.4305 11.779V11.679H43.3305V11.779H43.4305ZM44.3215 11.779V11.879H44.4215V11.779H44.3215ZM44.3215 9.745V9.645H44.2215V9.745H44.3215ZM45.8245 9.745H45.9245V9.645H45.8245V9.745ZM45.8245 11.779H45.7245V11.879H45.8245V11.779ZM47.5615 11.779H47.6615V11.679H47.5615V11.779ZM47.5615 12.184V12.284H47.6615V12.184H47.5615ZM45.8245 12.184V12.084H45.7245V12.184H45.8245ZM45.8245 15.595H45.7245V15.695H45.8245V15.595ZM45.4195 10.15H45.5195V10.05H45.4195V10.15ZM44.7265 10.15V10.05H44.6265V10.15H44.7265ZM44.7265 15.595H44.6265V15.695H44.7265V15.595ZM45.4195 15.595V15.695H45.5195V15.595H45.4195ZM47.4615 15.595V16H47.6615V15.595H47.4615ZM47.5615 15.9H44.3215V16.1H47.5615V15.9ZM44.4215 16V12.184H44.2215V16H44.4215ZM44.3215 12.084H43.4305V12.284H44.3215V12.084ZM43.5305 12.184V11.779H43.3305V12.184H43.5305ZM43.4305 11.879H44.3215V11.679H43.4305V11.879ZM44.4215 11.779V9.745H44.2215V11.779H44.4215ZM44.3215 9.845H45.8245V9.645H44.3215V9.845ZM45.7245 9.745V11.779H45.9245V9.745H45.7245ZM45.8245 11.879H47.5615V11.679H45.8245V11.879ZM47.4615 11.779V12.184H47.6615V11.779H47.4615ZM47.5615 12.084H45.8245V12.284H47.5615V12.084ZM45.7245 12.184V15.595H45.9245V12.184H45.7245ZM45.8245 15.695H47.5615V15.495H45.8245V15.695ZM45.4195 10.05H44.7265V10.25H45.4195V10.05ZM44.6265 10.15V15.595H44.8265V10.15H44.6265ZM44.7265 15.695H45.4195V15.495H44.7265V15.695ZM45.5195 15.595V10.15H45.3195V15.595H45.5195ZM53.8615 15.595H53.7615V15.695H53.8615V15.595ZM54.7525 15.595H54.8525V15.495H54.7525V15.595ZM54.7525 16V16.1H54.8525V16H54.7525ZM48.2455 16H48.1455V16.1H48.2455V16ZM48.2455 13.687V13.587H48.1455V13.687H48.2455ZM52.3585 13.687V13.787H52.4585V13.687H52.3585ZM52.3585 12.184H52.4585V12.084H52.3585V12.184ZM48.6505 12.184V12.084H48.5505V12.184H48.6505ZM48.6505 12.877V12.977H48.7505V12.877H48.6505ZM48.2455 12.877H48.1455V12.977H48.2455V12.877ZM48.2455 11.779V11.679H48.1455V11.779H48.2455ZM53.8615 11.779H53.9615V11.679H53.8615V11.779ZM52.3585 15.595V15.695H52.4585V15.595H52.3585ZM52.3585 14.092H52.4585V13.992H52.3585V14.092ZM48.6505 14.092V13.992H48.5505V14.092H48.6505ZM48.6505 15.595H48.5505V15.695H48.6505V15.595ZM53.4565 12.184H53.5565V12.084H53.4565V12.184ZM52.7635 12.184V12.084H52.6635V12.184H52.7635ZM52.7635 15.595H52.6635V15.695H52.7635V15.595ZM53.4565 15.595V15.695H53.5565V15.595H53.4565ZM53.8615 15.695H54.7525V15.495H53.8615V15.695ZM54.6525 15.595V16H54.8525V15.595H54.6525ZM54.7525 15.9H48.2455V16.1H54.7525V15.9ZM48.3455 16V13.687H48.1455V16H48.3455ZM48.2455 13.787H52.3585V13.587H48.2455V13.787ZM52.4585 13.687V12.184H52.2585V13.687H52.4585ZM52.3585 12.084H48.6505V12.284H52.3585V12.084ZM48.5505 12.184V12.877H48.7505V12.184H48.5505ZM48.6505 12.777H48.2455V12.977H48.6505V12.777ZM48.3455 12.877V11.779H48.1455V12.877H48.3455ZM48.2455 11.879H53.8615V11.679H48.2455V11.879ZM53.7615 11.779V15.595H53.9615V11.779H53.7615ZM52.4585 15.595V14.092H52.2585V15.595H52.4585ZM52.3585 13.992H48.6505V14.192H52.3585V13.992ZM48.5505 14.092V15.595H48.7505V14.092H48.5505ZM48.6505 15.695H52.3585V15.495H48.6505V15.695ZM53.4565 12.084H52.7635V12.284H53.4565V12.084ZM52.6635 12.184V15.595H52.8635V12.184H52.6635ZM52.7635 15.695H53.4565V15.495H52.7635V15.695ZM53.5565 15.595V12.184H53.3565V15.595H53.5565ZM55.1495 11.779V11.679H55.0495V11.779H55.1495ZM60.8735 11.779H60.9735V11.679H60.8735V11.779ZM60.8735 12.868V12.968H60.9735V12.868H60.8735ZM60.4685 12.868H60.3685V12.968H60.4685V12.868ZM60.4685 12.184H60.5685V12.084H60.4685V12.184ZM57.5435 12.184V12.084H57.4435V12.184H57.5435ZM57.5435 15.595H57.4435V15.695H57.5435V15.595ZM58.4345 15.595H58.5345V15.495H58.4345V15.595ZM58.4345 16V16.1H58.5345V16H58.4345ZM55.1495 16H55.0495V16.1H55.1495V16ZM55.1495 15.595V15.495H55.0495V15.595H55.1495ZM56.0405 15.595V15.695H56.1405V15.595H56.0405ZM56.0405 12.184H56.1405V12.084H56.0405V12.184ZM55.1495 12.184H55.0495V12.284H55.1495V12.184ZM57.1385 15.595V15.695H57.2385V15.595H57.1385ZM57.1385 12.184H57.2385V12.084H57.1385V12.184ZM56.4455 12.184V12.084H56.3455V12.184H56.4455ZM56.4455 15.595H56.3455V15.695H56.4455V15.595ZM55.1495 11.879H60.8735V11.679H55.1495V11.879ZM60.7735 11.779V12.868H60.9735V11.779H60.7735ZM60.8735 12.768H60.4685V12.968H60.8735V12.768ZM60.5685 12.868V12.184H60.3685V12.868H60.5685ZM60.4685 12.084H57.5435V12.284H60.4685V12.084ZM57.4435 12.184V15.595H57.6435V12.184H57.4435ZM57.5435 15.695H58.4345V15.495H57.5435V15.695ZM58.3345 15.595V16H58.5345V15.595H58.3345ZM58.4345 15.9H55.1495V16.1H58.4345V15.9ZM55.2495 16V15.595H55.0495V16H55.2495ZM55.1495 15.695H56.0405V15.495H55.1495V15.695ZM56.1405 15.595V12.184H55.9405V15.595H56.1405ZM56.0405 12.084H55.1495V12.284H56.0405V12.084ZM55.2495 12.184V11.779H55.0495V12.184H55.2495ZM57.2385 15.595V12.184H57.0385V15.595H57.2385ZM57.1385 12.084H56.4455V12.284H57.1385V12.084ZM56.3455 12.184V15.595H56.5455V12.184H56.3455ZM56.4455 15.695H57.1385V15.495H56.4455V15.695ZM65.4033 15.595H65.5033V15.495H65.4033V15.595ZM65.4033 16V16.1H65.5033V16H65.4033ZM62.1633 16H62.0633V16.1H62.1633V16ZM62.1633 12.184H62.2633V12.084H62.1633V12.184ZM61.2723 12.184H61.1723V12.284H61.2723V12.184ZM61.2723 11.779V11.679H61.1723V11.779H61.2723ZM62.1633 11.779V11.879H62.2633V11.779H62.1633ZM62.1633 9.745V9.645H62.0633V9.745H62.1633ZM63.6663 9.745H63.7663V9.645H63.6663V9.745ZM63.6663 11.779H63.5663V11.879H63.6663V11.779ZM65.4033 11.779H65.5033V11.679H65.4033V11.779ZM65.4033 12.184V12.284H65.5033V12.184H65.4033ZM63.6663 12.184V12.084H63.5663V12.184H63.6663ZM63.6663 15.595H63.5663V15.695H63.6663V15.595ZM63.2613 10.15H63.3613V10.05H63.2613V10.15ZM62.5683 10.15V10.05H62.4683V10.15H62.5683ZM62.5683 15.595H62.4683V15.695H62.5683V15.595ZM63.2613 15.595V15.695H63.3613V15.595H63.2613ZM65.3033 15.595V16H65.5033V15.595H65.3033ZM65.4033 15.9H62.1633V16.1H65.4033V15.9ZM62.2633 16V12.184H62.0633V16H62.2633ZM62.1633 12.084H61.2723V12.284H62.1633V12.084ZM61.3723 12.184V11.779H61.1723V12.184H61.3723ZM61.2723 11.879H62.1633V11.679H61.2723V11.879ZM62.2633 11.779V9.745H62.0633V11.779H62.2633ZM62.1633 9.845H63.6663V9.645H62.1633V9.845ZM63.5663 9.745V11.779H63.7663V9.745H63.5663ZM63.6663 11.879H65.4033V11.679H63.6663V11.879ZM65.3033 11.779V12.184H65.5033V11.779H65.3033ZM65.4033 12.084H63.6663V12.284H65.4033V12.084ZM63.5663 12.184V15.595H63.7663V12.184H63.5663ZM63.6663 15.695H65.4033V15.495H63.6663V15.695ZM63.2613 10.05H62.5683V10.25H63.2613V10.05ZM62.4683 10.15V15.595H62.6683V10.15H62.4683ZM62.5683 15.695H63.2613V15.495H62.5683V15.695ZM63.3613 15.595V10.15H63.1613V15.595H63.3613Z" fill="black" mask="url(#path-2-outside-1_544_459)"/>
<rect x="4.5" y="36.5" width="77" height="25" rx="3.5" fill="#EB6E91" stroke="#EB6E91"/>
<mask id="path-5-outside-2_544_459" maskUnits="userSpaceOnUse" x="20" y="45" width="46" height="8" fill="black">
<rect fill="white" x="20" y="45" width="46" height="8"/>
<path d="M28.5797 48.868C28.8197 49.054 28.9397 49.3 28.9397 49.606V51.595H29.8307V52H27.6437V51.595H28.5257V49.606C28.5257 49.456 28.4747 49.33 28.3727 49.228C28.2707 49.126 28.1477 49.075 28.0037 49.075H23.0897V51.595H23.9897V52H20.6957V51.595H21.5867V46.15H20.6957V45.745H28.9397V48.13C28.9397 48.436 28.8197 48.682 28.5797 48.868ZM22.6847 46.15H22.0007V51.595H22.6847V46.15ZM28.5257 46.15H23.0897V48.661H28.0037C28.1477 48.661 28.2707 48.61 28.3727 48.508C28.4747 48.406 28.5257 48.28 28.5257 48.13V46.15ZM30.5278 47.779H36.1438V50.092H32.0308V51.595H35.7388V50.902H36.1438V52H30.5278V47.779ZM32.0308 48.184V49.687H35.7388V48.184H32.0308ZM30.9328 51.595H31.6258V48.184H30.9328V51.595ZM42.7521 47.779V48.877H42.3471V48.184H38.6391V49.687H42.7521V52H37.1361V50.902H37.5411V51.595H41.2491V50.092H37.1361V47.779H42.7521ZM41.6541 50.092V51.595H42.3471V50.092H41.6541ZM38.2341 48.184H37.5411V49.687H38.2341V48.184ZM47.5615 51.595V52H44.3215V48.184H43.4305V47.779H44.3215V45.745H45.8245V47.779H47.5615V48.184H45.8245V51.595H47.5615ZM45.4195 46.15H44.7265V51.595H45.4195V46.15ZM53.8615 51.595H54.7525V52H48.2455V49.687H52.3585V48.184H48.6505V48.877H48.2455V47.779H53.8615V51.595ZM52.3585 51.595V50.092H48.6505V51.595H52.3585ZM53.4565 48.184H52.7635V51.595H53.4565V48.184ZM55.1495 47.779H60.8735V48.868H60.4685V48.184H57.5435V51.595H58.4345V52H55.1495V51.595H56.0405V48.184H55.1495V47.779ZM57.1385 51.595V48.184H56.4455V51.595H57.1385ZM65.4033 51.595V52H62.1633V48.184H61.2723V47.779H62.1633V45.745H63.6663V47.779H65.4033V48.184H63.6663V51.595H65.4033ZM63.2613 46.15H62.5683V51.595H63.2613V46.15Z"/>
</mask>
<path d="M28.5797 48.868C28.8197 49.054 28.9397 49.3 28.9397 49.606V51.595H29.8307V52H27.6437V51.595H28.5257V49.606C28.5257 49.456 28.4747 49.33 28.3727 49.228C28.2707 49.126 28.1477 49.075 28.0037 49.075H23.0897V51.595H23.9897V52H20.6957V51.595H21.5867V46.15H20.6957V45.745H28.9397V48.13C28.9397 48.436 28.8197 48.682 28.5797 48.868ZM22.6847 46.15H22.0007V51.595H22.6847V46.15ZM28.5257 46.15H23.0897V48.661H28.0037C28.1477 48.661 28.2707 48.61 28.3727 48.508C28.4747 48.406 28.5257 48.28 28.5257 48.13V46.15ZM30.5278 47.779H36.1438V50.092H32.0308V51.595H35.7388V50.902H36.1438V52H30.5278V47.779ZM32.0308 48.184V49.687H35.7388V48.184H32.0308ZM30.9328 51.595H31.6258V48.184H30.9328V51.595ZM42.7521 47.779V48.877H42.3471V48.184H38.6391V49.687H42.7521V52H37.1361V50.902H37.5411V51.595H41.2491V50.092H37.1361V47.779H42.7521ZM41.6541 50.092V51.595H42.3471V50.092H41.6541ZM38.2341 48.184H37.5411V49.687H38.2341V48.184ZM47.5615 51.595V52H44.3215V48.184H43.4305V47.779H44.3215V45.745H45.8245V47.779H47.5615V48.184H45.8245V51.595H47.5615ZM45.4195 46.15H44.7265V51.595H45.4195V46.15ZM53.8615 51.595H54.7525V52H48.2455V49.687H52.3585V48.184H48.6505V48.877H48.2455V47.779H53.8615V51.595ZM52.3585 51.595V50.092H48.6505V51.595H52.3585ZM53.4565 48.184H52.7635V51.595H53.4565V48.184ZM55.1495 47.779H60.8735V48.868H60.4685V48.184H57.5435V51.595H58.4345V52H55.1495V51.595H56.0405V48.184H55.1495V47.779ZM57.1385 51.595V48.184H56.4455V51.595H57.1385ZM65.4033 51.595V52H62.1633V48.184H61.2723V47.779H62.1633V45.745H63.6663V47.779H65.4033V48.184H63.6663V51.595H65.4033ZM63.2613 46.15H62.5683V51.595H63.2613V46.15Z" fill="white"/>
<path d="M28.5797 48.868L28.5185 48.789L28.4165 48.868L28.5185 48.947L28.5797 48.868ZM28.9397 51.595H28.8397V51.695H28.9397V51.595ZM29.8307 51.595H29.9307V51.495H29.8307V51.595ZM29.8307 52V52.1H29.9307V52H29.8307ZM27.6437 52H27.5437V52.1H27.6437V52ZM27.6437 51.595V51.495H27.5437V51.595H27.6437ZM28.5257 51.595V51.695H28.6257V51.595H28.5257ZM28.3727 49.228L28.4434 49.1573V49.1573L28.3727 49.228ZM23.0897 49.075V48.975H22.9897V49.075H23.0897ZM23.0897 51.595H22.9897V51.695H23.0897V51.595ZM23.9897 51.595H24.0897V51.495H23.9897V51.595ZM23.9897 52V52.1H24.0897V52H23.9897ZM20.6957 52H20.5957V52.1H20.6957V52ZM20.6957 51.595V51.495H20.5957V51.595H20.6957ZM21.5867 51.595V51.695H21.6867V51.595H21.5867ZM21.5867 46.15H21.6867V46.05H21.5867V46.15ZM20.6957 46.15H20.5957V46.25H20.6957V46.15ZM20.6957 45.745V45.645H20.5957V45.745H20.6957ZM28.9397 45.745H29.0397V45.645H28.9397V45.745ZM22.6847 46.15H22.7847V46.05H22.6847V46.15ZM22.0007 46.15V46.05H21.9007V46.15H22.0007ZM22.0007 51.595H21.9007V51.695H22.0007V51.595ZM22.6847 51.595V51.695H22.7847V51.595H22.6847ZM28.5257 46.15H28.6257V46.05H28.5257V46.15ZM23.0897 46.15V46.05H22.9897V46.15H23.0897ZM23.0897 48.661H22.9897V48.761H23.0897V48.661ZM28.3727 48.508L28.4434 48.5787L28.3727 48.508ZM28.5185 48.947C28.7338 49.1139 28.8397 49.3306 28.8397 49.606H29.0397C29.0397 49.2694 28.9056 48.9941 28.641 48.789L28.5185 48.947ZM28.8397 49.606V51.595H29.0397V49.606H28.8397ZM28.9397 51.695H29.8307V51.495H28.9397V51.695ZM29.7307 51.595V52H29.9307V51.595H29.7307ZM29.8307 51.9H27.6437V52.1H29.8307V51.9ZM27.7437 52V51.595H27.5437V52H27.7437ZM27.6437 51.695H28.5257V51.495H27.6437V51.695ZM28.6257 51.595V49.606H28.4257V51.595H28.6257ZM28.6257 49.606C28.6257 49.4307 28.565 49.2789 28.4434 49.1573L28.302 49.2987C28.3844 49.3811 28.4257 49.4813 28.4257 49.606H28.6257ZM28.4434 49.1573C28.3227 49.0366 28.1743 48.975 28.0037 48.975V49.175C28.1211 49.175 28.2187 49.2154 28.302 49.2987L28.4434 49.1573ZM28.0037 48.975H23.0897V49.175H28.0037V48.975ZM22.9897 49.075V51.595H23.1897V49.075H22.9897ZM23.0897 51.695H23.9897V51.495H23.0897V51.695ZM23.8897 51.595V52H24.0897V51.595H23.8897ZM23.9897 51.9H20.6957V52.1H23.9897V51.9ZM20.7957 52V51.595H20.5957V52H20.7957ZM20.6957 51.695H21.5867V51.495H20.6957V51.695ZM21.6867 51.595V46.15H21.4867V51.595H21.6867ZM21.5867 46.05H20.6957V46.25H21.5867V46.05ZM20.7957 46.15V45.745H20.5957V46.15H20.7957ZM20.6957 45.845H28.9397V45.645H20.6957V45.845ZM28.8397 45.745V48.13H29.0397V45.745H28.8397ZM28.8397 48.13C28.8397 48.4054 28.7338 48.6221 28.5185 48.789L28.641 48.947C28.9056 48.7419 29.0397 48.4666 29.0397 48.13H28.8397ZM22.6847 46.05H22.0007V46.25H22.6847V46.05ZM21.9007 46.15V51.595H22.1007V46.15H21.9007ZM22.0007 51.695H22.6847V51.495H22.0007V51.695ZM22.7847 51.595V46.15H22.5847V51.595H22.7847ZM28.5257 46.05H23.0897V46.25H28.5257V46.05ZM22.9897 46.15V48.661H23.1897V46.15H22.9897ZM23.0897 48.761H28.0037V48.561H23.0897V48.761ZM28.0037 48.761C28.1743 48.761 28.3227 48.6994 28.4434 48.5787L28.302 48.4373C28.2187 48.5206 28.1211 48.561 28.0037 48.561V48.761ZM28.4434 48.5787C28.565 48.4571 28.6257 48.3053 28.6257 48.13H28.4257C28.4257 48.2547 28.3844 48.3549 28.302 48.4373L28.4434 48.5787ZM28.6257 48.13V46.15H28.4257V48.13H28.6257ZM30.5278 47.779V47.679H30.4278V47.779H30.5278ZM36.1438 47.779H36.2438V47.679H36.1438V47.779ZM36.1438 50.092V50.192H36.2438V50.092H36.1438ZM32.0308 50.092V49.992H31.9308V50.092H32.0308ZM32.0308 51.595H31.9308V51.695H32.0308V51.595ZM35.7388 51.595V51.695H35.8388V51.595H35.7388ZM35.7388 50.902V50.802H35.6388V50.902H35.7388ZM36.1438 50.902H36.2438V50.802H36.1438V50.902ZM36.1438 52V52.1H36.2438V52H36.1438ZM30.5278 52H30.4278V52.1H30.5278V52ZM32.0308 48.184V48.084H31.9308V48.184H32.0308ZM32.0308 49.687H31.9308V49.787H32.0308V49.687ZM35.7388 49.687V49.787H35.8388V49.687H35.7388ZM35.7388 48.184H35.8388V48.084H35.7388V48.184ZM30.9328 51.595H30.8328V51.695H30.9328V51.595ZM31.6258 51.595V51.695H31.7258V51.595H31.6258ZM31.6258 48.184H31.7258V48.084H31.6258V48.184ZM30.9328 48.184V48.084H30.8328V48.184H30.9328ZM30.5278 47.879H36.1438V47.679H30.5278V47.879ZM36.0438 47.779V50.092H36.2438V47.779H36.0438ZM36.1438 49.992H32.0308V50.192H36.1438V49.992ZM31.9308 50.092V51.595H32.1308V50.092H31.9308ZM32.0308 51.695H35.7388V51.495H32.0308V51.695ZM35.8388 51.595V50.902H35.6388V51.595H35.8388ZM35.7388 51.002H36.1438V50.802H35.7388V51.002ZM36.0438 50.902V52H36.2438V50.902H36.0438ZM36.1438 51.9H30.5278V52.1H36.1438V51.9ZM30.6278 52V47.779H30.4278V52H30.6278ZM31.9308 48.184V49.687H32.1308V48.184H31.9308ZM32.0308 49.787H35.7388V49.587H32.0308V49.787ZM35.8388 49.687V48.184H35.6388V49.687H35.8388ZM35.7388 48.084H32.0308V48.284H35.7388V48.084ZM30.9328 51.695H31.6258V51.495H30.9328V51.695ZM31.7258 51.595V48.184H31.5258V51.595H31.7258ZM31.6258 48.084H30.9328V48.284H31.6258V48.084ZM30.8328 48.184V51.595H31.0328V48.184H30.8328ZM42.7521 47.779H42.8521V47.679H42.7521V47.779ZM42.7521 48.877V48.977H42.8521V48.877H42.7521ZM42.3471 48.877H42.2471V48.977H42.3471V48.877ZM42.3471 48.184H42.4471V48.084H42.3471V48.184ZM38.6391 48.184V48.084H38.5391V48.184H38.6391ZM38.6391 49.687H38.5391V49.787H38.6391V49.687ZM42.7521 49.687H42.8521V49.587H42.7521V49.687ZM42.7521 52V52.1H42.8521V52H42.7521ZM37.1361 52H37.0361V52.1H37.1361V52ZM37.1361 50.902V50.802H37.0361V50.902H37.1361ZM37.5411 50.902H37.6411V50.802H37.5411V50.902ZM37.5411 51.595H37.4411V51.695H37.5411V51.595ZM41.2491 51.595V51.695H41.3491V51.595H41.2491ZM41.2491 50.092H41.3491V49.992H41.2491V50.092ZM37.1361 50.092H37.0361V50.192H37.1361V50.092ZM37.1361 47.779V47.679H37.0361V47.779H37.1361ZM41.6541 50.092V49.992H41.5541V50.092H41.6541ZM41.6541 51.595H41.5541V51.695H41.6541V51.595ZM42.3471 51.595V51.695H42.4471V51.595H42.3471ZM42.3471 50.092H42.4471V49.992H42.3471V50.092ZM38.2341 48.184H38.3341V48.084H38.2341V48.184ZM37.5411 48.184V48.084H37.4411V48.184H37.5411ZM37.5411 49.687H37.4411V49.787H37.5411V49.687ZM38.2341 49.687V49.787H38.3341V49.687H38.2341ZM42.6521 47.779V48.877H42.8521V47.779H42.6521ZM42.7521 48.777H42.3471V48.977H42.7521V48.777ZM42.4471 48.877V48.184H42.2471V48.877H42.4471ZM42.3471 48.084H38.6391V48.284H42.3471V48.084ZM38.5391 48.184V49.687H38.7391V48.184H38.5391ZM38.6391 49.787H42.7521V49.587H38.6391V49.787ZM42.6521 49.687V52H42.8521V49.687H42.6521ZM42.7521 51.9H37.1361V52.1H42.7521V51.9ZM37.2361 52V50.902H37.0361V52H37.2361ZM37.1361 51.002H37.5411V50.802H37.1361V51.002ZM37.4411 50.902V51.595H37.6411V50.902H37.4411ZM37.5411 51.695H41.2491V51.495H37.5411V51.695ZM41.3491 51.595V50.092H41.1491V51.595H41.3491ZM41.2491 49.992H37.1361V50.192H41.2491V49.992ZM37.2361 50.092V47.779H37.0361V50.092H37.2361ZM37.1361 47.879H42.7521V47.679H37.1361V47.879ZM41.5541 50.092V51.595H41.7541V50.092H41.5541ZM41.6541 51.695H42.3471V51.495H41.6541V51.695ZM42.4471 51.595V50.092H42.2471V51.595H42.4471ZM42.3471 49.992H41.6541V50.192H42.3471V49.992ZM38.2341 48.084H37.5411V48.284H38.2341V48.084ZM37.4411 48.184V49.687H37.6411V48.184H37.4411ZM37.5411 49.787H38.2341V49.587H37.5411V49.787ZM38.3341 49.687V48.184H38.1341V49.687H38.3341ZM47.5615 51.595H47.6615V51.495H47.5615V51.595ZM47.5615 52V52.1H47.6615V52H47.5615ZM44.3215 52H44.2215V52.1H44.3215V52ZM44.3215 48.184H44.4215V48.084H44.3215V48.184ZM43.4305 48.184H43.3305V48.284H43.4305V48.184ZM43.4305 47.779V47.679H43.3305V47.779H43.4305ZM44.3215 47.779V47.879H44.4215V47.779H44.3215ZM44.3215 45.745V45.645H44.2215V45.745H44.3215ZM45.8245 45.745H45.9245V45.645H45.8245V45.745ZM45.8245 47.779H45.7245V47.879H45.8245V47.779ZM47.5615 47.779H47.6615V47.679H47.5615V47.779ZM47.5615 48.184V48.284H47.6615V48.184H47.5615ZM45.8245 48.184V48.084H45.7245V48.184H45.8245ZM45.8245 51.595H45.7245V51.695H45.8245V51.595ZM45.4195 46.15H45.5195V46.05H45.4195V46.15ZM44.7265 46.15V46.05H44.6265V46.15H44.7265ZM44.7265 51.595H44.6265V51.695H44.7265V51.595ZM45.4195 51.595V51.695H45.5195V51.595H45.4195ZM47.4615 51.595V52H47.6615V51.595H47.4615ZM47.5615 51.9H44.3215V52.1H47.5615V51.9ZM44.4215 52V48.184H44.2215V52H44.4215ZM44.3215 48.084H43.4305V48.284H44.3215V48.084ZM43.5305 48.184V47.779H43.3305V48.184H43.5305ZM43.4305 47.879H44.3215V47.679H43.4305V47.879ZM44.4215 47.779V45.745H44.2215V47.779H44.4215ZM44.3215 45.845H45.8245V45.645H44.3215V45.845ZM45.7245 45.745V47.779H45.9245V45.745H45.7245ZM45.8245 47.879H47.5615V47.679H45.8245V47.879ZM47.4615 47.779V48.184H47.6615V47.779H47.4615ZM47.5615 48.084H45.8245V48.284H47.5615V48.084ZM45.7245 48.184V51.595H45.9245V48.184H45.7245ZM45.8245 51.695H47.5615V51.495H45.8245V51.695ZM45.4195 46.05H44.7265V46.25H45.4195V46.05ZM44.6265 46.15V51.595H44.8265V46.15H44.6265ZM44.7265 51.695H45.4195V51.495H44.7265V51.695ZM45.5195 51.595V46.15H45.3195V51.595H45.5195ZM53.8615 51.595H53.7615V51.695H53.8615V51.595ZM54.7525 51.595H54.8525V51.495H54.7525V51.595ZM54.7525 52V52.1H54.8525V52H54.7525ZM48.2455 52H48.1455V52.1H48.2455V52ZM48.2455 49.687V49.587H48.1455V49.687H48.2455ZM52.3585 49.687V49.787H52.4585V49.687H52.3585ZM52.3585 48.184H52.4585V48.084H52.3585V48.184ZM48.6505 48.184V48.084H48.5505V48.184H48.6505ZM48.6505 48.877V48.977H48.7505V48.877H48.6505ZM48.2455 48.877H48.1455V48.977H48.2455V48.877ZM48.2455 47.779V47.679H48.1455V47.779H48.2455ZM53.8615 47.779H53.9615V47.679H53.8615V47.779ZM52.3585 51.595V51.695H52.4585V51.595H52.3585ZM52.3585 50.092H52.4585V49.992H52.3585V50.092ZM48.6505 50.092V49.992H48.5505V50.092H48.6505ZM48.6505 51.595H48.5505V51.695H48.6505V51.595ZM53.4565 48.184H53.5565V48.084H53.4565V48.184ZM52.7635 48.184V48.084H52.6635V48.184H52.7635ZM52.7635 51.595H52.6635V51.695H52.7635V51.595ZM53.4565 51.595V51.695H53.5565V51.595H53.4565ZM53.8615 51.695H54.7525V51.495H53.8615V51.695ZM54.6525 51.595V52H54.8525V51.595H54.6525ZM54.7525 51.9H48.2455V52.1H54.7525V51.9ZM48.3455 52V49.687H48.1455V52H48.3455ZM48.2455 49.787H52.3585V49.587H48.2455V49.787ZM52.4585 49.687V48.184H52.2585V49.687H52.4585ZM52.3585 48.084H48.6505V48.284H52.3585V48.084ZM48.5505 48.184V48.877H48.7505V48.184H48.5505ZM48.6505 48.777H48.2455V48.977H48.6505V48.777ZM48.3455 48.877V47.779H48.1455V48.877H48.3455ZM48.2455 47.879H53.8615V47.679H48.2455V47.879ZM53.7615 47.779V51.595H53.9615V47.779H53.7615ZM52.4585 51.595V50.092H52.2585V51.595H52.4585ZM52.3585 49.992H48.6505V50.192H52.3585V49.992ZM48.5505 50.092V51.595H48.7505V50.092H48.5505ZM48.6505 51.695H52.3585V51.495H48.6505V51.695ZM53.4565 48.084H52.7635V48.284H53.4565V48.084ZM52.6635 48.184V51.595H52.8635V48.184H52.6635ZM52.7635 51.695H53.4565V51.495H52.7635V51.695ZM53.5565 51.595V48.184H53.3565V51.595H53.5565ZM55.1495 47.779V47.679H55.0495V47.779H55.1495ZM60.8735 47.779H60.9735V47.679H60.8735V47.779ZM60.8735 48.868V48.968H60.9735V48.868H60.8735ZM60.4685 48.868H60.3685V48.968H60.4685V48.868ZM60.4685 48.184H60.5685V48.084H60.4685V48.184ZM57.5435 48.184V48.084H57.4435V48.184H57.5435ZM57.5435 51.595H57.4435V51.695H57.5435V51.595ZM58.4345 51.595H58.5345V51.495H58.4345V51.595ZM58.4345 52V52.1H58.5345V52H58.4345ZM55.1495 52H55.0495V52.1H55.1495V52ZM55.1495 51.595V51.495H55.0495V51.595H55.1495ZM56.0405 51.595V51.695H56.1405V51.595H56.0405ZM56.0405 48.184H56.1405V48.084H56.0405V48.184ZM55.1495 48.184H55.0495V48.284H55.1495V48.184ZM57.1385 51.595V51.695H57.2385V51.595H57.1385ZM57.1385 48.184H57.2385V48.084H57.1385V48.184ZM56.4455 48.184V48.084H56.3455V48.184H56.4455ZM56.4455 51.595H56.3455V51.695H56.4455V51.595ZM55.1495 47.879H60.8735V47.679H55.1495V47.879ZM60.7735 47.779V48.868H60.9735V47.779H60.7735ZM60.8735 48.768H60.4685V48.968H60.8735V48.768ZM60.5685 48.868V48.184H60.3685V48.868H60.5685ZM60.4685 48.084H57.5435V48.284H60.4685V48.084ZM57.4435 48.184V51.595H57.6435V48.184H57.4435ZM57.5435 51.695H58.4345V51.495H57.5435V51.695ZM58.3345 51.595V52H58.5345V51.595H58.3345ZM58.4345 51.9H55.1495V52.1H58.4345V51.9ZM55.2495 52V51.595H55.0495V52H55.2495ZM55.1495 51.695H56.0405V51.495H55.1495V51.695ZM56.1405 51.595V48.184H55.9405V51.595H56.1405ZM56.0405 48.084H55.1495V48.284H56.0405V48.084ZM55.2495 48.184V47.779H55.0495V48.184H55.2495ZM57.2385 51.595V48.184H57.0385V51.595H57.2385ZM57.1385 48.084H56.4455V48.284H57.1385V48.084ZM56.3455 48.184V51.595H56.5455V48.184H56.3455ZM56.4455 51.695H57.1385V51.495H56.4455V51.695ZM65.4033 51.595H65.5033V51.495H65.4033V51.595ZM65.4033 52V52.1H65.5033V52H65.4033ZM62.1633 52H62.0633V52.1H62.1633V52ZM62.1633 48.184H62.2633V48.084H62.1633V48.184ZM61.2723 48.184H61.1723V48.284H61.2723V48.184ZM61.2723 47.779V47.679H61.1723V47.779H61.2723ZM62.1633 47.779V47.879H62.2633V47.779H62.1633ZM62.1633 45.745V45.645H62.0633V45.745H62.1633ZM63.6663 45.745H63.7663V45.645H63.6663V45.745ZM63.6663 47.779H63.5663V47.879H63.6663V47.779ZM65.4033 47.779H65.5033V47.679H65.4033V47.779ZM65.4033 48.184V48.284H65.5033V48.184H65.4033ZM63.6663 48.184V48.084H63.5663V48.184H63.6663ZM63.6663 51.595H63.5663V51.695H63.6663V51.595ZM63.2613 46.15H63.3613V46.05H63.2613V46.15ZM62.5683 46.15V46.05H62.4683V46.15H62.5683ZM62.5683 51.595H62.4683V51.695H62.5683V51.595ZM63.2613 51.595V51.695H63.3613V51.595H63.2613ZM65.3033 51.595V52H65.5033V51.595H65.3033ZM65.4033 51.9H62.1633V52.1H65.4033V51.9ZM62.2633 52V48.184H62.0633V52H62.2633ZM62.1633 48.084H61.2723V48.284H62.1633V48.084ZM61.3723 48.184V47.779H61.1723V48.184H61.3723ZM61.2723 47.879H62.1633V47.679H61.2723V47.879ZM62.2633 47.779V45.745H62.0633V47.779H62.2633ZM62.1633 45.845H63.6663V45.645H62.1633V45.845ZM63.5663 45.745V47.779H63.7663V45.745H63.5663ZM63.6663 47.879H65.4033V47.679H63.6663V47.879ZM65.3033 47.779V48.184H65.5033V47.779H65.3033ZM65.4033 48.084H63.6663V48.284H65.4033V48.084ZM63.5663 48.184V51.595H63.7663V48.184H63.5663ZM63.6663 51.695H65.4033V51.495H63.6663V51.695ZM63.2613 46.05H62.5683V46.25H63.2613V46.05ZM62.4683 46.15V51.595H62.6683V46.15H62.4683ZM62.5683 51.695H63.2613V51.495H62.5683V51.695ZM63.3613 51.595V46.15H63.1613V51.595H63.3613Z" fill="white" mask="url(#path-5-outside-2_544_459)"/>
<rect x="4.5" y="72.5" width="77" height="25" rx="3.5" fill="white" stroke="#EB6E91"/>
<mask id="path-8-outside-3_544_459" maskUnits="userSpaceOnUse" x="20" y="81" width="46" height="8" fill="black">
<rect fill="white" x="20" y="81" width="46" height="8"/>
<path d="M28.5797 84.868C28.8197 85.054 28.9397 85.3 28.9397 85.606V87.595H29.8307V88H27.6437V87.595H28.5257V85.606C28.5257 85.456 28.4747 85.33 28.3727 85.228C28.2707 85.126 28.1477 85.075 28.0037 85.075H23.0897V87.595H23.9897V88H20.6957V87.595H21.5867V82.15H20.6957V81.745H28.9397V84.13C28.9397 84.436 28.8197 84.682 28.5797 84.868ZM22.6847 82.15H22.0007V87.595H22.6847V82.15ZM28.5257 82.15H23.0897V84.661H28.0037C28.1477 84.661 28.2707 84.61 28.3727 84.508C28.4747 84.406 28.5257 84.28 28.5257 84.13V82.15ZM30.5278 83.779H36.1438V86.092H32.0308V87.595H35.7388V86.902H36.1438V88H30.5278V83.779ZM32.0308 84.184V85.687H35.7388V84.184H32.0308ZM30.9328 87.595H31.6258V84.184H30.9328V87.595ZM42.7521 83.779V84.877H42.3471V84.184H38.6391V85.687H42.7521V88H37.1361V86.902H37.5411V87.595H41.2491V86.092H37.1361V83.779H42.7521ZM41.6541 86.092V87.595H42.3471V86.092H41.6541ZM38.2341 84.184H37.5411V85.687H38.2341V84.184ZM47.5615 87.595V88H44.3215V84.184H43.4305V83.779H44.3215V81.745H45.8245V83.779H47.5615V84.184H45.8245V87.595H47.5615ZM45.4195 82.15H44.7265V87.595H45.4195V82.15ZM53.8615 87.595H54.7525V88H48.2455V85.687H52.3585V84.184H48.6505V84.877H48.2455V83.779H53.8615V87.595ZM52.3585 87.595V86.092H48.6505V87.595H52.3585ZM53.4565 84.184H52.7635V87.595H53.4565V84.184ZM55.1495 83.779H60.8735V84.868H60.4685V84.184H57.5435V87.595H58.4345V88H55.1495V87.595H56.0405V84.184H55.1495V83.779ZM57.1385 87.595V84.184H56.4455V87.595H57.1385ZM65.4033 87.595V88H62.1633V84.184H61.2723V83.779H62.1633V81.745H63.6663V83.779H65.4033V84.184H63.6663V87.595H65.4033ZM63.2613 82.15H62.5683V87.595H63.2613V82.15Z"/>
</mask>
<path d="M28.5797 84.868C28.8197 85.054 28.9397 85.3 28.9397 85.606V87.595H29.8307V88H27.6437V87.595H28.5257V85.606C28.5257 85.456 28.4747 85.33 28.3727 85.228C28.2707 85.126 28.1477 85.075 28.0037 85.075H23.0897V87.595H23.9897V88H20.6957V87.595H21.5867V82.15H20.6957V81.745H28.9397V84.13C28.9397 84.436 28.8197 84.682 28.5797 84.868ZM22.6847 82.15H22.0007V87.595H22.6847V82.15ZM28.5257 82.15H23.0897V84.661H28.0037C28.1477 84.661 28.2707 84.61 28.3727 84.508C28.4747 84.406 28.5257 84.28 28.5257 84.13V82.15ZM30.5278 83.779H36.1438V86.092H32.0308V87.595H35.7388V86.902H36.1438V88H30.5278V83.779ZM32.0308 84.184V85.687H35.7388V84.184H32.0308ZM30.9328 87.595H31.6258V84.184H30.9328V87.595ZM42.7521 83.779V84.877H42.3471V84.184H38.6391V85.687H42.7521V88H37.1361V86.902H37.5411V87.595H41.2491V86.092H37.1361V83.779H42.7521ZM41.6541 86.092V87.595H42.3471V86.092H41.6541ZM38.2341 84.184H37.5411V85.687H38.2341V84.184ZM47.5615 87.595V88H44.3215V84.184H43.4305V83.779H44.3215V81.745H45.8245V83.779H47.5615V84.184H45.8245V87.595H47.5615ZM45.4195 82.15H44.7265V87.595H45.4195V82.15ZM53.8615 87.595H54.7525V88H48.2455V85.687H52.3585V84.184H48.6505V84.877H48.2455V83.779H53.8615V87.595ZM52.3585 87.595V86.092H48.6505V87.595H52.3585ZM53.4565 84.184H52.7635V87.595H53.4565V84.184ZM55.1495 83.779H60.8735V84.868H60.4685V84.184H57.5435V87.595H58.4345V88H55.1495V87.595H56.0405V84.184H55.1495V83.779ZM57.1385 87.595V84.184H56.4455V87.595H57.1385ZM65.4033 87.595V88H62.1633V84.184H61.2723V83.779H62.1633V81.745H63.6663V83.779H65.4033V84.184H63.6663V87.595H65.4033ZM63.2613 82.15H62.5683V87.595H63.2613V82.15Z" fill="black"/>
<path d="M28.5797 84.868L28.5185 84.789L28.4165 84.868L28.5185 84.947L28.5797 84.868ZM28.9397 87.595H28.8397V87.695H28.9397V87.595ZM29.8307 87.595H29.9307V87.495H29.8307V87.595ZM29.8307 88V88.1H29.9307V88H29.8307ZM27.6437 88H27.5437V88.1H27.6437V88ZM27.6437 87.595V87.495H27.5437V87.595H27.6437ZM28.5257 87.595V87.695H28.6257V87.595H28.5257ZM28.3727 85.228L28.4434 85.1573V85.1573L28.3727 85.228ZM23.0897 85.075V84.975H22.9897V85.075H23.0897ZM23.0897 87.595H22.9897V87.695H23.0897V87.595ZM23.9897 87.595H24.0897V87.495H23.9897V87.595ZM23.9897 88V88.1H24.0897V88H23.9897ZM20.6957 88H20.5957V88.1H20.6957V88ZM20.6957 87.595V87.495H20.5957V87.595H20.6957ZM21.5867 87.595V87.695H21.6867V87.595H21.5867ZM21.5867 82.15H21.6867V82.05H21.5867V82.15ZM20.6957 82.15H20.5957V82.25H20.6957V82.15ZM20.6957 81.745V81.645H20.5957V81.745H20.6957ZM28.9397 81.745H29.0397V81.645H28.9397V81.745ZM22.6847 82.15H22.7847V82.05H22.6847V82.15ZM22.0007 82.15V82.05H21.9007V82.15H22.0007ZM22.0007 87.595H21.9007V87.695H22.0007V87.595ZM22.6847 87.595V87.695H22.7847V87.595H22.6847ZM28.5257 82.15H28.6257V82.05H28.5257V82.15ZM23.0897 82.15V82.05H22.9897V82.15H23.0897ZM23.0897 84.661H22.9897V84.761H23.0897V84.661ZM28.3727 84.508L28.4434 84.5787L28.3727 84.508ZM28.5185 84.947C28.7338 85.1139 28.8397 85.3306 28.8397 85.606H29.0397C29.0397 85.2694 28.9056 84.9941 28.641 84.789L28.5185 84.947ZM28.8397 85.606V87.595H29.0397V85.606H28.8397ZM28.9397 87.695H29.8307V87.495H28.9397V87.695ZM29.7307 87.595V88H29.9307V87.595H29.7307ZM29.8307 87.9H27.6437V88.1H29.8307V87.9ZM27.7437 88V87.595H27.5437V88H27.7437ZM27.6437 87.695H28.5257V87.495H27.6437V87.695ZM28.6257 87.595V85.606H28.4257V87.595H28.6257ZM28.6257 85.606C28.6257 85.4307 28.565 85.2789 28.4434 85.1573L28.302 85.2987C28.3844 85.3811 28.4257 85.4813 28.4257 85.606H28.6257ZM28.4434 85.1573C28.3227 85.0366 28.1743 84.975 28.0037 84.975V85.175C28.1211 85.175 28.2187 85.2154 28.302 85.2987L28.4434 85.1573ZM28.0037 84.975H23.0897V85.175H28.0037V84.975ZM22.9897 85.075V87.595H23.1897V85.075H22.9897ZM23.0897 87.695H23.9897V87.495H23.0897V87.695ZM23.8897 87.595V88H24.0897V87.595H23.8897ZM23.9897 87.9H20.6957V88.1H23.9897V87.9ZM20.7957 88V87.595H20.5957V88H20.7957ZM20.6957 87.695H21.5867V87.495H20.6957V87.695ZM21.6867 87.595V82.15H21.4867V87.595H21.6867ZM21.5867 82.05H20.6957V82.25H21.5867V82.05ZM20.7957 82.15V81.745H20.5957V82.15H20.7957ZM20.6957 81.845H28.9397V81.645H20.6957V81.845ZM28.8397 81.745V84.13H29.0397V81.745H28.8397ZM28.8397 84.13C28.8397 84.4054 28.7338 84.6221 28.5185 84.789L28.641 84.947C28.9056 84.7419 29.0397 84.4666 29.0397 84.13H28.8397ZM22.6847 82.05H22.0007V82.25H22.6847V82.05ZM21.9007 82.15V87.595H22.1007V82.15H21.9007ZM22.0007 87.695H22.6847V87.495H22.0007V87.695ZM22.7847 87.595V82.15H22.5847V87.595H22.7847ZM28.5257 82.05H23.0897V82.25H28.5257V82.05ZM22.9897 82.15V84.661H23.1897V82.15H22.9897ZM23.0897 84.761H28.0037V84.561H23.0897V84.761ZM28.0037 84.761C28.1743 84.761 28.3227 84.6994 28.4434 84.5787L28.302 84.4373C28.2187 84.5206 28.1211 84.561 28.0037 84.561V84.761ZM28.4434 84.5787C28.565 84.4571 28.6257 84.3053 28.6257 84.13H28.4257C28.4257 84.2547 28.3844 84.3549 28.302 84.4373L28.4434 84.5787ZM28.6257 84.13V82.15H28.4257V84.13H28.6257ZM30.5278 83.779V83.679H30.4278V83.779H30.5278ZM36.1438 83.779H36.2438V83.679H36.1438V83.779ZM36.1438 86.092V86.192H36.2438V86.092H36.1438ZM32.0308 86.092V85.992H31.9308V86.092H32.0308ZM32.0308 87.595H31.9308V87.695H32.0308V87.595ZM35.7388 87.595V87.695H35.8388V87.595H35.7388ZM35.7388 86.902V86.802H35.6388V86.902H35.7388ZM36.1438 86.902H36.2438V86.802H36.1438V86.902ZM36.1438 88V88.1H36.2438V88H36.1438ZM30.5278 88H30.4278V88.1H30.5278V88ZM32.0308 84.184V84.084H31.9308V84.184H32.0308ZM32.0308 85.687H31.9308V85.787H32.0308V85.687ZM35.7388 85.687V85.787H35.8388V85.687H35.7388ZM35.7388 84.184H35.8388V84.084H35.7388V84.184ZM30.9328 87.595H30.8328V87.695H30.9328V87.595ZM31.6258 87.595V87.695H31.7258V87.595H31.6258ZM31.6258 84.184H31.7258V84.084H31.6258V84.184ZM30.9328 84.184V84.084H30.8328V84.184H30.9328ZM30.5278 83.879H36.1438V83.679H30.5278V83.879ZM36.0438 83.779V86.092H36.2438V83.779H36.0438ZM36.1438 85.992H32.0308V86.192H36.1438V85.992ZM31.9308 86.092V87.595H32.1308V86.092H31.9308ZM32.0308 87.695H35.7388V87.495H32.0308V87.695ZM35.8388 87.595V86.902H35.6388V87.595H35.8388ZM35.7388 87.002H36.1438V86.802H35.7388V87.002ZM36.0438 86.902V88H36.2438V86.902H36.0438ZM36.1438 87.9H30.5278V88.1H36.1438V87.9ZM30.6278 88V83.779H30.4278V88H30.6278ZM31.9308 84.184V85.687H32.1308V84.184H31.9308ZM32.0308 85.787H35.7388V85.587H32.0308V85.787ZM35.8388 85.687V84.184H35.6388V85.687H35.8388ZM35.7388 84.084H32.0308V84.284H35.7388V84.084ZM30.9328 87.695H31.6258V87.495H30.9328V87.695ZM31.7258 87.595V84.184H31.5258V87.595H31.7258ZM31.6258 84.084H30.9328V84.284H31.6258V84.084ZM30.8328 84.184V87.595H31.0328V84.184H30.8328ZM42.7521 83.779H42.8521V83.679H42.7521V83.779ZM42.7521 84.877V84.977H42.8521V84.877H42.7521ZM42.3471 84.877H42.2471V84.977H42.3471V84.877ZM42.3471 84.184H42.4471V84.084H42.3471V84.184ZM38.6391 84.184V84.084H38.5391V84.184H38.6391ZM38.6391 85.687H38.5391V85.787H38.6391V85.687ZM42.7521 85.687H42.8521V85.587H42.7521V85.687ZM42.7521 88V88.1H42.8521V88H42.7521ZM37.1361 88H37.0361V88.1H37.1361V88ZM37.1361 86.902V86.802H37.0361V86.902H37.1361ZM37.5411 86.902H37.6411V86.802H37.5411V86.902ZM37.5411 87.595H37.4411V87.695H37.5411V87.595ZM41.2491 87.595V87.695H41.3491V87.595H41.2491ZM41.2491 86.092H41.3491V85.992H41.2491V86.092ZM37.1361 86.092H37.0361V86.192H37.1361V86.092ZM37.1361 83.779V83.679H37.0361V83.779H37.1361ZM41.6541 86.092V85.992H41.5541V86.092H41.6541ZM41.6541 87.595H41.5541V87.695H41.6541V87.595ZM42.3471 87.595V87.695H42.4471V87.595H42.3471ZM42.3471 86.092H42.4471V85.992H42.3471V86.092ZM38.2341 84.184H38.3341V84.084H38.2341V84.184ZM37.5411 84.184V84.084H37.4411V84.184H37.5411ZM37.5411 85.687H37.4411V85.787H37.5411V85.687ZM38.2341 85.687V85.787H38.3341V85.687H38.2341ZM42.6521 83.779V84.877H42.8521V83.779H42.6521ZM42.7521 84.777H42.3471V84.977H42.7521V84.777ZM42.4471 84.877V84.184H42.2471V84.877H42.4471ZM42.3471 84.084H38.6391V84.284H42.3471V84.084ZM38.5391 84.184V85.687H38.7391V84.184H38.5391ZM38.6391 85.787H42.7521V85.587H38.6391V85.787ZM42.6521 85.687V88H42.8521V85.687H42.6521ZM42.7521 87.9H37.1361V88.1H42.7521V87.9ZM37.2361 88V86.902H37.0361V88H37.2361ZM37.1361 87.002H37.5411V86.802H37.1361V87.002ZM37.4411 86.902V87.595H37.6411V86.902H37.4411ZM37.5411 87.695H41.2491V87.495H37.5411V87.695ZM41.3491 87.595V86.092H41.1491V87.595H41.3491ZM41.2491 85.992H37.1361V86.192H41.2491V85.992ZM37.2361 86.092V83.779H37.0361V86.092H37.2361ZM37.1361 83.879H42.7521V83.679H37.1361V83.879ZM41.5541 86.092V87.595H41.7541V86.092H41.5541ZM41.6541 87.695H42.3471V87.495H41.6541V87.695ZM42.4471 87.595V86.092H42.2471V87.595H42.4471ZM42.3471 85.992H41.6541V86.192H42.3471V85.992ZM38.2341 84.084H37.5411V84.284H38.2341V84.084ZM37.4411 84.184V85.687H37.6411V84.184H37.4411ZM37.5411 85.787H38.2341V85.587H37.5411V85.787ZM38.3341 85.687V84.184H38.1341V85.687H38.3341ZM47.5615 87.595H47.6615V87.495H47.5615V87.595ZM47.5615 88V88.1H47.6615V88H47.5615ZM44.3215 88H44.2215V88.1H44.3215V88ZM44.3215 84.184H44.4215V84.084H44.3215V84.184ZM43.4305 84.184H43.3305V84.284H43.4305V84.184ZM43.4305 83.779V83.679H43.3305V83.779H43.4305ZM44.3215 83.779V83.879H44.4215V83.779H44.3215ZM44.3215 81.745V81.645H44.2215V81.745H44.3215ZM45.8245 81.745H45.9245V81.645H45.8245V81.745ZM45.8245 83.779H45.7245V83.879H45.8245V83.779ZM47.5615 83.779H47.6615V83.679H47.5615V83.779ZM47.5615 84.184V84.284H47.6615V84.184H47.5615ZM45.8245 84.184V84.084H45.7245V84.184H45.8245ZM45.8245 87.595H45.7245V87.695H45.8245V87.595ZM45.4195 82.15H45.5195V82.05H45.4195V82.15ZM44.7265 82.15V82.05H44.6265V82.15H44.7265ZM44.7265 87.595H44.6265V87.695H44.7265V87.595ZM45.4195 87.595V87.695H45.5195V87.595H45.4195ZM47.4615 87.595V88H47.6615V87.595H47.4615ZM47.5615 87.9H44.3215V88.1H47.5615V87.9ZM44.4215 88V84.184H44.2215V88H44.4215ZM44.3215 84.084H43.4305V84.284H44.3215V84.084ZM43.5305 84.184V83.779H43.3305V84.184H43.5305ZM43.4305 83.879H44.3215V83.679H43.4305V83.879ZM44.4215 83.779V81.745H44.2215V83.779H44.4215ZM44.3215 81.845H45.8245V81.645H44.3215V81.845ZM45.7245 81.745V83.779H45.9245V81.745H45.7245ZM45.8245 83.879H47.5615V83.679H45.8245V83.879ZM47.4615 83.779V84.184H47.6615V83.779H47.4615ZM47.5615 84.084H45.8245V84.284H47.5615V84.084ZM45.7245 84.184V87.595H45.9245V84.184H45.7245ZM45.8245 87.695H47.5615V87.495H45.8245V87.695ZM45.4195 82.05H44.7265V82.25H45.4195V82.05ZM44.6265 82.15V87.595H44.8265V82.15H44.6265ZM44.7265 87.695H45.4195V87.495H44.7265V87.695ZM45.5195 87.595V82.15H45.3195V87.595H45.5195ZM53.8615 87.595H53.7615V87.695H53.8615V87.595ZM54.7525 87.595H54.8525V87.495H54.7525V87.595ZM54.7525 88V88.1H54.8525V88H54.7525ZM48.2455 88H48.1455V88.1H48.2455V88ZM48.2455 85.687V85.587H48.1455V85.687H48.2455ZM52.3585 85.687V85.787H52.4585V85.687H52.3585ZM52.3585 84.184H52.4585V84.084H52.3585V84.184ZM48.6505 84.184V84.084H48.5505V84.184H48.6505ZM48.6505 84.877V84.977H48.7505V84.877H48.6505ZM48.2455 84.877H48.1455V84.977H48.2455V84.877ZM48.2455 83.779V83.679H48.1455V83.779H48.2455ZM53.8615 83.779H53.9615V83.679H53.8615V83.779ZM52.3585 87.595V87.695H52.4585V87.595H52.3585ZM52.3585 86.092H52.4585V85.992H52.3585V86.092ZM48.6505 86.092V85.992H48.5505V86.092H48.6505ZM48.6505 87.595H48.5505V87.695H48.6505V87.595ZM53.4565 84.184H53.5565V84.084H53.4565V84.184ZM52.7635 84.184V84.084H52.6635V84.184H52.7635ZM52.7635 87.595H52.6635V87.695H52.7635V87.595ZM53.4565 87.595V87.695H53.5565V87.595H53.4565ZM53.8615 87.695H54.7525V87.495H53.8615V87.695ZM54.6525 87.595V88H54.8525V87.595H54.6525ZM54.7525 87.9H48.2455V88.1H54.7525V87.9ZM48.3455 88V85.687H48.1455V88H48.3455ZM48.2455 85.787H52.3585V85.587H48.2455V85.787ZM52.4585 85.687V84.184H52.2585V85.687H52.4585ZM52.3585 84.084H48.6505V84.284H52.3585V84.084ZM48.5505 84.184V84.877H48.7505V84.184H48.5505ZM48.6505 84.777H48.2455V84.977H48.6505V84.777ZM48.3455 84.877V83.779H48.1455V84.877H48.3455ZM48.2455 83.879H53.8615V83.679H48.2455V83.879ZM53.7615 83.779V87.595H53.9615V83.779H53.7615ZM52.4585 87.595V86.092H52.2585V87.595H52.4585ZM52.3585 85.992H48.6505V86.192H52.3585V85.992ZM48.5505 86.092V87.595H48.7505V86.092H48.5505ZM48.6505 87.695H52.3585V87.495H48.6505V87.695ZM53.4565 84.084H52.7635V84.284H53.4565V84.084ZM52.6635 84.184V87.595H52.8635V84.184H52.6635ZM52.7635 87.695H53.4565V87.495H52.7635V87.695ZM53.5565 87.595V84.184H53.3565V87.595H53.5565ZM55.1495 83.779V83.679H55.0495V83.779H55.1495ZM60.8735 83.779H60.9735V83.679H60.8735V83.779ZM60.8735 84.868V84.968H60.9735V84.868H60.8735ZM60.4685 84.868H60.3685V84.968H60.4685V84.868ZM60.4685 84.184H60.5685V84.084H60.4685V84.184ZM57.5435 84.184V84.084H57.4435V84.184H57.5435ZM57.5435 87.595H57.4435V87.695H57.5435V87.595ZM58.4345 87.595H58.5345V87.495H58.4345V87.595ZM58.4345 88V88.1H58.5345V88H58.4345ZM55.1495 88H55.0495V88.1H55.1495V88ZM55.1495 87.595V87.495H55.0495V87.595H55.1495ZM56.0405 87.595V87.695H56.1405V87.595H56.0405ZM56.0405 84.184H56.1405V84.084H56.0405V84.184ZM55.1495 84.184H55.0495V84.284H55.1495V84.184ZM57.1385 87.595V87.695H57.2385V87.595H57.1385ZM57.1385 84.184H57.2385V84.084H57.1385V84.184ZM56.4455 84.184V84.084H56.3455V84.184H56.4455ZM56.4455 87.595H56.3455V87.695H56.4455V87.595ZM55.1495 83.879H60.8735V83.679H55.1495V83.879ZM60.7735 83.779V84.868H60.9735V83.779H60.7735ZM60.8735 84.768H60.4685V84.968H60.8735V84.768ZM60.5685 84.868V84.184H60.3685V84.868H60.5685ZM60.4685 84.084H57.5435V84.284H60.4685V84.084ZM57.4435 84.184V87.595H57.6435V84.184H57.4435ZM57.5435 87.695H58.4345V87.495H57.5435V87.695ZM58.3345 87.595V88H58.5345V87.595H58.3345ZM58.4345 87.9H55.1495V88.1H58.4345V87.9ZM55.2495 88V87.595H55.0495V88H55.2495ZM55.1495 87.695H56.0405V87.495H55.1495V87.695ZM56.1405 87.595V84.184H55.9405V87.595H56.1405ZM56.0405 84.084H55.1495V84.284H56.0405V84.084ZM55.2495 84.184V83.779H55.0495V84.184H55.2495ZM57.2385 87.595V84.184H57.0385V87.595H57.2385ZM57.1385 84.084H56.4455V84.284H57.1385V84.084ZM56.3455 84.184V87.595H56.5455V84.184H56.3455ZM56.4455 87.695H57.1385V87.495H56.4455V87.695ZM65.4033 87.595H65.5033V87.495H65.4033V87.595ZM65.4033 88V88.1H65.5033V88H65.4033ZM62.1633 88H62.0633V88.1H62.1633V88ZM62.1633 84.184H62.2633V84.084H62.1633V84.184ZM61.2723 84.184H61.1723V84.284H61.2723V84.184ZM61.2723 83.779V83.679H61.1723V83.779H61.2723ZM62.1633 83.779V83.879H62.2633V83.779H62.1633ZM62.1633 81.745V81.645H62.0633V81.745H62.1633ZM63.6663 81.745H63.7663V81.645H63.6663V81.745ZM63.6663 83.779H63.5663V83.879H63.6663V83.779ZM65.4033 83.779H65.5033V83.679H65.4033V83.779ZM65.4033 84.184V84.284H65.5033V84.184H65.4033ZM63.6663 84.184V84.084H63.5663V84.184H63.6663ZM63.6663 87.595H63.5663V87.695H63.6663V87.595ZM63.2613 82.15H63.3613V82.05H63.2613V82.15ZM62.5683 82.15V82.05H62.4683V82.15H62.5683ZM62.5683 87.595H62.4683V87.695H62.5683V87.595ZM63.2613 87.595V87.695H63.3613V87.595H63.2613ZM65.3033 87.595V88H65.5033V87.595H65.3033ZM65.4033 87.9H62.1633V88.1H65.4033V87.9ZM62.2633 88V84.184H62.0633V88H62.2633ZM62.1633 84.084H61.2723V84.284H62.1633V84.084ZM61.3723 84.184V83.779H61.1723V84.184H61.3723ZM61.2723 83.879H62.1633V83.679H61.2723V83.879ZM62.2633 83.779V81.745H62.0633V83.779H62.2633ZM62.1633 81.845H63.6663V81.645H62.1633V81.845ZM63.5663 81.745V83.779H63.7663V81.745H63.5663ZM63.6663 83.879H65.4033V83.679H63.6663V83.879ZM65.3033 83.779V84.184H65.5033V83.779H65.3033ZM65.4033 84.084H63.6663V84.284H65.4033V84.084ZM63.5663 84.184V87.595H63.7663V84.184H63.5663ZM63.6663 87.695H65.4033V87.495H63.6663V87.695ZM63.2613 82.05H62.5683V82.25H63.2613V82.05ZM62.4683 82.15V87.595H62.6683V82.15H62.4683ZM62.5683 87.695H63.2613V87.495H62.5683V87.695ZM63.3613 87.595V82.15H63.1613V87.595H63.3613Z" fill="black" mask="url(#path-8-outside-3_544_459)"/>
</svg>
