<svg width="86" height="108" viewBox="0 0 86 108" fill="none" xmlns="http://www.w3.org/2000/svg">
<rect x="4.5" y="0.5" width="77" height="25" rx="3.5" fill="white" stroke="#959595"/>
<mask id="path-2-outside-1_544_451" maskUnits="userSpaceOnUse" x="31" y="9" width="25" height="9" fill="black">
<rect fill="white" x="31" y="9" width="25" height="9"/>
<path d="M38.686 16H37.147L38.236 16.72L38.002 17.062L36.409 16H31.342V9.745H38.686V16ZM32.431 15.595V10.15H31.747V15.595H32.431ZM38.281 10.15H32.836V15.595H35.806L34.717 14.866L34.942 14.533L36.535 15.595H38.281V10.15ZM46.9322 15.595V16H40.3532V12.184H39.4622V11.779H41.8562V15.595H45.5642V12.184H44.6012V11.779H45.9692V15.595H46.9322ZM41.4512 12.184H40.7582V15.595H41.4512V12.184ZM49.7871 15.595H50.6781V16H47.3931V15.595H48.2841V12.184H47.3931V11.779H49.7871V15.595ZM49.3821 12.184H48.6891V15.595H49.3821V12.184ZM49.8501 11.122H48.2211V9.745H49.8501V11.122ZM49.4451 10.15H48.6261V10.717H49.4451V10.15ZM55.063 15.595V16H51.823V12.184H50.932V11.779H51.823V9.745H53.326V11.779H55.063V12.184H53.326V15.595H55.063ZM52.921 10.15H52.228V15.595H52.921V10.15Z"/>
</mask>
<path d="M38.686 16H37.147L38.236 16.72L38.002 17.062L36.409 16H31.342V9.745H38.686V16ZM32.431 15.595V10.15H31.747V15.595H32.431ZM38.281 10.15H32.836V15.595H35.806L34.717 14.866L34.942 14.533L36.535 15.595H38.281V10.15ZM46.9322 15.595V16H40.3532V12.184H39.4622V11.779H41.8562V15.595H45.5642V12.184H44.6012V11.779H45.9692V15.595H46.9322ZM41.4512 12.184H40.7582V15.595H41.4512V12.184ZM49.7871 15.595H50.6781V16H47.3931V15.595H48.2841V12.184H47.3931V11.779H49.7871V15.595ZM49.3821 12.184H48.6891V15.595H49.3821V12.184ZM49.8501 11.122H48.2211V9.745H49.8501V11.122ZM49.4451 10.15H48.6261V10.717H49.4451V10.15ZM55.063 15.595V16H51.823V12.184H50.932V11.779H51.823V9.745H53.326V11.779H55.063V12.184H53.326V15.595H55.063ZM52.921 10.15H52.228V15.595H52.921V10.15Z" fill="black"/>
<path d="M38.686 16V16.1H38.786V16H38.686ZM37.147 16V15.9H36.8145L37.0919 16.0834L37.147 16ZM38.236 16.72L38.3186 16.7765L38.3759 16.6926L38.2912 16.6366L38.236 16.72ZM38.002 17.062L37.9466 17.1452L38.0288 17.2L38.0846 17.1185L38.002 17.062ZM36.409 16L36.4645 15.9168L36.4393 15.9H36.409V16ZM31.342 16H31.242V16.1H31.342V16ZM31.342 9.745V9.645H31.242V9.745H31.342ZM38.686 9.745H38.786V9.645H38.686V9.745ZM32.431 15.595V15.695H32.531V15.595H32.431ZM32.431 10.15H32.531V10.05H32.431V10.15ZM31.747 10.15V10.05H31.647V10.15H31.747ZM31.747 15.595H31.647V15.695H31.747V15.595ZM38.281 10.15H38.381V10.05H38.281V10.15ZM32.836 10.15V10.05H32.736V10.15H32.836ZM32.836 15.595H32.736V15.695H32.836V15.595ZM35.806 15.595V15.695H36.1352L35.8617 15.5119L35.806 15.595ZM34.717 14.866L34.6342 14.81L34.578 14.8932L34.6614 14.9491L34.717 14.866ZM34.942 14.533L34.9975 14.4498L34.9148 14.3947L34.8592 14.477L34.942 14.533ZM36.535 15.595L36.4796 15.6782L36.5048 15.695H36.535V15.595ZM38.281 15.595V15.695H38.381V15.595H38.281ZM38.686 15.9H37.147V16.1H38.686V15.9ZM37.0919 16.0834L38.1809 16.8034L38.2912 16.6366L37.2022 15.9166L37.0919 16.0834ZM38.1535 16.6635L37.9195 17.0055L38.0846 17.1185L38.3186 16.7765L38.1535 16.6635ZM38.0575 16.9788L36.4645 15.9168L36.3536 16.0832L37.9466 17.1452L38.0575 16.9788ZM36.409 15.9H31.342V16.1H36.409V15.9ZM31.442 16V9.745H31.242V16H31.442ZM31.342 9.845H38.686V9.645H31.342V9.845ZM38.586 9.745V16H38.786V9.745H38.586ZM32.531 15.595V10.15H32.331V15.595H32.531ZM32.431 10.05H31.747V10.25H32.431V10.05ZM31.647 10.15V15.595H31.847V10.15H31.647ZM31.747 15.695H32.431V15.495H31.747V15.695ZM38.281 10.05H32.836V10.25H38.281V10.05ZM32.736 10.15V15.595H32.936V10.15H32.736ZM32.836 15.695H35.806V15.495H32.836V15.695ZM35.8617 15.5119L34.7727 14.7829L34.6614 14.9491L35.7504 15.6781L35.8617 15.5119ZM34.7999 14.922L35.0249 14.589L34.8592 14.477L34.6342 14.81L34.7999 14.922ZM34.8866 14.6162L36.4796 15.6782L36.5905 15.5118L34.9975 14.4498L34.8866 14.6162ZM36.535 15.695H38.281V15.495H36.535V15.695ZM38.381 15.595V10.15H38.181V15.595H38.381ZM46.9322 15.595H47.0322V15.495H46.9322V15.595ZM46.9322 16V16.1H47.0322V16H46.9322ZM40.3532 16H40.2532V16.1H40.3532V16ZM40.3532 12.184H40.4532V12.084H40.3532V12.184ZM39.4622 12.184H39.3622V12.284H39.4622V12.184ZM39.4622 11.779V11.679H39.3622V11.779H39.4622ZM41.8562 11.779H41.9562V11.679H41.8562V11.779ZM41.8562 15.595H41.7562V15.695H41.8562V15.595ZM45.5642 15.595V15.695H45.6642V15.595H45.5642ZM45.5642 12.184H45.6642V12.084H45.5642V12.184ZM44.6012 12.184H44.5012V12.284H44.6012V12.184ZM44.6012 11.779V11.679H44.5012V11.779H44.6012ZM45.9692 11.779H46.0692V11.679H45.9692V11.779ZM45.9692 15.595H45.8692V15.695H45.9692V15.595ZM41.4512 12.184H41.5512V12.084H41.4512V12.184ZM40.7582 12.184V12.084H40.6582V12.184H40.7582ZM40.7582 15.595H40.6582V15.695H40.7582V15.595ZM41.4512 15.595V15.695H41.5512V15.595H41.4512ZM46.8322 15.595V16H47.0322V15.595H46.8322ZM46.9322 15.9H40.3532V16.1H46.9322V15.9ZM40.4532 16V12.184H40.2532V16H40.4532ZM40.3532 12.084H39.4622V12.284H40.3532V12.084ZM39.5622 12.184V11.779H39.3622V12.184H39.5622ZM39.4622 11.879H41.8562V11.679H39.4622V11.879ZM41.7562 11.779V15.595H41.9562V11.779H41.7562ZM41.8562 15.695H45.5642V15.495H41.8562V15.695ZM45.6642 15.595V12.184H45.4642V15.595H45.6642ZM45.5642 12.084H44.6012V12.284H45.5642V12.084ZM44.7012 12.184V11.779H44.5012V12.184H44.7012ZM44.6012 11.879H45.9692V11.679H44.6012V11.879ZM45.8692 11.779V15.595H46.0692V11.779H45.8692ZM45.9692 15.695H46.9322V15.495H45.9692V15.695ZM41.4512 12.084H40.7582V12.284H41.4512V12.084ZM40.6582 12.184V15.595H40.8582V12.184H40.6582ZM40.7582 15.695H41.4512V15.495H40.7582V15.695ZM41.5512 15.595V12.184H41.3512V15.595H41.5512ZM49.7871 15.595H49.6871V15.695H49.7871V15.595ZM50.6781 15.595H50.7781V15.495H50.6781V15.595ZM50.6781 16V16.1H50.7781V16H50.6781ZM47.3931 16H47.2931V16.1H47.3931V16ZM47.3931 15.595V15.495H47.2931V15.595H47.3931ZM48.2841 15.595V15.695H48.3841V15.595H48.2841ZM48.2841 12.184H48.3841V12.084H48.2841V12.184ZM47.3931 12.184H47.2931V12.284H47.3931V12.184ZM47.3931 11.779V11.679H47.2931V11.779H47.3931ZM49.7871 11.779H49.8871V11.679H49.7871V11.779ZM49.3821 12.184H49.4821V12.084H49.3821V12.184ZM48.6891 12.184V12.084H48.5891V12.184H48.6891ZM48.6891 15.595H48.5891V15.695H48.6891V15.595ZM49.3821 15.595V15.695H49.4821V15.595H49.3821ZM49.8501 11.122V11.222H49.9501V11.122H49.8501ZM48.2211 11.122H48.1211V11.222H48.2211V11.122ZM48.2211 9.745V9.645H48.1211V9.745H48.2211ZM49.8501 9.745H49.9501V9.645H49.8501V9.745ZM49.4451 10.15H49.5451V10.05H49.4451V10.15ZM48.6261 10.15V10.05H48.5261V10.15H48.6261ZM48.6261 10.717H48.5261V10.817H48.6261V10.717ZM49.4451 10.717V10.817H49.5451V10.717H49.4451ZM49.7871 15.695H50.6781V15.495H49.7871V15.695ZM50.5781 15.595V16H50.7781V15.595H50.5781ZM50.6781 15.9H47.3931V16.1H50.6781V15.9ZM47.4931 16V15.595H47.2931V16H47.4931ZM47.3931 15.695H48.2841V15.495H47.3931V15.695ZM48.3841 15.595V12.184H48.1841V15.595H48.3841ZM48.2841 12.084H47.3931V12.284H48.2841V12.084ZM47.4931 12.184V11.779H47.2931V12.184H47.4931ZM47.3931 11.879H49.7871V11.679H47.3931V11.879ZM49.6871 11.779V15.595H49.8871V11.779H49.6871ZM49.3821 12.084H48.6891V12.284H49.3821V12.084ZM48.5891 12.184V15.595H48.7891V12.184H48.5891ZM48.6891 15.695H49.3821V15.495H48.6891V15.695ZM49.4821 15.595V12.184H49.2821V15.595H49.4821ZM49.8501 11.022H48.2211V11.222H49.8501V11.022ZM48.3211 11.122V9.745H48.1211V11.122H48.3211ZM48.2211 9.845H49.8501V9.645H48.2211V9.845ZM49.7501 9.745V11.122H49.9501V9.745H49.7501ZM49.4451 10.05H48.6261V10.25H49.4451V10.05ZM48.5261 10.15V10.717H48.7261V10.15H48.5261ZM48.6261 10.817H49.4451V10.617H48.6261V10.817ZM49.5451 10.717V10.15H49.3451V10.717H49.5451ZM55.063 15.595H55.163V15.495H55.063V15.595ZM55.063 16V16.1H55.163V16H55.063ZM51.823 16H51.723V16.1H51.823V16ZM51.823 12.184H51.923V12.084H51.823V12.184ZM50.932 12.184H50.832V12.284H50.932V12.184ZM50.932 11.779V11.679H50.832V11.779H50.932ZM51.823 11.779V11.879H51.923V11.779H51.823ZM51.823 9.745V9.645H51.723V9.745H51.823ZM53.326 9.745H53.426V9.645H53.326V9.745ZM53.326 11.779H53.226V11.879H53.326V11.779ZM55.063 11.779H55.163V11.679H55.063V11.779ZM55.063 12.184V12.284H55.163V12.184H55.063ZM53.326 12.184V12.084H53.226V12.184H53.326ZM53.326 15.595H53.226V15.695H53.326V15.595ZM52.921 10.15H53.021V10.05H52.921V10.15ZM52.228 10.15V10.05H52.128V10.15H52.228ZM52.228 15.595H52.128V15.695H52.228V15.595ZM52.921 15.595V15.695H53.021V15.595H52.921ZM54.963 15.595V16H55.163V15.595H54.963ZM55.063 15.9H51.823V16.1H55.063V15.9ZM51.923 16V12.184H51.723V16H51.923ZM51.823 12.084H50.932V12.284H51.823V12.084ZM51.032 12.184V11.779H50.832V12.184H51.032ZM50.932 11.879H51.823V11.679H50.932V11.879ZM51.923 11.779V9.745H51.723V11.779H51.923ZM51.823 9.845H53.326V9.645H51.823V9.845ZM53.226 9.745V11.779H53.426V9.745H53.226ZM53.326 11.879H55.063V11.679H53.326V11.879ZM54.963 11.779V12.184H55.163V11.779H54.963ZM55.063 12.084H53.326V12.284H55.063V12.084ZM53.226 12.184V15.595H53.426V12.184H53.226ZM53.326 15.695H55.063V15.495H53.326V15.695ZM52.921 10.05H52.228V10.25H52.921V10.05ZM52.128 10.15V15.595H52.328V10.15H52.128ZM52.228 15.695H52.921V15.495H52.228V15.695ZM53.021 15.595V10.15H52.821V15.595H53.021Z" fill="black" mask="url(#path-2-outside-1_544_451)"/>
<rect x="4.5" y="36.5" width="77" height="25" rx="3.5" fill="#67804D" stroke="#67804D"/>
<mask id="path-5-outside-2_544_451" maskUnits="userSpaceOnUse" x="31" y="45" width="25" height="9" fill="black">
<rect fill="white" x="31" y="45" width="25" height="9"/>
<path d="M38.686 52H37.147L38.236 52.72L38.002 53.062L36.409 52H31.342V45.745H38.686V52ZM32.431 51.595V46.15H31.747V51.595H32.431ZM38.281 46.15H32.836V51.595H35.806L34.717 50.866L34.942 50.533L36.535 51.595H38.281V46.15ZM46.9322 51.595V52H40.3532V48.184H39.4622V47.779H41.8562V51.595H45.5642V48.184H44.6012V47.779H45.9692V51.595H46.9322ZM41.4512 48.184H40.7582V51.595H41.4512V48.184ZM49.7871 51.595H50.6781V52H47.3931V51.595H48.2841V48.184H47.3931V47.779H49.7871V51.595ZM49.3821 48.184H48.6891V51.595H49.3821V48.184ZM49.8501 47.122H48.2211V45.745H49.8501V47.122ZM49.4451 46.15H48.6261V46.717H49.4451V46.15ZM55.063 51.595V52H51.823V48.184H50.932V47.779H51.823V45.745H53.326V47.779H55.063V48.184H53.326V51.595H55.063ZM52.921 46.15H52.228V51.595H52.921V46.15Z"/>
</mask>
<path d="M38.686 52H37.147L38.236 52.72L38.002 53.062L36.409 52H31.342V45.745H38.686V52ZM32.431 51.595V46.15H31.747V51.595H32.431ZM38.281 46.15H32.836V51.595H35.806L34.717 50.866L34.942 50.533L36.535 51.595H38.281V46.15ZM46.9322 51.595V52H40.3532V48.184H39.4622V47.779H41.8562V51.595H45.5642V48.184H44.6012V47.779H45.9692V51.595H46.9322ZM41.4512 48.184H40.7582V51.595H41.4512V48.184ZM49.7871 51.595H50.6781V52H47.3931V51.595H48.2841V48.184H47.3931V47.779H49.7871V51.595ZM49.3821 48.184H48.6891V51.595H49.3821V48.184ZM49.8501 47.122H48.2211V45.745H49.8501V47.122ZM49.4451 46.15H48.6261V46.717H49.4451V46.15ZM55.063 51.595V52H51.823V48.184H50.932V47.779H51.823V45.745H53.326V47.779H55.063V48.184H53.326V51.595H55.063ZM52.921 46.15H52.228V51.595H52.921V46.15Z" fill="white"/>
<path d="M38.686 52V52.1H38.786V52H38.686ZM37.147 52V51.9H36.8145L37.0919 52.0834L37.147 52ZM38.236 52.72L38.3186 52.7765L38.3759 52.6926L38.2912 52.6366L38.236 52.72ZM38.002 53.062L37.9466 53.1452L38.0288 53.2L38.0846 53.1185L38.002 53.062ZM36.409 52L36.4645 51.9168L36.4393 51.9H36.409V52ZM31.342 52H31.242V52.1H31.342V52ZM31.342 45.745V45.645H31.242V45.745H31.342ZM38.686 45.745H38.786V45.645H38.686V45.745ZM32.431 51.595V51.695H32.531V51.595H32.431ZM32.431 46.15H32.531V46.05H32.431V46.15ZM31.747 46.15V46.05H31.647V46.15H31.747ZM31.747 51.595H31.647V51.695H31.747V51.595ZM38.281 46.15H38.381V46.05H38.281V46.15ZM32.836 46.15V46.05H32.736V46.15H32.836ZM32.836 51.595H32.736V51.695H32.836V51.595ZM35.806 51.595V51.695H36.1352L35.8617 51.5119L35.806 51.595ZM34.717 50.866L34.6342 50.81L34.578 50.8932L34.6614 50.9491L34.717 50.866ZM34.942 50.533L34.9975 50.4498L34.9148 50.3947L34.8592 50.477L34.942 50.533ZM36.535 51.595L36.4796 51.6782L36.5048 51.695H36.535V51.595ZM38.281 51.595V51.695H38.381V51.595H38.281ZM38.686 51.9H37.147V52.1H38.686V51.9ZM37.0919 52.0834L38.1809 52.8034L38.2912 52.6366L37.2022 51.9166L37.0919 52.0834ZM38.1535 52.6635L37.9195 53.0055L38.0846 53.1185L38.3186 52.7765L38.1535 52.6635ZM38.0575 52.9788L36.4645 51.9168L36.3536 52.0832L37.9466 53.1452L38.0575 52.9788ZM36.409 51.9H31.342V52.1H36.409V51.9ZM31.442 52V45.745H31.242V52H31.442ZM31.342 45.845H38.686V45.645H31.342V45.845ZM38.586 45.745V52H38.786V45.745H38.586ZM32.531 51.595V46.15H32.331V51.595H32.531ZM32.431 46.05H31.747V46.25H32.431V46.05ZM31.647 46.15V51.595H31.847V46.15H31.647ZM31.747 51.695H32.431V51.495H31.747V51.695ZM38.281 46.05H32.836V46.25H38.281V46.05ZM32.736 46.15V51.595H32.936V46.15H32.736ZM32.836 51.695H35.806V51.495H32.836V51.695ZM35.8617 51.5119L34.7727 50.7829L34.6614 50.9491L35.7504 51.6781L35.8617 51.5119ZM34.7999 50.922L35.0249 50.589L34.8592 50.477L34.6342 50.81L34.7999 50.922ZM34.8866 50.6162L36.4796 51.6782L36.5905 51.5118L34.9975 50.4498L34.8866 50.6162ZM36.535 51.695H38.281V51.495H36.535V51.695ZM38.381 51.595V46.15H38.181V51.595H38.381ZM46.9322 51.595H47.0322V51.495H46.9322V51.595ZM46.9322 52V52.1H47.0322V52H46.9322ZM40.3532 52H40.2532V52.1H40.3532V52ZM40.3532 48.184H40.4532V48.084H40.3532V48.184ZM39.4622 48.184H39.3622V48.284H39.4622V48.184ZM39.4622 47.779V47.679H39.3622V47.779H39.4622ZM41.8562 47.779H41.9562V47.679H41.8562V47.779ZM41.8562 51.595H41.7562V51.695H41.8562V51.595ZM45.5642 51.595V51.695H45.6642V51.595H45.5642ZM45.5642 48.184H45.6642V48.084H45.5642V48.184ZM44.6012 48.184H44.5012V48.284H44.6012V48.184ZM44.6012 47.779V47.679H44.5012V47.779H44.6012ZM45.9692 47.779H46.0692V47.679H45.9692V47.779ZM45.9692 51.595H45.8692V51.695H45.9692V51.595ZM41.4512 48.184H41.5512V48.084H41.4512V48.184ZM40.7582 48.184V48.084H40.6582V48.184H40.7582ZM40.7582 51.595H40.6582V51.695H40.7582V51.595ZM41.4512 51.595V51.695H41.5512V51.595H41.4512ZM46.8322 51.595V52H47.0322V51.595H46.8322ZM46.9322 51.9H40.3532V52.1H46.9322V51.9ZM40.4532 52V48.184H40.2532V52H40.4532ZM40.3532 48.084H39.4622V48.284H40.3532V48.084ZM39.5622 48.184V47.779H39.3622V48.184H39.5622ZM39.4622 47.879H41.8562V47.679H39.4622V47.879ZM41.7562 47.779V51.595H41.9562V47.779H41.7562ZM41.8562 51.695H45.5642V51.495H41.8562V51.695ZM45.6642 51.595V48.184H45.4642V51.595H45.6642ZM45.5642 48.084H44.6012V48.284H45.5642V48.084ZM44.7012 48.184V47.779H44.5012V48.184H44.7012ZM44.6012 47.879H45.9692V47.679H44.6012V47.879ZM45.8692 47.779V51.595H46.0692V47.779H45.8692ZM45.9692 51.695H46.9322V51.495H45.9692V51.695ZM41.4512 48.084H40.7582V48.284H41.4512V48.084ZM40.6582 48.184V51.595H40.8582V48.184H40.6582ZM40.7582 51.695H41.4512V51.495H40.7582V51.695ZM41.5512 51.595V48.184H41.3512V51.595H41.5512ZM49.7871 51.595H49.6871V51.695H49.7871V51.595ZM50.6781 51.595H50.7781V51.495H50.6781V51.595ZM50.6781 52V52.1H50.7781V52H50.6781ZM47.3931 52H47.2931V52.1H47.3931V52ZM47.3931 51.595V51.495H47.2931V51.595H47.3931ZM48.2841 51.595V51.695H48.3841V51.595H48.2841ZM48.2841 48.184H48.3841V48.084H48.2841V48.184ZM47.3931 48.184H47.2931V48.284H47.3931V48.184ZM47.3931 47.779V47.679H47.2931V47.779H47.3931ZM49.7871 47.779H49.8871V47.679H49.7871V47.779ZM49.3821 48.184H49.4821V48.084H49.3821V48.184ZM48.6891 48.184V48.084H48.5891V48.184H48.6891ZM48.6891 51.595H48.5891V51.695H48.6891V51.595ZM49.3821 51.595V51.695H49.4821V51.595H49.3821ZM49.8501 47.122V47.222H49.9501V47.122H49.8501ZM48.2211 47.122H48.1211V47.222H48.2211V47.122ZM48.2211 45.745V45.645H48.1211V45.745H48.2211ZM49.8501 45.745H49.9501V45.645H49.8501V45.745ZM49.4451 46.15H49.5451V46.05H49.4451V46.15ZM48.6261 46.15V46.05H48.5261V46.15H48.6261ZM48.6261 46.717H48.5261V46.817H48.6261V46.717ZM49.4451 46.717V46.817H49.5451V46.717H49.4451ZM49.7871 51.695H50.6781V51.495H49.7871V51.695ZM50.5781 51.595V52H50.7781V51.595H50.5781ZM50.6781 51.9H47.3931V52.1H50.6781V51.9ZM47.4931 52V51.595H47.2931V52H47.4931ZM47.3931 51.695H48.2841V51.495H47.3931V51.695ZM48.3841 51.595V48.184H48.1841V51.595H48.3841ZM48.2841 48.084H47.3931V48.284H48.2841V48.084ZM47.4931 48.184V47.779H47.2931V48.184H47.4931ZM47.3931 47.879H49.7871V47.679H47.3931V47.879ZM49.6871 47.779V51.595H49.8871V47.779H49.6871ZM49.3821 48.084H48.6891V48.284H49.3821V48.084ZM48.5891 48.184V51.595H48.7891V48.184H48.5891ZM48.6891 51.695H49.3821V51.495H48.6891V51.695ZM49.4821 51.595V48.184H49.2821V51.595H49.4821ZM49.8501 47.022H48.2211V47.222H49.8501V47.022ZM48.3211 47.122V45.745H48.1211V47.122H48.3211ZM48.2211 45.845H49.8501V45.645H48.2211V45.845ZM49.7501 45.745V47.122H49.9501V45.745H49.7501ZM49.4451 46.05H48.6261V46.25H49.4451V46.05ZM48.5261 46.15V46.717H48.7261V46.15H48.5261ZM48.6261 46.817H49.4451V46.617H48.6261V46.817ZM49.5451 46.717V46.15H49.3451V46.717H49.5451ZM55.063 51.595H55.163V51.495H55.063V51.595ZM55.063 52V52.1H55.163V52H55.063ZM51.823 52H51.723V52.1H51.823V52ZM51.823 48.184H51.923V48.084H51.823V48.184ZM50.932 48.184H50.832V48.284H50.932V48.184ZM50.932 47.779V47.679H50.832V47.779H50.932ZM51.823 47.779V47.879H51.923V47.779H51.823ZM51.823 45.745V45.645H51.723V45.745H51.823ZM53.326 45.745H53.426V45.645H53.326V45.745ZM53.326 47.779H53.226V47.879H53.326V47.779ZM55.063 47.779H55.163V47.679H55.063V47.779ZM55.063 48.184V48.284H55.163V48.184H55.063ZM53.326 48.184V48.084H53.226V48.184H53.326ZM53.326 51.595H53.226V51.695H53.326V51.595ZM52.921 46.15H53.021V46.05H52.921V46.15ZM52.228 46.15V46.05H52.128V46.15H52.228ZM52.228 51.595H52.128V51.695H52.228V51.595ZM52.921 51.595V51.695H53.021V51.595H52.921ZM54.963 51.595V52H55.163V51.595H54.963ZM55.063 51.9H51.823V52.1H55.063V51.9ZM51.923 52V48.184H51.723V52H51.923ZM51.823 48.084H50.932V48.284H51.823V48.084ZM51.032 48.184V47.779H50.832V48.184H51.032ZM50.932 47.879H51.823V47.679H50.932V47.879ZM51.923 47.779V45.745H51.723V47.779H51.923ZM51.823 45.845H53.326V45.645H51.823V45.845ZM53.226 45.745V47.779H53.426V45.745H53.226ZM53.326 47.879H55.063V47.679H53.326V47.879ZM54.963 47.779V48.184H55.163V47.779H54.963ZM55.063 48.084H53.326V48.284H55.063V48.084ZM53.226 48.184V51.595H53.426V48.184H53.226ZM53.326 51.695H55.063V51.495H53.326V51.695ZM52.921 46.05H52.228V46.25H52.921V46.05ZM52.128 46.15V51.595H52.328V46.15H52.128ZM52.228 51.695H52.921V51.495H52.228V51.695ZM53.021 51.595V46.15H52.821V51.595H53.021Z" fill="white" mask="url(#path-5-outside-2_544_451)"/>
<rect x="4.5" y="72.5" width="77" height="25" rx="3.5" fill="white" stroke="#67804D"/>
<mask id="path-8-outside-3_544_451" maskUnits="userSpaceOnUse" x="31" y="81" width="25" height="9" fill="black">
<rect fill="white" x="31" y="81" width="25" height="9"/>
<path d="M38.686 88H37.147L38.236 88.72L38.002 89.062L36.409 88H31.342V81.745H38.686V88ZM32.431 87.595V82.15H31.747V87.595H32.431ZM38.281 82.15H32.836V87.595H35.806L34.717 86.866L34.942 86.533L36.535 87.595H38.281V82.15ZM46.9322 87.595V88H40.3532V84.184H39.4622V83.779H41.8562V87.595H45.5642V84.184H44.6012V83.779H45.9692V87.595H46.9322ZM41.4512 84.184H40.7582V87.595H41.4512V84.184ZM49.7871 87.595H50.6781V88H47.3931V87.595H48.2841V84.184H47.3931V83.779H49.7871V87.595ZM49.3821 84.184H48.6891V87.595H49.3821V84.184ZM49.8501 83.122H48.2211V81.745H49.8501V83.122ZM49.4451 82.15H48.6261V82.717H49.4451V82.15ZM55.063 87.595V88H51.823V84.184H50.932V83.779H51.823V81.745H53.326V83.779H55.063V84.184H53.326V87.595H55.063ZM52.921 82.15H52.228V87.595H52.921V82.15Z"/>
</mask>
<path d="M38.686 88H37.147L38.236 88.72L38.002 89.062L36.409 88H31.342V81.745H38.686V88ZM32.431 87.595V82.15H31.747V87.595H32.431ZM38.281 82.15H32.836V87.595H35.806L34.717 86.866L34.942 86.533L36.535 87.595H38.281V82.15ZM46.9322 87.595V88H40.3532V84.184H39.4622V83.779H41.8562V87.595H45.5642V84.184H44.6012V83.779H45.9692V87.595H46.9322ZM41.4512 84.184H40.7582V87.595H41.4512V84.184ZM49.7871 87.595H50.6781V88H47.3931V87.595H48.2841V84.184H47.3931V83.779H49.7871V87.595ZM49.3821 84.184H48.6891V87.595H49.3821V84.184ZM49.8501 83.122H48.2211V81.745H49.8501V83.122ZM49.4451 82.15H48.6261V82.717H49.4451V82.15ZM55.063 87.595V88H51.823V84.184H50.932V83.779H51.823V81.745H53.326V83.779H55.063V84.184H53.326V87.595H55.063ZM52.921 82.15H52.228V87.595H52.921V82.15Z" fill="black"/>
<path d="M38.686 88V88.1H38.786V88H38.686ZM37.147 88V87.9H36.8145L37.0919 88.0834L37.147 88ZM38.236 88.72L38.3186 88.7765L38.3759 88.6926L38.2912 88.6366L38.236 88.72ZM38.002 89.062L37.9466 89.1452L38.0288 89.2L38.0846 89.1185L38.002 89.062ZM36.409 88L36.4645 87.9168L36.4393 87.9H36.409V88ZM31.342 88H31.242V88.1H31.342V88ZM31.342 81.745V81.645H31.242V81.745H31.342ZM38.686 81.745H38.786V81.645H38.686V81.745ZM32.431 87.595V87.695H32.531V87.595H32.431ZM32.431 82.15H32.531V82.05H32.431V82.15ZM31.747 82.15V82.05H31.647V82.15H31.747ZM31.747 87.595H31.647V87.695H31.747V87.595ZM38.281 82.15H38.381V82.05H38.281V82.15ZM32.836 82.15V82.05H32.736V82.15H32.836ZM32.836 87.595H32.736V87.695H32.836V87.595ZM35.806 87.595V87.695H36.1352L35.8617 87.5119L35.806 87.595ZM34.717 86.866L34.6342 86.81L34.578 86.8932L34.6614 86.9491L34.717 86.866ZM34.942 86.533L34.9975 86.4498L34.9148 86.3947L34.8592 86.477L34.942 86.533ZM36.535 87.595L36.4796 87.6782L36.5048 87.695H36.535V87.595ZM38.281 87.595V87.695H38.381V87.595H38.281ZM38.686 87.9H37.147V88.1H38.686V87.9ZM37.0919 88.0834L38.1809 88.8034L38.2912 88.6366L37.2022 87.9166L37.0919 88.0834ZM38.1535 88.6635L37.9195 89.0055L38.0846 89.1185L38.3186 88.7765L38.1535 88.6635ZM38.0575 88.9788L36.4645 87.9168L36.3536 88.0832L37.9466 89.1452L38.0575 88.9788ZM36.409 87.9H31.342V88.1H36.409V87.9ZM31.442 88V81.745H31.242V88H31.442ZM31.342 81.845H38.686V81.645H31.342V81.845ZM38.586 81.745V88H38.786V81.745H38.586ZM32.531 87.595V82.15H32.331V87.595H32.531ZM32.431 82.05H31.747V82.25H32.431V82.05ZM31.647 82.15V87.595H31.847V82.15H31.647ZM31.747 87.695H32.431V87.495H31.747V87.695ZM38.281 82.05H32.836V82.25H38.281V82.05ZM32.736 82.15V87.595H32.936V82.15H32.736ZM32.836 87.695H35.806V87.495H32.836V87.695ZM35.8617 87.5119L34.7727 86.7829L34.6614 86.9491L35.7504 87.6781L35.8617 87.5119ZM34.7999 86.922L35.0249 86.589L34.8592 86.477L34.6342 86.81L34.7999 86.922ZM34.8866 86.6162L36.4796 87.6782L36.5905 87.5118L34.9975 86.4498L34.8866 86.6162ZM36.535 87.695H38.281V87.495H36.535V87.695ZM38.381 87.595V82.15H38.181V87.595H38.381ZM46.9322 87.595H47.0322V87.495H46.9322V87.595ZM46.9322 88V88.1H47.0322V88H46.9322ZM40.3532 88H40.2532V88.1H40.3532V88ZM40.3532 84.184H40.4532V84.084H40.3532V84.184ZM39.4622 84.184H39.3622V84.284H39.4622V84.184ZM39.4622 83.779V83.679H39.3622V83.779H39.4622ZM41.8562 83.779H41.9562V83.679H41.8562V83.779ZM41.8562 87.595H41.7562V87.695H41.8562V87.595ZM45.5642 87.595V87.695H45.6642V87.595H45.5642ZM45.5642 84.184H45.6642V84.084H45.5642V84.184ZM44.6012 84.184H44.5012V84.284H44.6012V84.184ZM44.6012 83.779V83.679H44.5012V83.779H44.6012ZM45.9692 83.779H46.0692V83.679H45.9692V83.779ZM45.9692 87.595H45.8692V87.695H45.9692V87.595ZM41.4512 84.184H41.5512V84.084H41.4512V84.184ZM40.7582 84.184V84.084H40.6582V84.184H40.7582ZM40.7582 87.595H40.6582V87.695H40.7582V87.595ZM41.4512 87.595V87.695H41.5512V87.595H41.4512ZM46.8322 87.595V88H47.0322V87.595H46.8322ZM46.9322 87.9H40.3532V88.1H46.9322V87.9ZM40.4532 88V84.184H40.2532V88H40.4532ZM40.3532 84.084H39.4622V84.284H40.3532V84.084ZM39.5622 84.184V83.779H39.3622V84.184H39.5622ZM39.4622 83.879H41.8562V83.679H39.4622V83.879ZM41.7562 83.779V87.595H41.9562V83.779H41.7562ZM41.8562 87.695H45.5642V87.495H41.8562V87.695ZM45.6642 87.595V84.184H45.4642V87.595H45.6642ZM45.5642 84.084H44.6012V84.284H45.5642V84.084ZM44.7012 84.184V83.779H44.5012V84.184H44.7012ZM44.6012 83.879H45.9692V83.679H44.6012V83.879ZM45.8692 83.779V87.595H46.0692V83.779H45.8692ZM45.9692 87.695H46.9322V87.495H45.9692V87.695ZM41.4512 84.084H40.7582V84.284H41.4512V84.084ZM40.6582 84.184V87.595H40.8582V84.184H40.6582ZM40.7582 87.695H41.4512V87.495H40.7582V87.695ZM41.5512 87.595V84.184H41.3512V87.595H41.5512ZM49.7871 87.595H49.6871V87.695H49.7871V87.595ZM50.6781 87.595H50.7781V87.495H50.6781V87.595ZM50.6781 88V88.1H50.7781V88H50.6781ZM47.3931 88H47.2931V88.1H47.3931V88ZM47.3931 87.595V87.495H47.2931V87.595H47.3931ZM48.2841 87.595V87.695H48.3841V87.595H48.2841ZM48.2841 84.184H48.3841V84.084H48.2841V84.184ZM47.3931 84.184H47.2931V84.284H47.3931V84.184ZM47.3931 83.779V83.679H47.2931V83.779H47.3931ZM49.7871 83.779H49.8871V83.679H49.7871V83.779ZM49.3821 84.184H49.4821V84.084H49.3821V84.184ZM48.6891 84.184V84.084H48.5891V84.184H48.6891ZM48.6891 87.595H48.5891V87.695H48.6891V87.595ZM49.3821 87.595V87.695H49.4821V87.595H49.3821ZM49.8501 83.122V83.222H49.9501V83.122H49.8501ZM48.2211 83.122H48.1211V83.222H48.2211V83.122ZM48.2211 81.745V81.645H48.1211V81.745H48.2211ZM49.8501 81.745H49.9501V81.645H49.8501V81.745ZM49.4451 82.15H49.5451V82.05H49.4451V82.15ZM48.6261 82.15V82.05H48.5261V82.15H48.6261ZM48.6261 82.717H48.5261V82.817H48.6261V82.717ZM49.4451 82.717V82.817H49.5451V82.717H49.4451ZM49.7871 87.695H50.6781V87.495H49.7871V87.695ZM50.5781 87.595V88H50.7781V87.595H50.5781ZM50.6781 87.9H47.3931V88.1H50.6781V87.9ZM47.4931 88V87.595H47.2931V88H47.4931ZM47.3931 87.695H48.2841V87.495H47.3931V87.695ZM48.3841 87.595V84.184H48.1841V87.595H48.3841ZM48.2841 84.084H47.3931V84.284H48.2841V84.084ZM47.4931 84.184V83.779H47.2931V84.184H47.4931ZM47.3931 83.879H49.7871V83.679H47.3931V83.879ZM49.6871 83.779V87.595H49.8871V83.779H49.6871ZM49.3821 84.084H48.6891V84.284H49.3821V84.084ZM48.5891 84.184V87.595H48.7891V84.184H48.5891ZM48.6891 87.695H49.3821V87.495H48.6891V87.695ZM49.4821 87.595V84.184H49.2821V87.595H49.4821ZM49.8501 83.022H48.2211V83.222H49.8501V83.022ZM48.3211 83.122V81.745H48.1211V83.122H48.3211ZM48.2211 81.845H49.8501V81.645H48.2211V81.845ZM49.7501 81.745V83.122H49.9501V81.745H49.7501ZM49.4451 82.05H48.6261V82.25H49.4451V82.05ZM48.5261 82.15V82.717H48.7261V82.15H48.5261ZM48.6261 82.817H49.4451V82.617H48.6261V82.817ZM49.5451 82.717V82.15H49.3451V82.717H49.5451ZM55.063 87.595H55.163V87.495H55.063V87.595ZM55.063 88V88.1H55.163V88H55.063ZM51.823 88H51.723V88.1H51.823V88ZM51.823 84.184H51.923V84.084H51.823V84.184ZM50.932 84.184H50.832V84.284H50.932V84.184ZM50.932 83.779V83.679H50.832V83.779H50.932ZM51.823 83.779V83.879H51.923V83.779H51.823ZM51.823 81.745V81.645H51.723V81.745H51.823ZM53.326 81.745H53.426V81.645H53.326V81.745ZM53.326 83.779H53.226V83.879H53.326V83.779ZM55.063 83.779H55.163V83.679H55.063V83.779ZM55.063 84.184V84.284H55.163V84.184H55.063ZM53.326 84.184V84.084H53.226V84.184H53.326ZM53.326 87.595H53.226V87.695H53.326V87.595ZM52.921 82.15H53.021V82.05H52.921V82.15ZM52.228 82.15V82.05H52.128V82.15H52.228ZM52.228 87.595H52.128V87.695H52.228V87.595ZM52.921 87.595V87.695H53.021V87.595H52.921ZM54.963 87.595V88H55.163V87.595H54.963ZM55.063 87.9H51.823V88.1H55.063V87.9ZM51.923 88V84.184H51.723V88H51.923ZM51.823 84.084H50.932V84.284H51.823V84.084ZM51.032 84.184V83.779H50.832V84.184H51.032ZM50.932 83.879H51.823V83.679H50.932V83.879ZM51.923 83.779V81.745H51.723V83.779H51.923ZM51.823 81.845H53.326V81.645H51.823V81.845ZM53.226 81.745V83.779H53.426V81.745H53.226ZM53.326 83.879H55.063V83.679H53.326V83.879ZM54.963 83.779V84.184H55.163V83.779H54.963ZM55.063 84.084H53.326V84.284H55.063V84.084ZM53.226 84.184V87.595H53.426V84.184H53.226ZM53.326 87.695H55.063V87.495H53.326V87.695ZM52.921 82.05H52.228V82.25H52.921V82.05ZM52.128 82.15V87.595H52.328V82.15H52.128ZM52.228 87.695H52.921V87.495H52.228V87.695ZM53.021 87.595V82.15H52.821V87.595H53.021Z" fill="black" mask="url(#path-8-outside-3_544_451)"/>
</svg>
