<svg width="64" height="108" viewBox="0 0 64 108" fill="none" xmlns="http://www.w3.org/2000/svg">
<rect x="4.5" y="0.5" width="55" height="25" rx="3.5" fill="white" stroke="#959595"/>
<mask id="path-2-outside-1_533_435" maskUnits="userSpaceOnUse" x="13" y="9" width="37" height="8" fill="black">
<rect fill="white" x="13" y="9" width="37" height="8"/>
<path d="M16.3085 13.075V15.595H17.2085V16H13.9145V15.595H14.8055V10.15H13.9145V9.745H21.8795V13.075H16.3085ZM16.3085 10.15V12.67H21.4745V10.15H16.3085ZM15.9035 15.595V10.15H15.2195V15.595H15.9035ZM28.342 15.595H29.233V16H22.726V13.687H26.839V12.184H23.131V12.877H22.726V11.779H28.342V15.595ZM26.839 15.595V14.092H23.131V15.595H26.839ZM27.937 12.184H27.244V15.595H27.937V12.184ZM36.9649 15.595V16H30.3859V12.184H29.4949V11.779H31.8889V15.595H35.5969V12.184H34.6339V11.779H36.0019V15.595H36.9649ZM31.4839 12.184H30.7909V15.595H31.4839V12.184ZM43.2218 11.779V12.877H42.8168V12.184H39.1088V13.687H43.2218V16H37.6058V14.902H38.0108V15.595H41.7188V14.092H37.6058V11.779H43.2218ZM42.1238 14.092V15.595H42.8168V14.092H42.1238ZM38.7038 12.184H38.0108V13.687H38.7038V12.184ZM44.2602 11.779H49.8762V14.092H45.7632V15.595H49.4712V14.902H49.8762V16H44.2602V11.779ZM45.7632 12.184V13.687H49.4712V12.184H45.7632ZM44.6652 15.595H45.3582V12.184H44.6652V15.595Z"/>
</mask>
<path d="M16.3085 13.075V15.595H17.2085V16H13.9145V15.595H14.8055V10.15H13.9145V9.745H21.8795V13.075H16.3085ZM16.3085 10.15V12.67H21.4745V10.15H16.3085ZM15.9035 15.595V10.15H15.2195V15.595H15.9035ZM28.342 15.595H29.233V16H22.726V13.687H26.839V12.184H23.131V12.877H22.726V11.779H28.342V15.595ZM26.839 15.595V14.092H23.131V15.595H26.839ZM27.937 12.184H27.244V15.595H27.937V12.184ZM36.9649 15.595V16H30.3859V12.184H29.4949V11.779H31.8889V15.595H35.5969V12.184H34.6339V11.779H36.0019V15.595H36.9649ZM31.4839 12.184H30.7909V15.595H31.4839V12.184ZM43.2218 11.779V12.877H42.8168V12.184H39.1088V13.687H43.2218V16H37.6058V14.902H38.0108V15.595H41.7188V14.092H37.6058V11.779H43.2218ZM42.1238 14.092V15.595H42.8168V14.092H42.1238ZM38.7038 12.184H38.0108V13.687H38.7038V12.184ZM44.2602 11.779H49.8762V14.092H45.7632V15.595H49.4712V14.902H49.8762V16H44.2602V11.779ZM45.7632 12.184V13.687H49.4712V12.184H45.7632ZM44.6652 15.595H45.3582V12.184H44.6652V15.595Z" fill="black"/>
<path d="M16.3085 13.075V12.975H16.2085V13.075H16.3085ZM16.3085 15.595H16.2085V15.695H16.3085V15.595ZM17.2085 15.595H17.3085V15.495H17.2085V15.595ZM17.2085 16V16.1H17.3085V16H17.2085ZM13.9145 16H13.8145V16.1H13.9145V16ZM13.9145 15.595V15.495H13.8145V15.595H13.9145ZM14.8055 15.595V15.695H14.9055V15.595H14.8055ZM14.8055 10.15H14.9055V10.05H14.8055V10.15ZM13.9145 10.15H13.8145V10.25H13.9145V10.15ZM13.9145 9.745V9.645H13.8145V9.745H13.9145ZM21.8795 9.745H21.9795V9.645H21.8795V9.745ZM21.8795 13.075V13.175H21.9795V13.075H21.8795ZM16.3085 10.15V10.05H16.2085V10.15H16.3085ZM16.3085 12.67H16.2085V12.77H16.3085V12.67ZM21.4745 12.67V12.77H21.5745V12.67H21.4745ZM21.4745 10.15H21.5745V10.05H21.4745V10.15ZM15.9035 15.595V15.695H16.0035V15.595H15.9035ZM15.9035 10.15H16.0035V10.05H15.9035V10.15ZM15.2195 10.15V10.05H15.1195V10.15H15.2195ZM15.2195 15.595H15.1195V15.695H15.2195V15.595ZM16.2085 13.075V15.595H16.4085V13.075H16.2085ZM16.3085 15.695H17.2085V15.495H16.3085V15.695ZM17.1085 15.595V16H17.3085V15.595H17.1085ZM17.2085 15.9H13.9145V16.1H17.2085V15.9ZM14.0145 16V15.595H13.8145V16H14.0145ZM13.9145 15.695H14.8055V15.495H13.9145V15.695ZM14.9055 15.595V10.15H14.7055V15.595H14.9055ZM14.8055 10.05H13.9145V10.25H14.8055V10.05ZM14.0145 10.15V9.745H13.8145V10.15H14.0145ZM13.9145 9.845H21.8795V9.645H13.9145V9.845ZM21.7795 9.745V13.075H21.9795V9.745H21.7795ZM21.8795 12.975H16.3085V13.175H21.8795V12.975ZM16.2085 10.15V12.67H16.4085V10.15H16.2085ZM16.3085 12.77H21.4745V12.57H16.3085V12.77ZM21.5745 12.67V10.15H21.3745V12.67H21.5745ZM21.4745 10.05H16.3085V10.25H21.4745V10.05ZM16.0035 15.595V10.15H15.8035V15.595H16.0035ZM15.9035 10.05H15.2195V10.25H15.9035V10.05ZM15.1195 10.15V15.595H15.3195V10.15H15.1195ZM15.2195 15.695H15.9035V15.495H15.2195V15.695ZM28.342 15.595H28.242V15.695H28.342V15.595ZM29.233 15.595H29.333V15.495H29.233V15.595ZM29.233 16V16.1H29.333V16H29.233ZM22.726 16H22.626V16.1H22.726V16ZM22.726 13.687V13.587H22.626V13.687H22.726ZM26.839 13.687V13.787H26.939V13.687H26.839ZM26.839 12.184H26.939V12.084H26.839V12.184ZM23.131 12.184V12.084H23.031V12.184H23.131ZM23.131 12.877V12.977H23.231V12.877H23.131ZM22.726 12.877H22.626V12.977H22.726V12.877ZM22.726 11.779V11.679H22.626V11.779H22.726ZM28.342 11.779H28.442V11.679H28.342V11.779ZM26.839 15.595V15.695H26.939V15.595H26.839ZM26.839 14.092H26.939V13.992H26.839V14.092ZM23.131 14.092V13.992H23.031V14.092H23.131ZM23.131 15.595H23.031V15.695H23.131V15.595ZM27.937 12.184H28.037V12.084H27.937V12.184ZM27.244 12.184V12.084H27.144V12.184H27.244ZM27.244 15.595H27.144V15.695H27.244V15.595ZM27.937 15.595V15.695H28.037V15.595H27.937ZM28.342 15.695H29.233V15.495H28.342V15.695ZM29.133 15.595V16H29.333V15.595H29.133ZM29.233 15.9H22.726V16.1H29.233V15.9ZM22.826 16V13.687H22.626V16H22.826ZM22.726 13.787H26.839V13.587H22.726V13.787ZM26.939 13.687V12.184H26.739V13.687H26.939ZM26.839 12.084H23.131V12.284H26.839V12.084ZM23.031 12.184V12.877H23.231V12.184H23.031ZM23.131 12.777H22.726V12.977H23.131V12.777ZM22.826 12.877V11.779H22.626V12.877H22.826ZM22.726 11.879H28.342V11.679H22.726V11.879ZM28.242 11.779V15.595H28.442V11.779H28.242ZM26.939 15.595V14.092H26.739V15.595H26.939ZM26.839 13.992H23.131V14.192H26.839V13.992ZM23.031 14.092V15.595H23.231V14.092H23.031ZM23.131 15.695H26.839V15.495H23.131V15.695ZM27.937 12.084H27.244V12.284H27.937V12.084ZM27.144 12.184V15.595H27.344V12.184H27.144ZM27.244 15.695H27.937V15.495H27.244V15.695ZM28.037 15.595V12.184H27.837V15.595H28.037ZM36.9649 15.595H37.0649V15.495H36.9649V15.595ZM36.9649 16V16.1H37.0649V16H36.9649ZM30.3859 16H30.2859V16.1H30.3859V16ZM30.3859 12.184H30.4859V12.084H30.3859V12.184ZM29.4949 12.184H29.3949V12.284H29.4949V12.184ZM29.4949 11.779V11.679H29.3949V11.779H29.4949ZM31.8889 11.779H31.9889V11.679H31.8889V11.779ZM31.8889 15.595H31.7889V15.695H31.8889V15.595ZM35.5969 15.595V15.695H35.6969V15.595H35.5969ZM35.5969 12.184H35.6969V12.084H35.5969V12.184ZM34.6339 12.184H34.5339V12.284H34.6339V12.184ZM34.6339 11.779V11.679H34.5339V11.779H34.6339ZM36.0019 11.779H36.1019V11.679H36.0019V11.779ZM36.0019 15.595H35.9019V15.695H36.0019V15.595ZM31.4839 12.184H31.5839V12.084H31.4839V12.184ZM30.7909 12.184V12.084H30.6909V12.184H30.7909ZM30.7909 15.595H30.6909V15.695H30.7909V15.595ZM31.4839 15.595V15.695H31.5839V15.595H31.4839ZM36.8649 15.595V16H37.0649V15.595H36.8649ZM36.9649 15.9H30.3859V16.1H36.9649V15.9ZM30.4859 16V12.184H30.2859V16H30.4859ZM30.3859 12.084H29.4949V12.284H30.3859V12.084ZM29.5949 12.184V11.779H29.3949V12.184H29.5949ZM29.4949 11.879H31.8889V11.679H29.4949V11.879ZM31.7889 11.779V15.595H31.9889V11.779H31.7889ZM31.8889 15.695H35.5969V15.495H31.8889V15.695ZM35.6969 15.595V12.184H35.4969V15.595H35.6969ZM35.5969 12.084H34.6339V12.284H35.5969V12.084ZM34.7339 12.184V11.779H34.5339V12.184H34.7339ZM34.6339 11.879H36.0019V11.679H34.6339V11.879ZM35.9019 11.779V15.595H36.1019V11.779H35.9019ZM36.0019 15.695H36.9649V15.495H36.0019V15.695ZM31.4839 12.084H30.7909V12.284H31.4839V12.084ZM30.6909 12.184V15.595H30.8909V12.184H30.6909ZM30.7909 15.695H31.4839V15.495H30.7909V15.695ZM31.5839 15.595V12.184H31.3839V15.595H31.5839ZM43.2218 11.779H43.3218V11.679H43.2218V11.779ZM43.2218 12.877V12.977H43.3218V12.877H43.2218ZM42.8168 12.877H42.7168V12.977H42.8168V12.877ZM42.8168 12.184H42.9168V12.084H42.8168V12.184ZM39.1088 12.184V12.084H39.0088V12.184H39.1088ZM39.1088 13.687H39.0088V13.787H39.1088V13.687ZM43.2218 13.687H43.3218V13.587H43.2218V13.687ZM43.2218 16V16.1H43.3218V16H43.2218ZM37.6058 16H37.5058V16.1H37.6058V16ZM37.6058 14.902V14.802H37.5058V14.902H37.6058ZM38.0108 14.902H38.1108V14.802H38.0108V14.902ZM38.0108 15.595H37.9108V15.695H38.0108V15.595ZM41.7188 15.595V15.695H41.8188V15.595H41.7188ZM41.7188 14.092H41.8188V13.992H41.7188V14.092ZM37.6058 14.092H37.5058V14.192H37.6058V14.092ZM37.6058 11.779V11.679H37.5058V11.779H37.6058ZM42.1238 14.092V13.992H42.0238V14.092H42.1238ZM42.1238 15.595H42.0238V15.695H42.1238V15.595ZM42.8168 15.595V15.695H42.9168V15.595H42.8168ZM42.8168 14.092H42.9168V13.992H42.8168V14.092ZM38.7038 12.184H38.8038V12.084H38.7038V12.184ZM38.0108 12.184V12.084H37.9108V12.184H38.0108ZM38.0108 13.687H37.9108V13.787H38.0108V13.687ZM38.7038 13.687V13.787H38.8038V13.687H38.7038ZM43.1218 11.779V12.877H43.3218V11.779H43.1218ZM43.2218 12.777H42.8168V12.977H43.2218V12.777ZM42.9168 12.877V12.184H42.7168V12.877H42.9168ZM42.8168 12.084H39.1088V12.284H42.8168V12.084ZM39.0088 12.184V13.687H39.2088V12.184H39.0088ZM39.1088 13.787H43.2218V13.587H39.1088V13.787ZM43.1218 13.687V16H43.3218V13.687H43.1218ZM43.2218 15.9H37.6058V16.1H43.2218V15.9ZM37.7058 16V14.902H37.5058V16H37.7058ZM37.6058 15.002H38.0108V14.802H37.6058V15.002ZM37.9108 14.902V15.595H38.1108V14.902H37.9108ZM38.0108 15.695H41.7188V15.495H38.0108V15.695ZM41.8188 15.595V14.092H41.6188V15.595H41.8188ZM41.7188 13.992H37.6058V14.192H41.7188V13.992ZM37.7058 14.092V11.779H37.5058V14.092H37.7058ZM37.6058 11.879H43.2218V11.679H37.6058V11.879ZM42.0238 14.092V15.595H42.2238V14.092H42.0238ZM42.1238 15.695H42.8168V15.495H42.1238V15.695ZM42.9168 15.595V14.092H42.7168V15.595H42.9168ZM42.8168 13.992H42.1238V14.192H42.8168V13.992ZM38.7038 12.084H38.0108V12.284H38.7038V12.084ZM37.9108 12.184V13.687H38.1108V12.184H37.9108ZM38.0108 13.787H38.7038V13.587H38.0108V13.787ZM38.8038 13.687V12.184H38.6038V13.687H38.8038ZM44.2602 11.779V11.679H44.1602V11.779H44.2602ZM49.8762 11.779H49.9762V11.679H49.8762V11.779ZM49.8762 14.092V14.192H49.9762V14.092H49.8762ZM45.7632 14.092V13.992H45.6632V14.092H45.7632ZM45.7632 15.595H45.6632V15.695H45.7632V15.595ZM49.4712 15.595V15.695H49.5712V15.595H49.4712ZM49.4712 14.902V14.802H49.3712V14.902H49.4712ZM49.8762 14.902H49.9762V14.802H49.8762V14.902ZM49.8762 16V16.1H49.9762V16H49.8762ZM44.2602 16H44.1602V16.1H44.2602V16ZM45.7632 12.184V12.084H45.6632V12.184H45.7632ZM45.7632 13.687H45.6632V13.787H45.7632V13.687ZM49.4712 13.687V13.787H49.5712V13.687H49.4712ZM49.4712 12.184H49.5712V12.084H49.4712V12.184ZM44.6652 15.595H44.5652V15.695H44.6652V15.595ZM45.3582 15.595V15.695H45.4582V15.595H45.3582ZM45.3582 12.184H45.4582V12.084H45.3582V12.184ZM44.6652 12.184V12.084H44.5652V12.184H44.6652ZM44.2602 11.879H49.8762V11.679H44.2602V11.879ZM49.7762 11.779V14.092H49.9762V11.779H49.7762ZM49.8762 13.992H45.7632V14.192H49.8762V13.992ZM45.6632 14.092V15.595H45.8632V14.092H45.6632ZM45.7632 15.695H49.4712V15.495H45.7632V15.695ZM49.5712 15.595V14.902H49.3712V15.595H49.5712ZM49.4712 15.002H49.8762V14.802H49.4712V15.002ZM49.7762 14.902V16H49.9762V14.902H49.7762ZM49.8762 15.9H44.2602V16.1H49.8762V15.9ZM44.3602 16V11.779H44.1602V16H44.3602ZM45.6632 12.184V13.687H45.8632V12.184H45.6632ZM45.7632 13.787H49.4712V13.587H45.7632V13.787ZM49.5712 13.687V12.184H49.3712V13.687H49.5712ZM49.4712 12.084H45.7632V12.284H49.4712V12.084ZM44.6652 15.695H45.3582V15.495H44.6652V15.695ZM45.4582 15.595V12.184H45.2582V15.595H45.4582ZM45.3582 12.084H44.6652V12.284H45.3582V12.084ZM44.5652 12.184V15.595H44.7652V12.184H44.5652Z" fill="black" mask="url(#path-2-outside-1_533_435)"/>
<rect x="4.5" y="36.5" width="55" height="25" rx="3.5" fill="#414FB0" stroke="#414FB0"/>
<mask id="path-5-outside-2_533_435" maskUnits="userSpaceOnUse" x="13" y="45" width="37" height="8" fill="black">
<rect fill="white" x="13" y="45" width="37" height="8"/>
<path d="M16.3085 49.075V51.595H17.2085V52H13.9145V51.595H14.8055V46.15H13.9145V45.745H21.8795V49.075H16.3085ZM16.3085 46.15V48.67H21.4745V46.15H16.3085ZM15.9035 51.595V46.15H15.2195V51.595H15.9035ZM28.342 51.595H29.233V52H22.726V49.687H26.839V48.184H23.131V48.877H22.726V47.779H28.342V51.595ZM26.839 51.595V50.092H23.131V51.595H26.839ZM27.937 48.184H27.244V51.595H27.937V48.184ZM36.9649 51.595V52H30.3859V48.184H29.4949V47.779H31.8889V51.595H35.5969V48.184H34.6339V47.779H36.0019V51.595H36.9649ZM31.4839 48.184H30.7909V51.595H31.4839V48.184ZM43.2218 47.779V48.877H42.8168V48.184H39.1088V49.687H43.2218V52H37.6058V50.902H38.0108V51.595H41.7188V50.092H37.6058V47.779H43.2218ZM42.1238 50.092V51.595H42.8168V50.092H42.1238ZM38.7038 48.184H38.0108V49.687H38.7038V48.184ZM44.2602 47.779H49.8762V50.092H45.7632V51.595H49.4712V50.902H49.8762V52H44.2602V47.779ZM45.7632 48.184V49.687H49.4712V48.184H45.7632ZM44.6652 51.595H45.3582V48.184H44.6652V51.595Z"/>
</mask>
<path d="M16.3085 49.075V51.595H17.2085V52H13.9145V51.595H14.8055V46.15H13.9145V45.745H21.8795V49.075H16.3085ZM16.3085 46.15V48.67H21.4745V46.15H16.3085ZM15.9035 51.595V46.15H15.2195V51.595H15.9035ZM28.342 51.595H29.233V52H22.726V49.687H26.839V48.184H23.131V48.877H22.726V47.779H28.342V51.595ZM26.839 51.595V50.092H23.131V51.595H26.839ZM27.937 48.184H27.244V51.595H27.937V48.184ZM36.9649 51.595V52H30.3859V48.184H29.4949V47.779H31.8889V51.595H35.5969V48.184H34.6339V47.779H36.0019V51.595H36.9649ZM31.4839 48.184H30.7909V51.595H31.4839V48.184ZM43.2218 47.779V48.877H42.8168V48.184H39.1088V49.687H43.2218V52H37.6058V50.902H38.0108V51.595H41.7188V50.092H37.6058V47.779H43.2218ZM42.1238 50.092V51.595H42.8168V50.092H42.1238ZM38.7038 48.184H38.0108V49.687H38.7038V48.184ZM44.2602 47.779H49.8762V50.092H45.7632V51.595H49.4712V50.902H49.8762V52H44.2602V47.779ZM45.7632 48.184V49.687H49.4712V48.184H45.7632ZM44.6652 51.595H45.3582V48.184H44.6652V51.595Z" fill="white"/>
<path d="M16.3085 49.075V48.975H16.2085V49.075H16.3085ZM16.3085 51.595H16.2085V51.695H16.3085V51.595ZM17.2085 51.595H17.3085V51.495H17.2085V51.595ZM17.2085 52V52.1H17.3085V52H17.2085ZM13.9145 52H13.8145V52.1H13.9145V52ZM13.9145 51.595V51.495H13.8145V51.595H13.9145ZM14.8055 51.595V51.695H14.9055V51.595H14.8055ZM14.8055 46.15H14.9055V46.05H14.8055V46.15ZM13.9145 46.15H13.8145V46.25H13.9145V46.15ZM13.9145 45.745V45.645H13.8145V45.745H13.9145ZM21.8795 45.745H21.9795V45.645H21.8795V45.745ZM21.8795 49.075V49.175H21.9795V49.075H21.8795ZM16.3085 46.15V46.05H16.2085V46.15H16.3085ZM16.3085 48.67H16.2085V48.77H16.3085V48.67ZM21.4745 48.67V48.77H21.5745V48.67H21.4745ZM21.4745 46.15H21.5745V46.05H21.4745V46.15ZM15.9035 51.595V51.695H16.0035V51.595H15.9035ZM15.9035 46.15H16.0035V46.05H15.9035V46.15ZM15.2195 46.15V46.05H15.1195V46.15H15.2195ZM15.2195 51.595H15.1195V51.695H15.2195V51.595ZM16.2085 49.075V51.595H16.4085V49.075H16.2085ZM16.3085 51.695H17.2085V51.495H16.3085V51.695ZM17.1085 51.595V52H17.3085V51.595H17.1085ZM17.2085 51.9H13.9145V52.1H17.2085V51.9ZM14.0145 52V51.595H13.8145V52H14.0145ZM13.9145 51.695H14.8055V51.495H13.9145V51.695ZM14.9055 51.595V46.15H14.7055V51.595H14.9055ZM14.8055 46.05H13.9145V46.25H14.8055V46.05ZM14.0145 46.15V45.745H13.8145V46.15H14.0145ZM13.9145 45.845H21.8795V45.645H13.9145V45.845ZM21.7795 45.745V49.075H21.9795V45.745H21.7795ZM21.8795 48.975H16.3085V49.175H21.8795V48.975ZM16.2085 46.15V48.67H16.4085V46.15H16.2085ZM16.3085 48.77H21.4745V48.57H16.3085V48.77ZM21.5745 48.67V46.15H21.3745V48.67H21.5745ZM21.4745 46.05H16.3085V46.25H21.4745V46.05ZM16.0035 51.595V46.15H15.8035V51.595H16.0035ZM15.9035 46.05H15.2195V46.25H15.9035V46.05ZM15.1195 46.15V51.595H15.3195V46.15H15.1195ZM15.2195 51.695H15.9035V51.495H15.2195V51.695ZM28.342 51.595H28.242V51.695H28.342V51.595ZM29.233 51.595H29.333V51.495H29.233V51.595ZM29.233 52V52.1H29.333V52H29.233ZM22.726 52H22.626V52.1H22.726V52ZM22.726 49.687V49.587H22.626V49.687H22.726ZM26.839 49.687V49.787H26.939V49.687H26.839ZM26.839 48.184H26.939V48.084H26.839V48.184ZM23.131 48.184V48.084H23.031V48.184H23.131ZM23.131 48.877V48.977H23.231V48.877H23.131ZM22.726 48.877H22.626V48.977H22.726V48.877ZM22.726 47.779V47.679H22.626V47.779H22.726ZM28.342 47.779H28.442V47.679H28.342V47.779ZM26.839 51.595V51.695H26.939V51.595H26.839ZM26.839 50.092H26.939V49.992H26.839V50.092ZM23.131 50.092V49.992H23.031V50.092H23.131ZM23.131 51.595H23.031V51.695H23.131V51.595ZM27.937 48.184H28.037V48.084H27.937V48.184ZM27.244 48.184V48.084H27.144V48.184H27.244ZM27.244 51.595H27.144V51.695H27.244V51.595ZM27.937 51.595V51.695H28.037V51.595H27.937ZM28.342 51.695H29.233V51.495H28.342V51.695ZM29.133 51.595V52H29.333V51.595H29.133ZM29.233 51.9H22.726V52.1H29.233V51.9ZM22.826 52V49.687H22.626V52H22.826ZM22.726 49.787H26.839V49.587H22.726V49.787ZM26.939 49.687V48.184H26.739V49.687H26.939ZM26.839 48.084H23.131V48.284H26.839V48.084ZM23.031 48.184V48.877H23.231V48.184H23.031ZM23.131 48.777H22.726V48.977H23.131V48.777ZM22.826 48.877V47.779H22.626V48.877H22.826ZM22.726 47.879H28.342V47.679H22.726V47.879ZM28.242 47.779V51.595H28.442V47.779H28.242ZM26.939 51.595V50.092H26.739V51.595H26.939ZM26.839 49.992H23.131V50.192H26.839V49.992ZM23.031 50.092V51.595H23.231V50.092H23.031ZM23.131 51.695H26.839V51.495H23.131V51.695ZM27.937 48.084H27.244V48.284H27.937V48.084ZM27.144 48.184V51.595H27.344V48.184H27.144ZM27.244 51.695H27.937V51.495H27.244V51.695ZM28.037 51.595V48.184H27.837V51.595H28.037ZM36.9649 51.595H37.0649V51.495H36.9649V51.595ZM36.9649 52V52.1H37.0649V52H36.9649ZM30.3859 52H30.2859V52.1H30.3859V52ZM30.3859 48.184H30.4859V48.084H30.3859V48.184ZM29.4949 48.184H29.3949V48.284H29.4949V48.184ZM29.4949 47.779V47.679H29.3949V47.779H29.4949ZM31.8889 47.779H31.9889V47.679H31.8889V47.779ZM31.8889 51.595H31.7889V51.695H31.8889V51.595ZM35.5969 51.595V51.695H35.6969V51.595H35.5969ZM35.5969 48.184H35.6969V48.084H35.5969V48.184ZM34.6339 48.184H34.5339V48.284H34.6339V48.184ZM34.6339 47.779V47.679H34.5339V47.779H34.6339ZM36.0019 47.779H36.1019V47.679H36.0019V47.779ZM36.0019 51.595H35.9019V51.695H36.0019V51.595ZM31.4839 48.184H31.5839V48.084H31.4839V48.184ZM30.7909 48.184V48.084H30.6909V48.184H30.7909ZM30.7909 51.595H30.6909V51.695H30.7909V51.595ZM31.4839 51.595V51.695H31.5839V51.595H31.4839ZM36.8649 51.595V52H37.0649V51.595H36.8649ZM36.9649 51.9H30.3859V52.1H36.9649V51.9ZM30.4859 52V48.184H30.2859V52H30.4859ZM30.3859 48.084H29.4949V48.284H30.3859V48.084ZM29.5949 48.184V47.779H29.3949V48.184H29.5949ZM29.4949 47.879H31.8889V47.679H29.4949V47.879ZM31.7889 47.779V51.595H31.9889V47.779H31.7889ZM31.8889 51.695H35.5969V51.495H31.8889V51.695ZM35.6969 51.595V48.184H35.4969V51.595H35.6969ZM35.5969 48.084H34.6339V48.284H35.5969V48.084ZM34.7339 48.184V47.779H34.5339V48.184H34.7339ZM34.6339 47.879H36.0019V47.679H34.6339V47.879ZM35.9019 47.779V51.595H36.1019V47.779H35.9019ZM36.0019 51.695H36.9649V51.495H36.0019V51.695ZM31.4839 48.084H30.7909V48.284H31.4839V48.084ZM30.6909 48.184V51.595H30.8909V48.184H30.6909ZM30.7909 51.695H31.4839V51.495H30.7909V51.695ZM31.5839 51.595V48.184H31.3839V51.595H31.5839ZM43.2218 47.779H43.3218V47.679H43.2218V47.779ZM43.2218 48.877V48.977H43.3218V48.877H43.2218ZM42.8168 48.877H42.7168V48.977H42.8168V48.877ZM42.8168 48.184H42.9168V48.084H42.8168V48.184ZM39.1088 48.184V48.084H39.0088V48.184H39.1088ZM39.1088 49.687H39.0088V49.787H39.1088V49.687ZM43.2218 49.687H43.3218V49.587H43.2218V49.687ZM43.2218 52V52.1H43.3218V52H43.2218ZM37.6058 52H37.5058V52.1H37.6058V52ZM37.6058 50.902V50.802H37.5058V50.902H37.6058ZM38.0108 50.902H38.1108V50.802H38.0108V50.902ZM38.0108 51.595H37.9108V51.695H38.0108V51.595ZM41.7188 51.595V51.695H41.8188V51.595H41.7188ZM41.7188 50.092H41.8188V49.992H41.7188V50.092ZM37.6058 50.092H37.5058V50.192H37.6058V50.092ZM37.6058 47.779V47.679H37.5058V47.779H37.6058ZM42.1238 50.092V49.992H42.0238V50.092H42.1238ZM42.1238 51.595H42.0238V51.695H42.1238V51.595ZM42.8168 51.595V51.695H42.9168V51.595H42.8168ZM42.8168 50.092H42.9168V49.992H42.8168V50.092ZM38.7038 48.184H38.8038V48.084H38.7038V48.184ZM38.0108 48.184V48.084H37.9108V48.184H38.0108ZM38.0108 49.687H37.9108V49.787H38.0108V49.687ZM38.7038 49.687V49.787H38.8038V49.687H38.7038ZM43.1218 47.779V48.877H43.3218V47.779H43.1218ZM43.2218 48.777H42.8168V48.977H43.2218V48.777ZM42.9168 48.877V48.184H42.7168V48.877H42.9168ZM42.8168 48.084H39.1088V48.284H42.8168V48.084ZM39.0088 48.184V49.687H39.2088V48.184H39.0088ZM39.1088 49.787H43.2218V49.587H39.1088V49.787ZM43.1218 49.687V52H43.3218V49.687H43.1218ZM43.2218 51.9H37.6058V52.1H43.2218V51.9ZM37.7058 52V50.902H37.5058V52H37.7058ZM37.6058 51.002H38.0108V50.802H37.6058V51.002ZM37.9108 50.902V51.595H38.1108V50.902H37.9108ZM38.0108 51.695H41.7188V51.495H38.0108V51.695ZM41.8188 51.595V50.092H41.6188V51.595H41.8188ZM41.7188 49.992H37.6058V50.192H41.7188V49.992ZM37.7058 50.092V47.779H37.5058V50.092H37.7058ZM37.6058 47.879H43.2218V47.679H37.6058V47.879ZM42.0238 50.092V51.595H42.2238V50.092H42.0238ZM42.1238 51.695H42.8168V51.495H42.1238V51.695ZM42.9168 51.595V50.092H42.7168V51.595H42.9168ZM42.8168 49.992H42.1238V50.192H42.8168V49.992ZM38.7038 48.084H38.0108V48.284H38.7038V48.084ZM37.9108 48.184V49.687H38.1108V48.184H37.9108ZM38.0108 49.787H38.7038V49.587H38.0108V49.787ZM38.8038 49.687V48.184H38.6038V49.687H38.8038ZM44.2602 47.779V47.679H44.1602V47.779H44.2602ZM49.8762 47.779H49.9762V47.679H49.8762V47.779ZM49.8762 50.092V50.192H49.9762V50.092H49.8762ZM45.7632 50.092V49.992H45.6632V50.092H45.7632ZM45.7632 51.595H45.6632V51.695H45.7632V51.595ZM49.4712 51.595V51.695H49.5712V51.595H49.4712ZM49.4712 50.902V50.802H49.3712V50.902H49.4712ZM49.8762 50.902H49.9762V50.802H49.8762V50.902ZM49.8762 52V52.1H49.9762V52H49.8762ZM44.2602 52H44.1602V52.1H44.2602V52ZM45.7632 48.184V48.084H45.6632V48.184H45.7632ZM45.7632 49.687H45.6632V49.787H45.7632V49.687ZM49.4712 49.687V49.787H49.5712V49.687H49.4712ZM49.4712 48.184H49.5712V48.084H49.4712V48.184ZM44.6652 51.595H44.5652V51.695H44.6652V51.595ZM45.3582 51.595V51.695H45.4582V51.595H45.3582ZM45.3582 48.184H45.4582V48.084H45.3582V48.184ZM44.6652 48.184V48.084H44.5652V48.184H44.6652ZM44.2602 47.879H49.8762V47.679H44.2602V47.879ZM49.7762 47.779V50.092H49.9762V47.779H49.7762ZM49.8762 49.992H45.7632V50.192H49.8762V49.992ZM45.6632 50.092V51.595H45.8632V50.092H45.6632ZM45.7632 51.695H49.4712V51.495H45.7632V51.695ZM49.5712 51.595V50.902H49.3712V51.595H49.5712ZM49.4712 51.002H49.8762V50.802H49.4712V51.002ZM49.7762 50.902V52H49.9762V50.902H49.7762ZM49.8762 51.9H44.2602V52.1H49.8762V51.9ZM44.3602 52V47.779H44.1602V52H44.3602ZM45.6632 48.184V49.687H45.8632V48.184H45.6632ZM45.7632 49.787H49.4712V49.587H45.7632V49.787ZM49.5712 49.687V48.184H49.3712V49.687H49.5712ZM49.4712 48.084H45.7632V48.284H49.4712V48.084ZM44.6652 51.695H45.3582V51.495H44.6652V51.695ZM45.4582 51.595V48.184H45.2582V51.595H45.4582ZM45.3582 48.084H44.6652V48.284H45.3582V48.084ZM44.5652 48.184V51.595H44.7652V48.184H44.5652Z" fill="white" mask="url(#path-5-outside-2_533_435)"/>
<rect x="4.5" y="72.5" width="55" height="25" rx="3.5" fill="white" stroke="#414FB0"/>
<mask id="path-8-outside-3_533_435" maskUnits="userSpaceOnUse" x="13" y="81" width="37" height="8" fill="black">
<rect fill="white" x="13" y="81" width="37" height="8"/>
<path d="M16.3085 85.075V87.595H17.2085V88H13.9145V87.595H14.8055V82.15H13.9145V81.745H21.8795V85.075H16.3085ZM16.3085 82.15V84.67H21.4745V82.15H16.3085ZM15.9035 87.595V82.15H15.2195V87.595H15.9035ZM28.342 87.595H29.233V88H22.726V85.687H26.839V84.184H23.131V84.877H22.726V83.779H28.342V87.595ZM26.839 87.595V86.092H23.131V87.595H26.839ZM27.937 84.184H27.244V87.595H27.937V84.184ZM36.9649 87.595V88H30.3859V84.184H29.4949V83.779H31.8889V87.595H35.5969V84.184H34.6339V83.779H36.0019V87.595H36.9649ZM31.4839 84.184H30.7909V87.595H31.4839V84.184ZM43.2218 83.779V84.877H42.8168V84.184H39.1088V85.687H43.2218V88H37.6058V86.902H38.0108V87.595H41.7188V86.092H37.6058V83.779H43.2218ZM42.1238 86.092V87.595H42.8168V86.092H42.1238ZM38.7038 84.184H38.0108V85.687H38.7038V84.184ZM44.2602 83.779H49.8762V86.092H45.7632V87.595H49.4712V86.902H49.8762V88H44.2602V83.779ZM45.7632 84.184V85.687H49.4712V84.184H45.7632ZM44.6652 87.595H45.3582V84.184H44.6652V87.595Z"/>
</mask>
<path d="M16.3085 85.075V87.595H17.2085V88H13.9145V87.595H14.8055V82.15H13.9145V81.745H21.8795V85.075H16.3085ZM16.3085 82.15V84.67H21.4745V82.15H16.3085ZM15.9035 87.595V82.15H15.2195V87.595H15.9035ZM28.342 87.595H29.233V88H22.726V85.687H26.839V84.184H23.131V84.877H22.726V83.779H28.342V87.595ZM26.839 87.595V86.092H23.131V87.595H26.839ZM27.937 84.184H27.244V87.595H27.937V84.184ZM36.9649 87.595V88H30.3859V84.184H29.4949V83.779H31.8889V87.595H35.5969V84.184H34.6339V83.779H36.0019V87.595H36.9649ZM31.4839 84.184H30.7909V87.595H31.4839V84.184ZM43.2218 83.779V84.877H42.8168V84.184H39.1088V85.687H43.2218V88H37.6058V86.902H38.0108V87.595H41.7188V86.092H37.6058V83.779H43.2218ZM42.1238 86.092V87.595H42.8168V86.092H42.1238ZM38.7038 84.184H38.0108V85.687H38.7038V84.184ZM44.2602 83.779H49.8762V86.092H45.7632V87.595H49.4712V86.902H49.8762V88H44.2602V83.779ZM45.7632 84.184V85.687H49.4712V84.184H45.7632ZM44.6652 87.595H45.3582V84.184H44.6652V87.595Z" fill="black"/>
<path d="M16.3085 85.075V84.975H16.2085V85.075H16.3085ZM16.3085 87.595H16.2085V87.695H16.3085V87.595ZM17.2085 87.595H17.3085V87.495H17.2085V87.595ZM17.2085 88V88.1H17.3085V88H17.2085ZM13.9145 88H13.8145V88.1H13.9145V88ZM13.9145 87.595V87.495H13.8145V87.595H13.9145ZM14.8055 87.595V87.695H14.9055V87.595H14.8055ZM14.8055 82.15H14.9055V82.05H14.8055V82.15ZM13.9145 82.15H13.8145V82.25H13.9145V82.15ZM13.9145 81.745V81.645H13.8145V81.745H13.9145ZM21.8795 81.745H21.9795V81.645H21.8795V81.745ZM21.8795 85.075V85.175H21.9795V85.075H21.8795ZM16.3085 82.15V82.05H16.2085V82.15H16.3085ZM16.3085 84.67H16.2085V84.77H16.3085V84.67ZM21.4745 84.67V84.77H21.5745V84.67H21.4745ZM21.4745 82.15H21.5745V82.05H21.4745V82.15ZM15.9035 87.595V87.695H16.0035V87.595H15.9035ZM15.9035 82.15H16.0035V82.05H15.9035V82.15ZM15.2195 82.15V82.05H15.1195V82.15H15.2195ZM15.2195 87.595H15.1195V87.695H15.2195V87.595ZM16.2085 85.075V87.595H16.4085V85.075H16.2085ZM16.3085 87.695H17.2085V87.495H16.3085V87.695ZM17.1085 87.595V88H17.3085V87.595H17.1085ZM17.2085 87.9H13.9145V88.1H17.2085V87.9ZM14.0145 88V87.595H13.8145V88H14.0145ZM13.9145 87.695H14.8055V87.495H13.9145V87.695ZM14.9055 87.595V82.15H14.7055V87.595H14.9055ZM14.8055 82.05H13.9145V82.25H14.8055V82.05ZM14.0145 82.15V81.745H13.8145V82.15H14.0145ZM13.9145 81.845H21.8795V81.645H13.9145V81.845ZM21.7795 81.745V85.075H21.9795V81.745H21.7795ZM21.8795 84.975H16.3085V85.175H21.8795V84.975ZM16.2085 82.15V84.67H16.4085V82.15H16.2085ZM16.3085 84.77H21.4745V84.57H16.3085V84.77ZM21.5745 84.67V82.15H21.3745V84.67H21.5745ZM21.4745 82.05H16.3085V82.25H21.4745V82.05ZM16.0035 87.595V82.15H15.8035V87.595H16.0035ZM15.9035 82.05H15.2195V82.25H15.9035V82.05ZM15.1195 82.15V87.595H15.3195V82.15H15.1195ZM15.2195 87.695H15.9035V87.495H15.2195V87.695ZM28.342 87.595H28.242V87.695H28.342V87.595ZM29.233 87.595H29.333V87.495H29.233V87.595ZM29.233 88V88.1H29.333V88H29.233ZM22.726 88H22.626V88.1H22.726V88ZM22.726 85.687V85.587H22.626V85.687H22.726ZM26.839 85.687V85.787H26.939V85.687H26.839ZM26.839 84.184H26.939V84.084H26.839V84.184ZM23.131 84.184V84.084H23.031V84.184H23.131ZM23.131 84.877V84.977H23.231V84.877H23.131ZM22.726 84.877H22.626V84.977H22.726V84.877ZM22.726 83.779V83.679H22.626V83.779H22.726ZM28.342 83.779H28.442V83.679H28.342V83.779ZM26.839 87.595V87.695H26.939V87.595H26.839ZM26.839 86.092H26.939V85.992H26.839V86.092ZM23.131 86.092V85.992H23.031V86.092H23.131ZM23.131 87.595H23.031V87.695H23.131V87.595ZM27.937 84.184H28.037V84.084H27.937V84.184ZM27.244 84.184V84.084H27.144V84.184H27.244ZM27.244 87.595H27.144V87.695H27.244V87.595ZM27.937 87.595V87.695H28.037V87.595H27.937ZM28.342 87.695H29.233V87.495H28.342V87.695ZM29.133 87.595V88H29.333V87.595H29.133ZM29.233 87.9H22.726V88.1H29.233V87.9ZM22.826 88V85.687H22.626V88H22.826ZM22.726 85.787H26.839V85.587H22.726V85.787ZM26.939 85.687V84.184H26.739V85.687H26.939ZM26.839 84.084H23.131V84.284H26.839V84.084ZM23.031 84.184V84.877H23.231V84.184H23.031ZM23.131 84.777H22.726V84.977H23.131V84.777ZM22.826 84.877V83.779H22.626V84.877H22.826ZM22.726 83.879H28.342V83.679H22.726V83.879ZM28.242 83.779V87.595H28.442V83.779H28.242ZM26.939 87.595V86.092H26.739V87.595H26.939ZM26.839 85.992H23.131V86.192H26.839V85.992ZM23.031 86.092V87.595H23.231V86.092H23.031ZM23.131 87.695H26.839V87.495H23.131V87.695ZM27.937 84.084H27.244V84.284H27.937V84.084ZM27.144 84.184V87.595H27.344V84.184H27.144ZM27.244 87.695H27.937V87.495H27.244V87.695ZM28.037 87.595V84.184H27.837V87.595H28.037ZM36.9649 87.595H37.0649V87.495H36.9649V87.595ZM36.9649 88V88.1H37.0649V88H36.9649ZM30.3859 88H30.2859V88.1H30.3859V88ZM30.3859 84.184H30.4859V84.084H30.3859V84.184ZM29.4949 84.184H29.3949V84.284H29.4949V84.184ZM29.4949 83.779V83.679H29.3949V83.779H29.4949ZM31.8889 83.779H31.9889V83.679H31.8889V83.779ZM31.8889 87.595H31.7889V87.695H31.8889V87.595ZM35.5969 87.595V87.695H35.6969V87.595H35.5969ZM35.5969 84.184H35.6969V84.084H35.5969V84.184ZM34.6339 84.184H34.5339V84.284H34.6339V84.184ZM34.6339 83.779V83.679H34.5339V83.779H34.6339ZM36.0019 83.779H36.1019V83.679H36.0019V83.779ZM36.0019 87.595H35.9019V87.695H36.0019V87.595ZM31.4839 84.184H31.5839V84.084H31.4839V84.184ZM30.7909 84.184V84.084H30.6909V84.184H30.7909ZM30.7909 87.595H30.6909V87.695H30.7909V87.595ZM31.4839 87.595V87.695H31.5839V87.595H31.4839ZM36.8649 87.595V88H37.0649V87.595H36.8649ZM36.9649 87.9H30.3859V88.1H36.9649V87.9ZM30.4859 88V84.184H30.2859V88H30.4859ZM30.3859 84.084H29.4949V84.284H30.3859V84.084ZM29.5949 84.184V83.779H29.3949V84.184H29.5949ZM29.4949 83.879H31.8889V83.679H29.4949V83.879ZM31.7889 83.779V87.595H31.9889V83.779H31.7889ZM31.8889 87.695H35.5969V87.495H31.8889V87.695ZM35.6969 87.595V84.184H35.4969V87.595H35.6969ZM35.5969 84.084H34.6339V84.284H35.5969V84.084ZM34.7339 84.184V83.779H34.5339V84.184H34.7339ZM34.6339 83.879H36.0019V83.679H34.6339V83.879ZM35.9019 83.779V87.595H36.1019V83.779H35.9019ZM36.0019 87.695H36.9649V87.495H36.0019V87.695ZM31.4839 84.084H30.7909V84.284H31.4839V84.084ZM30.6909 84.184V87.595H30.8909V84.184H30.6909ZM30.7909 87.695H31.4839V87.495H30.7909V87.695ZM31.5839 87.595V84.184H31.3839V87.595H31.5839ZM43.2218 83.779H43.3218V83.679H43.2218V83.779ZM43.2218 84.877V84.977H43.3218V84.877H43.2218ZM42.8168 84.877H42.7168V84.977H42.8168V84.877ZM42.8168 84.184H42.9168V84.084H42.8168V84.184ZM39.1088 84.184V84.084H39.0088V84.184H39.1088ZM39.1088 85.687H39.0088V85.787H39.1088V85.687ZM43.2218 85.687H43.3218V85.587H43.2218V85.687ZM43.2218 88V88.1H43.3218V88H43.2218ZM37.6058 88H37.5058V88.1H37.6058V88ZM37.6058 86.902V86.802H37.5058V86.902H37.6058ZM38.0108 86.902H38.1108V86.802H38.0108V86.902ZM38.0108 87.595H37.9108V87.695H38.0108V87.595ZM41.7188 87.595V87.695H41.8188V87.595H41.7188ZM41.7188 86.092H41.8188V85.992H41.7188V86.092ZM37.6058 86.092H37.5058V86.192H37.6058V86.092ZM37.6058 83.779V83.679H37.5058V83.779H37.6058ZM42.1238 86.092V85.992H42.0238V86.092H42.1238ZM42.1238 87.595H42.0238V87.695H42.1238V87.595ZM42.8168 87.595V87.695H42.9168V87.595H42.8168ZM42.8168 86.092H42.9168V85.992H42.8168V86.092ZM38.7038 84.184H38.8038V84.084H38.7038V84.184ZM38.0108 84.184V84.084H37.9108V84.184H38.0108ZM38.0108 85.687H37.9108V85.787H38.0108V85.687ZM38.7038 85.687V85.787H38.8038V85.687H38.7038ZM43.1218 83.779V84.877H43.3218V83.779H43.1218ZM43.2218 84.777H42.8168V84.977H43.2218V84.777ZM42.9168 84.877V84.184H42.7168V84.877H42.9168ZM42.8168 84.084H39.1088V84.284H42.8168V84.084ZM39.0088 84.184V85.687H39.2088V84.184H39.0088ZM39.1088 85.787H43.2218V85.587H39.1088V85.787ZM43.1218 85.687V88H43.3218V85.687H43.1218ZM43.2218 87.9H37.6058V88.1H43.2218V87.9ZM37.7058 88V86.902H37.5058V88H37.7058ZM37.6058 87.002H38.0108V86.802H37.6058V87.002ZM37.9108 86.902V87.595H38.1108V86.902H37.9108ZM38.0108 87.695H41.7188V87.495H38.0108V87.695ZM41.8188 87.595V86.092H41.6188V87.595H41.8188ZM41.7188 85.992H37.6058V86.192H41.7188V85.992ZM37.7058 86.092V83.779H37.5058V86.092H37.7058ZM37.6058 83.879H43.2218V83.679H37.6058V83.879ZM42.0238 86.092V87.595H42.2238V86.092H42.0238ZM42.1238 87.695H42.8168V87.495H42.1238V87.695ZM42.9168 87.595V86.092H42.7168V87.595H42.9168ZM42.8168 85.992H42.1238V86.192H42.8168V85.992ZM38.7038 84.084H38.0108V84.284H38.7038V84.084ZM37.9108 84.184V85.687H38.1108V84.184H37.9108ZM38.0108 85.787H38.7038V85.587H38.0108V85.787ZM38.8038 85.687V84.184H38.6038V85.687H38.8038ZM44.2602 83.779V83.679H44.1602V83.779H44.2602ZM49.8762 83.779H49.9762V83.679H49.8762V83.779ZM49.8762 86.092V86.192H49.9762V86.092H49.8762ZM45.7632 86.092V85.992H45.6632V86.092H45.7632ZM45.7632 87.595H45.6632V87.695H45.7632V87.595ZM49.4712 87.595V87.695H49.5712V87.595H49.4712ZM49.4712 86.902V86.802H49.3712V86.902H49.4712ZM49.8762 86.902H49.9762V86.802H49.8762V86.902ZM49.8762 88V88.1H49.9762V88H49.8762ZM44.2602 88H44.1602V88.1H44.2602V88ZM45.7632 84.184V84.084H45.6632V84.184H45.7632ZM45.7632 85.687H45.6632V85.787H45.7632V85.687ZM49.4712 85.687V85.787H49.5712V85.687H49.4712ZM49.4712 84.184H49.5712V84.084H49.4712V84.184ZM44.6652 87.595H44.5652V87.695H44.6652V87.595ZM45.3582 87.595V87.695H45.4582V87.595H45.3582ZM45.3582 84.184H45.4582V84.084H45.3582V84.184ZM44.6652 84.184V84.084H44.5652V84.184H44.6652ZM44.2602 83.879H49.8762V83.679H44.2602V83.879ZM49.7762 83.779V86.092H49.9762V83.779H49.7762ZM49.8762 85.992H45.7632V86.192H49.8762V85.992ZM45.6632 86.092V87.595H45.8632V86.092H45.6632ZM45.7632 87.695H49.4712V87.495H45.7632V87.695ZM49.5712 87.595V86.902H49.3712V87.595H49.5712ZM49.4712 87.002H49.8762V86.802H49.4712V87.002ZM49.7762 86.902V88H49.9762V86.902H49.7762ZM49.8762 87.9H44.2602V88.1H49.8762V87.9ZM44.3602 88V83.779H44.1602V88H44.3602ZM45.6632 84.184V85.687H45.8632V84.184H45.6632ZM45.7632 85.787H49.4712V85.587H45.7632V85.787ZM49.5712 85.687V84.184H49.3712V85.687H49.5712ZM49.4712 84.084H45.7632V84.284H49.4712V84.084ZM44.6652 87.695H45.3582V87.495H44.6652V87.695ZM45.4582 87.595V84.184H45.2582V87.595H45.4582ZM45.3582 84.084H44.6652V84.284H45.3582V84.084ZM44.5652 84.184V87.595H44.7652V84.184H44.5652Z" fill="black" mask="url(#path-8-outside-3_533_435)"/>
</svg>
