<svg width="40" height="252" viewBox="0 0 40 252" fill="none" xmlns="http://www.w3.org/2000/svg">
<rect x="4.5" y="108.5" width="31" height="25" rx="3.5" fill="#EB6E91" stroke="#EB6E91"/>
<mask id="path-2-outside-1_551_531" maskUnits="userSpaceOnUse" x="12" y="117" width="16" height="8" fill="black">
<rect fill="white" x="12" y="117" width="16" height="8"/>
<path d="M20.2298 119.41V118.15H14.7938V123.595H20.2298V121.075H16.7828V120.67H20.6348V124H12.3908V123.595H13.2908V118.15H12.3908V117.745H20.6348V119.41H20.2298ZM14.3798 118.15H13.6958V123.595H14.3798V118.15ZM27.3469 124H21.7309V119.779H27.3469V124ZM26.9419 120.184H23.2339V123.595H26.9419V120.184ZM22.8289 120.184H22.1359V123.595H22.8289V120.184Z"/>
</mask>
<path d="M20.2298 119.41V118.15H14.7938V123.595H20.2298V121.075H16.7828V120.67H20.6348V124H12.3908V123.595H13.2908V118.15H12.3908V117.745H20.6348V119.41H20.2298ZM14.3798 118.15H13.6958V123.595H14.3798V118.15ZM27.3469 124H21.7309V119.779H27.3469V124ZM26.9419 120.184H23.2339V123.595H26.9419V120.184ZM22.8289 120.184H22.1359V123.595H22.8289V120.184Z" fill="white"/>
<path d="M20.2298 119.41H20.1298V119.51H20.2298V119.41ZM20.2298 118.15H20.3298V118.05H20.2298V118.15ZM14.7938 118.15V118.05H14.6938V118.15H14.7938ZM14.7938 123.595H14.6938V123.695H14.7938V123.595ZM20.2298 123.595V123.695H20.3298V123.595H20.2298ZM20.2298 121.075H20.3298V120.975H20.2298V121.075ZM16.7828 121.075H16.6828V121.175H16.7828V121.075ZM16.7828 120.67V120.57H16.6828V120.67H16.7828ZM20.6348 120.67H20.7348V120.57H20.6348V120.67ZM20.6348 124V124.1H20.7348V124H20.6348ZM12.3908 124H12.2908V124.1H12.3908V124ZM12.3908 123.595V123.495H12.2908V123.595H12.3908ZM13.2908 123.595V123.695H13.3908V123.595H13.2908ZM13.2908 118.15H13.3908V118.05H13.2908V118.15ZM12.3908 118.15H12.2908V118.25H12.3908V118.15ZM12.3908 117.745V117.645H12.2908V117.745H12.3908ZM20.6348 117.745H20.7348V117.645H20.6348V117.745ZM20.6348 119.41V119.51H20.7348V119.41H20.6348ZM14.3798 118.15H14.4798V118.05H14.3798V118.15ZM13.6958 118.15V118.05H13.5958V118.15H13.6958ZM13.6958 123.595H13.5958V123.695H13.6958V123.595ZM14.3798 123.595V123.695H14.4798V123.595H14.3798ZM20.3298 119.41V118.15H20.1298V119.41H20.3298ZM20.2298 118.05H14.7938V118.25H20.2298V118.05ZM14.6938 118.15V123.595H14.8938V118.15H14.6938ZM14.7938 123.695H20.2298V123.495H14.7938V123.695ZM20.3298 123.595V121.075H20.1298V123.595H20.3298ZM20.2298 120.975H16.7828V121.175H20.2298V120.975ZM16.8828 121.075V120.67H16.6828V121.075H16.8828ZM16.7828 120.77H20.6348V120.57H16.7828V120.77ZM20.5348 120.67V124H20.7348V120.67H20.5348ZM20.6348 123.9H12.3908V124.1H20.6348V123.9ZM12.4908 124V123.595H12.2908V124H12.4908ZM12.3908 123.695H13.2908V123.495H12.3908V123.695ZM13.3908 123.595V118.15H13.1908V123.595H13.3908ZM13.2908 118.05H12.3908V118.25H13.2908V118.05ZM12.4908 118.15V117.745H12.2908V118.15H12.4908ZM12.3908 117.845H20.6348V117.645H12.3908V117.845ZM20.5348 117.745V119.41H20.7348V117.745H20.5348ZM20.6348 119.31H20.2298V119.51H20.6348V119.31ZM14.3798 118.05H13.6958V118.25H14.3798V118.05ZM13.5958 118.15V123.595H13.7958V118.15H13.5958ZM13.6958 123.695H14.3798V123.495H13.6958V123.695ZM14.4798 123.595V118.15H14.2798V123.595H14.4798ZM27.3469 124V124.1H27.4469V124H27.3469ZM21.7309 124H21.6309V124.1H21.7309V124ZM21.7309 119.779V119.679H21.6309V119.779H21.7309ZM27.3469 119.779H27.4469V119.679H27.3469V119.779ZM26.9419 120.184H27.0419V120.084H26.9419V120.184ZM23.2339 120.184V120.084H23.1339V120.184H23.2339ZM23.2339 123.595H23.1339V123.695H23.2339V123.595ZM26.9419 123.595V123.695H27.0419V123.595H26.9419ZM22.8289 120.184H22.9289V120.084H22.8289V120.184ZM22.1359 120.184V120.084H22.0359V120.184H22.1359ZM22.1359 123.595H22.0359V123.695H22.1359V123.595ZM22.8289 123.595V123.695H22.9289V123.595H22.8289ZM27.3469 123.9H21.7309V124.1H27.3469V123.9ZM21.8309 124V119.779H21.6309V124H21.8309ZM21.7309 119.879H27.3469V119.679H21.7309V119.879ZM27.2469 119.779V124H27.4469V119.779H27.2469ZM26.9419 120.084H23.2339V120.284H26.9419V120.084ZM23.1339 120.184V123.595H23.3339V120.184H23.1339ZM23.2339 123.695H26.9419V123.495H23.2339V123.695ZM27.0419 123.595V120.184H26.8419V123.595H27.0419ZM22.8289 120.084H22.1359V120.284H22.8289V120.084ZM22.0359 120.184V123.595H22.2359V120.184H22.0359ZM22.1359 123.695H22.8289V123.495H22.1359V123.695ZM22.9289 123.595V120.184H22.7289V123.595H22.9289Z" fill="white" mask="url(#path-2-outside-1_551_531)"/>
<rect x="4.5" y="144.5" width="31" height="25" rx="3.5" fill="white" stroke="#EB6E91"/>
<mask id="path-5-outside-2_551_531" maskUnits="userSpaceOnUse" x="12" y="153" width="16" height="8" fill="black">
<rect fill="white" x="12" y="153" width="16" height="8"/>
<path d="M20.2298 155.41V154.15H14.7938V159.595H20.2298V157.075H16.7828V156.67H20.6348V160H12.3908V159.595H13.2908V154.15H12.3908V153.745H20.6348V155.41H20.2298ZM14.3798 154.15H13.6958V159.595H14.3798V154.15ZM27.3469 160H21.7309V155.779H27.3469V160ZM26.9419 156.184H23.2339V159.595H26.9419V156.184ZM22.8289 156.184H22.1359V159.595H22.8289V156.184Z"/>
</mask>
<path d="M20.2298 155.41V154.15H14.7938V159.595H20.2298V157.075H16.7828V156.67H20.6348V160H12.3908V159.595H13.2908V154.15H12.3908V153.745H20.6348V155.41H20.2298ZM14.3798 154.15H13.6958V159.595H14.3798V154.15ZM27.3469 160H21.7309V155.779H27.3469V160ZM26.9419 156.184H23.2339V159.595H26.9419V156.184ZM22.8289 156.184H22.1359V159.595H22.8289V156.184Z" fill="black"/>
<path d="M20.2298 155.41H20.1298V155.51H20.2298V155.41ZM20.2298 154.15H20.3298V154.05H20.2298V154.15ZM14.7938 154.15V154.05H14.6938V154.15H14.7938ZM14.7938 159.595H14.6938V159.695H14.7938V159.595ZM20.2298 159.595V159.695H20.3298V159.595H20.2298ZM20.2298 157.075H20.3298V156.975H20.2298V157.075ZM16.7828 157.075H16.6828V157.175H16.7828V157.075ZM16.7828 156.67V156.57H16.6828V156.67H16.7828ZM20.6348 156.67H20.7348V156.57H20.6348V156.67ZM20.6348 160V160.1H20.7348V160H20.6348ZM12.3908 160H12.2908V160.1H12.3908V160ZM12.3908 159.595V159.495H12.2908V159.595H12.3908ZM13.2908 159.595V159.695H13.3908V159.595H13.2908ZM13.2908 154.15H13.3908V154.05H13.2908V154.15ZM12.3908 154.15H12.2908V154.25H12.3908V154.15ZM12.3908 153.745V153.645H12.2908V153.745H12.3908ZM20.6348 153.745H20.7348V153.645H20.6348V153.745ZM20.6348 155.41V155.51H20.7348V155.41H20.6348ZM14.3798 154.15H14.4798V154.05H14.3798V154.15ZM13.6958 154.15V154.05H13.5958V154.15H13.6958ZM13.6958 159.595H13.5958V159.695H13.6958V159.595ZM14.3798 159.595V159.695H14.4798V159.595H14.3798ZM20.3298 155.41V154.15H20.1298V155.41H20.3298ZM20.2298 154.05H14.7938V154.25H20.2298V154.05ZM14.6938 154.15V159.595H14.8938V154.15H14.6938ZM14.7938 159.695H20.2298V159.495H14.7938V159.695ZM20.3298 159.595V157.075H20.1298V159.595H20.3298ZM20.2298 156.975H16.7828V157.175H20.2298V156.975ZM16.8828 157.075V156.67H16.6828V157.075H16.8828ZM16.7828 156.77H20.6348V156.57H16.7828V156.77ZM20.5348 156.67V160H20.7348V156.67H20.5348ZM20.6348 159.9H12.3908V160.1H20.6348V159.9ZM12.4908 160V159.595H12.2908V160H12.4908ZM12.3908 159.695H13.2908V159.495H12.3908V159.695ZM13.3908 159.595V154.15H13.1908V159.595H13.3908ZM13.2908 154.05H12.3908V154.25H13.2908V154.05ZM12.4908 154.15V153.745H12.2908V154.15H12.4908ZM12.3908 153.845H20.6348V153.645H12.3908V153.845ZM20.5348 153.745V155.41H20.7348V153.745H20.5348ZM20.6348 155.31H20.2298V155.51H20.6348V155.31ZM14.3798 154.05H13.6958V154.25H14.3798V154.05ZM13.5958 154.15V159.595H13.7958V154.15H13.5958ZM13.6958 159.695H14.3798V159.495H13.6958V159.695ZM14.4798 159.595V154.15H14.2798V159.595H14.4798ZM27.3469 160V160.1H27.4469V160H27.3469ZM21.7309 160H21.6309V160.1H21.7309V160ZM21.7309 155.779V155.679H21.6309V155.779H21.7309ZM27.3469 155.779H27.4469V155.679H27.3469V155.779ZM26.9419 156.184H27.0419V156.084H26.9419V156.184ZM23.2339 156.184V156.084H23.1339V156.184H23.2339ZM23.2339 159.595H23.1339V159.695H23.2339V159.595ZM26.9419 159.595V159.695H27.0419V159.595H26.9419ZM22.8289 156.184H22.9289V156.084H22.8289V156.184ZM22.1359 156.184V156.084H22.0359V156.184H22.1359ZM22.1359 159.595H22.0359V159.695H22.1359V159.595ZM22.8289 159.595V159.695H22.9289V159.595H22.8289ZM27.3469 159.9H21.7309V160.1H27.3469V159.9ZM21.8309 160V155.779H21.6309V160H21.8309ZM21.7309 155.879H27.3469V155.679H21.7309V155.879ZM27.2469 155.779V160H27.4469V155.779H27.2469ZM26.9419 156.084H23.2339V156.284H26.9419V156.084ZM23.1339 156.184V159.595H23.3339V156.184H23.1339ZM23.2339 159.695H26.9419V159.495H23.2339V159.695ZM27.0419 159.595V156.184H26.8419V159.595H27.0419ZM22.8289 156.084H22.1359V156.284H22.8289V156.084ZM22.0359 156.184V159.595H22.2359V156.184H22.0359ZM22.1359 159.695H22.8289V159.495H22.1359V159.695ZM22.9289 159.595V156.184H22.7289V159.595H22.9289Z" fill="black" mask="url(#path-5-outside-2_551_531)"/>
<rect x="4.5" y="0.5" width="31" height="25" rx="3.5" fill="white" stroke="#959595"/>
<mask id="path-8-outside-3_551_531" maskUnits="userSpaceOnUse" x="12" y="9" width="16" height="8" fill="black">
<rect fill="white" x="12" y="9" width="16" height="8"/>
<path d="M20.2298 11.41V10.15H14.7938V15.595H20.2298V13.075H16.7828V12.67H20.6348V16H12.3908V15.595H13.2908V10.15H12.3908V9.745H20.6348V11.41H20.2298ZM14.3798 10.15H13.6958V15.595H14.3798V10.15ZM27.3469 16H21.7309V11.779H27.3469V16ZM26.9419 12.184H23.2339V15.595H26.9419V12.184ZM22.8289 12.184H22.1359V15.595H22.8289V12.184Z"/>
</mask>
<path d="M20.2298 11.41V10.15H14.7938V15.595H20.2298V13.075H16.7828V12.67H20.6348V16H12.3908V15.595H13.2908V10.15H12.3908V9.745H20.6348V11.41H20.2298ZM14.3798 10.15H13.6958V15.595H14.3798V10.15ZM27.3469 16H21.7309V11.779H27.3469V16ZM26.9419 12.184H23.2339V15.595H26.9419V12.184ZM22.8289 12.184H22.1359V15.595H22.8289V12.184Z" fill="black"/>
<path d="M20.2298 11.41H20.1298V11.51H20.2298V11.41ZM20.2298 10.15H20.3298V10.05H20.2298V10.15ZM14.7938 10.15V10.05H14.6938V10.15H14.7938ZM14.7938 15.595H14.6938V15.695H14.7938V15.595ZM20.2298 15.595V15.695H20.3298V15.595H20.2298ZM20.2298 13.075H20.3298V12.975H20.2298V13.075ZM16.7828 13.075H16.6828V13.175H16.7828V13.075ZM16.7828 12.67V12.57H16.6828V12.67H16.7828ZM20.6348 12.67H20.7348V12.57H20.6348V12.67ZM20.6348 16V16.1H20.7348V16H20.6348ZM12.3908 16H12.2908V16.1H12.3908V16ZM12.3908 15.595V15.495H12.2908V15.595H12.3908ZM13.2908 15.595V15.695H13.3908V15.595H13.2908ZM13.2908 10.15H13.3908V10.05H13.2908V10.15ZM12.3908 10.15H12.2908V10.25H12.3908V10.15ZM12.3908 9.745V9.645H12.2908V9.745H12.3908ZM20.6348 9.745H20.7348V9.645H20.6348V9.745ZM20.6348 11.41V11.51H20.7348V11.41H20.6348ZM14.3798 10.15H14.4798V10.05H14.3798V10.15ZM13.6958 10.15V10.05H13.5958V10.15H13.6958ZM13.6958 15.595H13.5958V15.695H13.6958V15.595ZM14.3798 15.595V15.695H14.4798V15.595H14.3798ZM20.3298 11.41V10.15H20.1298V11.41H20.3298ZM20.2298 10.05H14.7938V10.25H20.2298V10.05ZM14.6938 10.15V15.595H14.8938V10.15H14.6938ZM14.7938 15.695H20.2298V15.495H14.7938V15.695ZM20.3298 15.595V13.075H20.1298V15.595H20.3298ZM20.2298 12.975H16.7828V13.175H20.2298V12.975ZM16.8828 13.075V12.67H16.6828V13.075H16.8828ZM16.7828 12.77H20.6348V12.57H16.7828V12.77ZM20.5348 12.67V16H20.7348V12.67H20.5348ZM20.6348 15.9H12.3908V16.1H20.6348V15.9ZM12.4908 16V15.595H12.2908V16H12.4908ZM12.3908 15.695H13.2908V15.495H12.3908V15.695ZM13.3908 15.595V10.15H13.1908V15.595H13.3908ZM13.2908 10.05H12.3908V10.25H13.2908V10.05ZM12.4908 10.15V9.745H12.2908V10.15H12.4908ZM12.3908 9.845H20.6348V9.645H12.3908V9.845ZM20.5348 9.745V11.41H20.7348V9.745H20.5348ZM20.6348 11.31H20.2298V11.51H20.6348V11.31ZM14.3798 10.05H13.6958V10.25H14.3798V10.05ZM13.5958 10.15V15.595H13.7958V10.15H13.5958ZM13.6958 15.695H14.3798V15.495H13.6958V15.695ZM14.4798 15.595V10.15H14.2798V15.595H14.4798ZM27.3469 16V16.1H27.4469V16H27.3469ZM21.7309 16H21.6309V16.1H21.7309V16ZM21.7309 11.779V11.679H21.6309V11.779H21.7309ZM27.3469 11.779H27.4469V11.679H27.3469V11.779ZM26.9419 12.184H27.0419V12.084H26.9419V12.184ZM23.2339 12.184V12.084H23.1339V12.184H23.2339ZM23.2339 15.595H23.1339V15.695H23.2339V15.595ZM26.9419 15.595V15.695H27.0419V15.595H26.9419ZM22.8289 12.184H22.9289V12.084H22.8289V12.184ZM22.1359 12.184V12.084H22.0359V12.184H22.1359ZM22.1359 15.595H22.0359V15.695H22.1359V15.595ZM22.8289 15.595V15.695H22.9289V15.595H22.8289ZM27.3469 15.9H21.7309V16.1H27.3469V15.9ZM21.8309 16V11.779H21.6309V16H21.8309ZM21.7309 11.879H27.3469V11.679H21.7309V11.879ZM27.2469 11.779V16H27.4469V11.779H27.2469ZM26.9419 12.084H23.2339V12.284H26.9419V12.084ZM23.1339 12.184V15.595H23.3339V12.184H23.1339ZM23.2339 15.695H26.9419V15.495H23.2339V15.695ZM27.0419 15.595V12.184H26.8419V15.595H27.0419ZM22.8289 12.084H22.1359V12.284H22.8289V12.084ZM22.0359 12.184V15.595H22.2359V12.184H22.0359ZM22.1359 15.695H22.8289V15.495H22.1359V15.695ZM22.9289 15.595V12.184H22.7289V15.595H22.9289Z" fill="black" mask="url(#path-8-outside-3_551_531)"/>
<rect x="4.5" y="36.5" width="31" height="25" rx="3.5" fill="#414FB0" stroke="#414FB0"/>
<mask id="path-11-outside-4_551_531" maskUnits="userSpaceOnUse" x="12" y="45" width="16" height="8" fill="black">
<rect fill="white" x="12" y="45" width="16" height="8"/>
<path d="M20.2298 47.41V46.15H14.7938V51.595H20.2298V49.075H16.7828V48.67H20.6348V52H12.3908V51.595H13.2908V46.15H12.3908V45.745H20.6348V47.41H20.2298ZM14.3798 46.15H13.6958V51.595H14.3798V46.15ZM27.3469 52H21.7309V47.779H27.3469V52ZM26.9419 48.184H23.2339V51.595H26.9419V48.184ZM22.8289 48.184H22.1359V51.595H22.8289V48.184Z"/>
</mask>
<path d="M20.2298 47.41V46.15H14.7938V51.595H20.2298V49.075H16.7828V48.67H20.6348V52H12.3908V51.595H13.2908V46.15H12.3908V45.745H20.6348V47.41H20.2298ZM14.3798 46.15H13.6958V51.595H14.3798V46.15ZM27.3469 52H21.7309V47.779H27.3469V52ZM26.9419 48.184H23.2339V51.595H26.9419V48.184ZM22.8289 48.184H22.1359V51.595H22.8289V48.184Z" fill="white"/>
<path d="M20.2298 47.41H20.1298V47.51H20.2298V47.41ZM20.2298 46.15H20.3298V46.05H20.2298V46.15ZM14.7938 46.15V46.05H14.6938V46.15H14.7938ZM14.7938 51.595H14.6938V51.695H14.7938V51.595ZM20.2298 51.595V51.695H20.3298V51.595H20.2298ZM20.2298 49.075H20.3298V48.975H20.2298V49.075ZM16.7828 49.075H16.6828V49.175H16.7828V49.075ZM16.7828 48.67V48.57H16.6828V48.67H16.7828ZM20.6348 48.67H20.7348V48.57H20.6348V48.67ZM20.6348 52V52.1H20.7348V52H20.6348ZM12.3908 52H12.2908V52.1H12.3908V52ZM12.3908 51.595V51.495H12.2908V51.595H12.3908ZM13.2908 51.595V51.695H13.3908V51.595H13.2908ZM13.2908 46.15H13.3908V46.05H13.2908V46.15ZM12.3908 46.15H12.2908V46.25H12.3908V46.15ZM12.3908 45.745V45.645H12.2908V45.745H12.3908ZM20.6348 45.745H20.7348V45.645H20.6348V45.745ZM20.6348 47.41V47.51H20.7348V47.41H20.6348ZM14.3798 46.15H14.4798V46.05H14.3798V46.15ZM13.6958 46.15V46.05H13.5958V46.15H13.6958ZM13.6958 51.595H13.5958V51.695H13.6958V51.595ZM14.3798 51.595V51.695H14.4798V51.595H14.3798ZM20.3298 47.41V46.15H20.1298V47.41H20.3298ZM20.2298 46.05H14.7938V46.25H20.2298V46.05ZM14.6938 46.15V51.595H14.8938V46.15H14.6938ZM14.7938 51.695H20.2298V51.495H14.7938V51.695ZM20.3298 51.595V49.075H20.1298V51.595H20.3298ZM20.2298 48.975H16.7828V49.175H20.2298V48.975ZM16.8828 49.075V48.67H16.6828V49.075H16.8828ZM16.7828 48.77H20.6348V48.57H16.7828V48.77ZM20.5348 48.67V52H20.7348V48.67H20.5348ZM20.6348 51.9H12.3908V52.1H20.6348V51.9ZM12.4908 52V51.595H12.2908V52H12.4908ZM12.3908 51.695H13.2908V51.495H12.3908V51.695ZM13.3908 51.595V46.15H13.1908V51.595H13.3908ZM13.2908 46.05H12.3908V46.25H13.2908V46.05ZM12.4908 46.15V45.745H12.2908V46.15H12.4908ZM12.3908 45.845H20.6348V45.645H12.3908V45.845ZM20.5348 45.745V47.41H20.7348V45.745H20.5348ZM20.6348 47.31H20.2298V47.51H20.6348V47.31ZM14.3798 46.05H13.6958V46.25H14.3798V46.05ZM13.5958 46.15V51.595H13.7958V46.15H13.5958ZM13.6958 51.695H14.3798V51.495H13.6958V51.695ZM14.4798 51.595V46.15H14.2798V51.595H14.4798ZM27.3469 52V52.1H27.4469V52H27.3469ZM21.7309 52H21.6309V52.1H21.7309V52ZM21.7309 47.779V47.679H21.6309V47.779H21.7309ZM27.3469 47.779H27.4469V47.679H27.3469V47.779ZM26.9419 48.184H27.0419V48.084H26.9419V48.184ZM23.2339 48.184V48.084H23.1339V48.184H23.2339ZM23.2339 51.595H23.1339V51.695H23.2339V51.595ZM26.9419 51.595V51.695H27.0419V51.595H26.9419ZM22.8289 48.184H22.9289V48.084H22.8289V48.184ZM22.1359 48.184V48.084H22.0359V48.184H22.1359ZM22.1359 51.595H22.0359V51.695H22.1359V51.595ZM22.8289 51.595V51.695H22.9289V51.595H22.8289ZM27.3469 51.9H21.7309V52.1H27.3469V51.9ZM21.8309 52V47.779H21.6309V52H21.8309ZM21.7309 47.879H27.3469V47.679H21.7309V47.879ZM27.2469 47.779V52H27.4469V47.779H27.2469ZM26.9419 48.084H23.2339V48.284H26.9419V48.084ZM23.1339 48.184V51.595H23.3339V48.184H23.1339ZM23.2339 51.695H26.9419V51.495H23.2339V51.695ZM27.0419 51.595V48.184H26.8419V51.595H27.0419ZM22.8289 48.084H22.1359V48.284H22.8289V48.084ZM22.0359 48.184V51.595H22.2359V48.184H22.0359ZM22.1359 51.695H22.8289V51.495H22.1359V51.695ZM22.9289 51.595V48.184H22.7289V51.595H22.9289Z" fill="white" mask="url(#path-11-outside-4_551_531)"/>
<rect x="4.5" y="72.5" width="31" height="25" rx="3.5" fill="white" stroke="#414FB0"/>
<mask id="path-14-outside-5_551_531" maskUnits="userSpaceOnUse" x="12" y="81" width="16" height="8" fill="black">
<rect fill="white" x="12" y="81" width="16" height="8"/>
<path d="M20.2298 83.41V82.15H14.7938V87.595H20.2298V85.075H16.7828V84.67H20.6348V88H12.3908V87.595H13.2908V82.15H12.3908V81.745H20.6348V83.41H20.2298ZM14.3798 82.15H13.6958V87.595H14.3798V82.15ZM27.3469 88H21.7309V83.779H27.3469V88ZM26.9419 84.184H23.2339V87.595H26.9419V84.184ZM22.8289 84.184H22.1359V87.595H22.8289V84.184Z"/>
</mask>
<path d="M20.2298 83.41V82.15H14.7938V87.595H20.2298V85.075H16.7828V84.67H20.6348V88H12.3908V87.595H13.2908V82.15H12.3908V81.745H20.6348V83.41H20.2298ZM14.3798 82.15H13.6958V87.595H14.3798V82.15ZM27.3469 88H21.7309V83.779H27.3469V88ZM26.9419 84.184H23.2339V87.595H26.9419V84.184ZM22.8289 84.184H22.1359V87.595H22.8289V84.184Z" fill="black"/>
<path d="M20.2298 83.41H20.1298V83.51H20.2298V83.41ZM20.2298 82.15H20.3298V82.05H20.2298V82.15ZM14.7938 82.15V82.05H14.6938V82.15H14.7938ZM14.7938 87.595H14.6938V87.695H14.7938V87.595ZM20.2298 87.595V87.695H20.3298V87.595H20.2298ZM20.2298 85.075H20.3298V84.975H20.2298V85.075ZM16.7828 85.075H16.6828V85.175H16.7828V85.075ZM16.7828 84.67V84.57H16.6828V84.67H16.7828ZM20.6348 84.67H20.7348V84.57H20.6348V84.67ZM20.6348 88V88.1H20.7348V88H20.6348ZM12.3908 88H12.2908V88.1H12.3908V88ZM12.3908 87.595V87.495H12.2908V87.595H12.3908ZM13.2908 87.595V87.695H13.3908V87.595H13.2908ZM13.2908 82.15H13.3908V82.05H13.2908V82.15ZM12.3908 82.15H12.2908V82.25H12.3908V82.15ZM12.3908 81.745V81.645H12.2908V81.745H12.3908ZM20.6348 81.745H20.7348V81.645H20.6348V81.745ZM20.6348 83.41V83.51H20.7348V83.41H20.6348ZM14.3798 82.15H14.4798V82.05H14.3798V82.15ZM13.6958 82.15V82.05H13.5958V82.15H13.6958ZM13.6958 87.595H13.5958V87.695H13.6958V87.595ZM14.3798 87.595V87.695H14.4798V87.595H14.3798ZM20.3298 83.41V82.15H20.1298V83.41H20.3298ZM20.2298 82.05H14.7938V82.25H20.2298V82.05ZM14.6938 82.15V87.595H14.8938V82.15H14.6938ZM14.7938 87.695H20.2298V87.495H14.7938V87.695ZM20.3298 87.595V85.075H20.1298V87.595H20.3298ZM20.2298 84.975H16.7828V85.175H20.2298V84.975ZM16.8828 85.075V84.67H16.6828V85.075H16.8828ZM16.7828 84.77H20.6348V84.57H16.7828V84.77ZM20.5348 84.67V88H20.7348V84.67H20.5348ZM20.6348 87.9H12.3908V88.1H20.6348V87.9ZM12.4908 88V87.595H12.2908V88H12.4908ZM12.3908 87.695H13.2908V87.495H12.3908V87.695ZM13.3908 87.595V82.15H13.1908V87.595H13.3908ZM13.2908 82.05H12.3908V82.25H13.2908V82.05ZM12.4908 82.15V81.745H12.2908V82.15H12.4908ZM12.3908 81.845H20.6348V81.645H12.3908V81.845ZM20.5348 81.745V83.41H20.7348V81.745H20.5348ZM20.6348 83.31H20.2298V83.51H20.6348V83.31ZM14.3798 82.05H13.6958V82.25H14.3798V82.05ZM13.5958 82.15V87.595H13.7958V82.15H13.5958ZM13.6958 87.695H14.3798V87.495H13.6958V87.695ZM14.4798 87.595V82.15H14.2798V87.595H14.4798ZM27.3469 88V88.1H27.4469V88H27.3469ZM21.7309 88H21.6309V88.1H21.7309V88ZM21.7309 83.779V83.679H21.6309V83.779H21.7309ZM27.3469 83.779H27.4469V83.679H27.3469V83.779ZM26.9419 84.184H27.0419V84.084H26.9419V84.184ZM23.2339 84.184V84.084H23.1339V84.184H23.2339ZM23.2339 87.595H23.1339V87.695H23.2339V87.595ZM26.9419 87.595V87.695H27.0419V87.595H26.9419ZM22.8289 84.184H22.9289V84.084H22.8289V84.184ZM22.1359 84.184V84.084H22.0359V84.184H22.1359ZM22.1359 87.595H22.0359V87.695H22.1359V87.595ZM22.8289 87.595V87.695H22.9289V87.595H22.8289ZM27.3469 87.9H21.7309V88.1H27.3469V87.9ZM21.8309 88V83.779H21.6309V88H21.8309ZM21.7309 83.879H27.3469V83.679H21.7309V83.879ZM27.2469 83.779V88H27.4469V83.779H27.2469ZM26.9419 84.084H23.2339V84.284H26.9419V84.084ZM23.1339 84.184V87.595H23.3339V84.184H23.1339ZM23.2339 87.695H26.9419V87.495H23.2339V87.695ZM27.0419 87.595V84.184H26.8419V87.595H27.0419ZM22.8289 84.084H22.1359V84.284H22.8289V84.084ZM22.0359 84.184V87.595H22.2359V84.184H22.0359ZM22.1359 87.695H22.8289V87.495H22.1359V87.695ZM22.9289 87.595V84.184H22.7289V87.595H22.9289Z" fill="black" mask="url(#path-14-outside-5_551_531)"/>
<rect x="4.5" y="180.5" width="31" height="25" rx="3.5" fill="#67804D" stroke="#67804D"/>
<mask id="path-17-outside-6_551_531" maskUnits="userSpaceOnUse" x="12" y="189" width="16" height="8" fill="black">
<rect fill="white" x="12" y="189" width="16" height="8"/>
<path d="M20.2298 191.41V190.15H14.7938V195.595H20.2298V193.075H16.7828V192.67H20.6348V196H12.3908V195.595H13.2908V190.15H12.3908V189.745H20.6348V191.41H20.2298ZM14.3798 190.15H13.6958V195.595H14.3798V190.15ZM27.3469 196H21.7309V191.779H27.3469V196ZM26.9419 192.184H23.2339V195.595H26.9419V192.184ZM22.8289 192.184H22.1359V195.595H22.8289V192.184Z"/>
</mask>
<path d="M20.2298 191.41V190.15H14.7938V195.595H20.2298V193.075H16.7828V192.67H20.6348V196H12.3908V195.595H13.2908V190.15H12.3908V189.745H20.6348V191.41H20.2298ZM14.3798 190.15H13.6958V195.595H14.3798V190.15ZM27.3469 196H21.7309V191.779H27.3469V196ZM26.9419 192.184H23.2339V195.595H26.9419V192.184ZM22.8289 192.184H22.1359V195.595H22.8289V192.184Z" fill="white"/>
<path d="M20.2298 191.41H20.1298V191.51H20.2298V191.41ZM20.2298 190.15H20.3298V190.05H20.2298V190.15ZM14.7938 190.15V190.05H14.6938V190.15H14.7938ZM14.7938 195.595H14.6938V195.695H14.7938V195.595ZM20.2298 195.595V195.695H20.3298V195.595H20.2298ZM20.2298 193.075H20.3298V192.975H20.2298V193.075ZM16.7828 193.075H16.6828V193.175H16.7828V193.075ZM16.7828 192.67V192.57H16.6828V192.67H16.7828ZM20.6348 192.67H20.7348V192.57H20.6348V192.67ZM20.6348 196V196.1H20.7348V196H20.6348ZM12.3908 196H12.2908V196.1H12.3908V196ZM12.3908 195.595V195.495H12.2908V195.595H12.3908ZM13.2908 195.595V195.695H13.3908V195.595H13.2908ZM13.2908 190.15H13.3908V190.05H13.2908V190.15ZM12.3908 190.15H12.2908V190.25H12.3908V190.15ZM12.3908 189.745V189.645H12.2908V189.745H12.3908ZM20.6348 189.745H20.7348V189.645H20.6348V189.745ZM20.6348 191.41V191.51H20.7348V191.41H20.6348ZM14.3798 190.15H14.4798V190.05H14.3798V190.15ZM13.6958 190.15V190.05H13.5958V190.15H13.6958ZM13.6958 195.595H13.5958V195.695H13.6958V195.595ZM14.3798 195.595V195.695H14.4798V195.595H14.3798ZM20.3298 191.41V190.15H20.1298V191.41H20.3298ZM20.2298 190.05H14.7938V190.25H20.2298V190.05ZM14.6938 190.15V195.595H14.8938V190.15H14.6938ZM14.7938 195.695H20.2298V195.495H14.7938V195.695ZM20.3298 195.595V193.075H20.1298V195.595H20.3298ZM20.2298 192.975H16.7828V193.175H20.2298V192.975ZM16.8828 193.075V192.67H16.6828V193.075H16.8828ZM16.7828 192.77H20.6348V192.57H16.7828V192.77ZM20.5348 192.67V196H20.7348V192.67H20.5348ZM20.6348 195.9H12.3908V196.1H20.6348V195.9ZM12.4908 196V195.595H12.2908V196H12.4908ZM12.3908 195.695H13.2908V195.495H12.3908V195.695ZM13.3908 195.595V190.15H13.1908V195.595H13.3908ZM13.2908 190.05H12.3908V190.25H13.2908V190.05ZM12.4908 190.15V189.745H12.2908V190.15H12.4908ZM12.3908 189.845H20.6348V189.645H12.3908V189.845ZM20.5348 189.745V191.41H20.7348V189.745H20.5348ZM20.6348 191.31H20.2298V191.51H20.6348V191.31ZM14.3798 190.05H13.6958V190.25H14.3798V190.05ZM13.5958 190.15V195.595H13.7958V190.15H13.5958ZM13.6958 195.695H14.3798V195.495H13.6958V195.695ZM14.4798 195.595V190.15H14.2798V195.595H14.4798ZM27.3469 196V196.1H27.4469V196H27.3469ZM21.7309 196H21.6309V196.1H21.7309V196ZM21.7309 191.779V191.679H21.6309V191.779H21.7309ZM27.3469 191.779H27.4469V191.679H27.3469V191.779ZM26.9419 192.184H27.0419V192.084H26.9419V192.184ZM23.2339 192.184V192.084H23.1339V192.184H23.2339ZM23.2339 195.595H23.1339V195.695H23.2339V195.595ZM26.9419 195.595V195.695H27.0419V195.595H26.9419ZM22.8289 192.184H22.9289V192.084H22.8289V192.184ZM22.1359 192.184V192.084H22.0359V192.184H22.1359ZM22.1359 195.595H22.0359V195.695H22.1359V195.595ZM22.8289 195.595V195.695H22.9289V195.595H22.8289ZM27.3469 195.9H21.7309V196.1H27.3469V195.9ZM21.8309 196V191.779H21.6309V196H21.8309ZM21.7309 191.879H27.3469V191.679H21.7309V191.879ZM27.2469 191.779V196H27.4469V191.779H27.2469ZM26.9419 192.084H23.2339V192.284H26.9419V192.084ZM23.1339 192.184V195.595H23.3339V192.184H23.1339ZM23.2339 195.695H26.9419V195.495H23.2339V195.695ZM27.0419 195.595V192.184H26.8419V195.595H27.0419ZM22.8289 192.084H22.1359V192.284H22.8289V192.084ZM22.0359 192.184V195.595H22.2359V192.184H22.0359ZM22.1359 195.695H22.8289V195.495H22.1359V195.695ZM22.9289 195.595V192.184H22.7289V195.595H22.9289Z" fill="white" mask="url(#path-17-outside-6_551_531)"/>
<rect x="4.5" y="216.5" width="31" height="25" rx="3.5" fill="white" stroke="#67804D"/>
<mask id="path-20-outside-7_551_531" maskUnits="userSpaceOnUse" x="12" y="225" width="16" height="8" fill="black">
<rect fill="white" x="12" y="225" width="16" height="8"/>
<path d="M20.2298 227.41V226.15H14.7938V231.595H20.2298V229.075H16.7828V228.67H20.6348V232H12.3908V231.595H13.2908V226.15H12.3908V225.745H20.6348V227.41H20.2298ZM14.3798 226.15H13.6958V231.595H14.3798V226.15ZM27.3469 232H21.7309V227.779H27.3469V232ZM26.9419 228.184H23.2339V231.595H26.9419V228.184ZM22.8289 228.184H22.1359V231.595H22.8289V228.184Z"/>
</mask>
<path d="M20.2298 227.41V226.15H14.7938V231.595H20.2298V229.075H16.7828V228.67H20.6348V232H12.3908V231.595H13.2908V226.15H12.3908V225.745H20.6348V227.41H20.2298ZM14.3798 226.15H13.6958V231.595H14.3798V226.15ZM27.3469 232H21.7309V227.779H27.3469V232ZM26.9419 228.184H23.2339V231.595H26.9419V228.184ZM22.8289 228.184H22.1359V231.595H22.8289V228.184Z" fill="black"/>
<path d="M20.2298 227.41H20.1298V227.51H20.2298V227.41ZM20.2298 226.15H20.3298V226.05H20.2298V226.15ZM14.7938 226.15V226.05H14.6938V226.15H14.7938ZM14.7938 231.595H14.6938V231.695H14.7938V231.595ZM20.2298 231.595V231.695H20.3298V231.595H20.2298ZM20.2298 229.075H20.3298V228.975H20.2298V229.075ZM16.7828 229.075H16.6828V229.175H16.7828V229.075ZM16.7828 228.67V228.57H16.6828V228.67H16.7828ZM20.6348 228.67H20.7348V228.57H20.6348V228.67ZM20.6348 232V232.1H20.7348V232H20.6348ZM12.3908 232H12.2908V232.1H12.3908V232ZM12.3908 231.595V231.495H12.2908V231.595H12.3908ZM13.2908 231.595V231.695H13.3908V231.595H13.2908ZM13.2908 226.15H13.3908V226.05H13.2908V226.15ZM12.3908 226.15H12.2908V226.25H12.3908V226.15ZM12.3908 225.745V225.645H12.2908V225.745H12.3908ZM20.6348 225.745H20.7348V225.645H20.6348V225.745ZM20.6348 227.41V227.51H20.7348V227.41H20.6348ZM14.3798 226.15H14.4798V226.05H14.3798V226.15ZM13.6958 226.15V226.05H13.5958V226.15H13.6958ZM13.6958 231.595H13.5958V231.695H13.6958V231.595ZM14.3798 231.595V231.695H14.4798V231.595H14.3798ZM20.3298 227.41V226.15H20.1298V227.41H20.3298ZM20.2298 226.05H14.7938V226.25H20.2298V226.05ZM14.6938 226.15V231.595H14.8938V226.15H14.6938ZM14.7938 231.695H20.2298V231.495H14.7938V231.695ZM20.3298 231.595V229.075H20.1298V231.595H20.3298ZM20.2298 228.975H16.7828V229.175H20.2298V228.975ZM16.8828 229.075V228.67H16.6828V229.075H16.8828ZM16.7828 228.77H20.6348V228.57H16.7828V228.77ZM20.5348 228.67V232H20.7348V228.67H20.5348ZM20.6348 231.9H12.3908V232.1H20.6348V231.9ZM12.4908 232V231.595H12.2908V232H12.4908ZM12.3908 231.695H13.2908V231.495H12.3908V231.695ZM13.3908 231.595V226.15H13.1908V231.595H13.3908ZM13.2908 226.05H12.3908V226.25H13.2908V226.05ZM12.4908 226.15V225.745H12.2908V226.15H12.4908ZM12.3908 225.845H20.6348V225.645H12.3908V225.845ZM20.5348 225.745V227.41H20.7348V225.745H20.5348ZM20.6348 227.31H20.2298V227.51H20.6348V227.31ZM14.3798 226.05H13.6958V226.25H14.3798V226.05ZM13.5958 226.15V231.595H13.7958V226.15H13.5958ZM13.6958 231.695H14.3798V231.495H13.6958V231.695ZM14.4798 231.595V226.15H14.2798V231.595H14.4798ZM27.3469 232V232.1H27.4469V232H27.3469ZM21.7309 232H21.6309V232.1H21.7309V232ZM21.7309 227.779V227.679H21.6309V227.779H21.7309ZM27.3469 227.779H27.4469V227.679H27.3469V227.779ZM26.9419 228.184H27.0419V228.084H26.9419V228.184ZM23.2339 228.184V228.084H23.1339V228.184H23.2339ZM23.2339 231.595H23.1339V231.695H23.2339V231.595ZM26.9419 231.595V231.695H27.0419V231.595H26.9419ZM22.8289 228.184H22.9289V228.084H22.8289V228.184ZM22.1359 228.184V228.084H22.0359V228.184H22.1359ZM22.1359 231.595H22.0359V231.695H22.1359V231.595ZM22.8289 231.595V231.695H22.9289V231.595H22.8289ZM27.3469 231.9H21.7309V232.1H27.3469V231.9ZM21.8309 232V227.779H21.6309V232H21.8309ZM21.7309 227.879H27.3469V227.679H21.7309V227.879ZM27.2469 227.779V232H27.4469V227.779H27.2469ZM26.9419 228.084H23.2339V228.284H26.9419V228.084ZM23.1339 228.184V231.595H23.3339V228.184H23.1339ZM23.2339 231.695H26.9419V231.495H23.2339V231.695ZM27.0419 231.595V228.184H26.8419V231.595H27.0419ZM22.8289 228.084H22.1359V228.284H22.8289V228.084ZM22.0359 228.184V231.595H22.2359V228.184H22.0359ZM22.1359 231.695H22.8289V231.495H22.1359V231.695ZM22.9289 231.595V228.184H22.7289V231.595H22.9289Z" fill="black" mask="url(#path-20-outside-7_551_531)"/>
</svg>
