<svg width="62" height="108" viewBox="0 0 62 108" fill="none" xmlns="http://www.w3.org/2000/svg">
<rect x="4.5" y="0.5" width="55" height="25" rx="3.5" fill="white" stroke="#959595"/>
<mask id="path-2-outside-1_533_443" maskUnits="userSpaceOnUse" x="18" y="9" width="28" height="10" fill="black">
<rect fill="white" x="18" y="9" width="28" height="10"/>
<path d="M21.0546 13.075V15.595H21.9546V16H18.6606V15.595H19.5516V10.15H18.6606V9.745H26.6256V13.075H21.0546ZM21.0546 10.15V12.67H26.2206V10.15H21.0546ZM20.6496 15.595V10.15H19.9656V15.595H20.6496ZM29.5511 15.595H30.4421V16H27.1571V15.595H28.0481V10.15H27.1571V9.745H29.5511V15.595ZM29.1461 10.15H28.4531V15.595H29.1461V10.15ZM36.7355 15.595H37.6265V16H31.1195V13.687H35.2325V12.184H31.5245V12.877H31.1195V11.779H36.7355V15.595ZM35.2325 15.595V14.092H31.5245V15.595H35.2325ZM36.3305 12.184H35.6375V15.595H36.3305V12.184ZM45.4485 12.184H44.5575V18.034H38.8155V16.936H39.2205V17.629H43.0545V16H38.8155V12.184H37.8525V11.779H40.1835V12.184H39.2205V15.595H43.0545V12.184H42.1635V11.779H45.4485V12.184ZM44.1525 12.184H43.4595V17.629H44.1525V12.184Z"/>
</mask>
<path d="M21.0546 13.075V15.595H21.9546V16H18.6606V15.595H19.5516V10.15H18.6606V9.745H26.6256V13.075H21.0546ZM21.0546 10.15V12.67H26.2206V10.15H21.0546ZM20.6496 15.595V10.15H19.9656V15.595H20.6496ZM29.5511 15.595H30.4421V16H27.1571V15.595H28.0481V10.15H27.1571V9.745H29.5511V15.595ZM29.1461 10.15H28.4531V15.595H29.1461V10.15ZM36.7355 15.595H37.6265V16H31.1195V13.687H35.2325V12.184H31.5245V12.877H31.1195V11.779H36.7355V15.595ZM35.2325 15.595V14.092H31.5245V15.595H35.2325ZM36.3305 12.184H35.6375V15.595H36.3305V12.184ZM45.4485 12.184H44.5575V18.034H38.8155V16.936H39.2205V17.629H43.0545V16H38.8155V12.184H37.8525V11.779H40.1835V12.184H39.2205V15.595H43.0545V12.184H42.1635V11.779H45.4485V12.184ZM44.1525 12.184H43.4595V17.629H44.1525V12.184Z" fill="black"/>
<path d="M21.0546 13.075V12.975H20.9546V13.075H21.0546ZM21.0546 15.595H20.9546V15.695H21.0546V15.595ZM21.9546 15.595H22.0546V15.495H21.9546V15.595ZM21.9546 16V16.1H22.0546V16H21.9546ZM18.6606 16H18.5606V16.1H18.6606V16ZM18.6606 15.595V15.495H18.5606V15.595H18.6606ZM19.5516 15.595V15.695H19.6516V15.595H19.5516ZM19.5516 10.15H19.6516V10.05H19.5516V10.15ZM18.6606 10.15H18.5606V10.25H18.6606V10.15ZM18.6606 9.745V9.645H18.5606V9.745H18.6606ZM26.6256 9.745H26.7256V9.645H26.6256V9.745ZM26.6256 13.075V13.175H26.7256V13.075H26.6256ZM21.0546 10.15V10.05H20.9546V10.15H21.0546ZM21.0546 12.67H20.9546V12.77H21.0546V12.67ZM26.2206 12.67V12.77H26.3206V12.67H26.2206ZM26.2206 10.15H26.3206V10.05H26.2206V10.15ZM20.6496 15.595V15.695H20.7496V15.595H20.6496ZM20.6496 10.15H20.7496V10.05H20.6496V10.15ZM19.9656 10.15V10.05H19.8656V10.15H19.9656ZM19.9656 15.595H19.8656V15.695H19.9656V15.595ZM20.9546 13.075V15.595H21.1546V13.075H20.9546ZM21.0546 15.695H21.9546V15.495H21.0546V15.695ZM21.8546 15.595V16H22.0546V15.595H21.8546ZM21.9546 15.9H18.6606V16.1H21.9546V15.9ZM18.7606 16V15.595H18.5606V16H18.7606ZM18.6606 15.695H19.5516V15.495H18.6606V15.695ZM19.6516 15.595V10.15H19.4516V15.595H19.6516ZM19.5516 10.05H18.6606V10.25H19.5516V10.05ZM18.7606 10.15V9.745H18.5606V10.15H18.7606ZM18.6606 9.845H26.6256V9.645H18.6606V9.845ZM26.5256 9.745V13.075H26.7256V9.745H26.5256ZM26.6256 12.975H21.0546V13.175H26.6256V12.975ZM20.9546 10.15V12.67H21.1546V10.15H20.9546ZM21.0546 12.77H26.2206V12.57H21.0546V12.77ZM26.3206 12.67V10.15H26.1206V12.67H26.3206ZM26.2206 10.05H21.0546V10.25H26.2206V10.05ZM20.7496 15.595V10.15H20.5496V15.595H20.7496ZM20.6496 10.05H19.9656V10.25H20.6496V10.05ZM19.8656 10.15V15.595H20.0656V10.15H19.8656ZM19.9656 15.695H20.6496V15.495H19.9656V15.695ZM29.5511 15.595H29.4511V15.695H29.5511V15.595ZM30.4421 15.595H30.5421V15.495H30.4421V15.595ZM30.4421 16V16.1H30.5421V16H30.4421ZM27.1571 16H27.0571V16.1H27.1571V16ZM27.1571 15.595V15.495H27.0571V15.595H27.1571ZM28.048 15.595V15.695H28.1481V15.595H28.048ZM28.048 10.15H28.1481V10.05H28.048V10.15ZM27.1571 10.15H27.0571V10.25H27.1571V10.15ZM27.1571 9.745V9.645H27.0571V9.745H27.1571ZM29.5511 9.745H29.6511V9.645H29.5511V9.745ZM29.1461 10.15H29.2461V10.05H29.1461V10.15ZM28.4531 10.15V10.05H28.3531V10.15H28.4531ZM28.4531 15.595H28.3531V15.695H28.4531V15.595ZM29.1461 15.595V15.695H29.2461V15.595H29.1461ZM29.5511 15.695H30.4421V15.495H29.5511V15.695ZM30.3421 15.595V16H30.5421V15.595H30.3421ZM30.4421 15.9H27.1571V16.1H30.4421V15.9ZM27.2571 16V15.595H27.0571V16H27.2571ZM27.1571 15.695H28.048V15.495H27.1571V15.695ZM28.1481 15.595V10.15H27.9481V15.595H28.1481ZM28.048 10.05H27.1571V10.25H28.048V10.05ZM27.2571 10.15V9.745H27.0571V10.15H27.2571ZM27.1571 9.845H29.5511V9.645H27.1571V9.845ZM29.4511 9.745V15.595H29.6511V9.745H29.4511ZM29.1461 10.05H28.4531V10.25H29.1461V10.05ZM28.3531 10.15V15.595H28.5531V10.15H28.3531ZM28.4531 15.695H29.1461V15.495H28.4531V15.695ZM29.2461 15.595V10.15H29.0461V15.595H29.2461ZM36.7355 15.595H36.6355V15.695H36.7355V15.595ZM37.6265 15.595H37.7265V15.495H37.6265V15.595ZM37.6265 16V16.1H37.7265V16H37.6265ZM31.1195 16H31.0195V16.1H31.1195V16ZM31.1195 13.687V13.587H31.0195V13.687H31.1195ZM35.2325 13.687V13.787H35.3325V13.687H35.2325ZM35.2325 12.184H35.3325V12.084H35.2325V12.184ZM31.5245 12.184V12.084H31.4245V12.184H31.5245ZM31.5245 12.877V12.977H31.6245V12.877H31.5245ZM31.1195 12.877H31.0195V12.977H31.1195V12.877ZM31.1195 11.779V11.679H31.0195V11.779H31.1195ZM36.7355 11.779H36.8355V11.679H36.7355V11.779ZM35.2325 15.595V15.695H35.3325V15.595H35.2325ZM35.2325 14.092H35.3325V13.992H35.2325V14.092ZM31.5245 14.092V13.992H31.4245V14.092H31.5245ZM31.5245 15.595H31.4245V15.695H31.5245V15.595ZM36.3305 12.184H36.4305V12.084H36.3305V12.184ZM35.6375 12.184V12.084H35.5375V12.184H35.6375ZM35.6375 15.595H35.5375V15.695H35.6375V15.595ZM36.3305 15.595V15.695H36.4305V15.595H36.3305ZM36.7355 15.695H37.6265V15.495H36.7355V15.695ZM37.5265 15.595V16H37.7265V15.595H37.5265ZM37.6265 15.9H31.1195V16.1H37.6265V15.9ZM31.2195 16V13.687H31.0195V16H31.2195ZM31.1195 13.787H35.2325V13.587H31.1195V13.787ZM35.3325 13.687V12.184H35.1325V13.687H35.3325ZM35.2325 12.084H31.5245V12.284H35.2325V12.084ZM31.4245 12.184V12.877H31.6245V12.184H31.4245ZM31.5245 12.777H31.1195V12.977H31.5245V12.777ZM31.2195 12.877V11.779H31.0195V12.877H31.2195ZM31.1195 11.879H36.7355V11.679H31.1195V11.879ZM36.6355 11.779V15.595H36.8355V11.779H36.6355ZM35.3325 15.595V14.092H35.1325V15.595H35.3325ZM35.2325 13.992H31.5245V14.192H35.2325V13.992ZM31.4245 14.092V15.595H31.6245V14.092H31.4245ZM31.5245 15.695H35.2325V15.495H31.5245V15.695ZM36.3305 12.084H35.6375V12.284H36.3305V12.084ZM35.5375 12.184V15.595H35.7375V12.184H35.5375ZM35.6375 15.695H36.3305V15.495H35.6375V15.695ZM36.4305 15.595V12.184H36.2305V15.595H36.4305ZM45.4485 12.184V12.284H45.5485V12.184H45.4485ZM44.5575 12.184V12.084H44.4575V12.184H44.5575ZM44.5575 18.034V18.134H44.6575V18.034H44.5575ZM38.8155 18.034H38.7155V18.134H38.8155V18.034ZM38.8155 16.936V16.836H38.7155V16.936H38.8155ZM39.2205 16.936H39.3205V16.836H39.2205V16.936ZM39.2205 17.629H39.1205V17.729H39.2205V17.629ZM43.0545 17.629V17.729H43.1545V17.629H43.0545ZM43.0545 16H43.1545V15.9H43.0545V16ZM38.8155 16H38.7155V16.1H38.8155V16ZM38.8155 12.184H38.9155V12.084H38.8155V12.184ZM37.8525 12.184H37.7525V12.284H37.8525V12.184ZM37.8525 11.779V11.679H37.7525V11.779H37.8525ZM40.1835 11.779H40.2835V11.679H40.1835V11.779ZM40.1835 12.184V12.284H40.2835V12.184H40.1835ZM39.2205 12.184V12.084H39.1205V12.184H39.2205ZM39.2205 15.595H39.1205V15.695H39.2205V15.595ZM43.0545 15.595V15.695H43.1545V15.595H43.0545ZM43.0545 12.184H43.1545V12.084H43.0545V12.184ZM42.1635 12.184H42.0635V12.284H42.1635V12.184ZM42.1635 11.779V11.679H42.0635V11.779H42.1635ZM45.4485 11.779H45.5485V11.679H45.4485V11.779ZM44.1525 12.184H44.2525V12.084H44.1525V12.184ZM43.4595 12.184V12.084H43.3595V12.184H43.4595ZM43.4595 17.629H43.3595V17.729H43.4595V17.629ZM44.1525 17.629V17.729H44.2525V17.629H44.1525ZM45.4485 12.084H44.5575V12.284H45.4485V12.084ZM44.4575 12.184V18.034H44.6575V12.184H44.4575ZM44.5575 17.934H38.8155V18.134H44.5575V17.934ZM38.9155 18.034V16.936H38.7155V18.034H38.9155ZM38.8155 17.036H39.2205V16.836H38.8155V17.036ZM39.1205 16.936V17.629H39.3205V16.936H39.1205ZM39.2205 17.729H43.0545V17.529H39.2205V17.729ZM43.1545 17.629V16H42.9545V17.629H43.1545ZM43.0545 15.9H38.8155V16.1H43.0545V15.9ZM38.9155 16V12.184H38.7155V16H38.9155ZM38.8155 12.084H37.8525V12.284H38.8155V12.084ZM37.9525 12.184V11.779H37.7525V12.184H37.9525ZM37.8525 11.879H40.1835V11.679H37.8525V11.879ZM40.0835 11.779V12.184H40.2835V11.779H40.0835ZM40.1835 12.084H39.2205V12.284H40.1835V12.084ZM39.1205 12.184V15.595H39.3205V12.184H39.1205ZM39.2205 15.695H43.0545V15.495H39.2205V15.695ZM43.1545 15.595V12.184H42.9545V15.595H43.1545ZM43.0545 12.084H42.1635V12.284H43.0545V12.084ZM42.2635 12.184V11.779H42.0635V12.184H42.2635ZM42.1635 11.879H45.4485V11.679H42.1635V11.879ZM45.3485 11.779V12.184H45.5485V11.779H45.3485ZM44.1525 12.084H43.4595V12.284H44.1525V12.084ZM43.3595 12.184V17.629H43.5595V12.184H43.3595ZM43.4595 17.729H44.1525V17.529H43.4595V17.729ZM44.2525 17.629V12.184H44.0525V17.629H44.2525Z" fill="black" mask="url(#path-2-outside-1_533_443)"/>
<rect x="4.5" y="36.5" width="55" height="25" rx="3.5" fill="#9FB980" stroke="#9FB980"/>
<mask id="path-5-outside-2_533_443" maskUnits="userSpaceOnUse" x="18" y="45" width="28" height="10" fill="black">
<rect fill="white" x="18" y="45" width="28" height="10"/>
<path d="M21.0546 49.075V51.595H21.9546V52H18.6606V51.595H19.5516V46.15H18.6606V45.745H26.6256V49.075H21.0546ZM21.0546 46.15V48.67H26.2206V46.15H21.0546ZM20.6496 51.595V46.15H19.9656V51.595H20.6496ZM29.5511 51.595H30.4421V52H27.1571V51.595H28.0481V46.15H27.1571V45.745H29.5511V51.595ZM29.1461 46.15H28.4531V51.595H29.1461V46.15ZM36.7355 51.595H37.6265V52H31.1195V49.687H35.2325V48.184H31.5245V48.877H31.1195V47.779H36.7355V51.595ZM35.2325 51.595V50.092H31.5245V51.595H35.2325ZM36.3305 48.184H35.6375V51.595H36.3305V48.184ZM45.4485 48.184H44.5575V54.034H38.8155V52.936H39.2205V53.629H43.0545V52H38.8155V48.184H37.8525V47.779H40.1835V48.184H39.2205V51.595H43.0545V48.184H42.1635V47.779H45.4485V48.184ZM44.1525 48.184H43.4595V53.629H44.1525V48.184Z"/>
</mask>
<path d="M21.0546 49.075V51.595H21.9546V52H18.6606V51.595H19.5516V46.15H18.6606V45.745H26.6256V49.075H21.0546ZM21.0546 46.15V48.67H26.2206V46.15H21.0546ZM20.6496 51.595V46.15H19.9656V51.595H20.6496ZM29.5511 51.595H30.4421V52H27.1571V51.595H28.0481V46.15H27.1571V45.745H29.5511V51.595ZM29.1461 46.15H28.4531V51.595H29.1461V46.15ZM36.7355 51.595H37.6265V52H31.1195V49.687H35.2325V48.184H31.5245V48.877H31.1195V47.779H36.7355V51.595ZM35.2325 51.595V50.092H31.5245V51.595H35.2325ZM36.3305 48.184H35.6375V51.595H36.3305V48.184ZM45.4485 48.184H44.5575V54.034H38.8155V52.936H39.2205V53.629H43.0545V52H38.8155V48.184H37.8525V47.779H40.1835V48.184H39.2205V51.595H43.0545V48.184H42.1635V47.779H45.4485V48.184ZM44.1525 48.184H43.4595V53.629H44.1525V48.184Z" fill="white"/>
<path d="M21.0546 49.075V48.975H20.9546V49.075H21.0546ZM21.0546 51.595H20.9546V51.695H21.0546V51.595ZM21.9546 51.595H22.0546V51.495H21.9546V51.595ZM21.9546 52V52.1H22.0546V52H21.9546ZM18.6606 52H18.5606V52.1H18.6606V52ZM18.6606 51.595V51.495H18.5606V51.595H18.6606ZM19.5516 51.595V51.695H19.6516V51.595H19.5516ZM19.5516 46.15H19.6516V46.05H19.5516V46.15ZM18.6606 46.15H18.5606V46.25H18.6606V46.15ZM18.6606 45.745V45.645H18.5606V45.745H18.6606ZM26.6256 45.745H26.7256V45.645H26.6256V45.745ZM26.6256 49.075V49.175H26.7256V49.075H26.6256ZM21.0546 46.15V46.05H20.9546V46.15H21.0546ZM21.0546 48.67H20.9546V48.77H21.0546V48.67ZM26.2206 48.67V48.77H26.3206V48.67H26.2206ZM26.2206 46.15H26.3206V46.05H26.2206V46.15ZM20.6496 51.595V51.695H20.7496V51.595H20.6496ZM20.6496 46.15H20.7496V46.05H20.6496V46.15ZM19.9656 46.15V46.05H19.8656V46.15H19.9656ZM19.9656 51.595H19.8656V51.695H19.9656V51.595ZM20.9546 49.075V51.595H21.1546V49.075H20.9546ZM21.0546 51.695H21.9546V51.495H21.0546V51.695ZM21.8546 51.595V52H22.0546V51.595H21.8546ZM21.9546 51.9H18.6606V52.1H21.9546V51.9ZM18.7606 52V51.595H18.5606V52H18.7606ZM18.6606 51.695H19.5516V51.495H18.6606V51.695ZM19.6516 51.595V46.15H19.4516V51.595H19.6516ZM19.5516 46.05H18.6606V46.25H19.5516V46.05ZM18.7606 46.15V45.745H18.5606V46.15H18.7606ZM18.6606 45.845H26.6256V45.645H18.6606V45.845ZM26.5256 45.745V49.075H26.7256V45.745H26.5256ZM26.6256 48.975H21.0546V49.175H26.6256V48.975ZM20.9546 46.15V48.67H21.1546V46.15H20.9546ZM21.0546 48.77H26.2206V48.57H21.0546V48.77ZM26.3206 48.67V46.15H26.1206V48.67H26.3206ZM26.2206 46.05H21.0546V46.25H26.2206V46.05ZM20.7496 51.595V46.15H20.5496V51.595H20.7496ZM20.6496 46.05H19.9656V46.25H20.6496V46.05ZM19.8656 46.15V51.595H20.0656V46.15H19.8656ZM19.9656 51.695H20.6496V51.495H19.9656V51.695ZM29.5511 51.595H29.4511V51.695H29.5511V51.595ZM30.4421 51.595H30.5421V51.495H30.4421V51.595ZM30.4421 52V52.1H30.5421V52H30.4421ZM27.1571 52H27.0571V52.1H27.1571V52ZM27.1571 51.595V51.495H27.0571V51.595H27.1571ZM28.048 51.595V51.695H28.1481V51.595H28.048ZM28.048 46.15H28.1481V46.05H28.048V46.15ZM27.1571 46.15H27.0571V46.25H27.1571V46.15ZM27.1571 45.745V45.645H27.0571V45.745H27.1571ZM29.5511 45.745H29.6511V45.645H29.5511V45.745ZM29.1461 46.15H29.2461V46.05H29.1461V46.15ZM28.4531 46.15V46.05H28.3531V46.15H28.4531ZM28.4531 51.595H28.3531V51.695H28.4531V51.595ZM29.1461 51.595V51.695H29.2461V51.595H29.1461ZM29.5511 51.695H30.4421V51.495H29.5511V51.695ZM30.3421 51.595V52H30.5421V51.595H30.3421ZM30.4421 51.9H27.1571V52.1H30.4421V51.9ZM27.2571 52V51.595H27.0571V52H27.2571ZM27.1571 51.695H28.048V51.495H27.1571V51.695ZM28.1481 51.595V46.15H27.9481V51.595H28.1481ZM28.048 46.05H27.1571V46.25H28.048V46.05ZM27.2571 46.15V45.745H27.0571V46.15H27.2571ZM27.1571 45.845H29.5511V45.645H27.1571V45.845ZM29.4511 45.745V51.595H29.6511V45.745H29.4511ZM29.1461 46.05H28.4531V46.25H29.1461V46.05ZM28.3531 46.15V51.595H28.5531V46.15H28.3531ZM28.4531 51.695H29.1461V51.495H28.4531V51.695ZM29.2461 51.595V46.15H29.0461V51.595H29.2461ZM36.7355 51.595H36.6355V51.695H36.7355V51.595ZM37.6265 51.595H37.7265V51.495H37.6265V51.595ZM37.6265 52V52.1H37.7265V52H37.6265ZM31.1195 52H31.0195V52.1H31.1195V52ZM31.1195 49.687V49.587H31.0195V49.687H31.1195ZM35.2325 49.687V49.787H35.3325V49.687H35.2325ZM35.2325 48.184H35.3325V48.084H35.2325V48.184ZM31.5245 48.184V48.084H31.4245V48.184H31.5245ZM31.5245 48.877V48.977H31.6245V48.877H31.5245ZM31.1195 48.877H31.0195V48.977H31.1195V48.877ZM31.1195 47.779V47.679H31.0195V47.779H31.1195ZM36.7355 47.779H36.8355V47.679H36.7355V47.779ZM35.2325 51.595V51.695H35.3325V51.595H35.2325ZM35.2325 50.092H35.3325V49.992H35.2325V50.092ZM31.5245 50.092V49.992H31.4245V50.092H31.5245ZM31.5245 51.595H31.4245V51.695H31.5245V51.595ZM36.3305 48.184H36.4305V48.084H36.3305V48.184ZM35.6375 48.184V48.084H35.5375V48.184H35.6375ZM35.6375 51.595H35.5375V51.695H35.6375V51.595ZM36.3305 51.595V51.695H36.4305V51.595H36.3305ZM36.7355 51.695H37.6265V51.495H36.7355V51.695ZM37.5265 51.595V52H37.7265V51.595H37.5265ZM37.6265 51.9H31.1195V52.1H37.6265V51.9ZM31.2195 52V49.687H31.0195V52H31.2195ZM31.1195 49.787H35.2325V49.587H31.1195V49.787ZM35.3325 49.687V48.184H35.1325V49.687H35.3325ZM35.2325 48.084H31.5245V48.284H35.2325V48.084ZM31.4245 48.184V48.877H31.6245V48.184H31.4245ZM31.5245 48.777H31.1195V48.977H31.5245V48.777ZM31.2195 48.877V47.779H31.0195V48.877H31.2195ZM31.1195 47.879H36.7355V47.679H31.1195V47.879ZM36.6355 47.779V51.595H36.8355V47.779H36.6355ZM35.3325 51.595V50.092H35.1325V51.595H35.3325ZM35.2325 49.992H31.5245V50.192H35.2325V49.992ZM31.4245 50.092V51.595H31.6245V50.092H31.4245ZM31.5245 51.695H35.2325V51.495H31.5245V51.695ZM36.3305 48.084H35.6375V48.284H36.3305V48.084ZM35.5375 48.184V51.595H35.7375V48.184H35.5375ZM35.6375 51.695H36.3305V51.495H35.6375V51.695ZM36.4305 51.595V48.184H36.2305V51.595H36.4305ZM45.4485 48.184V48.284H45.5485V48.184H45.4485ZM44.5575 48.184V48.084H44.4575V48.184H44.5575ZM44.5575 54.034V54.134H44.6575V54.034H44.5575ZM38.8155 54.034H38.7155V54.134H38.8155V54.034ZM38.8155 52.936V52.836H38.7155V52.936H38.8155ZM39.2205 52.936H39.3205V52.836H39.2205V52.936ZM39.2205 53.629H39.1205V53.729H39.2205V53.629ZM43.0545 53.629V53.729H43.1545V53.629H43.0545ZM43.0545 52H43.1545V51.9H43.0545V52ZM38.8155 52H38.7155V52.1H38.8155V52ZM38.8155 48.184H38.9155V48.084H38.8155V48.184ZM37.8525 48.184H37.7525V48.284H37.8525V48.184ZM37.8525 47.779V47.679H37.7525V47.779H37.8525ZM40.1835 47.779H40.2835V47.679H40.1835V47.779ZM40.1835 48.184V48.284H40.2835V48.184H40.1835ZM39.2205 48.184V48.084H39.1205V48.184H39.2205ZM39.2205 51.595H39.1205V51.695H39.2205V51.595ZM43.0545 51.595V51.695H43.1545V51.595H43.0545ZM43.0545 48.184H43.1545V48.084H43.0545V48.184ZM42.1635 48.184H42.0635V48.284H42.1635V48.184ZM42.1635 47.779V47.679H42.0635V47.779H42.1635ZM45.4485 47.779H45.5485V47.679H45.4485V47.779ZM44.1525 48.184H44.2525V48.084H44.1525V48.184ZM43.4595 48.184V48.084H43.3595V48.184H43.4595ZM43.4595 53.629H43.3595V53.729H43.4595V53.629ZM44.1525 53.629V53.729H44.2525V53.629H44.1525ZM45.4485 48.084H44.5575V48.284H45.4485V48.084ZM44.4575 48.184V54.034H44.6575V48.184H44.4575ZM44.5575 53.934H38.8155V54.134H44.5575V53.934ZM38.9155 54.034V52.936H38.7155V54.034H38.9155ZM38.8155 53.036H39.2205V52.836H38.8155V53.036ZM39.1205 52.936V53.629H39.3205V52.936H39.1205ZM39.2205 53.729H43.0545V53.529H39.2205V53.729ZM43.1545 53.629V52H42.9545V53.629H43.1545ZM43.0545 51.9H38.8155V52.1H43.0545V51.9ZM38.9155 52V48.184H38.7155V52H38.9155ZM38.8155 48.084H37.8525V48.284H38.8155V48.084ZM37.9525 48.184V47.779H37.7525V48.184H37.9525ZM37.8525 47.879H40.1835V47.679H37.8525V47.879ZM40.0835 47.779V48.184H40.2835V47.779H40.0835ZM40.1835 48.084H39.2205V48.284H40.1835V48.084ZM39.1205 48.184V51.595H39.3205V48.184H39.1205ZM39.2205 51.695H43.0545V51.495H39.2205V51.695ZM43.1545 51.595V48.184H42.9545V51.595H43.1545ZM43.0545 48.084H42.1635V48.284H43.0545V48.084ZM42.2635 48.184V47.779H42.0635V48.184H42.2635ZM42.1635 47.879H45.4485V47.679H42.1635V47.879ZM45.3485 47.779V48.184H45.5485V47.779H45.3485ZM44.1525 48.084H43.4595V48.284H44.1525V48.084ZM43.3595 48.184V53.629H43.5595V48.184H43.3595ZM43.4595 53.729H44.1525V53.529H43.4595V53.729ZM44.2525 53.629V48.184H44.0525V53.629H44.2525Z" fill="white" mask="url(#path-5-outside-2_533_443)"/>
<rect x="4.5" y="72.5" width="55" height="25" rx="3.5" fill="white" stroke="#9FB980"/>
<mask id="path-8-outside-3_533_443" maskUnits="userSpaceOnUse" x="18" y="81" width="28" height="10" fill="black">
<rect fill="white" x="18" y="81" width="28" height="10"/>
<path d="M21.0546 85.075V87.595H21.9546V88H18.6606V87.595H19.5516V82.15H18.6606V81.745H26.6256V85.075H21.0546ZM21.0546 82.15V84.67H26.2206V82.15H21.0546ZM20.6496 87.595V82.15H19.9656V87.595H20.6496ZM29.5511 87.595H30.4421V88H27.1571V87.595H28.0481V82.15H27.1571V81.745H29.5511V87.595ZM29.1461 82.15H28.4531V87.595H29.1461V82.15ZM36.7355 87.595H37.6265V88H31.1195V85.687H35.2325V84.184H31.5245V84.877H31.1195V83.779H36.7355V87.595ZM35.2325 87.595V86.092H31.5245V87.595H35.2325ZM36.3305 84.184H35.6375V87.595H36.3305V84.184ZM45.4485 84.184H44.5575V90.034H38.8155V88.936H39.2205V89.629H43.0545V88H38.8155V84.184H37.8525V83.779H40.1835V84.184H39.2205V87.595H43.0545V84.184H42.1635V83.779H45.4485V84.184ZM44.1525 84.184H43.4595V89.629H44.1525V84.184Z"/>
</mask>
<path d="M21.0546 85.075V87.595H21.9546V88H18.6606V87.595H19.5516V82.15H18.6606V81.745H26.6256V85.075H21.0546ZM21.0546 82.15V84.67H26.2206V82.15H21.0546ZM20.6496 87.595V82.15H19.9656V87.595H20.6496ZM29.5511 87.595H30.4421V88H27.1571V87.595H28.0481V82.15H27.1571V81.745H29.5511V87.595ZM29.1461 82.15H28.4531V87.595H29.1461V82.15ZM36.7355 87.595H37.6265V88H31.1195V85.687H35.2325V84.184H31.5245V84.877H31.1195V83.779H36.7355V87.595ZM35.2325 87.595V86.092H31.5245V87.595H35.2325ZM36.3305 84.184H35.6375V87.595H36.3305V84.184ZM45.4485 84.184H44.5575V90.034H38.8155V88.936H39.2205V89.629H43.0545V88H38.8155V84.184H37.8525V83.779H40.1835V84.184H39.2205V87.595H43.0545V84.184H42.1635V83.779H45.4485V84.184ZM44.1525 84.184H43.4595V89.629H44.1525V84.184Z" fill="black"/>
<path d="M21.0546 85.075V84.975H20.9546V85.075H21.0546ZM21.0546 87.595H20.9546V87.695H21.0546V87.595ZM21.9546 87.595H22.0546V87.495H21.9546V87.595ZM21.9546 88V88.1H22.0546V88H21.9546ZM18.6606 88H18.5606V88.1H18.6606V88ZM18.6606 87.595V87.495H18.5606V87.595H18.6606ZM19.5516 87.595V87.695H19.6516V87.595H19.5516ZM19.5516 82.15H19.6516V82.05H19.5516V82.15ZM18.6606 82.15H18.5606V82.25H18.6606V82.15ZM18.6606 81.745V81.645H18.5606V81.745H18.6606ZM26.6256 81.745H26.7256V81.645H26.6256V81.745ZM26.6256 85.075V85.175H26.7256V85.075H26.6256ZM21.0546 82.15V82.05H20.9546V82.15H21.0546ZM21.0546 84.67H20.9546V84.77H21.0546V84.67ZM26.2206 84.67V84.77H26.3206V84.67H26.2206ZM26.2206 82.15H26.3206V82.05H26.2206V82.15ZM20.6496 87.595V87.695H20.7496V87.595H20.6496ZM20.6496 82.15H20.7496V82.05H20.6496V82.15ZM19.9656 82.15V82.05H19.8656V82.15H19.9656ZM19.9656 87.595H19.8656V87.695H19.9656V87.595ZM20.9546 85.075V87.595H21.1546V85.075H20.9546ZM21.0546 87.695H21.9546V87.495H21.0546V87.695ZM21.8546 87.595V88H22.0546V87.595H21.8546ZM21.9546 87.9H18.6606V88.1H21.9546V87.9ZM18.7606 88V87.595H18.5606V88H18.7606ZM18.6606 87.695H19.5516V87.495H18.6606V87.695ZM19.6516 87.595V82.15H19.4516V87.595H19.6516ZM19.5516 82.05H18.6606V82.25H19.5516V82.05ZM18.7606 82.15V81.745H18.5606V82.15H18.7606ZM18.6606 81.845H26.6256V81.645H18.6606V81.845ZM26.5256 81.745V85.075H26.7256V81.745H26.5256ZM26.6256 84.975H21.0546V85.175H26.6256V84.975ZM20.9546 82.15V84.67H21.1546V82.15H20.9546ZM21.0546 84.77H26.2206V84.57H21.0546V84.77ZM26.3206 84.67V82.15H26.1206V84.67H26.3206ZM26.2206 82.05H21.0546V82.25H26.2206V82.05ZM20.7496 87.595V82.15H20.5496V87.595H20.7496ZM20.6496 82.05H19.9656V82.25H20.6496V82.05ZM19.8656 82.15V87.595H20.0656V82.15H19.8656ZM19.9656 87.695H20.6496V87.495H19.9656V87.695ZM29.5511 87.595H29.4511V87.695H29.5511V87.595ZM30.4421 87.595H30.5421V87.495H30.4421V87.595ZM30.4421 88V88.1H30.5421V88H30.4421ZM27.1571 88H27.0571V88.1H27.1571V88ZM27.1571 87.595V87.495H27.0571V87.595H27.1571ZM28.048 87.595V87.695H28.1481V87.595H28.048ZM28.048 82.15H28.1481V82.05H28.048V82.15ZM27.1571 82.15H27.0571V82.25H27.1571V82.15ZM27.1571 81.745V81.645H27.0571V81.745H27.1571ZM29.5511 81.745H29.6511V81.645H29.5511V81.745ZM29.1461 82.15H29.2461V82.05H29.1461V82.15ZM28.4531 82.15V82.05H28.3531V82.15H28.4531ZM28.4531 87.595H28.3531V87.695H28.4531V87.595ZM29.1461 87.595V87.695H29.2461V87.595H29.1461ZM29.5511 87.695H30.4421V87.495H29.5511V87.695ZM30.3421 87.595V88H30.5421V87.595H30.3421ZM30.4421 87.9H27.1571V88.1H30.4421V87.9ZM27.2571 88V87.595H27.0571V88H27.2571ZM27.1571 87.695H28.048V87.495H27.1571V87.695ZM28.1481 87.595V82.15H27.9481V87.595H28.1481ZM28.048 82.05H27.1571V82.25H28.048V82.05ZM27.2571 82.15V81.745H27.0571V82.15H27.2571ZM27.1571 81.845H29.5511V81.645H27.1571V81.845ZM29.4511 81.745V87.595H29.6511V81.745H29.4511ZM29.1461 82.05H28.4531V82.25H29.1461V82.05ZM28.3531 82.15V87.595H28.5531V82.15H28.3531ZM28.4531 87.695H29.1461V87.495H28.4531V87.695ZM29.2461 87.595V82.15H29.0461V87.595H29.2461ZM36.7355 87.595H36.6355V87.695H36.7355V87.595ZM37.6265 87.595H37.7265V87.495H37.6265V87.595ZM37.6265 88V88.1H37.7265V88H37.6265ZM31.1195 88H31.0195V88.1H31.1195V88ZM31.1195 85.687V85.587H31.0195V85.687H31.1195ZM35.2325 85.687V85.787H35.3325V85.687H35.2325ZM35.2325 84.184H35.3325V84.084H35.2325V84.184ZM31.5245 84.184V84.084H31.4245V84.184H31.5245ZM31.5245 84.877V84.977H31.6245V84.877H31.5245ZM31.1195 84.877H31.0195V84.977H31.1195V84.877ZM31.1195 83.779V83.679H31.0195V83.779H31.1195ZM36.7355 83.779H36.8355V83.679H36.7355V83.779ZM35.2325 87.595V87.695H35.3325V87.595H35.2325ZM35.2325 86.092H35.3325V85.992H35.2325V86.092ZM31.5245 86.092V85.992H31.4245V86.092H31.5245ZM31.5245 87.595H31.4245V87.695H31.5245V87.595ZM36.3305 84.184H36.4305V84.084H36.3305V84.184ZM35.6375 84.184V84.084H35.5375V84.184H35.6375ZM35.6375 87.595H35.5375V87.695H35.6375V87.595ZM36.3305 87.595V87.695H36.4305V87.595H36.3305ZM36.7355 87.695H37.6265V87.495H36.7355V87.695ZM37.5265 87.595V88H37.7265V87.595H37.5265ZM37.6265 87.9H31.1195V88.1H37.6265V87.9ZM31.2195 88V85.687H31.0195V88H31.2195ZM31.1195 85.787H35.2325V85.587H31.1195V85.787ZM35.3325 85.687V84.184H35.1325V85.687H35.3325ZM35.2325 84.084H31.5245V84.284H35.2325V84.084ZM31.4245 84.184V84.877H31.6245V84.184H31.4245ZM31.5245 84.777H31.1195V84.977H31.5245V84.777ZM31.2195 84.877V83.779H31.0195V84.877H31.2195ZM31.1195 83.879H36.7355V83.679H31.1195V83.879ZM36.6355 83.779V87.595H36.8355V83.779H36.6355ZM35.3325 87.595V86.092H35.1325V87.595H35.3325ZM35.2325 85.992H31.5245V86.192H35.2325V85.992ZM31.4245 86.092V87.595H31.6245V86.092H31.4245ZM31.5245 87.695H35.2325V87.495H31.5245V87.695ZM36.3305 84.084H35.6375V84.284H36.3305V84.084ZM35.5375 84.184V87.595H35.7375V84.184H35.5375ZM35.6375 87.695H36.3305V87.495H35.6375V87.695ZM36.4305 87.595V84.184H36.2305V87.595H36.4305ZM45.4485 84.184V84.284H45.5485V84.184H45.4485ZM44.5575 84.184V84.084H44.4575V84.184H44.5575ZM44.5575 90.034V90.134H44.6575V90.034H44.5575ZM38.8155 90.034H38.7155V90.134H38.8155V90.034ZM38.8155 88.936V88.836H38.7155V88.936H38.8155ZM39.2205 88.936H39.3205V88.836H39.2205V88.936ZM39.2205 89.629H39.1205V89.729H39.2205V89.629ZM43.0545 89.629V89.729H43.1545V89.629H43.0545ZM43.0545 88H43.1545V87.9H43.0545V88ZM38.8155 88H38.7155V88.1H38.8155V88ZM38.8155 84.184H38.9155V84.084H38.8155V84.184ZM37.8525 84.184H37.7525V84.284H37.8525V84.184ZM37.8525 83.779V83.679H37.7525V83.779H37.8525ZM40.1835 83.779H40.2835V83.679H40.1835V83.779ZM40.1835 84.184V84.284H40.2835V84.184H40.1835ZM39.2205 84.184V84.084H39.1205V84.184H39.2205ZM39.2205 87.595H39.1205V87.695H39.2205V87.595ZM43.0545 87.595V87.695H43.1545V87.595H43.0545ZM43.0545 84.184H43.1545V84.084H43.0545V84.184ZM42.1635 84.184H42.0635V84.284H42.1635V84.184ZM42.1635 83.779V83.679H42.0635V83.779H42.1635ZM45.4485 83.779H45.5485V83.679H45.4485V83.779ZM44.1525 84.184H44.2525V84.084H44.1525V84.184ZM43.4595 84.184V84.084H43.3595V84.184H43.4595ZM43.4595 89.629H43.3595V89.729H43.4595V89.629ZM44.1525 89.629V89.729H44.2525V89.629H44.1525ZM45.4485 84.084H44.5575V84.284H45.4485V84.084ZM44.4575 84.184V90.034H44.6575V84.184H44.4575ZM44.5575 89.934H38.8155V90.134H44.5575V89.934ZM38.9155 90.034V88.936H38.7155V90.034H38.9155ZM38.8155 89.036H39.2205V88.836H38.8155V89.036ZM39.1205 88.936V89.629H39.3205V88.936H39.1205ZM39.2205 89.729H43.0545V89.529H39.2205V89.729ZM43.1545 89.629V88H42.9545V89.629H43.1545ZM43.0545 87.9H38.8155V88.1H43.0545V87.9ZM38.9155 88V84.184H38.7155V88H38.9155ZM38.8155 84.084H37.8525V84.284H38.8155V84.084ZM37.9525 84.184V83.779H37.7525V84.184H37.9525ZM37.8525 83.879H40.1835V83.679H37.8525V83.879ZM40.0835 83.779V84.184H40.2835V83.779H40.0835ZM40.1835 84.084H39.2205V84.284H40.1835V84.084ZM39.1205 84.184V87.595H39.3205V84.184H39.1205ZM39.2205 87.695H43.0545V87.495H39.2205V87.695ZM43.1545 87.595V84.184H42.9545V87.595H43.1545ZM43.0545 84.084H42.1635V84.284H43.0545V84.084ZM42.2635 84.184V83.779H42.0635V84.184H42.2635ZM42.1635 83.879H45.4485V83.679H42.1635V83.879ZM45.3485 83.779V84.184H45.5485V83.779H45.3485ZM44.1525 84.084H43.4595V84.284H44.1525V84.084ZM43.3595 84.184V89.629H43.5595V84.184H43.3595ZM43.4595 89.729H44.1525V89.529H43.4595V89.729ZM44.2525 89.629V84.184H44.0525V89.629H44.2525Z" fill="black" mask="url(#path-8-outside-3_533_443)"/>
</svg>
