<svg width="86" height="108" viewBox="0 0 86 108" fill="none" xmlns="http://www.w3.org/2000/svg">
<rect x="4.5" y="0.5" width="77" height="25" rx="3.5" fill="white" stroke="#959595"/>
<mask id="path-2-outside-1_544_461" maskUnits="userSpaceOnUse" x="26" y="9" width="34" height="8" fill="black">
<rect fill="white" x="26" y="9" width="34" height="8"/>
<path d="M34.0235 11.41V10.15H28.5785V12.67H32.5565V11.779H32.9705V13.966H32.5565V13.075H28.5785V15.595H34.0235V14.335H34.4285V16H26.1845V15.595H27.0755V10.15H26.1845V9.745H34.4285V11.41H34.0235ZM28.1735 10.15H27.4805V15.595H28.1735V10.15ZM35.1851 11.779H41.6921V15.595H42.6551V16H40.3241V15.595H41.2871V12.184H37.5791V15.595H38.4701V16H35.1851V15.595H36.0761V12.184H35.1851V11.779ZM37.1741 15.595V12.184H36.4811V15.595H37.1741ZM47.0034 15.595V16H43.7634V12.184H42.8724V11.779H43.7634V9.745H45.2664V11.779H47.0034V12.184H45.2664V15.595H47.0034ZM44.8614 10.15H44.1684V15.595H44.8614V10.15ZM47.7324 11.779H53.3484V14.092H49.2354V15.595H52.9434V14.902H53.3484V16H47.7324V11.779ZM49.2354 12.184V13.687H52.9434V12.184H49.2354ZM48.1374 15.595H48.8304V12.184H48.1374V15.595ZM54.1607 11.779H59.8847V12.868H59.4797V12.184H56.5547V15.595H57.4457V16H54.1607V15.595H55.0517V12.184H54.1607V11.779ZM56.1497 15.595V12.184H55.4567V15.595H56.1497Z"/>
</mask>
<path d="M34.0235 11.41V10.15H28.5785V12.67H32.5565V11.779H32.9705V13.966H32.5565V13.075H28.5785V15.595H34.0235V14.335H34.4285V16H26.1845V15.595H27.0755V10.15H26.1845V9.745H34.4285V11.41H34.0235ZM28.1735 10.15H27.4805V15.595H28.1735V10.15ZM35.1851 11.779H41.6921V15.595H42.6551V16H40.3241V15.595H41.2871V12.184H37.5791V15.595H38.4701V16H35.1851V15.595H36.0761V12.184H35.1851V11.779ZM37.1741 15.595V12.184H36.4811V15.595H37.1741ZM47.0034 15.595V16H43.7634V12.184H42.8724V11.779H43.7634V9.745H45.2664V11.779H47.0034V12.184H45.2664V15.595H47.0034ZM44.8614 10.15H44.1684V15.595H44.8614V10.15ZM47.7324 11.779H53.3484V14.092H49.2354V15.595H52.9434V14.902H53.3484V16H47.7324V11.779ZM49.2354 12.184V13.687H52.9434V12.184H49.2354ZM48.1374 15.595H48.8304V12.184H48.1374V15.595ZM54.1607 11.779H59.8847V12.868H59.4797V12.184H56.5547V15.595H57.4457V16H54.1607V15.595H55.0517V12.184H54.1607V11.779ZM56.1497 15.595V12.184H55.4567V15.595H56.1497Z" fill="black"/>
<path d="M34.0235 11.41H33.9235V11.51H34.0235V11.41ZM34.0235 10.15H34.1235V10.05H34.0235V10.15ZM28.5785 10.15V10.05H28.4785V10.15H28.5785ZM28.5785 12.67H28.4785V12.77H28.5785V12.67ZM32.5565 12.67V12.77H32.6565V12.67H32.5565ZM32.5565 11.779V11.679H32.4565V11.779H32.5565ZM32.9705 11.779H33.0705V11.679H32.9705V11.779ZM32.9705 13.966V14.066H33.0705V13.966H32.9705ZM32.5565 13.966H32.4565V14.066H32.5565V13.966ZM32.5565 13.075H32.6565V12.975H32.5565V13.075ZM28.5785 13.075V12.975H28.4785V13.075H28.5785ZM28.5785 15.595H28.4785V15.695H28.5785V15.595ZM34.0235 15.595V15.695H34.1235V15.595H34.0235ZM34.0235 14.335V14.235H33.9235V14.335H34.0235ZM34.4285 14.335H34.5285V14.235H34.4285V14.335ZM34.4285 16V16.1H34.5285V16H34.4285ZM26.1845 16H26.0845V16.1H26.1845V16ZM26.1845 15.595V15.495H26.0845V15.595H26.1845ZM27.0755 15.595V15.695H27.1755V15.595H27.0755ZM27.0755 10.15H27.1755V10.05H27.0755V10.15ZM26.1845 10.15H26.0845V10.25H26.1845V10.15ZM26.1845 9.745V9.645H26.0845V9.745H26.1845ZM34.4285 9.745H34.5285V9.645H34.4285V9.745ZM34.4285 11.41V11.51H34.5285V11.41H34.4285ZM28.1735 10.15H28.2735V10.05H28.1735V10.15ZM27.4805 10.15V10.05H27.3805V10.15H27.4805ZM27.4805 15.595H27.3805V15.695H27.4805V15.595ZM28.1735 15.595V15.695H28.2735V15.595H28.1735ZM34.1235 11.41V10.15H33.9235V11.41H34.1235ZM34.0235 10.05H28.5785V10.25H34.0235V10.05ZM28.4785 10.15V12.67H28.6785V10.15H28.4785ZM28.5785 12.77H32.5565V12.57H28.5785V12.77ZM32.6565 12.67V11.779H32.4565V12.67H32.6565ZM32.5565 11.879H32.9705V11.679H32.5565V11.879ZM32.8705 11.779V13.966H33.0705V11.779H32.8705ZM32.9705 13.866H32.5565V14.066H32.9705V13.866ZM32.6565 13.966V13.075H32.4565V13.966H32.6565ZM32.5565 12.975H28.5785V13.175H32.5565V12.975ZM28.4785 13.075V15.595H28.6785V13.075H28.4785ZM28.5785 15.695H34.0235V15.495H28.5785V15.695ZM34.1235 15.595V14.335H33.9235V15.595H34.1235ZM34.0235 14.435H34.4285V14.235H34.0235V14.435ZM34.3285 14.335V16H34.5285V14.335H34.3285ZM34.4285 15.9H26.1845V16.1H34.4285V15.9ZM26.2845 16V15.595H26.0845V16H26.2845ZM26.1845 15.695H27.0755V15.495H26.1845V15.695ZM27.1755 15.595V10.15H26.9755V15.595H27.1755ZM27.0755 10.05H26.1845V10.25H27.0755V10.05ZM26.2845 10.15V9.745H26.0845V10.15H26.2845ZM26.1845 9.845H34.4285V9.645H26.1845V9.845ZM34.3285 9.745V11.41H34.5285V9.745H34.3285ZM34.4285 11.31H34.0235V11.51H34.4285V11.31ZM28.1735 10.05H27.4805V10.25H28.1735V10.05ZM27.3805 10.15V15.595H27.5805V10.15H27.3805ZM27.4805 15.695H28.1735V15.495H27.4805V15.695ZM28.2735 15.595V10.15H28.0735V15.595H28.2735ZM35.1851 11.779V11.679H35.0851V11.779H35.1851ZM41.6921 11.779H41.7921V11.679H41.6921V11.779ZM41.6921 15.595H41.5921V15.695H41.6921V15.595ZM42.6551 15.595H42.7551V15.495H42.6551V15.595ZM42.6551 16V16.1H42.7551V16H42.6551ZM40.3241 16H40.2241V16.1H40.3241V16ZM40.3241 15.595V15.495H40.2241V15.595H40.3241ZM41.2871 15.595V15.695H41.3871V15.595H41.2871ZM41.2871 12.184H41.3871V12.084H41.2871V12.184ZM37.5791 12.184V12.084H37.4791V12.184H37.5791ZM37.5791 15.595H37.4791V15.695H37.5791V15.595ZM38.4701 15.595H38.5701V15.495H38.4701V15.595ZM38.4701 16V16.1H38.5701V16H38.4701ZM35.1851 16H35.0851V16.1H35.1851V16ZM35.1851 15.595V15.495H35.0851V15.595H35.1851ZM36.0761 15.595V15.695H36.1761V15.595H36.0761ZM36.0761 12.184H36.1761V12.084H36.0761V12.184ZM35.1851 12.184H35.0851V12.284H35.1851V12.184ZM37.1741 15.595V15.695H37.2741V15.595H37.1741ZM37.1741 12.184H37.2741V12.084H37.1741V12.184ZM36.4811 12.184V12.084H36.3811V12.184H36.4811ZM36.4811 15.595H36.3811V15.695H36.4811V15.595ZM35.1851 11.879H41.6921V11.679H35.1851V11.879ZM41.5921 11.779V15.595H41.7921V11.779H41.5921ZM41.6921 15.695H42.6551V15.495H41.6921V15.695ZM42.5551 15.595V16H42.7551V15.595H42.5551ZM42.6551 15.9H40.3241V16.1H42.6551V15.9ZM40.4241 16V15.595H40.2241V16H40.4241ZM40.3241 15.695H41.2871V15.495H40.3241V15.695ZM41.3871 15.595V12.184H41.1871V15.595H41.3871ZM41.2871 12.084H37.5791V12.284H41.2871V12.084ZM37.4791 12.184V15.595H37.6791V12.184H37.4791ZM37.5791 15.695H38.4701V15.495H37.5791V15.695ZM38.3701 15.595V16H38.5701V15.595H38.3701ZM38.4701 15.9H35.1851V16.1H38.4701V15.9ZM35.2851 16V15.595H35.0851V16H35.2851ZM35.1851 15.695H36.0761V15.495H35.1851V15.695ZM36.1761 15.595V12.184H35.9761V15.595H36.1761ZM36.0761 12.084H35.1851V12.284H36.0761V12.084ZM35.2851 12.184V11.779H35.0851V12.184H35.2851ZM37.2741 15.595V12.184H37.0741V15.595H37.2741ZM37.1741 12.084H36.4811V12.284H37.1741V12.084ZM36.3811 12.184V15.595H36.5811V12.184H36.3811ZM36.4811 15.695H37.1741V15.495H36.4811V15.695ZM47.0034 15.595H47.1034V15.495H47.0034V15.595ZM47.0034 16V16.1H47.1034V16H47.0034ZM43.7634 16H43.6634V16.1H43.7634V16ZM43.7634 12.184H43.8634V12.084H43.7634V12.184ZM42.8724 12.184H42.7724V12.284H42.8724V12.184ZM42.8724 11.779V11.679H42.7724V11.779H42.8724ZM43.7634 11.779V11.879H43.8634V11.779H43.7634ZM43.7634 9.745V9.645H43.6634V9.745H43.7634ZM45.2664 9.745H45.3664V9.645H45.2664V9.745ZM45.2664 11.779H45.1664V11.879H45.2664V11.779ZM47.0034 11.779H47.1034V11.679H47.0034V11.779ZM47.0034 12.184V12.284H47.1034V12.184H47.0034ZM45.2664 12.184V12.084H45.1664V12.184H45.2664ZM45.2664 15.595H45.1664V15.695H45.2664V15.595ZM44.8614 10.15H44.9614V10.05H44.8614V10.15ZM44.1684 10.15V10.05H44.0684V10.15H44.1684ZM44.1684 15.595H44.0684V15.695H44.1684V15.595ZM44.8614 15.595V15.695H44.9614V15.595H44.8614ZM46.9034 15.595V16H47.1034V15.595H46.9034ZM47.0034 15.9H43.7634V16.1H47.0034V15.9ZM43.8634 16V12.184H43.6634V16H43.8634ZM43.7634 12.084H42.8724V12.284H43.7634V12.084ZM42.9724 12.184V11.779H42.7724V12.184H42.9724ZM42.8724 11.879H43.7634V11.679H42.8724V11.879ZM43.8634 11.779V9.745H43.6634V11.779H43.8634ZM43.7634 9.845H45.2664V9.645H43.7634V9.845ZM45.1664 9.745V11.779H45.3664V9.745H45.1664ZM45.2664 11.879H47.0034V11.679H45.2664V11.879ZM46.9034 11.779V12.184H47.1034V11.779H46.9034ZM47.0034 12.084H45.2664V12.284H47.0034V12.084ZM45.1664 12.184V15.595H45.3664V12.184H45.1664ZM45.2664 15.695H47.0034V15.495H45.2664V15.695ZM44.8614 10.05H44.1684V10.25H44.8614V10.05ZM44.0684 10.15V15.595H44.2684V10.15H44.0684ZM44.1684 15.695H44.8614V15.495H44.1684V15.695ZM44.9614 15.595V10.15H44.7614V15.595H44.9614ZM47.7324 11.779V11.679H47.6324V11.779H47.7324ZM53.3484 11.779H53.4484V11.679H53.3484V11.779ZM53.3484 14.092V14.192H53.4484V14.092H53.3484ZM49.2354 14.092V13.992H49.1354V14.092H49.2354ZM49.2354 15.595H49.1354V15.695H49.2354V15.595ZM52.9434 15.595V15.695H53.0434V15.595H52.9434ZM52.9434 14.902V14.802H52.8434V14.902H52.9434ZM53.3484 14.902H53.4484V14.802H53.3484V14.902ZM53.3484 16V16.1H53.4484V16H53.3484ZM47.7324 16H47.6324V16.1H47.7324V16ZM49.2354 12.184V12.084H49.1354V12.184H49.2354ZM49.2354 13.687H49.1354V13.787H49.2354V13.687ZM52.9434 13.687V13.787H53.0434V13.687H52.9434ZM52.9434 12.184H53.0434V12.084H52.9434V12.184ZM48.1374 15.595H48.0374V15.695H48.1374V15.595ZM48.8304 15.595V15.695H48.9304V15.595H48.8304ZM48.8304 12.184H48.9304V12.084H48.8304V12.184ZM48.1374 12.184V12.084H48.0374V12.184H48.1374ZM47.7324 11.879H53.3484V11.679H47.7324V11.879ZM53.2484 11.779V14.092H53.4484V11.779H53.2484ZM53.3484 13.992H49.2354V14.192H53.3484V13.992ZM49.1354 14.092V15.595H49.3354V14.092H49.1354ZM49.2354 15.695H52.9434V15.495H49.2354V15.695ZM53.0434 15.595V14.902H52.8434V15.595H53.0434ZM52.9434 15.002H53.3484V14.802H52.9434V15.002ZM53.2484 14.902V16H53.4484V14.902H53.2484ZM53.3484 15.9H47.7324V16.1H53.3484V15.9ZM47.8324 16V11.779H47.6324V16H47.8324ZM49.1354 12.184V13.687H49.3354V12.184H49.1354ZM49.2354 13.787H52.9434V13.587H49.2354V13.787ZM53.0434 13.687V12.184H52.8434V13.687H53.0434ZM52.9434 12.084H49.2354V12.284H52.9434V12.084ZM48.1374 15.695H48.8304V15.495H48.1374V15.695ZM48.9304 15.595V12.184H48.7304V15.595H48.9304ZM48.8304 12.084H48.1374V12.284H48.8304V12.084ZM48.0374 12.184V15.595H48.2374V12.184H48.0374ZM54.1607 11.779V11.679H54.0607V11.779H54.1607ZM59.8847 11.779H59.9847V11.679H59.8847V11.779ZM59.8847 12.868V12.968H59.9847V12.868H59.8847ZM59.4797 12.868H59.3797V12.968H59.4797V12.868ZM59.4797 12.184H59.5797V12.084H59.4797V12.184ZM56.5547 12.184V12.084H56.4547V12.184H56.5547ZM56.5547 15.595H56.4547V15.695H56.5547V15.595ZM57.4457 15.595H57.5457V15.495H57.4457V15.595ZM57.4457 16V16.1H57.5457V16H57.4457ZM54.1607 16H54.0607V16.1H54.1607V16ZM54.1607 15.595V15.495H54.0607V15.595H54.1607ZM55.0517 15.595V15.695H55.1517V15.595H55.0517ZM55.0517 12.184H55.1517V12.084H55.0517V12.184ZM54.1607 12.184H54.0607V12.284H54.1607V12.184ZM56.1497 15.595V15.695H56.2497V15.595H56.1497ZM56.1497 12.184H56.2497V12.084H56.1497V12.184ZM55.4567 12.184V12.084H55.3567V12.184H55.4567ZM55.4567 15.595H55.3567V15.695H55.4567V15.595ZM54.1607 11.879H59.8847V11.679H54.1607V11.879ZM59.7847 11.779V12.868H59.9847V11.779H59.7847ZM59.8847 12.768H59.4797V12.968H59.8847V12.768ZM59.5797 12.868V12.184H59.3797V12.868H59.5797ZM59.4797 12.084H56.5547V12.284H59.4797V12.084ZM56.4547 12.184V15.595H56.6547V12.184H56.4547ZM56.5547 15.695H57.4457V15.495H56.5547V15.695ZM57.3457 15.595V16H57.5457V15.595H57.3457ZM57.4457 15.9H54.1607V16.1H57.4457V15.9ZM54.2607 16V15.595H54.0607V16H54.2607ZM54.1607 15.695H55.0517V15.495H54.1607V15.695ZM55.1517 15.595V12.184H54.9517V15.595H55.1517ZM55.0517 12.084H54.1607V12.284H55.0517V12.084ZM54.2607 12.184V11.779H54.0607V12.184H54.2607ZM56.2497 15.595V12.184H56.0497V15.595H56.2497ZM56.1497 12.084H55.4567V12.284H56.1497V12.084ZM55.3567 12.184V15.595H55.5567V12.184H55.3567ZM55.4567 15.695H56.1497V15.495H55.4567V15.695Z" fill="black" mask="url(#path-2-outside-1_544_461)"/>
<rect x="4.5" y="36.5" width="77" height="25" rx="3.5" fill="#BED0B4" stroke="#BED0B4"/>
<mask id="path-5-outside-2_544_461" maskUnits="userSpaceOnUse" x="26" y="45" width="34" height="8" fill="black">
<rect fill="white" x="26" y="45" width="34" height="8"/>
<path d="M34.0235 47.41V46.15H28.5785V48.67H32.5565V47.779H32.9705V49.966H32.5565V49.075H28.5785V51.595H34.0235V50.335H34.4285V52H26.1845V51.595H27.0755V46.15H26.1845V45.745H34.4285V47.41H34.0235ZM28.1735 46.15H27.4805V51.595H28.1735V46.15ZM35.1851 47.779H41.6921V51.595H42.6551V52H40.3241V51.595H41.2871V48.184H37.5791V51.595H38.4701V52H35.1851V51.595H36.0761V48.184H35.1851V47.779ZM37.1741 51.595V48.184H36.4811V51.595H37.1741ZM47.0034 51.595V52H43.7634V48.184H42.8724V47.779H43.7634V45.745H45.2664V47.779H47.0034V48.184H45.2664V51.595H47.0034ZM44.8614 46.15H44.1684V51.595H44.8614V46.15ZM47.7324 47.779H53.3484V50.092H49.2354V51.595H52.9434V50.902H53.3484V52H47.7324V47.779ZM49.2354 48.184V49.687H52.9434V48.184H49.2354ZM48.1374 51.595H48.8304V48.184H48.1374V51.595ZM54.1607 47.779H59.8847V48.868H59.4797V48.184H56.5547V51.595H57.4457V52H54.1607V51.595H55.0517V48.184H54.1607V47.779ZM56.1497 51.595V48.184H55.4567V51.595H56.1497Z"/>
</mask>
<path d="M34.0235 47.41V46.15H28.5785V48.67H32.5565V47.779H32.9705V49.966H32.5565V49.075H28.5785V51.595H34.0235V50.335H34.4285V52H26.1845V51.595H27.0755V46.15H26.1845V45.745H34.4285V47.41H34.0235ZM28.1735 46.15H27.4805V51.595H28.1735V46.15ZM35.1851 47.779H41.6921V51.595H42.6551V52H40.3241V51.595H41.2871V48.184H37.5791V51.595H38.4701V52H35.1851V51.595H36.0761V48.184H35.1851V47.779ZM37.1741 51.595V48.184H36.4811V51.595H37.1741ZM47.0034 51.595V52H43.7634V48.184H42.8724V47.779H43.7634V45.745H45.2664V47.779H47.0034V48.184H45.2664V51.595H47.0034ZM44.8614 46.15H44.1684V51.595H44.8614V46.15ZM47.7324 47.779H53.3484V50.092H49.2354V51.595H52.9434V50.902H53.3484V52H47.7324V47.779ZM49.2354 48.184V49.687H52.9434V48.184H49.2354ZM48.1374 51.595H48.8304V48.184H48.1374V51.595ZM54.1607 47.779H59.8847V48.868H59.4797V48.184H56.5547V51.595H57.4457V52H54.1607V51.595H55.0517V48.184H54.1607V47.779ZM56.1497 51.595V48.184H55.4567V51.595H56.1497Z" fill="white"/>
<path d="M34.0235 47.41H33.9235V47.51H34.0235V47.41ZM34.0235 46.15H34.1235V46.05H34.0235V46.15ZM28.5785 46.15V46.05H28.4785V46.15H28.5785ZM28.5785 48.67H28.4785V48.77H28.5785V48.67ZM32.5565 48.67V48.77H32.6565V48.67H32.5565ZM32.5565 47.779V47.679H32.4565V47.779H32.5565ZM32.9705 47.779H33.0705V47.679H32.9705V47.779ZM32.9705 49.966V50.066H33.0705V49.966H32.9705ZM32.5565 49.966H32.4565V50.066H32.5565V49.966ZM32.5565 49.075H32.6565V48.975H32.5565V49.075ZM28.5785 49.075V48.975H28.4785V49.075H28.5785ZM28.5785 51.595H28.4785V51.695H28.5785V51.595ZM34.0235 51.595V51.695H34.1235V51.595H34.0235ZM34.0235 50.335V50.235H33.9235V50.335H34.0235ZM34.4285 50.335H34.5285V50.235H34.4285V50.335ZM34.4285 52V52.1H34.5285V52H34.4285ZM26.1845 52H26.0845V52.1H26.1845V52ZM26.1845 51.595V51.495H26.0845V51.595H26.1845ZM27.0755 51.595V51.695H27.1755V51.595H27.0755ZM27.0755 46.15H27.1755V46.05H27.0755V46.15ZM26.1845 46.15H26.0845V46.25H26.1845V46.15ZM26.1845 45.745V45.645H26.0845V45.745H26.1845ZM34.4285 45.745H34.5285V45.645H34.4285V45.745ZM34.4285 47.41V47.51H34.5285V47.41H34.4285ZM28.1735 46.15H28.2735V46.05H28.1735V46.15ZM27.4805 46.15V46.05H27.3805V46.15H27.4805ZM27.4805 51.595H27.3805V51.695H27.4805V51.595ZM28.1735 51.595V51.695H28.2735V51.595H28.1735ZM34.1235 47.41V46.15H33.9235V47.41H34.1235ZM34.0235 46.05H28.5785V46.25H34.0235V46.05ZM28.4785 46.15V48.67H28.6785V46.15H28.4785ZM28.5785 48.77H32.5565V48.57H28.5785V48.77ZM32.6565 48.67V47.779H32.4565V48.67H32.6565ZM32.5565 47.879H32.9705V47.679H32.5565V47.879ZM32.8705 47.779V49.966H33.0705V47.779H32.8705ZM32.9705 49.866H32.5565V50.066H32.9705V49.866ZM32.6565 49.966V49.075H32.4565V49.966H32.6565ZM32.5565 48.975H28.5785V49.175H32.5565V48.975ZM28.4785 49.075V51.595H28.6785V49.075H28.4785ZM28.5785 51.695H34.0235V51.495H28.5785V51.695ZM34.1235 51.595V50.335H33.9235V51.595H34.1235ZM34.0235 50.435H34.4285V50.235H34.0235V50.435ZM34.3285 50.335V52H34.5285V50.335H34.3285ZM34.4285 51.9H26.1845V52.1H34.4285V51.9ZM26.2845 52V51.595H26.0845V52H26.2845ZM26.1845 51.695H27.0755V51.495H26.1845V51.695ZM27.1755 51.595V46.15H26.9755V51.595H27.1755ZM27.0755 46.05H26.1845V46.25H27.0755V46.05ZM26.2845 46.15V45.745H26.0845V46.15H26.2845ZM26.1845 45.845H34.4285V45.645H26.1845V45.845ZM34.3285 45.745V47.41H34.5285V45.745H34.3285ZM34.4285 47.31H34.0235V47.51H34.4285V47.31ZM28.1735 46.05H27.4805V46.25H28.1735V46.05ZM27.3805 46.15V51.595H27.5805V46.15H27.3805ZM27.4805 51.695H28.1735V51.495H27.4805V51.695ZM28.2735 51.595V46.15H28.0735V51.595H28.2735ZM35.1851 47.779V47.679H35.0851V47.779H35.1851ZM41.6921 47.779H41.7921V47.679H41.6921V47.779ZM41.6921 51.595H41.5921V51.695H41.6921V51.595ZM42.6551 51.595H42.7551V51.495H42.6551V51.595ZM42.6551 52V52.1H42.7551V52H42.6551ZM40.3241 52H40.2241V52.1H40.3241V52ZM40.3241 51.595V51.495H40.2241V51.595H40.3241ZM41.2871 51.595V51.695H41.3871V51.595H41.2871ZM41.2871 48.184H41.3871V48.084H41.2871V48.184ZM37.5791 48.184V48.084H37.4791V48.184H37.5791ZM37.5791 51.595H37.4791V51.695H37.5791V51.595ZM38.4701 51.595H38.5701V51.495H38.4701V51.595ZM38.4701 52V52.1H38.5701V52H38.4701ZM35.1851 52H35.0851V52.1H35.1851V52ZM35.1851 51.595V51.495H35.0851V51.595H35.1851ZM36.0761 51.595V51.695H36.1761V51.595H36.0761ZM36.0761 48.184H36.1761V48.084H36.0761V48.184ZM35.1851 48.184H35.0851V48.284H35.1851V48.184ZM37.1741 51.595V51.695H37.2741V51.595H37.1741ZM37.1741 48.184H37.2741V48.084H37.1741V48.184ZM36.4811 48.184V48.084H36.3811V48.184H36.4811ZM36.4811 51.595H36.3811V51.695H36.4811V51.595ZM35.1851 47.879H41.6921V47.679H35.1851V47.879ZM41.5921 47.779V51.595H41.7921V47.779H41.5921ZM41.6921 51.695H42.6551V51.495H41.6921V51.695ZM42.5551 51.595V52H42.7551V51.595H42.5551ZM42.6551 51.9H40.3241V52.1H42.6551V51.9ZM40.4241 52V51.595H40.2241V52H40.4241ZM40.3241 51.695H41.2871V51.495H40.3241V51.695ZM41.3871 51.595V48.184H41.1871V51.595H41.3871ZM41.2871 48.084H37.5791V48.284H41.2871V48.084ZM37.4791 48.184V51.595H37.6791V48.184H37.4791ZM37.5791 51.695H38.4701V51.495H37.5791V51.695ZM38.3701 51.595V52H38.5701V51.595H38.3701ZM38.4701 51.9H35.1851V52.1H38.4701V51.9ZM35.2851 52V51.595H35.0851V52H35.2851ZM35.1851 51.695H36.0761V51.495H35.1851V51.695ZM36.1761 51.595V48.184H35.9761V51.595H36.1761ZM36.0761 48.084H35.1851V48.284H36.0761V48.084ZM35.2851 48.184V47.779H35.0851V48.184H35.2851ZM37.2741 51.595V48.184H37.0741V51.595H37.2741ZM37.1741 48.084H36.4811V48.284H37.1741V48.084ZM36.3811 48.184V51.595H36.5811V48.184H36.3811ZM36.4811 51.695H37.1741V51.495H36.4811V51.695ZM47.0034 51.595H47.1034V51.495H47.0034V51.595ZM47.0034 52V52.1H47.1034V52H47.0034ZM43.7634 52H43.6634V52.1H43.7634V52ZM43.7634 48.184H43.8634V48.084H43.7634V48.184ZM42.8724 48.184H42.7724V48.284H42.8724V48.184ZM42.8724 47.779V47.679H42.7724V47.779H42.8724ZM43.7634 47.779V47.879H43.8634V47.779H43.7634ZM43.7634 45.745V45.645H43.6634V45.745H43.7634ZM45.2664 45.745H45.3664V45.645H45.2664V45.745ZM45.2664 47.779H45.1664V47.879H45.2664V47.779ZM47.0034 47.779H47.1034V47.679H47.0034V47.779ZM47.0034 48.184V48.284H47.1034V48.184H47.0034ZM45.2664 48.184V48.084H45.1664V48.184H45.2664ZM45.2664 51.595H45.1664V51.695H45.2664V51.595ZM44.8614 46.15H44.9614V46.05H44.8614V46.15ZM44.1684 46.15V46.05H44.0684V46.15H44.1684ZM44.1684 51.595H44.0684V51.695H44.1684V51.595ZM44.8614 51.595V51.695H44.9614V51.595H44.8614ZM46.9034 51.595V52H47.1034V51.595H46.9034ZM47.0034 51.9H43.7634V52.1H47.0034V51.9ZM43.8634 52V48.184H43.6634V52H43.8634ZM43.7634 48.084H42.8724V48.284H43.7634V48.084ZM42.9724 48.184V47.779H42.7724V48.184H42.9724ZM42.8724 47.879H43.7634V47.679H42.8724V47.879ZM43.8634 47.779V45.745H43.6634V47.779H43.8634ZM43.7634 45.845H45.2664V45.645H43.7634V45.845ZM45.1664 45.745V47.779H45.3664V45.745H45.1664ZM45.2664 47.879H47.0034V47.679H45.2664V47.879ZM46.9034 47.779V48.184H47.1034V47.779H46.9034ZM47.0034 48.084H45.2664V48.284H47.0034V48.084ZM45.1664 48.184V51.595H45.3664V48.184H45.1664ZM45.2664 51.695H47.0034V51.495H45.2664V51.695ZM44.8614 46.05H44.1684V46.25H44.8614V46.05ZM44.0684 46.15V51.595H44.2684V46.15H44.0684ZM44.1684 51.695H44.8614V51.495H44.1684V51.695ZM44.9614 51.595V46.15H44.7614V51.595H44.9614ZM47.7324 47.779V47.679H47.6324V47.779H47.7324ZM53.3484 47.779H53.4484V47.679H53.3484V47.779ZM53.3484 50.092V50.192H53.4484V50.092H53.3484ZM49.2354 50.092V49.992H49.1354V50.092H49.2354ZM49.2354 51.595H49.1354V51.695H49.2354V51.595ZM52.9434 51.595V51.695H53.0434V51.595H52.9434ZM52.9434 50.902V50.802H52.8434V50.902H52.9434ZM53.3484 50.902H53.4484V50.802H53.3484V50.902ZM53.3484 52V52.1H53.4484V52H53.3484ZM47.7324 52H47.6324V52.1H47.7324V52ZM49.2354 48.184V48.084H49.1354V48.184H49.2354ZM49.2354 49.687H49.1354V49.787H49.2354V49.687ZM52.9434 49.687V49.787H53.0434V49.687H52.9434ZM52.9434 48.184H53.0434V48.084H52.9434V48.184ZM48.1374 51.595H48.0374V51.695H48.1374V51.595ZM48.8304 51.595V51.695H48.9304V51.595H48.8304ZM48.8304 48.184H48.9304V48.084H48.8304V48.184ZM48.1374 48.184V48.084H48.0374V48.184H48.1374ZM47.7324 47.879H53.3484V47.679H47.7324V47.879ZM53.2484 47.779V50.092H53.4484V47.779H53.2484ZM53.3484 49.992H49.2354V50.192H53.3484V49.992ZM49.1354 50.092V51.595H49.3354V50.092H49.1354ZM49.2354 51.695H52.9434V51.495H49.2354V51.695ZM53.0434 51.595V50.902H52.8434V51.595H53.0434ZM52.9434 51.002H53.3484V50.802H52.9434V51.002ZM53.2484 50.902V52H53.4484V50.902H53.2484ZM53.3484 51.9H47.7324V52.1H53.3484V51.9ZM47.8324 52V47.779H47.6324V52H47.8324ZM49.1354 48.184V49.687H49.3354V48.184H49.1354ZM49.2354 49.787H52.9434V49.587H49.2354V49.787ZM53.0434 49.687V48.184H52.8434V49.687H53.0434ZM52.9434 48.084H49.2354V48.284H52.9434V48.084ZM48.1374 51.695H48.8304V51.495H48.1374V51.695ZM48.9304 51.595V48.184H48.7304V51.595H48.9304ZM48.8304 48.084H48.1374V48.284H48.8304V48.084ZM48.0374 48.184V51.595H48.2374V48.184H48.0374ZM54.1607 47.779V47.679H54.0607V47.779H54.1607ZM59.8847 47.779H59.9847V47.679H59.8847V47.779ZM59.8847 48.868V48.968H59.9847V48.868H59.8847ZM59.4797 48.868H59.3797V48.968H59.4797V48.868ZM59.4797 48.184H59.5797V48.084H59.4797V48.184ZM56.5547 48.184V48.084H56.4547V48.184H56.5547ZM56.5547 51.595H56.4547V51.695H56.5547V51.595ZM57.4457 51.595H57.5457V51.495H57.4457V51.595ZM57.4457 52V52.1H57.5457V52H57.4457ZM54.1607 52H54.0607V52.1H54.1607V52ZM54.1607 51.595V51.495H54.0607V51.595H54.1607ZM55.0517 51.595V51.695H55.1517V51.595H55.0517ZM55.0517 48.184H55.1517V48.084H55.0517V48.184ZM54.1607 48.184H54.0607V48.284H54.1607V48.184ZM56.1497 51.595V51.695H56.2497V51.595H56.1497ZM56.1497 48.184H56.2497V48.084H56.1497V48.184ZM55.4567 48.184V48.084H55.3567V48.184H55.4567ZM55.4567 51.595H55.3567V51.695H55.4567V51.595ZM54.1607 47.879H59.8847V47.679H54.1607V47.879ZM59.7847 47.779V48.868H59.9847V47.779H59.7847ZM59.8847 48.768H59.4797V48.968H59.8847V48.768ZM59.5797 48.868V48.184H59.3797V48.868H59.5797ZM59.4797 48.084H56.5547V48.284H59.4797V48.084ZM56.4547 48.184V51.595H56.6547V48.184H56.4547ZM56.5547 51.695H57.4457V51.495H56.5547V51.695ZM57.3457 51.595V52H57.5457V51.595H57.3457ZM57.4457 51.9H54.1607V52.1H57.4457V51.9ZM54.2607 52V51.595H54.0607V52H54.2607ZM54.1607 51.695H55.0517V51.495H54.1607V51.695ZM55.1517 51.595V48.184H54.9517V51.595H55.1517ZM55.0517 48.084H54.1607V48.284H55.0517V48.084ZM54.2607 48.184V47.779H54.0607V48.184H54.2607ZM56.2497 51.595V48.184H56.0497V51.595H56.2497ZM56.1497 48.084H55.4567V48.284H56.1497V48.084ZM55.3567 48.184V51.595H55.5567V48.184H55.3567ZM55.4567 51.695H56.1497V51.495H55.4567V51.695Z" fill="white" mask="url(#path-5-outside-2_544_461)"/>
<rect x="4.5" y="72.5" width="77" height="25" rx="3.5" fill="white" stroke="#BED0B4"/>
<mask id="path-8-outside-3_544_461" maskUnits="userSpaceOnUse" x="26" y="81" width="34" height="8" fill="black">
<rect fill="white" x="26" y="81" width="34" height="8"/>
<path d="M34.0235 83.41V82.15H28.5785V84.67H32.5565V83.779H32.9705V85.966H32.5565V85.075H28.5785V87.595H34.0235V86.335H34.4285V88H26.1845V87.595H27.0755V82.15H26.1845V81.745H34.4285V83.41H34.0235ZM28.1735 82.15H27.4805V87.595H28.1735V82.15ZM35.1851 83.779H41.6921V87.595H42.6551V88H40.3241V87.595H41.2871V84.184H37.5791V87.595H38.4701V88H35.1851V87.595H36.0761V84.184H35.1851V83.779ZM37.1741 87.595V84.184H36.4811V87.595H37.1741ZM47.0034 87.595V88H43.7634V84.184H42.8724V83.779H43.7634V81.745H45.2664V83.779H47.0034V84.184H45.2664V87.595H47.0034ZM44.8614 82.15H44.1684V87.595H44.8614V82.15ZM47.7324 83.779H53.3484V86.092H49.2354V87.595H52.9434V86.902H53.3484V88H47.7324V83.779ZM49.2354 84.184V85.687H52.9434V84.184H49.2354ZM48.1374 87.595H48.8304V84.184H48.1374V87.595ZM54.1607 83.779H59.8847V84.868H59.4797V84.184H56.5547V87.595H57.4457V88H54.1607V87.595H55.0517V84.184H54.1607V83.779ZM56.1497 87.595V84.184H55.4567V87.595H56.1497Z"/>
</mask>
<path d="M34.0235 83.41V82.15H28.5785V84.67H32.5565V83.779H32.9705V85.966H32.5565V85.075H28.5785V87.595H34.0235V86.335H34.4285V88H26.1845V87.595H27.0755V82.15H26.1845V81.745H34.4285V83.41H34.0235ZM28.1735 82.15H27.4805V87.595H28.1735V82.15ZM35.1851 83.779H41.6921V87.595H42.6551V88H40.3241V87.595H41.2871V84.184H37.5791V87.595H38.4701V88H35.1851V87.595H36.0761V84.184H35.1851V83.779ZM37.1741 87.595V84.184H36.4811V87.595H37.1741ZM47.0034 87.595V88H43.7634V84.184H42.8724V83.779H43.7634V81.745H45.2664V83.779H47.0034V84.184H45.2664V87.595H47.0034ZM44.8614 82.15H44.1684V87.595H44.8614V82.15ZM47.7324 83.779H53.3484V86.092H49.2354V87.595H52.9434V86.902H53.3484V88H47.7324V83.779ZM49.2354 84.184V85.687H52.9434V84.184H49.2354ZM48.1374 87.595H48.8304V84.184H48.1374V87.595ZM54.1607 83.779H59.8847V84.868H59.4797V84.184H56.5547V87.595H57.4457V88H54.1607V87.595H55.0517V84.184H54.1607V83.779ZM56.1497 87.595V84.184H55.4567V87.595H56.1497Z" fill="black"/>
<path d="M34.0235 83.41H33.9235V83.51H34.0235V83.41ZM34.0235 82.15H34.1235V82.05H34.0235V82.15ZM28.5785 82.15V82.05H28.4785V82.15H28.5785ZM28.5785 84.67H28.4785V84.77H28.5785V84.67ZM32.5565 84.67V84.77H32.6565V84.67H32.5565ZM32.5565 83.779V83.679H32.4565V83.779H32.5565ZM32.9705 83.779H33.0705V83.679H32.9705V83.779ZM32.9705 85.966V86.066H33.0705V85.966H32.9705ZM32.5565 85.966H32.4565V86.066H32.5565V85.966ZM32.5565 85.075H32.6565V84.975H32.5565V85.075ZM28.5785 85.075V84.975H28.4785V85.075H28.5785ZM28.5785 87.595H28.4785V87.695H28.5785V87.595ZM34.0235 87.595V87.695H34.1235V87.595H34.0235ZM34.0235 86.335V86.235H33.9235V86.335H34.0235ZM34.4285 86.335H34.5285V86.235H34.4285V86.335ZM34.4285 88V88.1H34.5285V88H34.4285ZM26.1845 88H26.0845V88.1H26.1845V88ZM26.1845 87.595V87.495H26.0845V87.595H26.1845ZM27.0755 87.595V87.695H27.1755V87.595H27.0755ZM27.0755 82.15H27.1755V82.05H27.0755V82.15ZM26.1845 82.15H26.0845V82.25H26.1845V82.15ZM26.1845 81.745V81.645H26.0845V81.745H26.1845ZM34.4285 81.745H34.5285V81.645H34.4285V81.745ZM34.4285 83.41V83.51H34.5285V83.41H34.4285ZM28.1735 82.15H28.2735V82.05H28.1735V82.15ZM27.4805 82.15V82.05H27.3805V82.15H27.4805ZM27.4805 87.595H27.3805V87.695H27.4805V87.595ZM28.1735 87.595V87.695H28.2735V87.595H28.1735ZM34.1235 83.41V82.15H33.9235V83.41H34.1235ZM34.0235 82.05H28.5785V82.25H34.0235V82.05ZM28.4785 82.15V84.67H28.6785V82.15H28.4785ZM28.5785 84.77H32.5565V84.57H28.5785V84.77ZM32.6565 84.67V83.779H32.4565V84.67H32.6565ZM32.5565 83.879H32.9705V83.679H32.5565V83.879ZM32.8705 83.779V85.966H33.0705V83.779H32.8705ZM32.9705 85.866H32.5565V86.066H32.9705V85.866ZM32.6565 85.966V85.075H32.4565V85.966H32.6565ZM32.5565 84.975H28.5785V85.175H32.5565V84.975ZM28.4785 85.075V87.595H28.6785V85.075H28.4785ZM28.5785 87.695H34.0235V87.495H28.5785V87.695ZM34.1235 87.595V86.335H33.9235V87.595H34.1235ZM34.0235 86.435H34.4285V86.235H34.0235V86.435ZM34.3285 86.335V88H34.5285V86.335H34.3285ZM34.4285 87.9H26.1845V88.1H34.4285V87.9ZM26.2845 88V87.595H26.0845V88H26.2845ZM26.1845 87.695H27.0755V87.495H26.1845V87.695ZM27.1755 87.595V82.15H26.9755V87.595H27.1755ZM27.0755 82.05H26.1845V82.25H27.0755V82.05ZM26.2845 82.15V81.745H26.0845V82.15H26.2845ZM26.1845 81.845H34.4285V81.645H26.1845V81.845ZM34.3285 81.745V83.41H34.5285V81.745H34.3285ZM34.4285 83.31H34.0235V83.51H34.4285V83.31ZM28.1735 82.05H27.4805V82.25H28.1735V82.05ZM27.3805 82.15V87.595H27.5805V82.15H27.3805ZM27.4805 87.695H28.1735V87.495H27.4805V87.695ZM28.2735 87.595V82.15H28.0735V87.595H28.2735ZM35.1851 83.779V83.679H35.0851V83.779H35.1851ZM41.6921 83.779H41.7921V83.679H41.6921V83.779ZM41.6921 87.595H41.5921V87.695H41.6921V87.595ZM42.6551 87.595H42.7551V87.495H42.6551V87.595ZM42.6551 88V88.1H42.7551V88H42.6551ZM40.3241 88H40.2241V88.1H40.3241V88ZM40.3241 87.595V87.495H40.2241V87.595H40.3241ZM41.2871 87.595V87.695H41.3871V87.595H41.2871ZM41.2871 84.184H41.3871V84.084H41.2871V84.184ZM37.5791 84.184V84.084H37.4791V84.184H37.5791ZM37.5791 87.595H37.4791V87.695H37.5791V87.595ZM38.4701 87.595H38.5701V87.495H38.4701V87.595ZM38.4701 88V88.1H38.5701V88H38.4701ZM35.1851 88H35.0851V88.1H35.1851V88ZM35.1851 87.595V87.495H35.0851V87.595H35.1851ZM36.0761 87.595V87.695H36.1761V87.595H36.0761ZM36.0761 84.184H36.1761V84.084H36.0761V84.184ZM35.1851 84.184H35.0851V84.284H35.1851V84.184ZM37.1741 87.595V87.695H37.2741V87.595H37.1741ZM37.1741 84.184H37.2741V84.084H37.1741V84.184ZM36.4811 84.184V84.084H36.3811V84.184H36.4811ZM36.4811 87.595H36.3811V87.695H36.4811V87.595ZM35.1851 83.879H41.6921V83.679H35.1851V83.879ZM41.5921 83.779V87.595H41.7921V83.779H41.5921ZM41.6921 87.695H42.6551V87.495H41.6921V87.695ZM42.5551 87.595V88H42.7551V87.595H42.5551ZM42.6551 87.9H40.3241V88.1H42.6551V87.9ZM40.4241 88V87.595H40.2241V88H40.4241ZM40.3241 87.695H41.2871V87.495H40.3241V87.695ZM41.3871 87.595V84.184H41.1871V87.595H41.3871ZM41.2871 84.084H37.5791V84.284H41.2871V84.084ZM37.4791 84.184V87.595H37.6791V84.184H37.4791ZM37.5791 87.695H38.4701V87.495H37.5791V87.695ZM38.3701 87.595V88H38.5701V87.595H38.3701ZM38.4701 87.9H35.1851V88.1H38.4701V87.9ZM35.2851 88V87.595H35.0851V88H35.2851ZM35.1851 87.695H36.0761V87.495H35.1851V87.695ZM36.1761 87.595V84.184H35.9761V87.595H36.1761ZM36.0761 84.084H35.1851V84.284H36.0761V84.084ZM35.2851 84.184V83.779H35.0851V84.184H35.2851ZM37.2741 87.595V84.184H37.0741V87.595H37.2741ZM37.1741 84.084H36.4811V84.284H37.1741V84.084ZM36.3811 84.184V87.595H36.5811V84.184H36.3811ZM36.4811 87.695H37.1741V87.495H36.4811V87.695ZM47.0034 87.595H47.1034V87.495H47.0034V87.595ZM47.0034 88V88.1H47.1034V88H47.0034ZM43.7634 88H43.6634V88.1H43.7634V88ZM43.7634 84.184H43.8634V84.084H43.7634V84.184ZM42.8724 84.184H42.7724V84.284H42.8724V84.184ZM42.8724 83.779V83.679H42.7724V83.779H42.8724ZM43.7634 83.779V83.879H43.8634V83.779H43.7634ZM43.7634 81.745V81.645H43.6634V81.745H43.7634ZM45.2664 81.745H45.3664V81.645H45.2664V81.745ZM45.2664 83.779H45.1664V83.879H45.2664V83.779ZM47.0034 83.779H47.1034V83.679H47.0034V83.779ZM47.0034 84.184V84.284H47.1034V84.184H47.0034ZM45.2664 84.184V84.084H45.1664V84.184H45.2664ZM45.2664 87.595H45.1664V87.695H45.2664V87.595ZM44.8614 82.15H44.9614V82.05H44.8614V82.15ZM44.1684 82.15V82.05H44.0684V82.15H44.1684ZM44.1684 87.595H44.0684V87.695H44.1684V87.595ZM44.8614 87.595V87.695H44.9614V87.595H44.8614ZM46.9034 87.595V88H47.1034V87.595H46.9034ZM47.0034 87.9H43.7634V88.1H47.0034V87.9ZM43.8634 88V84.184H43.6634V88H43.8634ZM43.7634 84.084H42.8724V84.284H43.7634V84.084ZM42.9724 84.184V83.779H42.7724V84.184H42.9724ZM42.8724 83.879H43.7634V83.679H42.8724V83.879ZM43.8634 83.779V81.745H43.6634V83.779H43.8634ZM43.7634 81.845H45.2664V81.645H43.7634V81.845ZM45.1664 81.745V83.779H45.3664V81.745H45.1664ZM45.2664 83.879H47.0034V83.679H45.2664V83.879ZM46.9034 83.779V84.184H47.1034V83.779H46.9034ZM47.0034 84.084H45.2664V84.284H47.0034V84.084ZM45.1664 84.184V87.595H45.3664V84.184H45.1664ZM45.2664 87.695H47.0034V87.495H45.2664V87.695ZM44.8614 82.05H44.1684V82.25H44.8614V82.05ZM44.0684 82.15V87.595H44.2684V82.15H44.0684ZM44.1684 87.695H44.8614V87.495H44.1684V87.695ZM44.9614 87.595V82.15H44.7614V87.595H44.9614ZM47.7324 83.779V83.679H47.6324V83.779H47.7324ZM53.3484 83.779H53.4484V83.679H53.3484V83.779ZM53.3484 86.092V86.192H53.4484V86.092H53.3484ZM49.2354 86.092V85.992H49.1354V86.092H49.2354ZM49.2354 87.595H49.1354V87.695H49.2354V87.595ZM52.9434 87.595V87.695H53.0434V87.595H52.9434ZM52.9434 86.902V86.802H52.8434V86.902H52.9434ZM53.3484 86.902H53.4484V86.802H53.3484V86.902ZM53.3484 88V88.1H53.4484V88H53.3484ZM47.7324 88H47.6324V88.1H47.7324V88ZM49.2354 84.184V84.084H49.1354V84.184H49.2354ZM49.2354 85.687H49.1354V85.787H49.2354V85.687ZM52.9434 85.687V85.787H53.0434V85.687H52.9434ZM52.9434 84.184H53.0434V84.084H52.9434V84.184ZM48.1374 87.595H48.0374V87.695H48.1374V87.595ZM48.8304 87.595V87.695H48.9304V87.595H48.8304ZM48.8304 84.184H48.9304V84.084H48.8304V84.184ZM48.1374 84.184V84.084H48.0374V84.184H48.1374ZM47.7324 83.879H53.3484V83.679H47.7324V83.879ZM53.2484 83.779V86.092H53.4484V83.779H53.2484ZM53.3484 85.992H49.2354V86.192H53.3484V85.992ZM49.1354 86.092V87.595H49.3354V86.092H49.1354ZM49.2354 87.695H52.9434V87.495H49.2354V87.695ZM53.0434 87.595V86.902H52.8434V87.595H53.0434ZM52.9434 87.002H53.3484V86.802H52.9434V87.002ZM53.2484 86.902V88H53.4484V86.902H53.2484ZM53.3484 87.9H47.7324V88.1H53.3484V87.9ZM47.8324 88V83.779H47.6324V88H47.8324ZM49.1354 84.184V85.687H49.3354V84.184H49.1354ZM49.2354 85.787H52.9434V85.587H49.2354V85.787ZM53.0434 85.687V84.184H52.8434V85.687H53.0434ZM52.9434 84.084H49.2354V84.284H52.9434V84.084ZM48.1374 87.695H48.8304V87.495H48.1374V87.695ZM48.9304 87.595V84.184H48.7304V87.595H48.9304ZM48.8304 84.084H48.1374V84.284H48.8304V84.084ZM48.0374 84.184V87.595H48.2374V84.184H48.0374ZM54.1607 83.779V83.679H54.0607V83.779H54.1607ZM59.8847 83.779H59.9847V83.679H59.8847V83.779ZM59.8847 84.868V84.968H59.9847V84.868H59.8847ZM59.4797 84.868H59.3797V84.968H59.4797V84.868ZM59.4797 84.184H59.5797V84.084H59.4797V84.184ZM56.5547 84.184V84.084H56.4547V84.184H56.5547ZM56.5547 87.595H56.4547V87.695H56.5547V87.595ZM57.4457 87.595H57.5457V87.495H57.4457V87.595ZM57.4457 88V88.1H57.5457V88H57.4457ZM54.1607 88H54.0607V88.1H54.1607V88ZM54.1607 87.595V87.495H54.0607V87.595H54.1607ZM55.0517 87.595V87.695H55.1517V87.595H55.0517ZM55.0517 84.184H55.1517V84.084H55.0517V84.184ZM54.1607 84.184H54.0607V84.284H54.1607V84.184ZM56.1497 87.595V87.695H56.2497V87.595H56.1497ZM56.1497 84.184H56.2497V84.084H56.1497V84.184ZM55.4567 84.184V84.084H55.3567V84.184H55.4567ZM55.4567 87.595H55.3567V87.695H55.4567V87.595ZM54.1607 83.879H59.8847V83.679H54.1607V83.879ZM59.7847 83.779V84.868H59.9847V83.779H59.7847ZM59.8847 84.768H59.4797V84.968H59.8847V84.768ZM59.5797 84.868V84.184H59.3797V84.868H59.5797ZM59.4797 84.084H56.5547V84.284H59.4797V84.084ZM56.4547 84.184V87.595H56.6547V84.184H56.4547ZM56.5547 87.695H57.4457V87.495H56.5547V87.695ZM57.3457 87.595V88H57.5457V87.595H57.3457ZM57.4457 87.9H54.1607V88.1H57.4457V87.9ZM54.2607 88V87.595H54.0607V88H54.2607ZM54.1607 87.695H55.0517V87.495H54.1607V87.695ZM55.1517 87.595V84.184H54.9517V87.595H55.1517ZM55.0517 84.084H54.1607V84.284H55.0517V84.084ZM54.2607 84.184V83.779H54.0607V84.184H54.2607ZM56.2497 87.595V84.184H56.0497V87.595H56.2497ZM56.1497 84.084H55.4567V84.284H56.1497V84.084ZM55.3567 84.184V87.595H55.5567V84.184H55.3567ZM55.4567 87.695H56.1497V87.495H55.4567V87.695Z" fill="black" mask="url(#path-8-outside-3_544_461)"/>
</svg>
