<svg width="60" height="108" viewBox="0 0 60 108" fill="none" xmlns="http://www.w3.org/2000/svg">
<rect x="7.5" y="0.5" width="45" height="25" rx="3.5" fill="white" stroke="#959595"/>
<mask id="path-2-outside-1_551_532" maskUnits="userSpaceOnUse" x="16" y="9" width="28" height="10" fill="black">
<rect fill="white" x="16" y="9" width="28" height="10"/>
<path d="M24.8956 10.15V15.595H25.7866V16H23.5996V15.595H24.4906V13.075H19.0456V15.595H19.9456V16H16.6516V15.595H17.5516V10.15H16.6516V9.745H19.9456V10.15H19.0456V12.67H24.4906V10.15H23.5996V9.745H25.7866V10.15H24.8956ZM18.6406 10.15H17.9566V15.595H18.6406V10.15ZM26.6157 11.779H32.2317V14.092H28.1187V15.595H31.8267V14.902H32.2317V16H26.6157V11.779ZM28.1187 12.184V13.687H31.8267V12.184H28.1187ZM27.0207 15.595H27.7137V12.184H27.0207V15.595ZM35.303 15.595H36.194V16H32.909V15.595H33.8V10.15H32.909V9.745H35.303V15.595ZM34.898 10.15H34.205V15.595H34.898V10.15ZM36.451 17.629H37.342V12.184H36.451V11.779H43.084V16H38.845V17.629H39.736V18.034H36.451V17.629ZM42.679 12.184H38.845V15.595H42.679V12.184ZM38.44 12.184H37.747V17.629H38.44V12.184Z"/>
</mask>
<path d="M24.8956 10.15V15.595H25.7866V16H23.5996V15.595H24.4906V13.075H19.0456V15.595H19.9456V16H16.6516V15.595H17.5516V10.15H16.6516V9.745H19.9456V10.15H19.0456V12.67H24.4906V10.15H23.5996V9.745H25.7866V10.15H24.8956ZM18.6406 10.15H17.9566V15.595H18.6406V10.15ZM26.6157 11.779H32.2317V14.092H28.1187V15.595H31.8267V14.902H32.2317V16H26.6157V11.779ZM28.1187 12.184V13.687H31.8267V12.184H28.1187ZM27.0207 15.595H27.7137V12.184H27.0207V15.595ZM35.303 15.595H36.194V16H32.909V15.595H33.8V10.15H32.909V9.745H35.303V15.595ZM34.898 10.15H34.205V15.595H34.898V10.15ZM36.451 17.629H37.342V12.184H36.451V11.779H43.084V16H38.845V17.629H39.736V18.034H36.451V17.629ZM42.679 12.184H38.845V15.595H42.679V12.184ZM38.44 12.184H37.747V17.629H38.44V12.184Z" fill="black"/>
<path d="M24.8956 10.15V10.05H24.7956V10.15H24.8956ZM24.8956 15.595H24.7956V15.695H24.8956V15.595ZM25.7866 15.595H25.8866V15.495H25.7866V15.595ZM25.7866 16V16.1H25.8866V16H25.7866ZM23.5996 16H23.4996V16.1H23.5996V16ZM23.5996 15.595V15.495H23.4996V15.595H23.5996ZM24.4906 15.595V15.695H24.5906V15.595H24.4906ZM24.4906 13.075H24.5906V12.975H24.4906V13.075ZM19.0456 13.075V12.975H18.9456V13.075H19.0456ZM19.0456 15.595H18.9456V15.695H19.0456V15.595ZM19.9456 15.595H20.0456V15.495H19.9456V15.595ZM19.9456 16V16.1H20.0456V16H19.9456ZM16.6516 16H16.5516V16.1H16.6516V16ZM16.6516 15.595V15.495H16.5516V15.595H16.6516ZM17.5516 15.595V15.695H17.6516V15.595H17.5516ZM17.5516 10.15H17.6516V10.05H17.5516V10.15ZM16.6516 10.15H16.5516V10.25H16.6516V10.15ZM16.6516 9.745V9.645H16.5516V9.745H16.6516ZM19.9456 9.745H20.0456V9.645H19.9456V9.745ZM19.9456 10.15V10.25H20.0456V10.15H19.9456ZM19.0456 10.15V10.05H18.9456V10.15H19.0456ZM19.0456 12.67H18.9456V12.77H19.0456V12.67ZM24.4906 12.67V12.77H24.5906V12.67H24.4906ZM24.4906 10.15H24.5906V10.05H24.4906V10.15ZM23.5996 10.15H23.4996V10.25H23.5996V10.15ZM23.5996 9.745V9.645H23.4996V9.745H23.5996ZM25.7866 9.745H25.8866V9.645H25.7866V9.745ZM25.7866 10.15V10.25H25.8866V10.15H25.7866ZM18.6406 10.15H18.7406V10.05H18.6406V10.15ZM17.9566 10.15V10.05H17.8566V10.15H17.9566ZM17.9566 15.595H17.8566V15.695H17.9566V15.595ZM18.6406 15.595V15.695H18.7406V15.595H18.6406ZM24.7956 10.15V15.595H24.9956V10.15H24.7956ZM24.8956 15.695H25.7866V15.495H24.8956V15.695ZM25.6866 15.595V16H25.8866V15.595H25.6866ZM25.7866 15.9H23.5996V16.1H25.7866V15.9ZM23.6996 16V15.595H23.4996V16H23.6996ZM23.5996 15.695H24.4906V15.495H23.5996V15.695ZM24.5906 15.595V13.075H24.3906V15.595H24.5906ZM24.4906 12.975H19.0456V13.175H24.4906V12.975ZM18.9456 13.075V15.595H19.1456V13.075H18.9456ZM19.0456 15.695H19.9456V15.495H19.0456V15.695ZM19.8456 15.595V16H20.0456V15.595H19.8456ZM19.9456 15.9H16.6516V16.1H19.9456V15.9ZM16.7516 16V15.595H16.5516V16H16.7516ZM16.6516 15.695H17.5516V15.495H16.6516V15.695ZM17.6516 15.595V10.15H17.4516V15.595H17.6516ZM17.5516 10.05H16.6516V10.25H17.5516V10.05ZM16.7516 10.15V9.745H16.5516V10.15H16.7516ZM16.6516 9.845H19.9456V9.645H16.6516V9.845ZM19.8456 9.745V10.15H20.0456V9.745H19.8456ZM19.9456 10.05H19.0456V10.25H19.9456V10.05ZM18.9456 10.15V12.67H19.1456V10.15H18.9456ZM19.0456 12.77H24.4906V12.57H19.0456V12.77ZM24.5906 12.67V10.15H24.3906V12.67H24.5906ZM24.4906 10.05H23.5996V10.25H24.4906V10.05ZM23.6996 10.15V9.745H23.4996V10.15H23.6996ZM23.5996 9.845H25.7866V9.645H23.5996V9.845ZM25.6866 9.745V10.15H25.8866V9.745H25.6866ZM25.7866 10.05H24.8956V10.25H25.7866V10.05ZM18.6406 10.05H17.9566V10.25H18.6406V10.05ZM17.8566 10.15V15.595H18.0566V10.15H17.8566ZM17.9566 15.695H18.6406V15.495H17.9566V15.695ZM18.7406 15.595V10.15H18.5406V15.595H18.7406ZM26.6157 11.779V11.679H26.5157V11.779H26.6157ZM32.2317 11.779H32.3317V11.679H32.2317V11.779ZM32.2317 14.092V14.192H32.3317V14.092H32.2317ZM28.1187 14.092V13.992H28.0187V14.092H28.1187ZM28.1187 15.595H28.0187V15.695H28.1187V15.595ZM31.8267 15.595V15.695H31.9267V15.595H31.8267ZM31.8267 14.902V14.802H31.7267V14.902H31.8267ZM32.2317 14.902H32.3317V14.802H32.2317V14.902ZM32.2317 16V16.1H32.3317V16H32.2317ZM26.6157 16H26.5157V16.1H26.6157V16ZM28.1187 12.184V12.084H28.0187V12.184H28.1187ZM28.1187 13.687H28.0187V13.787H28.1187V13.687ZM31.8267 13.687V13.787H31.9267V13.687H31.8267ZM31.8267 12.184H31.9267V12.084H31.8267V12.184ZM27.0207 15.595H26.9207V15.695H27.0207V15.595ZM27.7137 15.595V15.695H27.8137V15.595H27.7137ZM27.7137 12.184H27.8137V12.084H27.7137V12.184ZM27.0207 12.184V12.084H26.9207V12.184H27.0207ZM26.6157 11.879H32.2317V11.679H26.6157V11.879ZM32.1317 11.779V14.092H32.3317V11.779H32.1317ZM32.2317 13.992H28.1187V14.192H32.2317V13.992ZM28.0187 14.092V15.595H28.2187V14.092H28.0187ZM28.1187 15.695H31.8267V15.495H28.1187V15.695ZM31.9267 15.595V14.902H31.7267V15.595H31.9267ZM31.8267 15.002H32.2317V14.802H31.8267V15.002ZM32.1317 14.902V16H32.3317V14.902H32.1317ZM32.2317 15.9H26.6157V16.1H32.2317V15.9ZM26.7157 16V11.779H26.5157V16H26.7157ZM28.0187 12.184V13.687H28.2187V12.184H28.0187ZM28.1187 13.787H31.8267V13.587H28.1187V13.787ZM31.9267 13.687V12.184H31.7267V13.687H31.9267ZM31.8267 12.084H28.1187V12.284H31.8267V12.084ZM27.0207 15.695H27.7137V15.495H27.0207V15.695ZM27.8137 15.595V12.184H27.6137V15.595H27.8137ZM27.7137 12.084H27.0207V12.284H27.7137V12.084ZM26.9207 12.184V15.595H27.1207V12.184H26.9207ZM35.303 15.595H35.203V15.695H35.303V15.595ZM36.194 15.595H36.294V15.495H36.194V15.595ZM36.194 16V16.1H36.294V16H36.194ZM32.909 16H32.809V16.1H32.909V16ZM32.909 15.595V15.495H32.809V15.595H32.909ZM33.8 15.595V15.695H33.9V15.595H33.8ZM33.8 10.15H33.9V10.05H33.8V10.15ZM32.909 10.15H32.809V10.25H32.909V10.15ZM32.909 9.745V9.645H32.809V9.745H32.909ZM35.303 9.745H35.403V9.645H35.303V9.745ZM34.898 10.15H34.998V10.05H34.898V10.15ZM34.205 10.15V10.05H34.105V10.15H34.205ZM34.205 15.595H34.105V15.695H34.205V15.595ZM34.898 15.595V15.695H34.998V15.595H34.898ZM35.303 15.695H36.194V15.495H35.303V15.695ZM36.094 15.595V16H36.294V15.595H36.094ZM36.194 15.9H32.909V16.1H36.194V15.9ZM33.009 16V15.595H32.809V16H33.009ZM32.909 15.695H33.8V15.495H32.909V15.695ZM33.9 15.595V10.15H33.7V15.595H33.9ZM33.8 10.05H32.909V10.25H33.8V10.05ZM33.009 10.15V9.745H32.809V10.15H33.009ZM32.909 9.845H35.303V9.645H32.909V9.845ZM35.203 9.745V15.595H35.403V9.745H35.203ZM34.898 10.05H34.205V10.25H34.898V10.05ZM34.105 10.15V15.595H34.305V10.15H34.105ZM34.205 15.695H34.898V15.495H34.205V15.695ZM34.998 15.595V10.15H34.798V15.595H34.998ZM36.451 17.629V17.529H36.351V17.629H36.451ZM37.342 17.629V17.729H37.442V17.629H37.342ZM37.342 12.184H37.442V12.084H37.342V12.184ZM36.451 12.184H36.351V12.284H36.451V12.184ZM36.451 11.779V11.679H36.351V11.779H36.451ZM43.084 11.779H43.184V11.679H43.084V11.779ZM43.084 16V16.1H43.184V16H43.084ZM38.845 16V15.9H38.745V16H38.845ZM38.845 17.629H38.745V17.729H38.845V17.629ZM39.736 17.629H39.836V17.529H39.736V17.629ZM39.736 18.034V18.134H39.836V18.034H39.736ZM36.451 18.034H36.351V18.134H36.451V18.034ZM42.679 12.184H42.779V12.084H42.679V12.184ZM38.845 12.184V12.084H38.745V12.184H38.845ZM38.845 15.595H38.745V15.695H38.845V15.595ZM42.679 15.595V15.695H42.779V15.595H42.679ZM38.44 12.184H38.54V12.084H38.44V12.184ZM37.747 12.184V12.084H37.647V12.184H37.747ZM37.747 17.629H37.647V17.729H37.747V17.629ZM38.44 17.629V17.729H38.54V17.629H38.44ZM36.451 17.729H37.342V17.529H36.451V17.729ZM37.442 17.629V12.184H37.242V17.629H37.442ZM37.342 12.084H36.451V12.284H37.342V12.084ZM36.551 12.184V11.779H36.351V12.184H36.551ZM36.451 11.879H43.084V11.679H36.451V11.879ZM42.984 11.779V16H43.184V11.779H42.984ZM43.084 15.9H38.845V16.1H43.084V15.9ZM38.745 16V17.629H38.945V16H38.745ZM38.845 17.729H39.736V17.529H38.845V17.729ZM39.636 17.629V18.034H39.836V17.629H39.636ZM39.736 17.934H36.451V18.134H39.736V17.934ZM36.551 18.034V17.629H36.351V18.034H36.551ZM42.679 12.084H38.845V12.284H42.679V12.084ZM38.745 12.184V15.595H38.945V12.184H38.745ZM38.845 15.695H42.679V15.495H38.845V15.695ZM42.779 15.595V12.184H42.579V15.595H42.779ZM38.44 12.084H37.747V12.284H38.44V12.084ZM37.647 12.184V17.629H37.847V12.184H37.647ZM37.747 17.729H38.44V17.529H37.747V17.729ZM38.54 17.629V12.184H38.34V17.629H38.54Z" fill="black" mask="url(#path-2-outside-1_551_532)"/>
<rect x="7.5" y="36.5" width="45" height="25" rx="3.5" fill="#EB6E91" stroke="#EB6E91"/>
<mask id="path-5-outside-2_551_532" maskUnits="userSpaceOnUse" x="16" y="45" width="28" height="10" fill="black">
<rect fill="white" x="16" y="45" width="28" height="10"/>
<path d="M24.8956 46.15V51.595H25.7866V52H23.5996V51.595H24.4906V49.075H19.0456V51.595H19.9456V52H16.6516V51.595H17.5516V46.15H16.6516V45.745H19.9456V46.15H19.0456V48.67H24.4906V46.15H23.5996V45.745H25.7866V46.15H24.8956ZM18.6406 46.15H17.9566V51.595H18.6406V46.15ZM26.6157 47.779H32.2317V50.092H28.1187V51.595H31.8267V50.902H32.2317V52H26.6157V47.779ZM28.1187 48.184V49.687H31.8267V48.184H28.1187ZM27.0207 51.595H27.7137V48.184H27.0207V51.595ZM35.303 51.595H36.194V52H32.909V51.595H33.8V46.15H32.909V45.745H35.303V51.595ZM34.898 46.15H34.205V51.595H34.898V46.15ZM36.451 53.629H37.342V48.184H36.451V47.779H43.084V52H38.845V53.629H39.736V54.034H36.451V53.629ZM42.679 48.184H38.845V51.595H42.679V48.184ZM38.44 48.184H37.747V53.629H38.44V48.184Z"/>
</mask>
<path d="M24.8956 46.15V51.595H25.7866V52H23.5996V51.595H24.4906V49.075H19.0456V51.595H19.9456V52H16.6516V51.595H17.5516V46.15H16.6516V45.745H19.9456V46.15H19.0456V48.67H24.4906V46.15H23.5996V45.745H25.7866V46.15H24.8956ZM18.6406 46.15H17.9566V51.595H18.6406V46.15ZM26.6157 47.779H32.2317V50.092H28.1187V51.595H31.8267V50.902H32.2317V52H26.6157V47.779ZM28.1187 48.184V49.687H31.8267V48.184H28.1187ZM27.0207 51.595H27.7137V48.184H27.0207V51.595ZM35.303 51.595H36.194V52H32.909V51.595H33.8V46.15H32.909V45.745H35.303V51.595ZM34.898 46.15H34.205V51.595H34.898V46.15ZM36.451 53.629H37.342V48.184H36.451V47.779H43.084V52H38.845V53.629H39.736V54.034H36.451V53.629ZM42.679 48.184H38.845V51.595H42.679V48.184ZM38.44 48.184H37.747V53.629H38.44V48.184Z" fill="white"/>
<path d="M24.8956 46.15V46.05H24.7956V46.15H24.8956ZM24.8956 51.595H24.7956V51.695H24.8956V51.595ZM25.7866 51.595H25.8866V51.495H25.7866V51.595ZM25.7866 52V52.1H25.8866V52H25.7866ZM23.5996 52H23.4996V52.1H23.5996V52ZM23.5996 51.595V51.495H23.4996V51.595H23.5996ZM24.4906 51.595V51.695H24.5906V51.595H24.4906ZM24.4906 49.075H24.5906V48.975H24.4906V49.075ZM19.0456 49.075V48.975H18.9456V49.075H19.0456ZM19.0456 51.595H18.9456V51.695H19.0456V51.595ZM19.9456 51.595H20.0456V51.495H19.9456V51.595ZM19.9456 52V52.1H20.0456V52H19.9456ZM16.6516 52H16.5516V52.1H16.6516V52ZM16.6516 51.595V51.495H16.5516V51.595H16.6516ZM17.5516 51.595V51.695H17.6516V51.595H17.5516ZM17.5516 46.15H17.6516V46.05H17.5516V46.15ZM16.6516 46.15H16.5516V46.25H16.6516V46.15ZM16.6516 45.745V45.645H16.5516V45.745H16.6516ZM19.9456 45.745H20.0456V45.645H19.9456V45.745ZM19.9456 46.15V46.25H20.0456V46.15H19.9456ZM19.0456 46.15V46.05H18.9456V46.15H19.0456ZM19.0456 48.67H18.9456V48.77H19.0456V48.67ZM24.4906 48.67V48.77H24.5906V48.67H24.4906ZM24.4906 46.15H24.5906V46.05H24.4906V46.15ZM23.5996 46.15H23.4996V46.25H23.5996V46.15ZM23.5996 45.745V45.645H23.4996V45.745H23.5996ZM25.7866 45.745H25.8866V45.645H25.7866V45.745ZM25.7866 46.15V46.25H25.8866V46.15H25.7866ZM18.6406 46.15H18.7406V46.05H18.6406V46.15ZM17.9566 46.15V46.05H17.8566V46.15H17.9566ZM17.9566 51.595H17.8566V51.695H17.9566V51.595ZM18.6406 51.595V51.695H18.7406V51.595H18.6406ZM24.7956 46.15V51.595H24.9956V46.15H24.7956ZM24.8956 51.695H25.7866V51.495H24.8956V51.695ZM25.6866 51.595V52H25.8866V51.595H25.6866ZM25.7866 51.9H23.5996V52.1H25.7866V51.9ZM23.6996 52V51.595H23.4996V52H23.6996ZM23.5996 51.695H24.4906V51.495H23.5996V51.695ZM24.5906 51.595V49.075H24.3906V51.595H24.5906ZM24.4906 48.975H19.0456V49.175H24.4906V48.975ZM18.9456 49.075V51.595H19.1456V49.075H18.9456ZM19.0456 51.695H19.9456V51.495H19.0456V51.695ZM19.8456 51.595V52H20.0456V51.595H19.8456ZM19.9456 51.9H16.6516V52.1H19.9456V51.9ZM16.7516 52V51.595H16.5516V52H16.7516ZM16.6516 51.695H17.5516V51.495H16.6516V51.695ZM17.6516 51.595V46.15H17.4516V51.595H17.6516ZM17.5516 46.05H16.6516V46.25H17.5516V46.05ZM16.7516 46.15V45.745H16.5516V46.15H16.7516ZM16.6516 45.845H19.9456V45.645H16.6516V45.845ZM19.8456 45.745V46.15H20.0456V45.745H19.8456ZM19.9456 46.05H19.0456V46.25H19.9456V46.05ZM18.9456 46.15V48.67H19.1456V46.15H18.9456ZM19.0456 48.77H24.4906V48.57H19.0456V48.77ZM24.5906 48.67V46.15H24.3906V48.67H24.5906ZM24.4906 46.05H23.5996V46.25H24.4906V46.05ZM23.6996 46.15V45.745H23.4996V46.15H23.6996ZM23.5996 45.845H25.7866V45.645H23.5996V45.845ZM25.6866 45.745V46.15H25.8866V45.745H25.6866ZM25.7866 46.05H24.8956V46.25H25.7866V46.05ZM18.6406 46.05H17.9566V46.25H18.6406V46.05ZM17.8566 46.15V51.595H18.0566V46.15H17.8566ZM17.9566 51.695H18.6406V51.495H17.9566V51.695ZM18.7406 51.595V46.15H18.5406V51.595H18.7406ZM26.6157 47.779V47.679H26.5157V47.779H26.6157ZM32.2317 47.779H32.3317V47.679H32.2317V47.779ZM32.2317 50.092V50.192H32.3317V50.092H32.2317ZM28.1187 50.092V49.992H28.0187V50.092H28.1187ZM28.1187 51.595H28.0187V51.695H28.1187V51.595ZM31.8267 51.595V51.695H31.9267V51.595H31.8267ZM31.8267 50.902V50.802H31.7267V50.902H31.8267ZM32.2317 50.902H32.3317V50.802H32.2317V50.902ZM32.2317 52V52.1H32.3317V52H32.2317ZM26.6157 52H26.5157V52.1H26.6157V52ZM28.1187 48.184V48.084H28.0187V48.184H28.1187ZM28.1187 49.687H28.0187V49.787H28.1187V49.687ZM31.8267 49.687V49.787H31.9267V49.687H31.8267ZM31.8267 48.184H31.9267V48.084H31.8267V48.184ZM27.0207 51.595H26.9207V51.695H27.0207V51.595ZM27.7137 51.595V51.695H27.8137V51.595H27.7137ZM27.7137 48.184H27.8137V48.084H27.7137V48.184ZM27.0207 48.184V48.084H26.9207V48.184H27.0207ZM26.6157 47.879H32.2317V47.679H26.6157V47.879ZM32.1317 47.779V50.092H32.3317V47.779H32.1317ZM32.2317 49.992H28.1187V50.192H32.2317V49.992ZM28.0187 50.092V51.595H28.2187V50.092H28.0187ZM28.1187 51.695H31.8267V51.495H28.1187V51.695ZM31.9267 51.595V50.902H31.7267V51.595H31.9267ZM31.8267 51.002H32.2317V50.802H31.8267V51.002ZM32.1317 50.902V52H32.3317V50.902H32.1317ZM32.2317 51.9H26.6157V52.1H32.2317V51.9ZM26.7157 52V47.779H26.5157V52H26.7157ZM28.0187 48.184V49.687H28.2187V48.184H28.0187ZM28.1187 49.787H31.8267V49.587H28.1187V49.787ZM31.9267 49.687V48.184H31.7267V49.687H31.9267ZM31.8267 48.084H28.1187V48.284H31.8267V48.084ZM27.0207 51.695H27.7137V51.495H27.0207V51.695ZM27.8137 51.595V48.184H27.6137V51.595H27.8137ZM27.7137 48.084H27.0207V48.284H27.7137V48.084ZM26.9207 48.184V51.595H27.1207V48.184H26.9207ZM35.303 51.595H35.203V51.695H35.303V51.595ZM36.194 51.595H36.294V51.495H36.194V51.595ZM36.194 52V52.1H36.294V52H36.194ZM32.909 52H32.809V52.1H32.909V52ZM32.909 51.595V51.495H32.809V51.595H32.909ZM33.8 51.595V51.695H33.9V51.595H33.8ZM33.8 46.15H33.9V46.05H33.8V46.15ZM32.909 46.15H32.809V46.25H32.909V46.15ZM32.909 45.745V45.645H32.809V45.745H32.909ZM35.303 45.745H35.403V45.645H35.303V45.745ZM34.898 46.15H34.998V46.05H34.898V46.15ZM34.205 46.15V46.05H34.105V46.15H34.205ZM34.205 51.595H34.105V51.695H34.205V51.595ZM34.898 51.595V51.695H34.998V51.595H34.898ZM35.303 51.695H36.194V51.495H35.303V51.695ZM36.094 51.595V52H36.294V51.595H36.094ZM36.194 51.9H32.909V52.1H36.194V51.9ZM33.009 52V51.595H32.809V52H33.009ZM32.909 51.695H33.8V51.495H32.909V51.695ZM33.9 51.595V46.15H33.7V51.595H33.9ZM33.8 46.05H32.909V46.25H33.8V46.05ZM33.009 46.15V45.745H32.809V46.15H33.009ZM32.909 45.845H35.303V45.645H32.909V45.845ZM35.203 45.745V51.595H35.403V45.745H35.203ZM34.898 46.05H34.205V46.25H34.898V46.05ZM34.105 46.15V51.595H34.305V46.15H34.105ZM34.205 51.695H34.898V51.495H34.205V51.695ZM34.998 51.595V46.15H34.798V51.595H34.998ZM36.451 53.629V53.529H36.351V53.629H36.451ZM37.342 53.629V53.729H37.442V53.629H37.342ZM37.342 48.184H37.442V48.084H37.342V48.184ZM36.451 48.184H36.351V48.284H36.451V48.184ZM36.451 47.779V47.679H36.351V47.779H36.451ZM43.084 47.779H43.184V47.679H43.084V47.779ZM43.084 52V52.1H43.184V52H43.084ZM38.845 52V51.9H38.745V52H38.845ZM38.845 53.629H38.745V53.729H38.845V53.629ZM39.736 53.629H39.836V53.529H39.736V53.629ZM39.736 54.034V54.134H39.836V54.034H39.736ZM36.451 54.034H36.351V54.134H36.451V54.034ZM42.679 48.184H42.779V48.084H42.679V48.184ZM38.845 48.184V48.084H38.745V48.184H38.845ZM38.845 51.595H38.745V51.695H38.845V51.595ZM42.679 51.595V51.695H42.779V51.595H42.679ZM38.44 48.184H38.54V48.084H38.44V48.184ZM37.747 48.184V48.084H37.647V48.184H37.747ZM37.747 53.629H37.647V53.729H37.747V53.629ZM38.44 53.629V53.729H38.54V53.629H38.44ZM36.451 53.729H37.342V53.529H36.451V53.729ZM37.442 53.629V48.184H37.242V53.629H37.442ZM37.342 48.084H36.451V48.284H37.342V48.084ZM36.551 48.184V47.779H36.351V48.184H36.551ZM36.451 47.879H43.084V47.679H36.451V47.879ZM42.984 47.779V52H43.184V47.779H42.984ZM43.084 51.9H38.845V52.1H43.084V51.9ZM38.745 52V53.629H38.945V52H38.745ZM38.845 53.729H39.736V53.529H38.845V53.729ZM39.636 53.629V54.034H39.836V53.629H39.636ZM39.736 53.934H36.451V54.134H39.736V53.934ZM36.551 54.034V53.629H36.351V54.034H36.551ZM42.679 48.084H38.845V48.284H42.679V48.084ZM38.745 48.184V51.595H38.945V48.184H38.745ZM38.845 51.695H42.679V51.495H38.845V51.695ZM42.779 51.595V48.184H42.579V51.595H42.779ZM38.44 48.084H37.747V48.284H38.44V48.084ZM37.647 48.184V53.629H37.847V48.184H37.647ZM37.747 53.729H38.44V53.529H37.747V53.729ZM38.54 53.629V48.184H38.34V53.629H38.54Z" fill="white" mask="url(#path-5-outside-2_551_532)"/>
<rect x="7.5" y="72.5" width="45" height="25" rx="3.5" fill="white" stroke="#EB6E91"/>
<mask id="path-8-outside-3_551_532" maskUnits="userSpaceOnUse" x="16" y="81" width="28" height="10" fill="black">
<rect fill="white" x="16" y="81" width="28" height="10"/>
<path d="M24.8956 82.15V87.595H25.7866V88H23.5996V87.595H24.4906V85.075H19.0456V87.595H19.9456V88H16.6516V87.595H17.5516V82.15H16.6516V81.745H19.9456V82.15H19.0456V84.67H24.4906V82.15H23.5996V81.745H25.7866V82.15H24.8956ZM18.6406 82.15H17.9566V87.595H18.6406V82.15ZM26.6157 83.779H32.2317V86.092H28.1187V87.595H31.8267V86.902H32.2317V88H26.6157V83.779ZM28.1187 84.184V85.687H31.8267V84.184H28.1187ZM27.0207 87.595H27.7137V84.184H27.0207V87.595ZM35.303 87.595H36.194V88H32.909V87.595H33.8V82.15H32.909V81.745H35.303V87.595ZM34.898 82.15H34.205V87.595H34.898V82.15ZM36.451 89.629H37.342V84.184H36.451V83.779H43.084V88H38.845V89.629H39.736V90.034H36.451V89.629ZM42.679 84.184H38.845V87.595H42.679V84.184ZM38.44 84.184H37.747V89.629H38.44V84.184Z"/>
</mask>
<path d="M24.8956 82.15V87.595H25.7866V88H23.5996V87.595H24.4906V85.075H19.0456V87.595H19.9456V88H16.6516V87.595H17.5516V82.15H16.6516V81.745H19.9456V82.15H19.0456V84.67H24.4906V82.15H23.5996V81.745H25.7866V82.15H24.8956ZM18.6406 82.15H17.9566V87.595H18.6406V82.15ZM26.6157 83.779H32.2317V86.092H28.1187V87.595H31.8267V86.902H32.2317V88H26.6157V83.779ZM28.1187 84.184V85.687H31.8267V84.184H28.1187ZM27.0207 87.595H27.7137V84.184H27.0207V87.595ZM35.303 87.595H36.194V88H32.909V87.595H33.8V82.15H32.909V81.745H35.303V87.595ZM34.898 82.15H34.205V87.595H34.898V82.15ZM36.451 89.629H37.342V84.184H36.451V83.779H43.084V88H38.845V89.629H39.736V90.034H36.451V89.629ZM42.679 84.184H38.845V87.595H42.679V84.184ZM38.44 84.184H37.747V89.629H38.44V84.184Z" fill="black"/>
<path d="M24.8956 82.15V82.05H24.7956V82.15H24.8956ZM24.8956 87.595H24.7956V87.695H24.8956V87.595ZM25.7866 87.595H25.8866V87.495H25.7866V87.595ZM25.7866 88V88.1H25.8866V88H25.7866ZM23.5996 88H23.4996V88.1H23.5996V88ZM23.5996 87.595V87.495H23.4996V87.595H23.5996ZM24.4906 87.595V87.695H24.5906V87.595H24.4906ZM24.4906 85.075H24.5906V84.975H24.4906V85.075ZM19.0456 85.075V84.975H18.9456V85.075H19.0456ZM19.0456 87.595H18.9456V87.695H19.0456V87.595ZM19.9456 87.595H20.0456V87.495H19.9456V87.595ZM19.9456 88V88.1H20.0456V88H19.9456ZM16.6516 88H16.5516V88.1H16.6516V88ZM16.6516 87.595V87.495H16.5516V87.595H16.6516ZM17.5516 87.595V87.695H17.6516V87.595H17.5516ZM17.5516 82.15H17.6516V82.05H17.5516V82.15ZM16.6516 82.15H16.5516V82.25H16.6516V82.15ZM16.6516 81.745V81.645H16.5516V81.745H16.6516ZM19.9456 81.745H20.0456V81.645H19.9456V81.745ZM19.9456 82.15V82.25H20.0456V82.15H19.9456ZM19.0456 82.15V82.05H18.9456V82.15H19.0456ZM19.0456 84.67H18.9456V84.77H19.0456V84.67ZM24.4906 84.67V84.77H24.5906V84.67H24.4906ZM24.4906 82.15H24.5906V82.05H24.4906V82.15ZM23.5996 82.15H23.4996V82.25H23.5996V82.15ZM23.5996 81.745V81.645H23.4996V81.745H23.5996ZM25.7866 81.745H25.8866V81.645H25.7866V81.745ZM25.7866 82.15V82.25H25.8866V82.15H25.7866ZM18.6406 82.15H18.7406V82.05H18.6406V82.15ZM17.9566 82.15V82.05H17.8566V82.15H17.9566ZM17.9566 87.595H17.8566V87.695H17.9566V87.595ZM18.6406 87.595V87.695H18.7406V87.595H18.6406ZM24.7956 82.15V87.595H24.9956V82.15H24.7956ZM24.8956 87.695H25.7866V87.495H24.8956V87.695ZM25.6866 87.595V88H25.8866V87.595H25.6866ZM25.7866 87.9H23.5996V88.1H25.7866V87.9ZM23.6996 88V87.595H23.4996V88H23.6996ZM23.5996 87.695H24.4906V87.495H23.5996V87.695ZM24.5906 87.595V85.075H24.3906V87.595H24.5906ZM24.4906 84.975H19.0456V85.175H24.4906V84.975ZM18.9456 85.075V87.595H19.1456V85.075H18.9456ZM19.0456 87.695H19.9456V87.495H19.0456V87.695ZM19.8456 87.595V88H20.0456V87.595H19.8456ZM19.9456 87.9H16.6516V88.1H19.9456V87.9ZM16.7516 88V87.595H16.5516V88H16.7516ZM16.6516 87.695H17.5516V87.495H16.6516V87.695ZM17.6516 87.595V82.15H17.4516V87.595H17.6516ZM17.5516 82.05H16.6516V82.25H17.5516V82.05ZM16.7516 82.15V81.745H16.5516V82.15H16.7516ZM16.6516 81.845H19.9456V81.645H16.6516V81.845ZM19.8456 81.745V82.15H20.0456V81.745H19.8456ZM19.9456 82.05H19.0456V82.25H19.9456V82.05ZM18.9456 82.15V84.67H19.1456V82.15H18.9456ZM19.0456 84.77H24.4906V84.57H19.0456V84.77ZM24.5906 84.67V82.15H24.3906V84.67H24.5906ZM24.4906 82.05H23.5996V82.25H24.4906V82.05ZM23.6996 82.15V81.745H23.4996V82.15H23.6996ZM23.5996 81.845H25.7866V81.645H23.5996V81.845ZM25.6866 81.745V82.15H25.8866V81.745H25.6866ZM25.7866 82.05H24.8956V82.25H25.7866V82.05ZM18.6406 82.05H17.9566V82.25H18.6406V82.05ZM17.8566 82.15V87.595H18.0566V82.15H17.8566ZM17.9566 87.695H18.6406V87.495H17.9566V87.695ZM18.7406 87.595V82.15H18.5406V87.595H18.7406ZM26.6157 83.779V83.679H26.5157V83.779H26.6157ZM32.2317 83.779H32.3317V83.679H32.2317V83.779ZM32.2317 86.092V86.192H32.3317V86.092H32.2317ZM28.1187 86.092V85.992H28.0187V86.092H28.1187ZM28.1187 87.595H28.0187V87.695H28.1187V87.595ZM31.8267 87.595V87.695H31.9267V87.595H31.8267ZM31.8267 86.902V86.802H31.7267V86.902H31.8267ZM32.2317 86.902H32.3317V86.802H32.2317V86.902ZM32.2317 88V88.1H32.3317V88H32.2317ZM26.6157 88H26.5157V88.1H26.6157V88ZM28.1187 84.184V84.084H28.0187V84.184H28.1187ZM28.1187 85.687H28.0187V85.787H28.1187V85.687ZM31.8267 85.687V85.787H31.9267V85.687H31.8267ZM31.8267 84.184H31.9267V84.084H31.8267V84.184ZM27.0207 87.595H26.9207V87.695H27.0207V87.595ZM27.7137 87.595V87.695H27.8137V87.595H27.7137ZM27.7137 84.184H27.8137V84.084H27.7137V84.184ZM27.0207 84.184V84.084H26.9207V84.184H27.0207ZM26.6157 83.879H32.2317V83.679H26.6157V83.879ZM32.1317 83.779V86.092H32.3317V83.779H32.1317ZM32.2317 85.992H28.1187V86.192H32.2317V85.992ZM28.0187 86.092V87.595H28.2187V86.092H28.0187ZM28.1187 87.695H31.8267V87.495H28.1187V87.695ZM31.9267 87.595V86.902H31.7267V87.595H31.9267ZM31.8267 87.002H32.2317V86.802H31.8267V87.002ZM32.1317 86.902V88H32.3317V86.902H32.1317ZM32.2317 87.9H26.6157V88.1H32.2317V87.9ZM26.7157 88V83.779H26.5157V88H26.7157ZM28.0187 84.184V85.687H28.2187V84.184H28.0187ZM28.1187 85.787H31.8267V85.587H28.1187V85.787ZM31.9267 85.687V84.184H31.7267V85.687H31.9267ZM31.8267 84.084H28.1187V84.284H31.8267V84.084ZM27.0207 87.695H27.7137V87.495H27.0207V87.695ZM27.8137 87.595V84.184H27.6137V87.595H27.8137ZM27.7137 84.084H27.0207V84.284H27.7137V84.084ZM26.9207 84.184V87.595H27.1207V84.184H26.9207ZM35.303 87.595H35.203V87.695H35.303V87.595ZM36.194 87.595H36.294V87.495H36.194V87.595ZM36.194 88V88.1H36.294V88H36.194ZM32.909 88H32.809V88.1H32.909V88ZM32.909 87.595V87.495H32.809V87.595H32.909ZM33.8 87.595V87.695H33.9V87.595H33.8ZM33.8 82.15H33.9V82.05H33.8V82.15ZM32.909 82.15H32.809V82.25H32.909V82.15ZM32.909 81.745V81.645H32.809V81.745H32.909ZM35.303 81.745H35.403V81.645H35.303V81.745ZM34.898 82.15H34.998V82.05H34.898V82.15ZM34.205 82.15V82.05H34.105V82.15H34.205ZM34.205 87.595H34.105V87.695H34.205V87.595ZM34.898 87.595V87.695H34.998V87.595H34.898ZM35.303 87.695H36.194V87.495H35.303V87.695ZM36.094 87.595V88H36.294V87.595H36.094ZM36.194 87.9H32.909V88.1H36.194V87.9ZM33.009 88V87.595H32.809V88H33.009ZM32.909 87.695H33.8V87.495H32.909V87.695ZM33.9 87.595V82.15H33.7V87.595H33.9ZM33.8 82.05H32.909V82.25H33.8V82.05ZM33.009 82.15V81.745H32.809V82.15H33.009ZM32.909 81.845H35.303V81.645H32.909V81.845ZM35.203 81.745V87.595H35.403V81.745H35.203ZM34.898 82.05H34.205V82.25H34.898V82.05ZM34.105 82.15V87.595H34.305V82.15H34.105ZM34.205 87.695H34.898V87.495H34.205V87.695ZM34.998 87.595V82.15H34.798V87.595H34.998ZM36.451 89.629V89.529H36.351V89.629H36.451ZM37.342 89.629V89.729H37.442V89.629H37.342ZM37.342 84.184H37.442V84.084H37.342V84.184ZM36.451 84.184H36.351V84.284H36.451V84.184ZM36.451 83.779V83.679H36.351V83.779H36.451ZM43.084 83.779H43.184V83.679H43.084V83.779ZM43.084 88V88.1H43.184V88H43.084ZM38.845 88V87.9H38.745V88H38.845ZM38.845 89.629H38.745V89.729H38.845V89.629ZM39.736 89.629H39.836V89.529H39.736V89.629ZM39.736 90.034V90.134H39.836V90.034H39.736ZM36.451 90.034H36.351V90.134H36.451V90.034ZM42.679 84.184H42.779V84.084H42.679V84.184ZM38.845 84.184V84.084H38.745V84.184H38.845ZM38.845 87.595H38.745V87.695H38.845V87.595ZM42.679 87.595V87.695H42.779V87.595H42.679ZM38.44 84.184H38.54V84.084H38.44V84.184ZM37.747 84.184V84.084H37.647V84.184H37.747ZM37.747 89.629H37.647V89.729H37.747V89.629ZM38.44 89.629V89.729H38.54V89.629H38.44ZM36.451 89.729H37.342V89.529H36.451V89.729ZM37.442 89.629V84.184H37.242V89.629H37.442ZM37.342 84.084H36.451V84.284H37.342V84.084ZM36.551 84.184V83.779H36.351V84.184H36.551ZM36.451 83.879H43.084V83.679H36.451V83.879ZM42.984 83.779V88H43.184V83.779H42.984ZM43.084 87.9H38.845V88.1H43.084V87.9ZM38.745 88V89.629H38.945V88H38.745ZM38.845 89.729H39.736V89.529H38.845V89.729ZM39.636 89.629V90.034H39.836V89.629H39.636ZM39.736 89.934H36.451V90.134H39.736V89.934ZM36.551 90.034V89.629H36.351V90.034H36.551ZM42.679 84.084H38.845V84.284H42.679V84.084ZM38.745 84.184V87.595H38.945V84.184H38.745ZM38.845 87.695H42.679V87.495H38.845V87.695ZM42.779 87.595V84.184H42.579V87.595H42.779ZM38.44 84.084H37.747V84.284H38.44V84.084ZM37.647 84.184V89.629H37.847V84.184H37.647ZM37.747 89.729H38.44V89.529H37.747V89.729ZM38.54 89.629V84.184H38.34V89.629H38.54Z" fill="black" mask="url(#path-8-outside-3_551_532)"/>
</svg>
