<svg width="253" height="221" viewBox="0 0 253 221" fill="none" xmlns="http://www.w3.org/2000/svg">
<rect x="20.5" y="16.5" width="227" height="191" rx="3.5" fill="white" stroke="#F7931A"/>
<path d="M52.5 183.5C52.5 185.07 51.5207 186.558 49.7986 187.677C48.0812 188.793 45.679 189.5 43 189.5C40.321 189.5 37.9188 188.793 36.2014 187.677C34.4793 186.558 33.5 185.07 33.5 183.5C33.5 181.93 34.4793 180.442 36.2014 179.323C37.9188 178.207 40.321 177.5 43 177.5C45.679 177.5 48.0812 178.207 49.7986 179.323C51.5207 180.442 52.5 181.93 52.5 183.5Z" fill="#D9D9D9" stroke="black"/>
<path d="M52.6861 184.111C51.3838 187.62 45.9963 189.792 40.6525 188.962C35.311 188.133 32.0351 184.616 33.338 181.108C34.6397 177.599 40.0272 175.427 45.3693 176.256C50.7127 177.085 53.9884 180.603 52.686 184.111L52.6861 184.111Z" fill="#F7931A"/>
<path fill-rule="evenodd" clip-rule="evenodd" d="M47.3967 181.644C47.5879 180.773 46.575 180.314 45.1925 180.014L45.6308 178.833L44.5363 178.663L44.1097 179.813C43.822 179.768 43.5265 179.726 43.2329 179.685L43.6626 178.528L42.5689 178.358L42.1304 179.538C41.8923 179.504 41.6585 179.471 41.4316 179.436L41.4328 179.432L39.9235 179.198L39.6389 179.965C39.6389 179.965 40.4508 180.081 40.4338 180.088C40.877 180.157 40.9586 180.349 40.9465 180.501L40.4473 181.846C40.4778 181.851 40.5174 181.858 40.5611 181.869L40.5294 181.864C40.5024 181.86 40.4743 181.855 40.4454 181.851L39.7457 183.735C39.6923 183.824 39.5561 183.957 39.2463 183.91C39.2573 183.92 38.4508 183.786 38.4508 183.786L37.9147 184.61L39.3389 184.831C39.4949 184.856 39.649 184.881 39.8016 184.906L39.8019 184.906C39.9084 184.923 40.0142 184.94 40.1193 184.957L39.6765 186.151L40.7697 186.321L41.2082 185.139C41.5069 185.19 41.7967 185.237 42.0804 185.281L41.6434 186.457L42.7379 186.626L43.1807 185.434C45.0463 185.651 46.447 185.546 47.0281 184.436C47.4963 183.543 46.9932 183.034 46.0099 182.707C46.7232 182.593 47.2587 182.281 47.3971 181.644L47.3967 181.644ZM44.9178 183.959C44.6144 184.778 42.6625 184.456 41.7694 184.309C41.6891 184.296 41.6173 184.284 41.5561 184.274L42.1437 182.692C42.2183 182.704 42.3095 182.717 42.4128 182.731C43.3363 182.859 45.2286 183.122 44.9178 183.959ZM42.5919 181.997C43.3365 182.122 44.9608 182.392 45.2373 181.648C45.5197 180.887 43.9416 180.671 43.1709 180.565C43.0842 180.553 43.0077 180.543 42.9452 180.533L42.4125 181.968C42.4639 181.976 42.5243 181.986 42.5919 181.997Z" fill="white"/>
<path d="M52.5 177.5C52.5 179.07 51.5207 180.558 49.7986 181.677C48.0812 182.793 45.679 183.5 43 183.5C40.321 183.5 37.9188 182.793 36.2014 181.677C34.4793 180.558 33.5 179.07 33.5 177.5C33.5 175.93 34.4793 174.442 36.2014 173.323C37.9188 172.207 40.321 171.5 43 171.5C45.679 171.5 48.0812 172.207 49.7986 173.323C51.5207 174.442 52.5 175.93 52.5 177.5Z" fill="#D9D9D9" stroke="black"/>
<path d="M52.6861 178.111C51.3838 181.62 45.9963 183.792 40.6525 182.962C35.311 182.133 32.0351 178.616 33.338 175.108C34.6397 171.599 40.0272 169.427 45.3693 170.256C50.7127 171.085 53.9884 174.603 52.686 178.111L52.6861 178.111Z" fill="#F7931A"/>
<path fill-rule="evenodd" clip-rule="evenodd" d="M47.3967 175.644C47.5879 174.773 46.575 174.314 45.1925 174.014L45.6308 172.833L44.5363 172.663L44.1097 173.813C43.822 173.768 43.5265 173.726 43.2329 173.685L43.6626 172.528L42.5689 172.358L42.1304 173.538C41.8923 173.504 41.6585 173.471 41.4316 173.436L41.4328 173.432L39.9235 173.198L39.6389 173.965C39.6389 173.965 40.4508 174.081 40.4338 174.088C40.877 174.157 40.9586 174.349 40.9465 174.501L40.4473 175.846C40.4778 175.851 40.5174 175.858 40.5611 175.869L40.5294 175.864C40.5024 175.86 40.4743 175.855 40.4454 175.851L39.7457 177.735C39.6923 177.824 39.5561 177.957 39.2463 177.91C39.2573 177.92 38.4508 177.786 38.4508 177.786L37.9147 178.61L39.3389 178.831C39.4949 178.856 39.649 178.881 39.8016 178.906L39.8019 178.906C39.9084 178.923 40.0142 178.94 40.1193 178.957L39.6765 180.151L40.7697 180.321L41.2082 179.139C41.5069 179.19 41.7967 179.237 42.0804 179.281L41.6434 180.457L42.7379 180.626L43.1807 179.434C45.0463 179.651 46.447 179.546 47.0281 178.436C47.4963 177.543 46.9932 177.034 46.0099 176.707C46.7232 176.593 47.2587 176.281 47.3971 175.644L47.3967 175.644ZM44.9178 177.959C44.6144 178.778 42.6625 178.456 41.7694 178.309C41.6891 178.296 41.6173 178.284 41.5561 178.274L42.1437 176.692C42.2183 176.704 42.3095 176.717 42.4128 176.731C43.3363 176.859 45.2286 177.122 44.9178 177.959ZM42.5919 175.997C43.3365 176.122 44.9608 176.392 45.2373 175.648C45.5197 174.887 43.9416 174.671 43.1709 174.565C43.0842 174.553 43.0077 174.543 42.9452 174.533L42.4125 175.968C42.4639 175.976 42.5243 175.986 42.5919 175.997Z" fill="white"/>
<path d="M65.5 195.5C65.5 197.07 64.5207 198.558 62.7986 199.677C61.0812 200.793 58.679 201.5 56 201.5C53.321 201.5 50.9188 200.793 49.2014 199.677C47.4793 198.558 46.5 197.07 46.5 195.5C46.5 193.93 47.4793 192.442 49.2014 191.323C50.9188 190.207 53.321 189.5 56 189.5C58.679 189.5 61.0812 190.207 62.7986 191.323C64.5207 192.442 65.5 193.93 65.5 195.5Z" fill="#D9D9D9" stroke="black"/>
<path d="M65.6861 196.111C64.3838 199.62 58.9963 201.792 53.6525 200.962C48.311 200.133 45.0351 196.616 46.338 193.108C47.6397 189.599 53.0272 187.427 58.3693 188.256C63.7127 189.085 66.9884 192.603 65.686 196.111L65.6861 196.111Z" fill="#F7931A"/>
<path fill-rule="evenodd" clip-rule="evenodd" d="M60.3967 193.644C60.5879 192.773 59.575 192.314 58.1925 192.014L58.6308 190.833L57.5363 190.663L57.1097 191.813C56.822 191.768 56.5265 191.726 56.2329 191.685L56.6626 190.528L55.5689 190.358L55.1304 191.538C54.8923 191.504 54.6585 191.471 54.4316 191.436L54.4328 191.432L52.9235 191.198L52.6389 191.965C52.6389 191.965 53.4508 192.081 53.4338 192.088C53.877 192.157 53.9586 192.349 53.9465 192.501L53.4473 193.846C53.4778 193.851 53.5174 193.858 53.5611 193.869L53.5294 193.864C53.5024 193.86 53.4743 193.855 53.4454 193.851L52.7457 195.735C52.6923 195.824 52.5561 195.957 52.2463 195.91C52.2573 195.92 51.4508 195.786 51.4508 195.786L50.9147 196.61L52.3389 196.831C52.4949 196.856 52.649 196.881 52.8016 196.906L52.8019 196.906C52.9084 196.923 53.0142 196.94 53.1193 196.957L52.6765 198.151L53.7697 198.321L54.2082 197.139C54.5069 197.19 54.7967 197.237 55.0804 197.281L54.6434 198.457L55.7379 198.626L56.1807 197.434C58.0463 197.651 59.447 197.546 60.0281 196.436C60.4963 195.543 59.9932 195.034 59.0099 194.707C59.7232 194.593 60.2587 194.281 60.3971 193.644L60.3967 193.644ZM57.9178 195.959C57.6144 196.778 55.6625 196.456 54.7694 196.309C54.6891 196.296 54.6173 196.284 54.5561 196.274L55.1437 194.692C55.2183 194.704 55.3095 194.717 55.4128 194.731C56.3363 194.859 58.2286 195.122 57.9178 195.959ZM55.5919 193.997C56.3365 194.122 57.9608 194.392 58.2373 193.648C58.5197 192.887 56.9416 192.671 56.1709 192.565C56.0842 192.553 56.0077 192.543 55.9452 192.533L55.4125 193.968C55.4639 193.976 55.5243 193.986 55.5919 193.997Z" fill="white"/>
<path d="M92.5 197.5C92.5 199.07 91.5207 200.558 89.7986 201.677C88.0812 202.793 85.679 203.5 83 203.5C80.321 203.5 77.9188 202.793 76.2014 201.677C74.4793 200.558 73.5 199.07 73.5 197.5C73.5 195.93 74.4793 194.442 76.2014 193.323C77.9188 192.207 80.321 191.5 83 191.5C85.679 191.5 88.0812 192.207 89.7986 193.323C91.5207 194.442 92.5 195.93 92.5 197.5Z" fill="#D9D9D9" stroke="black"/>
<path d="M92.6861 198.111C91.3838 201.62 85.9963 203.792 80.6525 202.962C75.311 202.133 72.0351 198.616 73.338 195.108C74.6397 191.599 80.0272 189.427 85.3693 190.256C90.7127 191.085 93.9884 194.603 92.686 198.111L92.6861 198.111Z" fill="#F7931A"/>
<path fill-rule="evenodd" clip-rule="evenodd" d="M87.3967 195.644C87.5879 194.773 86.575 194.314 85.1925 194.014L85.6308 192.833L84.5363 192.663L84.1097 193.813C83.822 193.768 83.5265 193.726 83.2329 193.685L83.6626 192.528L82.5689 192.358L82.1304 193.538C81.8923 193.504 81.6585 193.471 81.4316 193.436L81.4328 193.432L79.9235 193.198L79.6389 193.965C79.6389 193.965 80.4508 194.081 80.4338 194.088C80.877 194.157 80.9586 194.349 80.9465 194.501L80.4473 195.846C80.4778 195.851 80.5174 195.858 80.5611 195.869L80.5294 195.864C80.5024 195.86 80.4743 195.855 80.4454 195.851L79.7457 197.735C79.6923 197.824 79.5561 197.957 79.2463 197.91C79.2573 197.92 78.4508 197.786 78.4508 197.786L77.9147 198.61L79.3389 198.831C79.4949 198.856 79.649 198.881 79.8016 198.906L79.8019 198.906C79.9084 198.923 80.0142 198.94 80.1193 198.957L79.6765 200.151L80.7697 200.321L81.2082 199.139C81.5069 199.19 81.7967 199.237 82.0804 199.281L81.6434 200.457L82.7379 200.626L83.1807 199.434C85.0463 199.651 86.447 199.546 87.0281 198.436C87.4963 197.543 86.9932 197.034 86.0099 196.707C86.7232 196.593 87.2587 196.281 87.3971 195.644L87.3967 195.644ZM84.9178 197.959C84.6144 198.778 82.6625 198.456 81.7694 198.309C81.6891 198.296 81.6173 198.284 81.5561 198.274L82.1437 196.692C82.2183 196.704 82.3095 196.717 82.4128 196.731C83.3363 196.859 85.2286 197.122 84.9178 197.959ZM82.5919 195.997C83.3365 196.122 84.9608 196.392 85.2373 195.648C85.5197 194.887 83.9416 194.671 83.1709 194.565C83.0842 194.553 83.0077 194.543 82.9452 194.533L82.4125 195.968C82.4639 195.976 82.5243 195.986 82.5919 195.997Z" fill="white"/>
<path d="M119.5 194.5C119.5 196.07 118.521 197.558 116.799 198.677C115.081 199.793 112.679 200.5 110 200.5C107.321 200.5 104.919 199.793 103.201 198.677C101.479 197.558 100.5 196.07 100.5 194.5C100.5 192.93 101.479 191.442 103.201 190.323C104.919 189.207 107.321 188.5 110 188.5C112.679 188.5 115.081 189.207 116.799 190.323C118.521 191.442 119.5 192.93 119.5 194.5Z" fill="#D9D9D9" stroke="black"/>
<path d="M119.686 195.111C118.384 198.62 112.996 200.792 107.653 199.962C102.311 199.133 99.0351 195.616 100.338 192.108C101.64 188.599 107.027 186.427 112.369 187.256C117.713 188.085 120.988 191.603 119.686 195.111L119.686 195.111Z" fill="#F7931A"/>
<path fill-rule="evenodd" clip-rule="evenodd" d="M114.397 192.644C114.588 191.773 113.575 191.314 112.193 191.014L112.631 189.833L111.536 189.663L111.11 190.813C110.822 190.768 110.527 190.726 110.233 190.685L110.663 189.528L109.569 189.358L109.13 190.538C108.892 190.504 108.658 190.471 108.432 190.436L108.433 190.432L106.924 190.198L106.639 190.965C106.639 190.965 107.451 191.081 107.434 191.088C107.877 191.157 107.959 191.349 107.946 191.501L107.447 192.846C107.478 192.851 107.517 192.858 107.561 192.869L107.529 192.864C107.502 192.86 107.474 192.855 107.445 192.851L106.746 194.735C106.692 194.824 106.556 194.957 106.246 194.91C106.257 194.92 105.451 194.786 105.451 194.786L104.915 195.61L106.339 195.831C106.495 195.856 106.649 195.881 106.802 195.906L106.802 195.906C106.908 195.923 107.014 195.94 107.119 195.957L106.677 197.151L107.77 197.321L108.208 196.139C108.507 196.19 108.797 196.237 109.08 196.281L108.643 197.457L109.738 197.626L110.181 196.434C112.046 196.651 113.447 196.546 114.028 195.436C114.496 194.543 113.993 194.034 113.01 193.707C113.723 193.593 114.259 193.281 114.397 192.644L114.397 192.644ZM111.918 194.959C111.614 195.778 109.663 195.456 108.769 195.309C108.689 195.296 108.617 195.284 108.556 195.274L109.144 193.692C109.218 193.704 109.309 193.717 109.413 193.731C110.336 193.859 112.229 194.122 111.918 194.959ZM109.592 192.997C110.337 193.122 111.961 193.392 112.237 192.648C112.52 191.887 110.942 191.671 110.171 191.565C110.084 191.553 110.008 191.543 109.945 191.533L109.412 192.968C109.464 192.976 109.524 192.986 109.592 192.997Z" fill="white"/>
<path d="M105.5 194.5C105.5 196.07 104.521 197.558 102.799 198.677C101.081 199.793 98.679 200.5 96 200.5C93.321 200.5 90.9188 199.793 89.2014 198.677C87.4793 197.558 86.5 196.07 86.5 194.5C86.5 192.93 87.4793 191.442 89.2014 190.323C90.9188 189.207 93.321 188.5 96 188.5C98.679 188.5 101.081 189.207 102.799 190.323C104.521 191.442 105.5 192.93 105.5 194.5Z" fill="#D9D9D9" stroke="black"/>
<path d="M105.686 195.111C104.384 198.62 98.9963 200.792 93.6525 199.962C88.311 199.133 85.0351 195.616 86.338 192.108C87.6397 188.599 93.0272 186.427 98.3693 187.256C103.713 188.085 106.988 191.603 105.686 195.111L105.686 195.111Z" fill="#F7931A"/>
<path fill-rule="evenodd" clip-rule="evenodd" d="M100.397 192.644C100.588 191.773 99.575 191.314 98.1925 191.014L98.6308 189.833L97.5363 189.663L97.1097 190.813C96.822 190.768 96.5265 190.726 96.2329 190.685L96.6626 189.528L95.5689 189.358L95.1304 190.538C94.8923 190.504 94.6585 190.471 94.4316 190.436L94.4328 190.432L92.9235 190.198L92.6389 190.965C92.6389 190.965 93.4508 191.081 93.4338 191.088C93.877 191.157 93.9586 191.349 93.9465 191.501L93.4473 192.846C93.4778 192.851 93.5174 192.858 93.5611 192.869L93.5294 192.864C93.5024 192.86 93.4743 192.855 93.4454 192.851L92.7457 194.735C92.6923 194.824 92.5561 194.957 92.2463 194.91C92.2573 194.92 91.4508 194.786 91.4508 194.786L90.9147 195.61L92.3389 195.831C92.4949 195.856 92.649 195.881 92.8016 195.906L92.8019 195.906C92.9084 195.923 93.0142 195.94 93.1193 195.957L92.6765 197.151L93.7697 197.321L94.2082 196.139C94.5069 196.19 94.7967 196.237 95.0804 196.281L94.6434 197.457L95.7379 197.626L96.1807 196.434C98.0463 196.651 99.447 196.546 100.028 195.436C100.496 194.543 99.9932 194.034 99.0099 193.707C99.7232 193.593 100.259 193.281 100.397 192.644L100.397 192.644ZM97.9178 194.959C97.6144 195.778 95.6625 195.456 94.7694 195.309C94.6891 195.296 94.6173 195.284 94.5561 195.274L95.1437 193.692C95.2183 193.704 95.3095 193.717 95.4128 193.731C96.3363 193.859 98.2286 194.122 97.9178 194.959ZM95.5919 192.997C96.3365 193.122 97.9608 193.392 98.2373 192.648C98.5197 191.887 96.9416 191.671 96.1709 191.565C96.0842 191.553 96.0077 191.543 95.9452 191.533L95.4125 192.968C95.4639 192.976 95.5243 192.986 95.5919 192.997Z" fill="white"/>
<path d="M114.5 189.5C114.5 191.07 113.521 192.558 111.799 193.677C110.081 194.793 107.679 195.5 105 195.5C102.321 195.5 99.9188 194.793 98.2014 193.677C96.4793 192.558 95.5 191.07 95.5 189.5C95.5 187.93 96.4793 186.442 98.2014 185.323C99.9188 184.207 102.321 183.5 105 183.5C107.679 183.5 110.081 184.207 111.799 185.323C113.521 186.442 114.5 187.93 114.5 189.5Z" fill="#D9D9D9" stroke="black"/>
<path d="M114.686 190.111C113.384 193.62 107.996 195.792 102.653 194.962C97.311 194.133 94.0351 190.616 95.338 187.108C96.6397 183.599 102.027 181.427 107.369 182.256C112.713 183.085 115.988 186.603 114.686 190.111L114.686 190.111Z" fill="#F7931A"/>
<path fill-rule="evenodd" clip-rule="evenodd" d="M109.397 187.644C109.588 186.773 108.575 186.314 107.193 186.014L107.631 184.833L106.536 184.663L106.11 185.813C105.822 185.768 105.527 185.726 105.233 185.685L105.663 184.528L104.569 184.358L104.13 185.538C103.892 185.504 103.658 185.471 103.432 185.436L103.433 185.432L101.924 185.198L101.639 185.965C101.639 185.965 102.451 186.081 102.434 186.088C102.877 186.157 102.959 186.349 102.946 186.501L102.447 187.846C102.478 187.851 102.517 187.858 102.561 187.869L102.529 187.864C102.502 187.86 102.474 187.855 102.445 187.851L101.746 189.735C101.692 189.824 101.556 189.957 101.246 189.91C101.257 189.92 100.451 189.786 100.451 189.786L99.9147 190.61L101.339 190.831C101.495 190.856 101.649 190.881 101.802 190.906L101.802 190.906C101.908 190.923 102.014 190.94 102.119 190.957L101.677 192.151L102.77 192.321L103.208 191.139C103.507 191.19 103.797 191.237 104.08 191.281L103.643 192.457L104.738 192.626L105.181 191.434C107.046 191.651 108.447 191.546 109.028 190.436C109.496 189.543 108.993 189.034 108.01 188.707C108.723 188.593 109.259 188.281 109.397 187.644L109.397 187.644ZM106.918 189.959C106.614 190.778 104.663 190.456 103.769 190.309C103.689 190.296 103.617 190.284 103.556 190.274L104.144 188.692C104.218 188.704 104.309 188.717 104.413 188.731C105.336 188.859 107.229 189.122 106.918 189.959ZM104.592 187.997C105.337 188.122 106.961 188.392 107.237 187.648C107.52 186.887 105.942 186.671 105.171 186.565C105.084 186.553 105.008 186.543 104.945 186.533L104.412 187.968C104.464 187.976 104.524 187.986 104.592 187.997Z" fill="white"/>
<path d="M78.5 194.5C78.5 196.07 77.5207 197.558 75.7986 198.677C74.0812 199.793 71.679 200.5 69 200.5C66.321 200.5 63.9188 199.793 62.2014 198.677C60.4793 197.558 59.5 196.07 59.5 194.5C59.5 192.93 60.4793 191.442 62.2014 190.323C63.9188 189.207 66.321 188.5 69 188.5C71.679 188.5 74.0812 189.207 75.7986 190.323C77.5207 191.442 78.5 192.93 78.5 194.5Z" fill="#D9D9D9" stroke="black"/>
<path d="M78.6861 195.111C77.3838 198.62 71.9963 200.792 66.6525 199.962C61.311 199.133 58.0351 195.616 59.338 192.108C60.6397 188.599 66.0272 186.427 71.3693 187.256C76.7127 188.085 79.9884 191.603 78.686 195.111L78.6861 195.111Z" fill="#F7931A"/>
<path fill-rule="evenodd" clip-rule="evenodd" d="M73.3967 192.644C73.5879 191.773 72.575 191.314 71.1925 191.014L71.6308 189.833L70.5363 189.663L70.1097 190.813C69.822 190.768 69.5265 190.726 69.2329 190.685L69.6626 189.528L68.5689 189.358L68.1304 190.538C67.8923 190.504 67.6585 190.471 67.4316 190.436L67.4328 190.432L65.9235 190.198L65.6389 190.965C65.6389 190.965 66.4508 191.081 66.4338 191.088C66.877 191.157 66.9586 191.349 66.9465 191.501L66.4473 192.846C66.4778 192.851 66.5174 192.858 66.5611 192.869L66.5294 192.864C66.5024 192.86 66.4743 192.855 66.4454 192.851L65.7457 194.735C65.6923 194.824 65.5561 194.957 65.2463 194.91C65.2573 194.92 64.4508 194.786 64.4508 194.786L63.9147 195.61L65.3389 195.831C65.4949 195.856 65.649 195.881 65.8016 195.906L65.8019 195.906C65.9084 195.923 66.0142 195.94 66.1193 195.957L65.6765 197.151L66.7697 197.321L67.2082 196.139C67.5069 196.19 67.7967 196.237 68.0804 196.281L67.6434 197.457L68.7379 197.626L69.1807 196.434C71.0463 196.651 72.447 196.546 73.0281 195.436C73.4963 194.543 72.9932 194.034 72.0099 193.707C72.7232 193.593 73.2587 193.281 73.3971 192.644L73.3967 192.644ZM70.9178 194.959C70.6144 195.778 68.6625 195.456 67.7694 195.309C67.6891 195.296 67.6173 195.284 67.5561 195.274L68.1437 193.692C68.2183 193.704 68.3095 193.717 68.4128 193.731C69.3363 193.859 71.2286 194.122 70.9178 194.959ZM68.5919 192.997C69.3365 193.122 70.9608 193.392 71.2373 192.648C71.5197 191.887 69.9416 191.671 69.1709 191.565C69.0842 191.553 69.0077 191.543 68.9452 191.533L68.4125 192.968C68.4639 192.976 68.5243 192.986 68.5919 192.997Z" fill="white"/>
<path d="M50.5 193.5C50.5 195.07 49.5207 196.558 47.7986 197.677C46.0812 198.793 43.679 199.5 41 199.5C38.321 199.5 35.9188 198.793 34.2014 197.677C32.4793 196.558 31.5 195.07 31.5 193.5C31.5 191.93 32.4793 190.442 34.2014 189.323C35.9188 188.207 38.321 187.5 41 187.5C43.679 187.5 46.0812 188.207 47.7986 189.323C49.5207 190.442 50.5 191.93 50.5 193.5Z" fill="#D9D9D9" stroke="black"/>
<path d="M50.6861 194.111C49.3838 197.62 43.9963 199.792 38.6525 198.962C33.311 198.133 30.0351 194.616 31.338 191.108C32.6397 187.599 38.0272 185.427 43.3693 186.256C48.7127 187.085 51.9884 190.603 50.686 194.111L50.6861 194.111Z" fill="#F7931A"/>
<path fill-rule="evenodd" clip-rule="evenodd" d="M45.3967 191.644C45.5879 190.773 44.575 190.314 43.1925 190.014L43.6308 188.833L42.5363 188.663L42.1097 189.813C41.822 189.768 41.5265 189.726 41.2329 189.685L41.6626 188.528L40.5689 188.358L40.1304 189.538C39.8923 189.504 39.6585 189.471 39.4316 189.436L39.4328 189.432L37.9235 189.198L37.6389 189.965C37.6389 189.965 38.4508 190.081 38.4338 190.088C38.877 190.157 38.9586 190.349 38.9465 190.501L38.4473 191.846C38.4778 191.851 38.5174 191.858 38.5611 191.869L38.5294 191.864C38.5024 191.86 38.4743 191.855 38.4454 191.851L37.7457 193.735C37.6923 193.824 37.5561 193.957 37.2463 193.91C37.2573 193.92 36.4508 193.786 36.4508 193.786L35.9147 194.61L37.3389 194.831C37.4949 194.856 37.649 194.881 37.8016 194.906L37.8019 194.906C37.9084 194.923 38.0142 194.94 38.1193 194.957L37.6765 196.151L38.7697 196.321L39.2082 195.139C39.5069 195.19 39.7967 195.237 40.0804 195.281L39.6434 196.457L40.7379 196.626L41.1807 195.434C43.0463 195.651 44.447 195.546 45.0281 194.436C45.4963 193.543 44.9932 193.034 44.0099 192.707C44.7232 192.593 45.2587 192.281 45.3971 191.644L45.3967 191.644ZM42.9178 193.959C42.6144 194.778 40.6625 194.456 39.7694 194.309C39.6891 194.296 39.6173 194.284 39.5561 194.274L40.1437 192.692C40.2183 192.704 40.3095 192.717 40.4128 192.731C41.3363 192.859 43.2286 193.122 42.9178 193.959ZM40.5919 191.997C41.3365 192.122 42.9608 192.392 43.2373 191.648C43.5197 190.887 41.9416 190.671 41.1709 190.565C41.0842 190.553 41.0077 190.543 40.9452 190.533L40.4125 191.968C40.4639 191.976 40.5243 191.986 40.5919 191.997Z" fill="white"/>
<path d="M85.5 186.5C85.5 188.07 84.5207 189.558 82.7986 190.677C81.0812 191.793 78.679 192.5 76 192.5C73.321 192.5 70.9188 191.793 69.2014 190.677C67.4793 189.558 66.5 188.07 66.5 186.5C66.5 184.93 67.4793 183.442 69.2014 182.323C70.9188 181.207 73.321 180.5 76 180.5C78.679 180.5 81.0812 181.207 82.7986 182.323C84.5207 183.442 85.5 184.93 85.5 186.5Z" fill="#D9D9D9" stroke="black"/>
<path d="M85.6861 187.111C84.3838 190.62 78.9963 192.792 73.6525 191.962C68.311 191.133 65.0351 187.616 66.338 184.108C67.6397 180.599 73.0272 178.427 78.3693 179.256C83.7127 180.085 86.9884 183.603 85.686 187.111L85.6861 187.111Z" fill="#F7931A"/>
<path fill-rule="evenodd" clip-rule="evenodd" d="M80.3967 184.644C80.5879 183.773 79.575 183.314 78.1925 183.014L78.6308 181.833L77.5363 181.663L77.1097 182.813C76.822 182.768 76.5265 182.726 76.2329 182.685L76.6626 181.528L75.5689 181.358L75.1304 182.538C74.8923 182.504 74.6585 182.471 74.4316 182.436L74.4328 182.432L72.9235 182.198L72.6389 182.965C72.6389 182.965 73.4508 183.081 73.4338 183.088C73.877 183.157 73.9586 183.349 73.9465 183.501L73.4473 184.846C73.4778 184.851 73.5174 184.858 73.5611 184.869L73.5294 184.864C73.5024 184.86 73.4743 184.855 73.4454 184.851L72.7457 186.735C72.6923 186.824 72.5561 186.957 72.2463 186.91C72.2573 186.92 71.4508 186.786 71.4508 186.786L70.9147 187.61L72.3389 187.831C72.4949 187.856 72.649 187.881 72.8016 187.906L72.8019 187.906C72.9084 187.923 73.0142 187.94 73.1193 187.957L72.6765 189.151L73.7697 189.321L74.2082 188.139C74.5069 188.19 74.7967 188.237 75.0804 188.281L74.6434 189.457L75.7379 189.626L76.1807 188.434C78.0463 188.651 79.447 188.546 80.0281 187.436C80.4963 186.543 79.9932 186.034 79.0099 185.707C79.7232 185.593 80.2587 185.281 80.3971 184.644L80.3967 184.644ZM77.9178 186.959C77.6144 187.778 75.6625 187.456 74.7694 187.309C74.6891 187.296 74.6173 187.284 74.5561 187.274L75.1437 185.692C75.2183 185.704 75.3095 185.717 75.4128 185.731C76.3363 185.859 78.2286 186.122 77.9178 186.959ZM75.5919 184.997C76.3365 185.122 77.9608 185.392 78.2373 184.648C78.5197 183.887 76.9416 183.671 76.1709 183.565C76.0842 183.553 76.0077 183.543 75.9452 183.533L75.4125 184.968C75.4639 184.976 75.5243 184.986 75.5919 184.997Z" fill="white"/>
<path d="M98.5 186.5C98.5 188.07 97.5207 189.558 95.7986 190.677C94.0812 191.793 91.679 192.5 89 192.5C86.321 192.5 83.9188 191.793 82.2014 190.677C80.4793 189.558 79.5 188.07 79.5 186.5C79.5 184.93 80.4793 183.442 82.2014 182.323C83.9188 181.207 86.321 180.5 89 180.5C91.679 180.5 94.0812 181.207 95.7986 182.323C97.5207 183.442 98.5 184.93 98.5 186.5Z" fill="#D9D9D9" stroke="black"/>
<path d="M98.6861 187.111C97.3838 190.62 91.9963 192.792 86.6525 191.962C81.311 191.133 78.0351 187.616 79.338 184.108C80.6397 180.599 86.0272 178.427 91.3693 179.256C96.7127 180.085 99.9884 183.603 98.686 187.111L98.6861 187.111Z" fill="#F7931A"/>
<path fill-rule="evenodd" clip-rule="evenodd" d="M93.3967 184.644C93.5879 183.773 92.575 183.314 91.1925 183.014L91.6308 181.833L90.5363 181.663L90.1097 182.813C89.822 182.768 89.5265 182.726 89.2329 182.685L89.6626 181.528L88.5689 181.358L88.1304 182.538C87.8923 182.504 87.6585 182.471 87.4316 182.436L87.4328 182.432L85.9235 182.198L85.6389 182.965C85.6389 182.965 86.4508 183.081 86.4338 183.088C86.877 183.157 86.9586 183.349 86.9465 183.501L86.4473 184.846C86.4778 184.851 86.5174 184.858 86.5611 184.869L86.5294 184.864C86.5024 184.86 86.4743 184.855 86.4454 184.851L85.7457 186.735C85.6923 186.824 85.5561 186.957 85.2463 186.91C85.2573 186.92 84.4508 186.786 84.4508 186.786L83.9147 187.61L85.3389 187.831C85.4949 187.856 85.649 187.881 85.8016 187.906L85.8019 187.906C85.9084 187.923 86.0142 187.94 86.1193 187.957L85.6765 189.151L86.7697 189.321L87.2082 188.139C87.5069 188.19 87.7967 188.237 88.0804 188.281L87.6434 189.457L88.7379 189.626L89.1807 188.434C91.0463 188.651 92.447 188.546 93.0281 187.436C93.4963 186.543 92.9932 186.034 92.0099 185.707C92.7232 185.593 93.2587 185.281 93.3971 184.644L93.3967 184.644ZM90.9178 186.959C90.6144 187.778 88.6625 187.456 87.7694 187.309C87.6891 187.296 87.6173 187.284 87.5561 187.274L88.1437 185.692C88.2183 185.704 88.3095 185.717 88.4128 185.731C89.3363 185.859 91.2286 186.122 90.9178 186.959ZM88.5919 184.997C89.3365 185.122 90.9608 185.392 91.2373 184.648C91.5197 183.887 89.9416 183.671 89.1709 183.565C89.0842 183.553 89.0077 183.543 88.9452 183.533L88.4125 184.968C88.4639 184.976 88.5243 184.986 88.5919 184.997Z" fill="white"/>
<path d="M73.5 187.5C73.5 189.07 72.5207 190.558 70.7986 191.677C69.0812 192.793 66.679 193.5 64 193.5C61.321 193.5 58.9188 192.793 57.2014 191.677C55.4793 190.558 54.5 189.07 54.5 187.5C54.5 185.93 55.4793 184.442 57.2014 183.323C58.9188 182.207 61.321 181.5 64 181.5C66.679 181.5 69.0812 182.207 70.7986 183.323C72.5207 184.442 73.5 185.93 73.5 187.5Z" fill="#D9D9D9" stroke="black"/>
<path d="M73.6861 188.111C72.3838 191.62 66.9963 193.792 61.6525 192.962C56.311 192.133 53.0351 188.616 54.338 185.108C55.6397 181.599 61.0272 179.427 66.3693 180.256C71.7127 181.085 74.9884 184.603 73.686 188.111L73.6861 188.111Z" fill="#F7931A"/>
<path fill-rule="evenodd" clip-rule="evenodd" d="M68.3967 185.644C68.5879 184.773 67.575 184.314 66.1925 184.014L66.6308 182.833L65.5363 182.663L65.1097 183.813C64.822 183.768 64.5265 183.726 64.2329 183.685L64.6626 182.528L63.5689 182.358L63.1304 183.538C62.8923 183.504 62.6585 183.471 62.4316 183.436L62.4328 183.432L60.9235 183.198L60.6389 183.965C60.6389 183.965 61.4508 184.081 61.4338 184.088C61.877 184.157 61.9586 184.349 61.9465 184.501L61.4473 185.846C61.4778 185.851 61.5174 185.858 61.5611 185.869L61.5294 185.864C61.5024 185.86 61.4743 185.855 61.4454 185.851L60.7457 187.735C60.6923 187.824 60.5561 187.957 60.2463 187.91C60.2573 187.92 59.4508 187.786 59.4508 187.786L58.9147 188.61L60.3389 188.831C60.4949 188.856 60.649 188.881 60.8016 188.906L60.8019 188.906C60.9084 188.923 61.0142 188.94 61.1193 188.957L60.6765 190.151L61.7697 190.321L62.2082 189.139C62.5069 189.19 62.7967 189.237 63.0804 189.281L62.6434 190.457L63.7379 190.626L64.1807 189.434C66.0463 189.651 67.447 189.546 68.0281 188.436C68.4963 187.543 67.9932 187.034 67.0099 186.707C67.7232 186.593 68.2587 186.281 68.3971 185.644L68.3967 185.644ZM65.9178 187.959C65.6144 188.778 63.6625 188.456 62.7694 188.309C62.6891 188.296 62.6173 188.284 62.5561 188.274L63.1437 186.692C63.2183 186.704 63.3095 186.717 63.4128 186.731C64.3363 186.859 66.2286 187.122 65.9178 187.959ZM63.5919 185.997C64.3365 186.122 65.9608 186.392 66.2373 185.648C66.5197 184.887 64.9416 184.671 64.1709 184.565C64.0842 184.553 64.0077 184.543 63.9452 184.533L63.4125 185.968C63.4639 185.976 63.5243 185.986 63.5919 185.997Z" fill="white"/>
<path d="M59.5 191.5C59.5 193.07 58.5207 194.558 56.7986 195.677C55.0812 196.793 52.679 197.5 50 197.5C47.321 197.5 44.9188 196.793 43.2014 195.677C41.4793 194.558 40.5 193.07 40.5 191.5C40.5 189.93 41.4793 188.442 43.2014 187.323C44.9188 186.207 47.321 185.5 50 185.5C52.679 185.5 55.0812 186.207 56.7986 187.323C58.5207 188.442 59.5 189.93 59.5 191.5Z" fill="#D9D9D9" stroke="black"/>
<path d="M59.6861 192.111C58.3838 195.62 52.9963 197.792 47.6525 196.962C42.311 196.133 39.0351 192.616 40.338 189.108C41.6397 185.599 47.0272 183.427 52.3693 184.256C57.7127 185.085 60.9884 188.603 59.686 192.111L59.6861 192.111Z" fill="#F7931A"/>
<path fill-rule="evenodd" clip-rule="evenodd" d="M54.3967 189.644C54.5879 188.773 53.575 188.314 52.1925 188.014L52.6308 186.833L51.5363 186.663L51.1097 187.813C50.822 187.768 50.5265 187.726 50.2329 187.685L50.6626 186.528L49.5689 186.358L49.1304 187.538C48.8923 187.504 48.6585 187.471 48.4316 187.436L48.4328 187.432L46.9235 187.198L46.6389 187.965C46.6389 187.965 47.4508 188.081 47.4338 188.088C47.877 188.157 47.9586 188.349 47.9465 188.501L47.4473 189.846C47.4778 189.851 47.5174 189.858 47.5611 189.869L47.5294 189.864C47.5024 189.86 47.4743 189.855 47.4454 189.851L46.7457 191.735C46.6923 191.824 46.5561 191.957 46.2463 191.91C46.2573 191.92 45.4508 191.786 45.4508 191.786L44.9147 192.61L46.3389 192.831C46.4949 192.856 46.649 192.881 46.8016 192.906L46.8019 192.906C46.9084 192.923 47.0142 192.94 47.1193 192.957L46.6765 194.151L47.7697 194.321L48.2082 193.139C48.5069 193.19 48.7967 193.237 49.0804 193.281L48.6434 194.457L49.7379 194.626L50.1807 193.434C52.0463 193.651 53.447 193.546 54.0281 192.436C54.4963 191.543 53.9932 191.034 53.0099 190.707C53.7232 190.593 54.2587 190.281 54.3971 189.644L54.3967 189.644ZM51.9178 191.959C51.6144 192.778 49.6625 192.456 48.7694 192.309C48.6891 192.296 48.6173 192.284 48.5561 192.274L49.1437 190.692C49.2183 190.704 49.3095 190.717 49.4128 190.731C50.3363 190.859 52.2286 191.122 51.9178 191.959ZM49.5919 189.997C50.3365 190.122 51.9608 190.392 52.2373 189.648C52.5197 188.887 50.9416 188.671 50.1709 188.565C50.0842 188.553 50.0077 188.543 49.9452 188.533L49.4125 189.968C49.4639 189.976 49.5243 189.986 49.5919 189.997Z" fill="white"/>
<path d="M62.5 183.5C62.5 185.07 61.5207 186.558 59.7986 187.677C58.0812 188.793 55.679 189.5 53 189.5C50.321 189.5 47.9188 188.793 46.2014 187.677C44.4793 186.558 43.5 185.07 43.5 183.5C43.5 181.93 44.4793 180.442 46.2014 179.323C47.9188 178.207 50.321 177.5 53 177.5C55.679 177.5 58.0812 178.207 59.7986 179.323C61.5207 180.442 62.5 181.93 62.5 183.5Z" fill="#D9D9D9" stroke="black"/>
<path d="M62.6861 184.111C61.3838 187.62 55.9963 189.792 50.6525 188.962C45.311 188.133 42.0351 184.616 43.338 181.108C44.6397 177.599 50.0272 175.427 55.3693 176.256C60.7127 177.085 63.9884 180.603 62.686 184.111L62.6861 184.111Z" fill="#F7931A"/>
<path fill-rule="evenodd" clip-rule="evenodd" d="M57.3967 181.644C57.5879 180.773 56.575 180.314 55.1925 180.014L55.6308 178.833L54.5363 178.663L54.1097 179.813C53.822 179.768 53.5265 179.726 53.2329 179.685L53.6626 178.528L52.5689 178.358L52.1304 179.538C51.8923 179.504 51.6585 179.471 51.4316 179.436L51.4328 179.432L49.9235 179.198L49.6389 179.965C49.6389 179.965 50.4508 180.081 50.4338 180.088C50.877 180.157 50.9586 180.349 50.9465 180.501L50.4473 181.846C50.4778 181.851 50.5174 181.858 50.5611 181.869L50.5294 181.864C50.5024 181.86 50.4743 181.855 50.4454 181.851L49.7457 183.735C49.6923 183.824 49.5561 183.957 49.2463 183.91C49.2573 183.92 48.4508 183.786 48.4508 183.786L47.9147 184.61L49.3389 184.831C49.4949 184.856 49.649 184.881 49.8016 184.906L49.8019 184.906C49.9084 184.923 50.0142 184.94 50.1193 184.957L49.6765 186.151L50.7697 186.321L51.2082 185.139C51.5069 185.19 51.7967 185.237 52.0804 185.281L51.6434 186.457L52.7379 186.626L53.1807 185.434C55.0463 185.651 56.447 185.546 57.0281 184.436C57.4963 183.543 56.9932 183.034 56.0099 182.707C56.7232 182.593 57.2587 182.281 57.3971 181.644L57.3967 181.644ZM54.9178 183.959C54.6144 184.778 52.6625 184.456 51.7694 184.309C51.6891 184.296 51.6173 184.284 51.5561 184.274L52.1437 182.692C52.2183 182.704 52.3095 182.717 52.4128 182.731C53.3363 182.859 55.2286 183.122 54.9178 183.959ZM52.5919 181.997C53.3365 182.122 54.9608 182.392 55.2373 181.648C55.5197 180.887 53.9416 180.671 53.1709 180.565C53.0842 180.553 53.0077 180.543 52.9452 180.533L52.4125 181.968C52.4639 181.976 52.5243 181.986 52.5919 181.997Z" fill="white"/>
<path d="M75.5 183.5C75.5 185.07 74.5207 186.558 72.7986 187.677C71.0812 188.793 68.679 189.5 66 189.5C63.321 189.5 60.9188 188.793 59.2014 187.677C57.4793 186.558 56.5 185.07 56.5 183.5C56.5 181.93 57.4793 180.442 59.2014 179.323C60.9188 178.207 63.321 177.5 66 177.5C68.679 177.5 71.0812 178.207 72.7986 179.323C74.5207 180.442 75.5 181.93 75.5 183.5Z" fill="#D9D9D9" stroke="black"/>
<path d="M75.6861 184.111C74.3838 187.62 68.9963 189.792 63.6525 188.962C58.311 188.133 55.0351 184.616 56.338 181.108C57.6397 177.599 63.0272 175.427 68.3693 176.256C73.7127 177.085 76.9884 180.603 75.686 184.111L75.6861 184.111Z" fill="#F7931A"/>
<path fill-rule="evenodd" clip-rule="evenodd" d="M70.3967 181.644C70.5879 180.773 69.575 180.314 68.1925 180.014L68.6308 178.833L67.5363 178.663L67.1097 179.813C66.822 179.768 66.5265 179.726 66.2329 179.685L66.6626 178.528L65.5689 178.358L65.1304 179.538C64.8923 179.504 64.6585 179.471 64.4316 179.436L64.4328 179.432L62.9235 179.198L62.6389 179.965C62.6389 179.965 63.4508 180.081 63.4338 180.088C63.877 180.157 63.9586 180.349 63.9465 180.501L63.4473 181.846C63.4778 181.851 63.5174 181.858 63.5611 181.869L63.5294 181.864C63.5024 181.86 63.4743 181.855 63.4454 181.851L62.7457 183.735C62.6923 183.824 62.5561 183.957 62.2463 183.91C62.2573 183.92 61.4508 183.786 61.4508 183.786L60.9147 184.61L62.3389 184.831C62.4949 184.856 62.649 184.881 62.8016 184.906L62.8019 184.906C62.9084 184.923 63.0142 184.94 63.1193 184.957L62.6765 186.151L63.7697 186.321L64.2082 185.139C64.5069 185.19 64.7967 185.237 65.0804 185.281L64.6434 186.457L65.7379 186.626L66.1807 185.434C68.0463 185.651 69.447 185.546 70.0281 184.436C70.4963 183.543 69.9932 183.034 69.0099 182.707C69.7232 182.593 70.2587 182.281 70.3971 181.644L70.3967 181.644ZM67.9178 183.959C67.6144 184.778 65.6625 184.456 64.7694 184.309C64.6891 184.296 64.6173 184.284 64.5561 184.274L65.1437 182.692C65.2183 182.704 65.3095 182.717 65.4128 182.731C66.3363 182.859 68.2286 183.122 67.9178 183.959ZM65.5919 181.997C66.3365 182.122 67.9608 182.392 68.2373 181.648C68.5197 180.887 66.9416 180.671 66.1709 180.565C66.0842 180.553 66.0077 180.543 65.9452 180.533L65.4125 181.968C65.4639 181.976 65.5243 181.986 65.5919 181.997Z" fill="white"/>
<path d="M58.5 176.5C58.5 178.07 57.5207 179.558 55.7986 180.677C54.0812 181.793 51.679 182.5 49 182.5C46.321 182.5 43.9188 181.793 42.2014 180.677C40.4793 179.558 39.5 178.07 39.5 176.5C39.5 174.93 40.4793 173.442 42.2014 172.323C43.9188 171.207 46.321 170.5 49 170.5C51.679 170.5 54.0812 171.207 55.7986 172.323C57.5207 173.442 58.5 174.93 58.5 176.5Z" fill="#D9D9D9" stroke="black"/>
<path d="M58.6861 177.111C57.3838 180.62 51.9963 182.792 46.6525 181.962C41.311 181.133 38.0351 177.616 39.338 174.108C40.6397 170.599 46.0272 168.427 51.3693 169.256C56.7127 170.085 59.9884 173.603 58.686 177.111L58.6861 177.111Z" fill="#F7931A"/>
<path fill-rule="evenodd" clip-rule="evenodd" d="M53.3967 174.644C53.5879 173.773 52.575 173.314 51.1925 173.014L51.6308 171.833L50.5363 171.663L50.1097 172.813C49.822 172.768 49.5265 172.726 49.2329 172.685L49.6626 171.528L48.5689 171.358L48.1304 172.538C47.8923 172.504 47.6585 172.471 47.4316 172.436L47.4328 172.432L45.9235 172.198L45.6389 172.965C45.6389 172.965 46.4508 173.081 46.4338 173.088C46.877 173.157 46.9586 173.349 46.9465 173.501L46.4473 174.846C46.4778 174.851 46.5174 174.858 46.5611 174.869L46.5294 174.864C46.5024 174.86 46.4743 174.855 46.4454 174.851L45.7457 176.735C45.6923 176.824 45.5561 176.957 45.2463 176.91C45.2573 176.92 44.4508 176.786 44.4508 176.786L43.9147 177.61L45.3389 177.831C45.4949 177.856 45.649 177.881 45.8016 177.906L45.8019 177.906C45.9084 177.923 46.0142 177.94 46.1193 177.957L45.6765 179.151L46.7697 179.321L47.2082 178.139C47.5069 178.19 47.7967 178.237 48.0804 178.281L47.6434 179.457L48.7379 179.626L49.1807 178.434C51.0463 178.651 52.447 178.546 53.0281 177.436C53.4963 176.543 52.9932 176.034 52.0099 175.707C52.7232 175.593 53.2587 175.281 53.3971 174.644L53.3967 174.644ZM50.9178 176.959C50.6144 177.778 48.6625 177.456 47.7694 177.309C47.6891 177.296 47.6173 177.284 47.5561 177.274L48.1437 175.692C48.2183 175.704 48.3095 175.717 48.4128 175.731C49.3363 175.859 51.2286 176.122 50.9178 176.959ZM48.5919 174.997C49.3365 175.122 50.9608 175.392 51.2373 174.648C51.5197 173.887 49.9416 173.671 49.1709 173.565C49.0842 173.553 49.0077 173.543 48.9452 173.533L48.4125 174.968C48.4639 174.976 48.5243 174.986 48.5919 174.997Z" fill="white"/>
<path d="M105.5 182.5C105.5 184.07 104.521 185.558 102.799 186.677C101.081 187.793 98.679 188.5 96 188.5C93.321 188.5 90.9188 187.793 89.2014 186.677C87.4793 185.558 86.5 184.07 86.5 182.5C86.5 180.93 87.4793 179.442 89.2014 178.323C90.9188 177.207 93.321 176.5 96 176.5C98.679 176.5 101.081 177.207 102.799 178.323C104.521 179.442 105.5 180.93 105.5 182.5Z" fill="#D9D9D9" stroke="black"/>
<path d="M105.686 183.111C104.384 186.62 98.9963 188.792 93.6525 187.962C88.311 187.133 85.0351 183.616 86.338 180.108C87.6397 176.599 93.0272 174.427 98.3693 175.256C103.713 176.085 106.988 179.603 105.686 183.111L105.686 183.111Z" fill="#F7931A"/>
<path fill-rule="evenodd" clip-rule="evenodd" d="M100.397 180.644C100.588 179.773 99.575 179.314 98.1925 179.014L98.6308 177.833L97.5363 177.663L97.1097 178.813C96.822 178.768 96.5265 178.726 96.2329 178.685L96.6626 177.528L95.5689 177.358L95.1304 178.538C94.8923 178.504 94.6585 178.471 94.4316 178.436L94.4328 178.432L92.9235 178.198L92.6389 178.965C92.6389 178.965 93.4508 179.081 93.4338 179.088C93.877 179.157 93.9586 179.349 93.9465 179.501L93.4473 180.846C93.4778 180.851 93.5174 180.858 93.5611 180.869L93.5294 180.864C93.5024 180.86 93.4743 180.855 93.4454 180.851L92.7457 182.735C92.6923 182.824 92.5561 182.957 92.2463 182.91C92.2573 182.92 91.4508 182.786 91.4508 182.786L90.9147 183.61L92.3389 183.831C92.4949 183.856 92.649 183.881 92.8016 183.906L92.8019 183.906C92.9084 183.923 93.0142 183.94 93.1193 183.957L92.6765 185.151L93.7697 185.321L94.2082 184.139C94.5069 184.19 94.7967 184.237 95.0804 184.281L94.6434 185.457L95.7379 185.626L96.1807 184.434C98.0463 184.651 99.447 184.546 100.028 183.436C100.496 182.543 99.9932 182.034 99.0099 181.707C99.7232 181.593 100.259 181.281 100.397 180.644L100.397 180.644ZM97.9178 182.959C97.6144 183.778 95.6625 183.456 94.7694 183.309C94.6891 183.296 94.6173 183.284 94.5561 183.274L95.1437 181.692C95.2183 181.704 95.3095 181.717 95.4128 181.731C96.3363 181.859 98.2286 182.122 97.9178 182.959ZM95.5919 180.997C96.3365 181.122 97.9608 181.392 98.2373 180.648C98.5197 179.887 96.9416 179.671 96.1709 179.565C96.0842 179.553 96.0077 179.543 95.9452 179.533L95.4125 180.968C95.4639 180.976 95.5243 180.986 95.5919 180.997Z" fill="white"/>
<path d="M82.5 175.5C82.5 177.07 81.5207 178.558 79.7986 179.677C78.0812 180.793 75.679 181.5 73 181.5C70.321 181.5 67.9188 180.793 66.2014 179.677C64.4793 178.558 63.5 177.07 63.5 175.5C63.5 173.93 64.4793 172.442 66.2014 171.323C67.9188 170.207 70.321 169.5 73 169.5C75.679 169.5 78.0812 170.207 79.7986 171.323C81.5207 172.442 82.5 173.93 82.5 175.5Z" fill="#D9D9D9" stroke="black"/>
<path d="M82.6861 176.111C81.3838 179.62 75.9963 181.792 70.6525 180.962C65.311 180.133 62.0351 176.616 63.338 173.108C64.6397 169.599 70.0272 167.427 75.3693 168.256C80.7127 169.085 83.9884 172.603 82.686 176.111L82.6861 176.111Z" fill="#F7931A"/>
<path fill-rule="evenodd" clip-rule="evenodd" d="M77.3967 173.644C77.5879 172.773 76.575 172.314 75.1925 172.014L75.6308 170.833L74.5363 170.663L74.1097 171.813C73.822 171.768 73.5265 171.726 73.2329 171.685L73.6626 170.528L72.5689 170.358L72.1304 171.538C71.8923 171.504 71.6585 171.471 71.4316 171.436L71.4328 171.432L69.9235 171.198L69.6389 171.965C69.6389 171.965 70.4508 172.081 70.4338 172.088C70.877 172.157 70.9586 172.349 70.9465 172.501L70.4473 173.846C70.4778 173.851 70.5174 173.858 70.5611 173.869L70.5294 173.864C70.5024 173.86 70.4743 173.855 70.4454 173.851L69.7457 175.735C69.6923 175.824 69.5561 175.957 69.2463 175.91C69.2573 175.92 68.4508 175.786 68.4508 175.786L67.9147 176.61L69.3389 176.831C69.4949 176.856 69.649 176.881 69.8016 176.906L69.8019 176.906C69.9084 176.923 70.0142 176.94 70.1193 176.957L69.6765 178.151L70.7697 178.321L71.2082 177.139C71.5069 177.19 71.7967 177.237 72.0804 177.281L71.6434 178.457L72.7379 178.626L73.1807 177.434C75.0463 177.651 76.447 177.546 77.0281 176.436C77.4963 175.543 76.9932 175.034 76.0099 174.707C76.7232 174.593 77.2587 174.281 77.3971 173.644L77.3967 173.644ZM74.9178 175.959C74.6144 176.778 72.6625 176.456 71.7694 176.309C71.6891 176.296 71.6173 176.284 71.5561 176.274L72.1437 174.692C72.2183 174.704 72.3095 174.717 72.4128 174.731C73.3363 174.859 75.2286 175.122 74.9178 175.959ZM72.5919 173.997C73.3365 174.122 74.9608 174.392 75.2373 173.648C75.5197 172.887 73.9416 172.671 73.1709 172.565C73.0842 172.553 73.0077 172.543 72.9452 172.533L72.4125 173.968C72.4639 173.976 72.5243 173.986 72.5919 173.997Z" fill="white"/>
<path d="M66.5 173.5C66.5 175.07 65.5207 176.558 63.7986 177.677C62.0812 178.793 59.679 179.5 57 179.5C54.321 179.5 51.9188 178.793 50.2014 177.677C48.4793 176.558 47.5 175.07 47.5 173.5C47.5 171.93 48.4793 170.442 50.2014 169.323C51.9188 168.207 54.321 167.5 57 167.5C59.679 167.5 62.0812 168.207 63.7986 169.323C65.5207 170.442 66.5 171.93 66.5 173.5Z" fill="#D9D9D9" stroke="black"/>
<path d="M66.6861 174.111C65.3838 177.62 59.9963 179.792 54.6525 178.962C49.311 178.133 46.0351 174.616 47.338 171.108C48.6397 167.599 54.0272 165.427 59.3693 166.256C64.7127 167.085 67.9884 170.603 66.686 174.111L66.6861 174.111Z" fill="#F7931A"/>
<path fill-rule="evenodd" clip-rule="evenodd" d="M61.3967 171.644C61.5879 170.773 60.575 170.314 59.1925 170.014L59.6308 168.833L58.5363 168.663L58.1097 169.813C57.822 169.768 57.5265 169.726 57.2329 169.685L57.6626 168.528L56.5689 168.358L56.1304 169.538C55.8923 169.504 55.6585 169.471 55.4316 169.436L55.4328 169.432L53.9235 169.198L53.6389 169.965C53.6389 169.965 54.4508 170.081 54.4338 170.088C54.877 170.157 54.9586 170.349 54.9465 170.501L54.4473 171.846C54.4778 171.851 54.5174 171.858 54.5611 171.869L54.5294 171.864C54.5024 171.86 54.4743 171.855 54.4454 171.851L53.7457 173.735C53.6923 173.824 53.5561 173.957 53.2463 173.91C53.2573 173.92 52.4508 173.786 52.4508 173.786L51.9147 174.61L53.3389 174.831C53.4949 174.856 53.649 174.881 53.8016 174.906L53.8019 174.906C53.9084 174.923 54.0142 174.94 54.1193 174.957L53.6765 176.151L54.7697 176.321L55.2082 175.139C55.5069 175.19 55.7967 175.237 56.0804 175.281L55.6434 176.457L56.7379 176.626L57.1807 175.434C59.0463 175.651 60.447 175.546 61.0281 174.436C61.4963 173.543 60.9932 173.034 60.0099 172.707C60.7232 172.593 61.2587 172.281 61.3971 171.644L61.3967 171.644ZM58.9178 173.959C58.6144 174.778 56.6625 174.456 55.7694 174.309C55.6891 174.296 55.6173 174.284 55.5561 174.274L56.1437 172.692C56.2183 172.704 56.3095 172.717 56.4128 172.731C57.3363 172.859 59.2286 173.122 58.9178 173.959ZM56.5919 171.997C57.3365 172.122 58.9608 172.392 59.2373 171.648C59.5197 170.887 57.9416 170.671 57.1709 170.565C57.0842 170.553 57.0077 170.543 56.9452 170.533L56.4125 171.968C56.4639 171.976 56.5243 171.986 56.5919 171.997Z" fill="white"/>
<path d="M55.5 169.5C55.5 171.07 54.5207 172.558 52.7986 173.677C51.0812 174.793 48.679 175.5 46 175.5C43.321 175.5 40.9188 174.793 39.2014 173.677C37.4793 172.558 36.5 171.07 36.5 169.5C36.5 167.93 37.4793 166.442 39.2014 165.323C40.9188 164.207 43.321 163.5 46 163.5C48.679 163.5 51.0812 164.207 52.7986 165.323C54.5207 166.442 55.5 167.93 55.5 169.5Z" fill="#D9D9D9" stroke="black"/>
<path d="M55.6861 170.111C54.3838 173.62 48.9963 175.792 43.6525 174.962C38.311 174.133 35.0351 170.616 36.338 167.108C37.6397 163.599 43.0272 161.427 48.3693 162.256C53.7127 163.085 56.9884 166.603 55.686 170.111L55.6861 170.111Z" fill="#F7931A"/>
<path fill-rule="evenodd" clip-rule="evenodd" d="M50.3967 167.644C50.5879 166.773 49.575 166.314 48.1925 166.014L48.6308 164.833L47.5363 164.663L47.1097 165.813C46.822 165.768 46.5265 165.726 46.2329 165.685L46.6626 164.528L45.5689 164.358L45.1304 165.538C44.8923 165.504 44.6585 165.471 44.4316 165.436L44.4328 165.432L42.9235 165.198L42.6389 165.965C42.6389 165.965 43.4508 166.081 43.4338 166.088C43.877 166.157 43.9586 166.349 43.9465 166.501L43.4473 167.846C43.4778 167.851 43.5174 167.858 43.5611 167.869L43.5294 167.864C43.5024 167.86 43.4743 167.855 43.4454 167.851L42.7457 169.735C42.6923 169.824 42.5561 169.957 42.2463 169.91C42.2573 169.92 41.4508 169.786 41.4508 169.786L40.9147 170.61L42.3389 170.831C42.4949 170.856 42.649 170.881 42.8016 170.906L42.8019 170.906C42.9084 170.923 43.0142 170.94 43.1193 170.957L42.6765 172.151L43.7697 172.321L44.2082 171.139C44.5069 171.19 44.7967 171.237 45.0804 171.281L44.6434 172.457L45.7379 172.626L46.1807 171.434C48.0463 171.651 49.447 171.546 50.0281 170.436C50.4963 169.543 49.9932 169.034 49.0099 168.707C49.7232 168.593 50.2587 168.281 50.3971 167.644L50.3967 167.644ZM47.9178 169.959C47.6144 170.778 45.6625 170.456 44.7694 170.309C44.6891 170.296 44.6173 170.284 44.5561 170.274L45.1437 168.692C45.2183 168.704 45.3095 168.717 45.4128 168.731C46.3363 168.859 48.2286 169.122 47.9178 169.959ZM45.5919 167.997C46.3365 168.122 47.9608 168.392 48.2373 167.648C48.5197 166.887 46.9416 166.671 46.1709 166.565C46.0842 166.553 46.0077 166.543 45.9452 166.533L45.4125 167.968C45.4639 167.976 45.5243 167.986 45.5919 167.997Z" fill="white"/>
<path d="M95.5 174.5C95.5 176.07 94.5207 177.558 92.7986 178.677C91.0812 179.793 88.679 180.5 86 180.5C83.321 180.5 80.9188 179.793 79.2014 178.677C77.4793 177.558 76.5 176.07 76.5 174.5C76.5 172.93 77.4793 171.442 79.2014 170.323C80.9188 169.207 83.321 168.5 86 168.5C88.679 168.5 91.0812 169.207 92.7986 170.323C94.5207 171.442 95.5 172.93 95.5 174.5Z" fill="#D9D9D9" stroke="black"/>
<path d="M95.6861 175.111C94.3838 178.62 88.9963 180.792 83.6525 179.962C78.311 179.133 75.0351 175.616 76.338 172.108C77.6397 168.599 83.0272 166.427 88.3693 167.256C93.7127 168.085 96.9884 171.603 95.686 175.111L95.6861 175.111Z" fill="#F7931A"/>
<path fill-rule="evenodd" clip-rule="evenodd" d="M90.3967 172.644C90.5879 171.773 89.575 171.314 88.1925 171.014L88.6308 169.833L87.5363 169.663L87.1097 170.813C86.822 170.768 86.5265 170.726 86.2329 170.685L86.6626 169.528L85.5689 169.358L85.1304 170.538C84.8923 170.504 84.6585 170.471 84.4316 170.436L84.4328 170.432L82.9235 170.198L82.6389 170.965C82.6389 170.965 83.4508 171.081 83.4338 171.088C83.877 171.157 83.9586 171.349 83.9465 171.501L83.4473 172.846C83.4778 172.851 83.5174 172.858 83.5611 172.869L83.5294 172.864C83.5024 172.86 83.4743 172.855 83.4454 172.851L82.7457 174.735C82.6923 174.824 82.5561 174.957 82.2463 174.91C82.2573 174.92 81.4508 174.786 81.4508 174.786L80.9147 175.61L82.3389 175.831C82.4949 175.856 82.649 175.881 82.8016 175.906L82.8019 175.906C82.9084 175.923 83.0142 175.94 83.1193 175.957L82.6765 177.151L83.7697 177.321L84.2082 176.139C84.5069 176.19 84.7967 176.237 85.0804 176.281L84.6434 177.457L85.7379 177.626L86.1807 176.434C88.0463 176.651 89.447 176.546 90.0281 175.436C90.4963 174.543 89.9932 174.034 89.0099 173.707C89.7232 173.593 90.2587 173.281 90.3971 172.644L90.3967 172.644ZM87.9178 174.959C87.6144 175.778 85.6625 175.456 84.7694 175.309C84.6891 175.296 84.6173 175.284 84.5561 175.274L85.1437 173.692C85.2183 173.704 85.3095 173.717 85.4128 173.731C86.3363 173.859 88.2286 174.122 87.9178 174.959ZM85.5919 172.997C86.3365 173.122 87.9608 173.392 88.2373 172.648C88.5197 171.887 86.9416 171.671 86.1709 171.565C86.0842 171.553 86.0077 171.543 85.9452 171.533L85.4125 172.968C85.4639 172.976 85.5243 172.986 85.5919 172.997Z" fill="white"/>
<path d="M78.5 167.5C78.5 169.07 77.5207 170.558 75.7986 171.677C74.0812 172.793 71.679 173.5 69 173.5C66.321 173.5 63.9188 172.793 62.2014 171.677C60.4793 170.558 59.5 169.07 59.5 167.5C59.5 165.93 60.4793 164.442 62.2014 163.323C63.9188 162.207 66.321 161.5 69 161.5C71.679 161.5 74.0812 162.207 75.7986 163.323C77.5207 164.442 78.5 165.93 78.5 167.5Z" fill="#D9D9D9" stroke="black"/>
<path d="M78.6861 168.111C77.3838 171.62 71.9963 173.792 66.6525 172.962C61.311 172.133 58.0351 168.616 59.338 165.108C60.6397 161.599 66.0272 159.427 71.3693 160.256C76.7127 161.085 79.9884 164.603 78.686 168.111L78.6861 168.111Z" fill="#F7931A"/>
<path fill-rule="evenodd" clip-rule="evenodd" d="M73.3967 165.644C73.5879 164.773 72.575 164.314 71.1925 164.014L71.6308 162.833L70.5363 162.663L70.1097 163.813C69.822 163.768 69.5265 163.726 69.2329 163.685L69.6626 162.528L68.5689 162.358L68.1304 163.538C67.8923 163.504 67.6585 163.471 67.4316 163.436L67.4328 163.432L65.9235 163.198L65.6389 163.965C65.6389 163.965 66.4508 164.081 66.4338 164.088C66.877 164.157 66.9586 164.349 66.9465 164.501L66.4473 165.846C66.4778 165.851 66.5174 165.858 66.5611 165.869L66.5294 165.864C66.5024 165.86 66.4743 165.855 66.4454 165.851L65.7457 167.735C65.6923 167.824 65.5561 167.957 65.2463 167.91C65.2573 167.92 64.4508 167.786 64.4508 167.786L63.9147 168.61L65.3389 168.831C65.4949 168.856 65.649 168.881 65.8016 168.906L65.8019 168.906C65.9084 168.923 66.0142 168.94 66.1193 168.957L65.6765 170.151L66.7697 170.321L67.2082 169.139C67.5069 169.19 67.7967 169.237 68.0804 169.281L67.6434 170.457L68.7379 170.626L69.1807 169.434C71.0463 169.651 72.447 169.546 73.0281 168.436C73.4963 167.543 72.9932 167.034 72.0099 166.707C72.7232 166.593 73.2587 166.281 73.3971 165.644L73.3967 165.644ZM70.9178 167.959C70.6144 168.778 68.6625 168.456 67.7694 168.309C67.6891 168.296 67.6173 168.284 67.5561 168.274L68.1437 166.692C68.2183 166.704 68.3095 166.717 68.4128 166.731C69.3363 166.859 71.2286 167.122 70.9178 167.959ZM68.5919 165.997C69.3365 166.122 70.9608 166.392 71.2373 165.648C71.5197 164.887 69.9416 164.671 69.1709 164.565C69.0842 164.553 69.0077 164.543 68.9452 164.533L68.4125 165.968C68.4639 165.976 68.5243 165.986 68.5919 165.997Z" fill="white"/>
<path d="M66.5 166.5C66.5 168.07 65.5207 169.558 63.7986 170.677C62.0812 171.793 59.679 172.5 57 172.5C54.321 172.5 51.9188 171.793 50.2014 170.677C48.4793 169.558 47.5 168.07 47.5 166.5C47.5 164.93 48.4793 163.442 50.2014 162.323C51.9188 161.207 54.321 160.5 57 160.5C59.679 160.5 62.0812 161.207 63.7986 162.323C65.5207 163.442 66.5 164.93 66.5 166.5Z" fill="#D9D9D9" stroke="black"/>
<path d="M66.6861 167.111C65.3838 170.62 59.9963 172.792 54.6525 171.962C49.311 171.133 46.0351 167.616 47.338 164.108C48.6397 160.599 54.0272 158.427 59.3693 159.256C64.7127 160.085 67.9884 163.603 66.686 167.111L66.6861 167.111Z" fill="#F7931A"/>
<path fill-rule="evenodd" clip-rule="evenodd" d="M61.3967 164.644C61.5879 163.773 60.575 163.314 59.1925 163.014L59.6308 161.833L58.5363 161.663L58.1097 162.813C57.822 162.768 57.5265 162.726 57.2329 162.685L57.6626 161.528L56.5689 161.358L56.1304 162.538C55.8923 162.504 55.6585 162.471 55.4316 162.436L55.4328 162.432L53.9235 162.198L53.6389 162.965C53.6389 162.965 54.4508 163.081 54.4338 163.088C54.877 163.157 54.9586 163.349 54.9465 163.501L54.4473 164.846C54.4778 164.851 54.5174 164.858 54.5611 164.869L54.5294 164.864C54.5024 164.86 54.4743 164.855 54.4454 164.851L53.7457 166.735C53.6923 166.824 53.5561 166.957 53.2463 166.91C53.2573 166.92 52.4508 166.786 52.4508 166.786L51.9147 167.61L53.3389 167.831C53.4949 167.856 53.649 167.881 53.8016 167.906L53.8019 167.906C53.9084 167.923 54.0142 167.94 54.1193 167.957L53.6765 169.151L54.7697 169.321L55.2082 168.139C55.5069 168.19 55.7967 168.237 56.0804 168.281L55.6434 169.457L56.7379 169.626L57.1807 168.434C59.0463 168.651 60.447 168.546 61.0281 167.436C61.4963 166.543 60.9932 166.034 60.0099 165.707C60.7232 165.593 61.2587 165.281 61.3971 164.644L61.3967 164.644ZM58.9178 166.959C58.6144 167.778 56.6625 167.456 55.7694 167.309C55.6891 167.296 55.6173 167.284 55.5561 167.274L56.1437 165.692C56.2183 165.704 56.3095 165.717 56.4128 165.731C57.3363 165.859 59.2286 166.122 58.9178 166.959ZM56.5919 164.997C57.3365 165.122 58.9608 165.392 59.2373 164.648C59.5197 163.887 57.9416 163.671 57.1709 163.565C57.0842 163.553 57.0077 163.543 56.9452 163.533L56.4125 164.968C56.4639 164.976 56.5243 164.986 56.5919 164.997Z" fill="white"/>
<path d="M98.5 169.5C98.5 171.07 97.5207 172.558 95.7986 173.677C94.0812 174.793 91.679 175.5 89 175.5C86.321 175.5 83.9188 174.793 82.2014 173.677C80.4793 172.558 79.5 171.07 79.5 169.5C79.5 167.93 80.4793 166.442 82.2014 165.323C83.9188 164.207 86.321 163.5 89 163.5C91.679 163.5 94.0812 164.207 95.7986 165.323C97.5207 166.442 98.5 167.93 98.5 169.5Z" fill="#D9D9D9" stroke="black"/>
<path d="M98.6861 170.111C97.3838 173.62 91.9963 175.792 86.6525 174.962C81.311 174.133 78.0351 170.616 79.338 167.108C80.6397 163.599 86.0272 161.427 91.3693 162.256C96.7127 163.085 99.9884 166.603 98.686 170.111L98.6861 170.111Z" fill="#F7931A"/>
<path fill-rule="evenodd" clip-rule="evenodd" d="M93.3967 167.644C93.5879 166.773 92.575 166.314 91.1925 166.014L91.6308 164.833L90.5363 164.663L90.1097 165.813C89.822 165.768 89.5265 165.726 89.2329 165.685L89.6626 164.528L88.5689 164.358L88.1304 165.538C87.8923 165.504 87.6585 165.471 87.4316 165.436L87.4328 165.432L85.9235 165.198L85.6389 165.965C85.6389 165.965 86.4508 166.081 86.4338 166.088C86.877 166.157 86.9586 166.349 86.9465 166.501L86.4473 167.846C86.4778 167.851 86.5174 167.858 86.5611 167.869L86.5294 167.864C86.5024 167.86 86.4743 167.855 86.4454 167.851L85.7457 169.735C85.6923 169.824 85.5561 169.957 85.2463 169.91C85.2573 169.92 84.4508 169.786 84.4508 169.786L83.9147 170.61L85.3389 170.831C85.4949 170.856 85.649 170.881 85.8016 170.906L85.8019 170.906C85.9084 170.923 86.0142 170.94 86.1193 170.957L85.6765 172.151L86.7697 172.321L87.2082 171.139C87.5069 171.19 87.7967 171.237 88.0804 171.281L87.6434 172.457L88.7379 172.626L89.1807 171.434C91.0463 171.651 92.447 171.546 93.0281 170.436C93.4963 169.543 92.9932 169.034 92.0099 168.707C92.7232 168.593 93.2587 168.281 93.3971 167.644L93.3967 167.644ZM90.9178 169.959C90.6144 170.778 88.6625 170.456 87.7694 170.309C87.6891 170.296 87.6173 170.284 87.5561 170.274L88.1437 168.692C88.2183 168.704 88.3095 168.717 88.4128 168.731C89.3363 168.859 91.2286 169.122 90.9178 169.959ZM88.5919 167.997C89.3365 168.122 90.9608 168.392 91.2373 167.648C91.5197 166.887 89.9416 166.671 89.1709 166.565C89.0842 166.553 89.0077 166.543 88.9452 166.533L88.4125 167.968C88.4639 167.976 88.5243 167.986 88.5919 167.997Z" fill="white"/>
<path d="M85.5 163.5C85.5 165.07 84.5207 166.558 82.7986 167.677C81.0812 168.793 78.679 169.5 76 169.5C73.321 169.5 70.9188 168.793 69.2014 167.677C67.4793 166.558 66.5 165.07 66.5 163.5C66.5 161.93 67.4793 160.442 69.2014 159.323C70.9188 158.207 73.321 157.5 76 157.5C78.679 157.5 81.0812 158.207 82.7986 159.323C84.5207 160.442 85.5 161.93 85.5 163.5Z" fill="#D9D9D9" stroke="black"/>
<path d="M85.6861 164.111C84.3838 167.62 78.9963 169.792 73.6525 168.962C68.311 168.133 65.0351 164.616 66.338 161.108C67.6397 157.599 73.0272 155.427 78.3693 156.256C83.7127 157.085 86.9884 160.603 85.686 164.111L85.6861 164.111Z" fill="#F7931A"/>
<path fill-rule="evenodd" clip-rule="evenodd" d="M80.3967 161.644C80.5879 160.773 79.575 160.314 78.1925 160.014L78.6308 158.833L77.5363 158.663L77.1097 159.813C76.822 159.768 76.5265 159.726 76.2329 159.685L76.6626 158.528L75.5689 158.358L75.1304 159.538C74.8923 159.504 74.6585 159.471 74.4316 159.436L74.4328 159.432L72.9235 159.198L72.6389 159.965C72.6389 159.965 73.4508 160.081 73.4338 160.088C73.877 160.157 73.9586 160.349 73.9465 160.501L73.4473 161.846C73.4778 161.851 73.5174 161.858 73.5611 161.869L73.5294 161.864C73.5024 161.86 73.4743 161.855 73.4454 161.851L72.7457 163.735C72.6923 163.824 72.5561 163.957 72.2463 163.91C72.2573 163.92 71.4508 163.786 71.4508 163.786L70.9147 164.61L72.3389 164.831C72.4949 164.856 72.649 164.881 72.8016 164.906L72.8019 164.906C72.9084 164.923 73.0142 164.94 73.1193 164.957L72.6765 166.151L73.7697 166.321L74.2082 165.139C74.5069 165.19 74.7967 165.237 75.0804 165.281L74.6434 166.457L75.7379 166.626L76.1807 165.434C78.0463 165.651 79.447 165.546 80.0281 164.436C80.4963 163.543 79.9932 163.034 79.0099 162.707C79.7232 162.593 80.2587 162.281 80.3971 161.644L80.3967 161.644ZM77.9178 163.959C77.6144 164.778 75.6625 164.456 74.7694 164.309C74.6891 164.296 74.6173 164.284 74.5561 164.274L75.1437 162.692C75.2183 162.704 75.3095 162.717 75.4128 162.731C76.3363 162.859 78.2286 163.122 77.9178 163.959ZM75.5919 161.997C76.3365 162.122 77.9608 162.392 78.2373 161.648C78.5197 160.887 76.9416 160.671 76.1709 160.565C76.0842 160.553 76.0077 160.543 75.9452 160.533L75.4125 161.968C75.4639 161.976 75.5243 161.986 75.5919 161.997Z" fill="white"/>
<path d="M60.5 160.5C60.5 162.07 59.5207 163.558 57.7986 164.677C56.0812 165.793 53.679 166.5 51 166.5C48.321 166.5 45.9188 165.793 44.2014 164.677C42.4793 163.558 41.5 162.07 41.5 160.5C41.5 158.93 42.4793 157.442 44.2014 156.323C45.9188 155.207 48.321 154.5 51 154.5C53.679 154.5 56.0812 155.207 57.7986 156.323C59.5207 157.442 60.5 158.93 60.5 160.5Z" fill="#D9D9D9" stroke="black"/>
<path d="M60.6861 161.111C59.3838 164.62 53.9963 166.792 48.6525 165.962C43.311 165.133 40.0351 161.616 41.338 158.108C42.6397 154.599 48.0272 152.427 53.3693 153.256C58.7127 154.085 61.9884 157.603 60.686 161.111L60.6861 161.111Z" fill="#F7931A"/>
<path fill-rule="evenodd" clip-rule="evenodd" d="M55.3967 158.644C55.5879 157.773 54.575 157.314 53.1925 157.014L53.6308 155.833L52.5363 155.663L52.1097 156.813C51.822 156.768 51.5265 156.726 51.2329 156.685L51.6626 155.528L50.5689 155.358L50.1304 156.538C49.8923 156.504 49.6585 156.471 49.4316 156.436L49.4328 156.432L47.9235 156.198L47.6389 156.965C47.6389 156.965 48.4508 157.081 48.4338 157.088C48.877 157.157 48.9586 157.349 48.9465 157.501L48.4473 158.846C48.4778 158.851 48.5174 158.858 48.5611 158.869L48.5294 158.864C48.5024 158.86 48.4743 158.855 48.4454 158.851L47.7457 160.735C47.6923 160.824 47.5561 160.957 47.2463 160.91C47.2573 160.92 46.4508 160.786 46.4508 160.786L45.9147 161.61L47.3389 161.831C47.4949 161.856 47.649 161.881 47.8016 161.906L47.8019 161.906C47.9084 161.923 48.0142 161.94 48.1193 161.957L47.6765 163.151L48.7697 163.321L49.2082 162.139C49.5069 162.19 49.7967 162.237 50.0804 162.281L49.6434 163.457L50.7379 163.626L51.1807 162.434C53.0463 162.651 54.447 162.546 55.0281 161.436C55.4963 160.543 54.9932 160.034 54.0099 159.707C54.7232 159.593 55.2587 159.281 55.3971 158.644L55.3967 158.644ZM52.9178 160.959C52.6144 161.778 50.6625 161.456 49.7694 161.309C49.6891 161.296 49.6173 161.284 49.5561 161.274L50.1437 159.692C50.2183 159.704 50.3095 159.717 50.4128 159.731C51.3363 159.859 53.2286 160.122 52.9178 160.959ZM50.5919 158.997C51.3365 159.122 52.9608 159.392 53.2373 158.648C53.5197 157.887 51.9416 157.671 51.1709 157.565C51.0842 157.553 51.0077 157.543 50.9452 157.533L50.4125 158.968C50.4639 158.976 50.5243 158.986 50.5919 158.997Z" fill="white"/>
<path d="M86.5 159.5C86.5 161.07 85.5207 162.558 83.7986 163.677C82.0812 164.793 79.679 165.5 77 165.5C74.321 165.5 71.9188 164.793 70.2014 163.677C68.4793 162.558 67.5 161.07 67.5 159.5C67.5 157.93 68.4793 156.442 70.2014 155.323C71.9188 154.207 74.321 153.5 77 153.5C79.679 153.5 82.0812 154.207 83.7986 155.323C85.5207 156.442 86.5 157.93 86.5 159.5Z" fill="#D9D9D9" stroke="black"/>
<path d="M86.6861 160.111C85.3838 163.62 79.9963 165.792 74.6525 164.962C69.311 164.133 66.0351 160.616 67.338 157.108C68.6397 153.599 74.0272 151.427 79.3693 152.256C84.7127 153.085 87.9884 156.603 86.686 160.111L86.6861 160.111Z" fill="#F7931A"/>
<path fill-rule="evenodd" clip-rule="evenodd" d="M81.3967 157.644C81.5879 156.773 80.575 156.314 79.1925 156.014L79.6308 154.833L78.5363 154.663L78.1097 155.813C77.822 155.768 77.5265 155.726 77.2329 155.685L77.6626 154.528L76.5689 154.358L76.1304 155.538C75.8923 155.504 75.6585 155.471 75.4316 155.436L75.4328 155.432L73.9235 155.198L73.6389 155.965C73.6389 155.965 74.4508 156.081 74.4338 156.088C74.877 156.157 74.9586 156.349 74.9465 156.501L74.4473 157.846C74.4778 157.851 74.5174 157.858 74.5611 157.869L74.5294 157.864C74.5024 157.86 74.4743 157.855 74.4454 157.851L73.7457 159.735C73.6923 159.824 73.5561 159.957 73.2463 159.91C73.2573 159.92 72.4508 159.786 72.4508 159.786L71.9147 160.61L73.3389 160.831C73.4949 160.856 73.649 160.881 73.8016 160.906L73.8019 160.906C73.9084 160.923 74.0142 160.94 74.1193 160.957L73.6765 162.151L74.7697 162.321L75.2082 161.139C75.5069 161.19 75.7967 161.237 76.0804 161.281L75.6434 162.457L76.7379 162.626L77.1807 161.434C79.0463 161.651 80.447 161.546 81.0281 160.436C81.4963 159.543 80.9932 159.034 80.0099 158.707C80.7232 158.593 81.2587 158.281 81.3971 157.644L81.3967 157.644ZM78.9178 159.959C78.6144 160.778 76.6625 160.456 75.7694 160.309C75.6891 160.296 75.6173 160.284 75.5561 160.274L76.1437 158.692C76.2183 158.704 76.3095 158.717 76.4128 158.731C77.3363 158.859 79.2286 159.122 78.9178 159.959ZM76.5919 157.997C77.3365 158.122 78.9608 158.392 79.2373 157.648C79.5197 156.887 77.9416 156.671 77.1709 156.565C77.0842 156.553 77.0077 156.543 76.9452 156.533L76.4125 157.968C76.4639 157.976 76.5243 157.986 76.5919 157.997Z" fill="white"/>
<path d="M72.5 158.5C72.5 160.07 71.5207 161.558 69.7986 162.677C68.0812 163.793 65.679 164.5 63 164.5C60.321 164.5 57.9188 163.793 56.2014 162.677C54.4793 161.558 53.5 160.07 53.5 158.5C53.5 156.93 54.4793 155.442 56.2014 154.323C57.9188 153.207 60.321 152.5 63 152.5C65.679 152.5 68.0812 153.207 69.7986 154.323C71.5207 155.442 72.5 156.93 72.5 158.5Z" fill="#D9D9D9" stroke="black"/>
<path d="M72.6861 159.111C71.3838 162.62 65.9963 164.792 60.6525 163.962C55.311 163.133 52.0351 159.616 53.338 156.108C54.6397 152.599 60.0272 150.427 65.3693 151.256C70.7127 152.085 73.9884 155.603 72.686 159.111L72.6861 159.111Z" fill="#F7931A"/>
<path fill-rule="evenodd" clip-rule="evenodd" d="M67.3967 156.644C67.5879 155.773 66.575 155.314 65.1925 155.014L65.6308 153.833L64.5363 153.663L64.1097 154.813C63.822 154.768 63.5265 154.726 63.2329 154.685L63.6626 153.528L62.5689 153.358L62.1304 154.538C61.8923 154.504 61.6585 154.471 61.4316 154.436L61.4328 154.432L59.9235 154.198L59.6389 154.965C59.6389 154.965 60.4508 155.081 60.4338 155.088C60.877 155.157 60.9586 155.349 60.9465 155.501L60.4473 156.846C60.4778 156.851 60.5174 156.858 60.5611 156.869L60.5294 156.864C60.5024 156.86 60.4743 156.855 60.4454 156.851L59.7457 158.735C59.6923 158.824 59.5561 158.957 59.2463 158.91C59.2573 158.92 58.4508 158.786 58.4508 158.786L57.9147 159.61L59.3389 159.831C59.4949 159.856 59.649 159.881 59.8016 159.906L59.8019 159.906C59.9084 159.923 60.0142 159.94 60.1193 159.957L59.6765 161.151L60.7697 161.321L61.2082 160.139C61.5069 160.19 61.7967 160.237 62.0804 160.281L61.6434 161.457L62.7379 161.626L63.1807 160.434C65.0463 160.651 66.447 160.546 67.0281 159.436C67.4963 158.543 66.9932 158.034 66.0099 157.707C66.7232 157.593 67.2587 157.281 67.3971 156.644L67.3967 156.644ZM64.9178 158.959C64.6144 159.778 62.6625 159.456 61.7694 159.309C61.6891 159.296 61.6173 159.284 61.5561 159.274L62.1437 157.692C62.2183 157.704 62.3095 157.717 62.4128 157.731C63.3363 157.859 65.2286 158.122 64.9178 158.959ZM62.5919 156.997C63.3365 157.122 64.9608 157.392 65.2373 156.648C65.5197 155.887 63.9416 155.671 63.1709 155.565C63.0842 155.553 63.0077 155.543 62.9452 155.533L62.4125 156.968C62.4639 156.976 62.5243 156.986 62.5919 156.997Z" fill="white"/>
<path d="M80.5 152.5C80.5 154.07 79.5207 155.558 77.7986 156.677C76.0812 157.793 73.679 158.5 71 158.5C68.321 158.5 65.9188 157.793 64.2014 156.677C62.4793 155.558 61.5 154.07 61.5 152.5C61.5 150.93 62.4793 149.442 64.2014 148.323C65.9188 147.207 68.321 146.5 71 146.5C73.679 146.5 76.0812 147.207 77.7986 148.323C79.5207 149.442 80.5 150.93 80.5 152.5Z" fill="#D9D9D9" stroke="black"/>
<path d="M80.6861 153.111C79.3838 156.62 73.9963 158.792 68.6525 157.962C63.311 157.133 60.0351 153.616 61.338 150.108C62.6397 146.599 68.0272 144.427 73.3693 145.256C78.7127 146.085 81.9884 149.603 80.686 153.111L80.6861 153.111Z" fill="#F7931A"/>
<path fill-rule="evenodd" clip-rule="evenodd" d="M75.3967 150.644C75.5879 149.773 74.575 149.314 73.1925 149.014L73.6308 147.833L72.5363 147.663L72.1097 148.813C71.822 148.768 71.5265 148.726 71.2329 148.685L71.6626 147.528L70.5689 147.358L70.1304 148.538C69.8923 148.504 69.6585 148.471 69.4316 148.436L69.4328 148.432L67.9235 148.198L67.6389 148.965C67.6389 148.965 68.4508 149.081 68.4338 149.088C68.877 149.157 68.9586 149.349 68.9465 149.501L68.4473 150.846C68.4778 150.851 68.5174 150.858 68.5611 150.869L68.5294 150.864C68.5024 150.86 68.4743 150.855 68.4454 150.851L67.7457 152.735C67.6923 152.824 67.5561 152.957 67.2463 152.91C67.2573 152.92 66.4508 152.786 66.4508 152.786L65.9147 153.61L67.3389 153.831C67.4949 153.856 67.649 153.881 67.8016 153.906L67.8019 153.906C67.9084 153.923 68.0142 153.94 68.1193 153.957L67.6765 155.151L68.7697 155.321L69.2082 154.139C69.5069 154.19 69.7967 154.237 70.0804 154.281L69.6434 155.457L70.7379 155.626L71.1807 154.434C73.0463 154.651 74.447 154.546 75.0281 153.436C75.4963 152.543 74.9932 152.034 74.0099 151.707C74.7232 151.593 75.2587 151.281 75.3971 150.644L75.3967 150.644ZM72.9178 152.959C72.6144 153.778 70.6625 153.456 69.7694 153.309C69.6891 153.296 69.6173 153.284 69.5561 153.274L70.1437 151.692C70.2183 151.704 70.3095 151.717 70.4128 151.731C71.3363 151.859 73.2286 152.122 72.9178 152.959ZM70.5919 150.997C71.3365 151.122 72.9608 151.392 73.2373 150.648C73.5197 149.887 71.9416 149.671 71.1709 149.565C71.0842 149.553 71.0077 149.543 70.9452 149.533L70.4125 150.968C70.4639 150.976 70.5243 150.986 70.5919 150.997Z" fill="white"/>
<path d="M65.5 153.5C65.5 155.07 64.5207 156.558 62.7986 157.677C61.0812 158.793 58.679 159.5 56 159.5C53.321 159.5 50.9188 158.793 49.2014 157.677C47.4793 156.558 46.5 155.07 46.5 153.5C46.5 151.93 47.4793 150.442 49.2014 149.323C50.9188 148.207 53.321 147.5 56 147.5C58.679 147.5 61.0812 148.207 62.7986 149.323C64.5207 150.442 65.5 151.93 65.5 153.5Z" fill="#D9D9D9" stroke="black"/>
<path d="M65.6861 154.111C64.3838 157.62 58.9963 159.792 53.6525 158.962C48.311 158.133 45.0351 154.616 46.338 151.108C47.6397 147.599 53.0272 145.427 58.3693 146.256C63.7127 147.085 66.9884 150.603 65.686 154.111L65.6861 154.111Z" fill="#F7931A"/>
<path fill-rule="evenodd" clip-rule="evenodd" d="M60.3967 151.644C60.5879 150.773 59.575 150.314 58.1925 150.014L58.6308 148.833L57.5363 148.663L57.1097 149.813C56.822 149.768 56.5265 149.726 56.2329 149.685L56.6626 148.528L55.5689 148.358L55.1304 149.538C54.8923 149.504 54.6585 149.471 54.4316 149.436L54.4328 149.432L52.9235 149.198L52.6389 149.965C52.6389 149.965 53.4508 150.081 53.4338 150.088C53.877 150.157 53.9586 150.349 53.9465 150.501L53.4473 151.846C53.4778 151.851 53.5174 151.858 53.5611 151.869L53.5294 151.864C53.5024 151.86 53.4743 151.855 53.4454 151.851L52.7457 153.735C52.6923 153.824 52.5561 153.957 52.2463 153.91C52.2573 153.92 51.4508 153.786 51.4508 153.786L50.9147 154.61L52.3389 154.831C52.4949 154.856 52.649 154.881 52.8016 154.906L52.8019 154.906C52.9084 154.923 53.0142 154.94 53.1193 154.957L52.6765 156.151L53.7697 156.321L54.2082 155.139C54.5069 155.19 54.7967 155.237 55.0804 155.281L54.6434 156.457L55.7379 156.626L56.1807 155.434C58.0463 155.651 59.447 155.546 60.0281 154.436C60.4963 153.543 59.9932 153.034 59.0099 152.707C59.7232 152.593 60.2587 152.281 60.3971 151.644L60.3967 151.644ZM57.9178 153.959C57.6144 154.778 55.6625 154.456 54.7694 154.309C54.6891 154.296 54.6173 154.284 54.5561 154.274L55.1437 152.692C55.2183 152.704 55.3095 152.717 55.4128 152.731C56.3363 152.859 58.2286 153.122 57.9178 153.959ZM55.5919 151.997C56.3365 152.122 57.9608 152.392 58.2373 151.648C58.5197 150.887 56.9416 150.671 56.1709 150.565C56.0842 150.553 56.0077 150.543 55.9452 150.533L55.4125 151.968C55.4639 151.976 55.5243 151.986 55.5919 151.997Z" fill="white"/>
<rect x="14.5" y="10.5" width="119" height="35" rx="3.5" fill="#F7931A" stroke="white"/>
<mask id="path-63-outside-1_561_588" maskUnits="userSpaceOnUse" x="30.3192" y="22.66" width="88" height="10" fill="black">
<rect fill="white" x="30.3192" y="22.66" width="88" height="10"/>
<path d="M41.7712 25.88V24.2H34.5232V31.46H41.7712V28.1H37.1752V27.56H42.3112V32H31.3192V31.46H32.5192V24.2H31.3192V23.66H42.3112V25.88H41.7712ZM33.9712 24.2H33.0592V31.46H33.9712V24.2Z"/>
<path d="M51.2007 31.46H52.3887V32H43.7127V28.916H49.1967V26.912H44.2527V27.836H43.7127V26.372H51.2007V31.46ZM49.1967 31.46V29.456H44.2527V31.46H49.1967ZM50.6607 26.912H49.7367V31.46H50.6607V26.912Z"/>
<path d="M66.658 31.46V32H63.55V31.46H64.834V26.912H60.694V31.46H61.978V32H58.87V31.46H60.154V26.912H56.11V31.46H57.298V32H52.918V31.46H54.106V26.912H52.918V26.372H65.374V31.46H66.658ZM55.57 26.912H54.646V31.46H55.57V26.912Z"/>
<path d="M67.5735 26.372H75.0615V29.456H69.5775V31.46H74.5215V30.536H75.0615V32H67.5735V26.372ZM69.5775 26.912V28.916H74.5215V26.912H69.5775ZM68.1135 31.46H69.0375V26.912H68.1135V31.46Z"/>
<path d="M89.3203 23.66V32H79.5283V23.66H89.3203ZM80.9923 31.46V24.2H80.0683V31.46H80.9923ZM88.7803 24.2H81.5323V31.46H88.7803V24.2Z"/>
<path d="M97.8312 26.372H100.759V26.912H99.4632L97.5792 32H90.5352V31.46H91.7232V26.912H90.5352V26.372H94.9152V26.912H93.7272V31.46H97.1832L98.8632 26.912H97.8312V26.372ZM93.1872 26.912H92.2632V31.46H93.1872V26.912Z"/>
<path d="M101.558 26.372H109.046V29.456H103.562V31.46H108.506V30.536H109.046V32H101.558V26.372ZM103.562 26.912V28.916H108.506V26.912H103.562ZM102.098 31.46H103.022V26.912H102.098V31.46Z"/>
<path d="M110.129 26.372H117.761V27.824H117.221V26.912H113.321V31.46H114.509V32H110.129V31.46H111.317V26.912H110.129V26.372ZM112.781 31.46V26.912H111.857V31.46H112.781Z"/>
</mask>
<path d="M41.7712 25.88V24.2H34.5232V31.46H41.7712V28.1H37.1752V27.56H42.3112V32H31.3192V31.46H32.5192V24.2H31.3192V23.66H42.3112V25.88H41.7712ZM33.9712 24.2H33.0592V31.46H33.9712V24.2Z" fill="white"/>
<path d="M51.2007 31.46H52.3887V32H43.7127V28.916H49.1967V26.912H44.2527V27.836H43.7127V26.372H51.2007V31.46ZM49.1967 31.46V29.456H44.2527V31.46H49.1967ZM50.6607 26.912H49.7367V31.46H50.6607V26.912Z" fill="white"/>
<path d="M66.658 31.46V32H63.55V31.46H64.834V26.912H60.694V31.46H61.978V32H58.87V31.46H60.154V26.912H56.11V31.46H57.298V32H52.918V31.46H54.106V26.912H52.918V26.372H65.374V31.46H66.658ZM55.57 26.912H54.646V31.46H55.57V26.912Z" fill="white"/>
<path d="M67.5735 26.372H75.0615V29.456H69.5775V31.46H74.5215V30.536H75.0615V32H67.5735V26.372ZM69.5775 26.912V28.916H74.5215V26.912H69.5775ZM68.1135 31.46H69.0375V26.912H68.1135V31.46Z" fill="white"/>
<path d="M89.3203 23.66V32H79.5283V23.66H89.3203ZM80.9923 31.46V24.2H80.0683V31.46H80.9923ZM88.7803 24.2H81.5323V31.46H88.7803V24.2Z" fill="white"/>
<path d="M97.8312 26.372H100.759V26.912H99.4632L97.5792 32H90.5352V31.46H91.7232V26.912H90.5352V26.372H94.9152V26.912H93.7272V31.46H97.1832L98.8632 26.912H97.8312V26.372ZM93.1872 26.912H92.2632V31.46H93.1872V26.912Z" fill="white"/>
<path d="M101.558 26.372H109.046V29.456H103.562V31.46H108.506V30.536H109.046V32H101.558V26.372ZM103.562 26.912V28.916H108.506V26.912H103.562ZM102.098 31.46H103.022V26.912H102.098V31.46Z" fill="white"/>
<path d="M110.129 26.372H117.761V27.824H117.221V26.912H113.321V31.46H114.509V32H110.129V31.46H111.317V26.912H110.129V26.372ZM112.781 31.46V26.912H111.857V31.46H112.781Z" fill="white"/>
<path d="M41.7712 25.88V24.2H34.5232V31.46H41.7712V28.1H37.1752V27.56H42.3112V32H31.3192V31.46H32.5192V24.2H31.3192V23.66H42.3112V25.88H41.7712ZM33.9712 24.2H33.0592V31.46H33.9712V24.2Z" stroke="white" mask="url(#path-63-outside-1_561_588)"/>
<path d="M51.2007 31.46H52.3887V32H43.7127V28.916H49.1967V26.912H44.2527V27.836H43.7127V26.372H51.2007V31.46ZM49.1967 31.46V29.456H44.2527V31.46H49.1967ZM50.6607 26.912H49.7367V31.46H50.6607V26.912Z" stroke="white" mask="url(#path-63-outside-1_561_588)"/>
<path d="M66.658 31.46V32H63.55V31.46H64.834V26.912H60.694V31.46H61.978V32H58.87V31.46H60.154V26.912H56.11V31.46H57.298V32H52.918V31.46H54.106V26.912H52.918V26.372H65.374V31.46H66.658ZM55.57 26.912H54.646V31.46H55.57V26.912Z" stroke="white" mask="url(#path-63-outside-1_561_588)"/>
<path d="M67.5735 26.372H75.0615V29.456H69.5775V31.46H74.5215V30.536H75.0615V32H67.5735V26.372ZM69.5775 26.912V28.916H74.5215V26.912H69.5775ZM68.1135 31.46H69.0375V26.912H68.1135V31.46Z" stroke="white" mask="url(#path-63-outside-1_561_588)"/>
<path d="M89.3203 23.66V32H79.5283V23.66H89.3203ZM80.9923 31.46V24.2H80.0683V31.46H80.9923ZM88.7803 24.2H81.5323V31.46H88.7803V24.2Z" stroke="white" mask="url(#path-63-outside-1_561_588)"/>
<path d="M97.8312 26.372H100.759V26.912H99.4632L97.5792 32H90.5352V31.46H91.7232V26.912H90.5352V26.372H94.9152V26.912H93.7272V31.46H97.1832L98.8632 26.912H97.8312V26.372ZM93.1872 26.912H92.2632V31.46H93.1872V26.912Z" stroke="white" mask="url(#path-63-outside-1_561_588)"/>
<path d="M101.558 26.372H109.046V29.456H103.562V31.46H108.506V30.536H109.046V32H101.558V26.372ZM103.562 26.912V28.916H108.506V26.912H103.562ZM102.098 31.46H103.022V26.912H102.098V31.46Z" stroke="white" mask="url(#path-63-outside-1_561_588)"/>
<path d="M110.129 26.372H117.761V27.824H117.221V26.912H113.321V31.46H114.509V32H110.129V31.46H111.317V26.912H110.129V26.372ZM112.781 31.46V26.912H111.857V31.46H112.781Z" stroke="white" mask="url(#path-63-outside-1_561_588)"/>
<mask id="path-64-outside-2_561_588" maskUnits="userSpaceOnUse" x="27" y="54" width="213" height="10" fill="black">
<rect fill="white" x="27" y="54" width="213" height="10"/>
<path d="M35.839 56.665V55.405H30.394V57.925H34.372V57.034H34.786V59.221H34.372V58.33H30.394V60.85H35.839V59.59H36.244V61.255H28V60.85H28.891V55.405H28V55H36.244V56.665H35.839ZM29.989 55.405H29.296V60.85H29.989V55.405Z"/>
<path d="M37.0006 57.034H43.5076V60.85H44.4706V61.255H42.1396V60.85H43.1026V57.439H39.3946V60.85H40.2856V61.255H37.0006V60.85H37.8916V57.439H37.0006V57.034ZM38.9896 60.85V57.439H38.2966V60.85H38.9896Z"/>
<path d="M48.8189 60.85V61.255H45.5789V57.439H44.6879V57.034H45.5789V55H47.0819V57.034H48.8189V57.439H47.0819V60.85H48.8189ZM46.6769 55.405H45.9839V60.85H46.6769V55.405Z"/>
<path d="M49.5479 57.034H55.1639V59.347H51.0509V60.85H54.7589V60.157H55.1639V61.255H49.5479V57.034ZM51.0509 57.439V58.942H54.7589V57.439H51.0509ZM49.9529 60.85H50.6459V57.439H49.9529V60.85Z"/>
<path d="M55.9762 57.034H61.7002V58.123H61.2952V57.439H58.3702V60.85H59.2612V61.255H55.9762V60.85H56.8672V57.439H55.9762V57.034ZM57.9652 60.85V57.439H57.2722V60.85H57.9652Z"/>
<path d="M71.9178 57.439H71.0268V63.289H65.2848V62.191H65.6898V62.884H69.5238V61.255H65.2848V57.439H64.3218V57.034H66.6528V57.439H65.6898V60.85H69.5238V57.439H68.6328V57.034H71.9178V57.439ZM70.6218 57.439H69.9288V62.884H70.6218V57.439Z"/>
<path d="M78.2528 61.255H72.6368V57.034H78.2528V61.255ZM77.8478 57.439H74.1398V60.85H77.8478V57.439ZM73.7348 57.439H73.0418V60.85H73.7348V57.439Z"/>
<path d="M86.444 60.85V61.255H79.865V57.439H78.974V57.034H81.368V60.85H85.076V57.439H84.113V57.034H85.481V60.85H86.444ZM80.963 57.439H80.27V60.85H80.963V57.439Z"/>
<path d="M86.9049 57.034H92.6289V58.123H92.2239V57.439H89.2989V60.85H90.1899V61.255H86.9049V60.85H87.7959V57.439H86.9049V57.034ZM88.8939 60.85V57.439H88.2009V60.85H88.8939Z"/>
<path d="M95.4215 57.034H101.929V60.85H102.892V61.255H100.561V60.85H101.524V57.439H97.8155V60.85H98.7065V61.255H95.4215V60.85H96.3125V57.439H95.4215V57.034ZM97.4105 60.85V57.439H96.7175V60.85H97.4105Z"/>
<path d="M109.145 60.85H110.036V61.255H103.529V58.942H107.642V57.439H103.934V58.132H103.529V57.034H109.145V60.85ZM107.642 60.85V59.347H103.934V60.85H107.642ZM108.74 57.439H108.047V60.85H108.74V57.439Z"/>
<path d="M120.738 60.85V61.255H118.407V60.85H119.37V57.439H116.265V60.85H117.228V61.255H114.897V60.85H115.86V57.439H112.827V60.85H113.718V61.255H110.433V60.85H111.324V57.439H110.433V57.034H119.775V60.85H120.738ZM112.422 57.439H111.729V60.85H112.422V57.439Z"/>
<path d="M121.425 57.034H127.041V59.347H122.928V60.85H126.636V60.157H127.041V61.255H121.425V57.034ZM122.928 57.439V58.942H126.636V57.439H122.928ZM121.83 60.85H122.523V57.439H121.83V60.85Z"/>
<path d="M134.108 60.85V61.255H130.868V57.439H129.977V57.034H130.868V55H132.371V57.034H134.108V57.439H132.371V60.85H134.108ZM131.966 55.405H131.273V60.85H131.966V55.405Z"/>
<path d="M140.453 61.255H134.837V57.034H140.453V61.255ZM140.048 57.439H136.34V60.85H140.048V57.439ZM135.935 57.439H135.242V60.85H135.935V57.439Z"/>
<path d="M149.364 57.034V58.132H148.959V57.439H145.251V58.942H149.364V61.255H143.748V60.157H144.153V60.85H147.861V59.347H143.748V57.034H149.364ZM148.266 59.347V60.85H148.959V59.347H148.266ZM144.846 57.439H144.153V58.942H144.846V57.439Z"/>
<path d="M154.173 60.85V61.255H150.933V57.439H150.042V57.034H150.933V55H152.436V57.034H154.173V57.439H152.436V60.85H154.173ZM152.031 55.405H151.338V60.85H152.031V55.405Z"/>
<path d="M160.518 61.255H154.902V57.034H160.518V61.255ZM160.113 57.439H156.405V60.85H160.113V57.439ZM156 57.439H155.307V60.85H156V57.439Z"/>
<path d="M161.375 57.034H167.099V58.123H166.694V57.439H163.769V60.85H164.66V61.255H161.375V60.85H162.266V57.439H161.375V57.034ZM163.364 60.85V57.439H162.671V60.85H163.364Z"/>
<path d="M167.857 57.034H173.473V59.347H169.36V60.85H173.068V60.157H173.473V61.255H167.857V57.034ZM169.36 57.439V58.942H173.068V57.439H169.36ZM168.262 60.85H168.955V57.439H168.262V60.85Z"/>
<path d="M183.97 57.439H183.079V63.289H177.337V62.191H177.742V62.884H181.576V61.255H177.337V57.439H176.374V57.034H178.705V57.439H177.742V60.85H181.576V57.439H180.685V57.034H183.97V57.439ZM182.674 57.439H181.981V62.884H182.674V57.439Z"/>
<path d="M190.305 61.255H184.689V57.034H190.305V61.255ZM189.9 57.439H186.192V60.85H189.9V57.439ZM185.787 57.439H185.094V60.85H185.787V57.439Z"/>
<path d="M198.496 60.85V61.255H191.917V57.439H191.026V57.034H193.42V60.85H197.128V57.439H196.165V57.034H197.533V60.85H198.496ZM193.015 57.439H192.322V60.85H193.015V57.439Z"/>
<path d="M198.957 57.034H204.681V58.123H204.276V57.439H201.351V60.85H202.242V61.255H198.957V60.85H199.848V57.439H198.957V57.034ZM200.946 60.85V57.439H200.253V60.85H200.946Z"/>
<path d="M213.269 57.034V58.132H212.864V57.439H209.156V58.942H213.269V61.255H207.653V60.157H208.058V60.85H211.766V59.347H207.653V57.034H213.269ZM212.171 59.347V60.85H212.864V59.347H212.171ZM208.751 57.439H208.058V58.942H208.751V57.439Z"/>
<path d="M219.519 60.157H219.924V61.255H214.308V57.034H219.924V58.132H219.519V57.439H215.811V60.85H219.519V60.157ZM215.406 57.439H214.713V60.85H215.406V57.439Z"/>
<path d="M226.524 61.255H220.908V57.034H226.524V61.255ZM226.119 57.439H222.411V60.85H226.119V57.439ZM222.006 57.439H221.313V60.85H222.006V57.439Z"/>
<path d="M227.381 57.034H233.105V58.123H232.7V57.439H229.775V60.85H230.666V61.255H227.381V60.85H228.272V57.439H227.381V57.034ZM229.37 60.85V57.439H228.677V60.85H229.37Z"/>
<path d="M233.863 57.034H239.479V59.347H235.366V60.85H239.074V60.157H239.479V61.255H233.863V57.034ZM235.366 57.439V58.942H239.074V57.439H235.366ZM234.268 60.85H234.961V57.439H234.268V60.85Z"/>
</mask>
<path d="M35.839 56.665V55.405H30.394V57.925H34.372V57.034H34.786V59.221H34.372V58.33H30.394V60.85H35.839V59.59H36.244V61.255H28V60.85H28.891V55.405H28V55H36.244V56.665H35.839ZM29.989 55.405H29.296V60.85H29.989V55.405Z" fill="black"/>
<path d="M37.0006 57.034H43.5076V60.85H44.4706V61.255H42.1396V60.85H43.1026V57.439H39.3946V60.85H40.2856V61.255H37.0006V60.85H37.8916V57.439H37.0006V57.034ZM38.9896 60.85V57.439H38.2966V60.85H38.9896Z" fill="black"/>
<path d="M48.8189 60.85V61.255H45.5789V57.439H44.6879V57.034H45.5789V55H47.0819V57.034H48.8189V57.439H47.0819V60.85H48.8189ZM46.6769 55.405H45.9839V60.85H46.6769V55.405Z" fill="black"/>
<path d="M49.5479 57.034H55.1639V59.347H51.0509V60.85H54.7589V60.157H55.1639V61.255H49.5479V57.034ZM51.0509 57.439V58.942H54.7589V57.439H51.0509ZM49.9529 60.85H50.6459V57.439H49.9529V60.85Z" fill="black"/>
<path d="M55.9762 57.034H61.7002V58.123H61.2952V57.439H58.3702V60.85H59.2612V61.255H55.9762V60.85H56.8672V57.439H55.9762V57.034ZM57.9652 60.85V57.439H57.2722V60.85H57.9652Z" fill="black"/>
<path d="M71.9178 57.439H71.0268V63.289H65.2848V62.191H65.6898V62.884H69.5238V61.255H65.2848V57.439H64.3218V57.034H66.6528V57.439H65.6898V60.85H69.5238V57.439H68.6328V57.034H71.9178V57.439ZM70.6218 57.439H69.9288V62.884H70.6218V57.439Z" fill="black"/>
<path d="M78.2528 61.255H72.6368V57.034H78.2528V61.255ZM77.8478 57.439H74.1398V60.85H77.8478V57.439ZM73.7348 57.439H73.0418V60.85H73.7348V57.439Z" fill="black"/>
<path d="M86.444 60.85V61.255H79.865V57.439H78.974V57.034H81.368V60.85H85.076V57.439H84.113V57.034H85.481V60.85H86.444ZM80.963 57.439H80.27V60.85H80.963V57.439Z" fill="black"/>
<path d="M86.9049 57.034H92.6289V58.123H92.2239V57.439H89.2989V60.85H90.1899V61.255H86.9049V60.85H87.7959V57.439H86.9049V57.034ZM88.8939 60.85V57.439H88.2009V60.85H88.8939Z" fill="black"/>
<path d="M95.4215 57.034H101.929V60.85H102.892V61.255H100.561V60.85H101.524V57.439H97.8155V60.85H98.7065V61.255H95.4215V60.85H96.3125V57.439H95.4215V57.034ZM97.4105 60.85V57.439H96.7175V60.85H97.4105Z" fill="black"/>
<path d="M109.145 60.85H110.036V61.255H103.529V58.942H107.642V57.439H103.934V58.132H103.529V57.034H109.145V60.85ZM107.642 60.85V59.347H103.934V60.85H107.642ZM108.74 57.439H108.047V60.85H108.74V57.439Z" fill="black"/>
<path d="M120.738 60.85V61.255H118.407V60.85H119.37V57.439H116.265V60.85H117.228V61.255H114.897V60.85H115.86V57.439H112.827V60.85H113.718V61.255H110.433V60.85H111.324V57.439H110.433V57.034H119.775V60.85H120.738ZM112.422 57.439H111.729V60.85H112.422V57.439Z" fill="black"/>
<path d="M121.425 57.034H127.041V59.347H122.928V60.85H126.636V60.157H127.041V61.255H121.425V57.034ZM122.928 57.439V58.942H126.636V57.439H122.928ZM121.83 60.85H122.523V57.439H121.83V60.85Z" fill="black"/>
<path d="M134.108 60.85V61.255H130.868V57.439H129.977V57.034H130.868V55H132.371V57.034H134.108V57.439H132.371V60.85H134.108ZM131.966 55.405H131.273V60.85H131.966V55.405Z" fill="black"/>
<path d="M140.453 61.255H134.837V57.034H140.453V61.255ZM140.048 57.439H136.34V60.85H140.048V57.439ZM135.935 57.439H135.242V60.85H135.935V57.439Z" fill="black"/>
<path d="M149.364 57.034V58.132H148.959V57.439H145.251V58.942H149.364V61.255H143.748V60.157H144.153V60.85H147.861V59.347H143.748V57.034H149.364ZM148.266 59.347V60.85H148.959V59.347H148.266ZM144.846 57.439H144.153V58.942H144.846V57.439Z" fill="black"/>
<path d="M154.173 60.85V61.255H150.933V57.439H150.042V57.034H150.933V55H152.436V57.034H154.173V57.439H152.436V60.85H154.173ZM152.031 55.405H151.338V60.85H152.031V55.405Z" fill="black"/>
<path d="M160.518 61.255H154.902V57.034H160.518V61.255ZM160.113 57.439H156.405V60.85H160.113V57.439ZM156 57.439H155.307V60.85H156V57.439Z" fill="black"/>
<path d="M161.375 57.034H167.099V58.123H166.694V57.439H163.769V60.85H164.66V61.255H161.375V60.85H162.266V57.439H161.375V57.034ZM163.364 60.85V57.439H162.671V60.85H163.364Z" fill="black"/>
<path d="M167.857 57.034H173.473V59.347H169.36V60.85H173.068V60.157H173.473V61.255H167.857V57.034ZM169.36 57.439V58.942H173.068V57.439H169.36ZM168.262 60.85H168.955V57.439H168.262V60.85Z" fill="black"/>
<path d="M183.97 57.439H183.079V63.289H177.337V62.191H177.742V62.884H181.576V61.255H177.337V57.439H176.374V57.034H178.705V57.439H177.742V60.85H181.576V57.439H180.685V57.034H183.97V57.439ZM182.674 57.439H181.981V62.884H182.674V57.439Z" fill="black"/>
<path d="M190.305 61.255H184.689V57.034H190.305V61.255ZM189.9 57.439H186.192V60.85H189.9V57.439ZM185.787 57.439H185.094V60.85H185.787V57.439Z" fill="black"/>
<path d="M198.496 60.85V61.255H191.917V57.439H191.026V57.034H193.42V60.85H197.128V57.439H196.165V57.034H197.533V60.85H198.496ZM193.015 57.439H192.322V60.85H193.015V57.439Z" fill="black"/>
<path d="M198.957 57.034H204.681V58.123H204.276V57.439H201.351V60.85H202.242V61.255H198.957V60.85H199.848V57.439H198.957V57.034ZM200.946 60.85V57.439H200.253V60.85H200.946Z" fill="black"/>
<path d="M213.269 57.034V58.132H212.864V57.439H209.156V58.942H213.269V61.255H207.653V60.157H208.058V60.85H211.766V59.347H207.653V57.034H213.269ZM212.171 59.347V60.85H212.864V59.347H212.171ZM208.751 57.439H208.058V58.942H208.751V57.439Z" fill="black"/>
<path d="M219.519 60.157H219.924V61.255H214.308V57.034H219.924V58.132H219.519V57.439H215.811V60.85H219.519V60.157ZM215.406 57.439H214.713V60.85H215.406V57.439Z" fill="black"/>
<path d="M226.524 61.255H220.908V57.034H226.524V61.255ZM226.119 57.439H222.411V60.85H226.119V57.439ZM222.006 57.439H221.313V60.85H222.006V57.439Z" fill="black"/>
<path d="M227.381 57.034H233.105V58.123H232.7V57.439H229.775V60.85H230.666V61.255H227.381V60.85H228.272V57.439H227.381V57.034ZM229.37 60.85V57.439H228.677V60.85H229.37Z" fill="black"/>
<path d="M233.863 57.034H239.479V59.347H235.366V60.85H239.074V60.157H239.479V61.255H233.863V57.034ZM235.366 57.439V58.942H239.074V57.439H235.366ZM234.268 60.85H234.961V57.439H234.268V60.85Z" fill="black"/>
<path d="M35.839 56.665V55.405H30.394V57.925H34.372V57.034H34.786V59.221H34.372V58.33H30.394V60.85H35.839V59.59H36.244V61.255H28V60.85H28.891V55.405H28V55H36.244V56.665H35.839ZM29.989 55.405H29.296V60.85H29.989V55.405Z" stroke="black" stroke-width="0.2" mask="url(#path-64-outside-2_561_588)"/>
<path d="M37.0006 57.034H43.5076V60.85H44.4706V61.255H42.1396V60.85H43.1026V57.439H39.3946V60.85H40.2856V61.255H37.0006V60.85H37.8916V57.439H37.0006V57.034ZM38.9896 60.85V57.439H38.2966V60.85H38.9896Z" stroke="black" stroke-width="0.2" mask="url(#path-64-outside-2_561_588)"/>
<path d="M48.8189 60.85V61.255H45.5789V57.439H44.6879V57.034H45.5789V55H47.0819V57.034H48.8189V57.439H47.0819V60.85H48.8189ZM46.6769 55.405H45.9839V60.85H46.6769V55.405Z" stroke="black" stroke-width="0.2" mask="url(#path-64-outside-2_561_588)"/>
<path d="M49.5479 57.034H55.1639V59.347H51.0509V60.85H54.7589V60.157H55.1639V61.255H49.5479V57.034ZM51.0509 57.439V58.942H54.7589V57.439H51.0509ZM49.9529 60.85H50.6459V57.439H49.9529V60.85Z" stroke="black" stroke-width="0.2" mask="url(#path-64-outside-2_561_588)"/>
<path d="M55.9762 57.034H61.7002V58.123H61.2952V57.439H58.3702V60.85H59.2612V61.255H55.9762V60.85H56.8672V57.439H55.9762V57.034ZM57.9652 60.85V57.439H57.2722V60.85H57.9652Z" stroke="black" stroke-width="0.2" mask="url(#path-64-outside-2_561_588)"/>
<path d="M71.9178 57.439H71.0268V63.289H65.2848V62.191H65.6898V62.884H69.5238V61.255H65.2848V57.439H64.3218V57.034H66.6528V57.439H65.6898V60.85H69.5238V57.439H68.6328V57.034H71.9178V57.439ZM70.6218 57.439H69.9288V62.884H70.6218V57.439Z" stroke="black" stroke-width="0.2" mask="url(#path-64-outside-2_561_588)"/>
<path d="M78.2528 61.255H72.6368V57.034H78.2528V61.255ZM77.8478 57.439H74.1398V60.85H77.8478V57.439ZM73.7348 57.439H73.0418V60.85H73.7348V57.439Z" stroke="black" stroke-width="0.2" mask="url(#path-64-outside-2_561_588)"/>
<path d="M86.444 60.85V61.255H79.865V57.439H78.974V57.034H81.368V60.85H85.076V57.439H84.113V57.034H85.481V60.85H86.444ZM80.963 57.439H80.27V60.85H80.963V57.439Z" stroke="black" stroke-width="0.2" mask="url(#path-64-outside-2_561_588)"/>
<path d="M86.9049 57.034H92.6289V58.123H92.2239V57.439H89.2989V60.85H90.1899V61.255H86.9049V60.85H87.7959V57.439H86.9049V57.034ZM88.8939 60.85V57.439H88.2009V60.85H88.8939Z" stroke="black" stroke-width="0.2" mask="url(#path-64-outside-2_561_588)"/>
<path d="M95.4215 57.034H101.929V60.85H102.892V61.255H100.561V60.85H101.524V57.439H97.8155V60.85H98.7065V61.255H95.4215V60.85H96.3125V57.439H95.4215V57.034ZM97.4105 60.85V57.439H96.7175V60.85H97.4105Z" stroke="black" stroke-width="0.2" mask="url(#path-64-outside-2_561_588)"/>
<path d="M109.145 60.85H110.036V61.255H103.529V58.942H107.642V57.439H103.934V58.132H103.529V57.034H109.145V60.85ZM107.642 60.85V59.347H103.934V60.85H107.642ZM108.74 57.439H108.047V60.85H108.74V57.439Z" stroke="black" stroke-width="0.2" mask="url(#path-64-outside-2_561_588)"/>
<path d="M120.738 60.85V61.255H118.407V60.85H119.37V57.439H116.265V60.85H117.228V61.255H114.897V60.85H115.86V57.439H112.827V60.85H113.718V61.255H110.433V60.85H111.324V57.439H110.433V57.034H119.775V60.85H120.738ZM112.422 57.439H111.729V60.85H112.422V57.439Z" stroke="black" stroke-width="0.2" mask="url(#path-64-outside-2_561_588)"/>
<path d="M121.425 57.034H127.041V59.347H122.928V60.85H126.636V60.157H127.041V61.255H121.425V57.034ZM122.928 57.439V58.942H126.636V57.439H122.928ZM121.83 60.85H122.523V57.439H121.83V60.85Z" stroke="black" stroke-width="0.2" mask="url(#path-64-outside-2_561_588)"/>
<path d="M134.108 60.85V61.255H130.868V57.439H129.977V57.034H130.868V55H132.371V57.034H134.108V57.439H132.371V60.85H134.108ZM131.966 55.405H131.273V60.85H131.966V55.405Z" stroke="black" stroke-width="0.2" mask="url(#path-64-outside-2_561_588)"/>
<path d="M140.453 61.255H134.837V57.034H140.453V61.255ZM140.048 57.439H136.34V60.85H140.048V57.439ZM135.935 57.439H135.242V60.85H135.935V57.439Z" stroke="black" stroke-width="0.2" mask="url(#path-64-outside-2_561_588)"/>
<path d="M149.364 57.034V58.132H148.959V57.439H145.251V58.942H149.364V61.255H143.748V60.157H144.153V60.85H147.861V59.347H143.748V57.034H149.364ZM148.266 59.347V60.85H148.959V59.347H148.266ZM144.846 57.439H144.153V58.942H144.846V57.439Z" stroke="black" stroke-width="0.2" mask="url(#path-64-outside-2_561_588)"/>
<path d="M154.173 60.85V61.255H150.933V57.439H150.042V57.034H150.933V55H152.436V57.034H154.173V57.439H152.436V60.85H154.173ZM152.031 55.405H151.338V60.85H152.031V55.405Z" stroke="black" stroke-width="0.2" mask="url(#path-64-outside-2_561_588)"/>
<path d="M160.518 61.255H154.902V57.034H160.518V61.255ZM160.113 57.439H156.405V60.85H160.113V57.439ZM156 57.439H155.307V60.85H156V57.439Z" stroke="black" stroke-width="0.2" mask="url(#path-64-outside-2_561_588)"/>
<path d="M161.375 57.034H167.099V58.123H166.694V57.439H163.769V60.85H164.66V61.255H161.375V60.85H162.266V57.439H161.375V57.034ZM163.364 60.85V57.439H162.671V60.85H163.364Z" stroke="black" stroke-width="0.2" mask="url(#path-64-outside-2_561_588)"/>
<path d="M167.857 57.034H173.473V59.347H169.36V60.85H173.068V60.157H173.473V61.255H167.857V57.034ZM169.36 57.439V58.942H173.068V57.439H169.36ZM168.262 60.85H168.955V57.439H168.262V60.85Z" stroke="black" stroke-width="0.2" mask="url(#path-64-outside-2_561_588)"/>
<path d="M183.97 57.439H183.079V63.289H177.337V62.191H177.742V62.884H181.576V61.255H177.337V57.439H176.374V57.034H178.705V57.439H177.742V60.85H181.576V57.439H180.685V57.034H183.97V57.439ZM182.674 57.439H181.981V62.884H182.674V57.439Z" stroke="black" stroke-width="0.2" mask="url(#path-64-outside-2_561_588)"/>
<path d="M190.305 61.255H184.689V57.034H190.305V61.255ZM189.9 57.439H186.192V60.85H189.9V57.439ZM185.787 57.439H185.094V60.85H185.787V57.439Z" stroke="black" stroke-width="0.2" mask="url(#path-64-outside-2_561_588)"/>
<path d="M198.496 60.85V61.255H191.917V57.439H191.026V57.034H193.42V60.85H197.128V57.439H196.165V57.034H197.533V60.85H198.496ZM193.015 57.439H192.322V60.85H193.015V57.439Z" stroke="black" stroke-width="0.2" mask="url(#path-64-outside-2_561_588)"/>
<path d="M198.957 57.034H204.681V58.123H204.276V57.439H201.351V60.85H202.242V61.255H198.957V60.85H199.848V57.439H198.957V57.034ZM200.946 60.85V57.439H200.253V60.85H200.946Z" stroke="black" stroke-width="0.2" mask="url(#path-64-outside-2_561_588)"/>
<path d="M213.269 57.034V58.132H212.864V57.439H209.156V58.942H213.269V61.255H207.653V60.157H208.058V60.85H211.766V59.347H207.653V57.034H213.269ZM212.171 59.347V60.85H212.864V59.347H212.171ZM208.751 57.439H208.058V58.942H208.751V57.439Z" stroke="black" stroke-width="0.2" mask="url(#path-64-outside-2_561_588)"/>
<path d="M219.519 60.157H219.924V61.255H214.308V57.034H219.924V58.132H219.519V57.439H215.811V60.85H219.519V60.157ZM215.406 57.439H214.713V60.85H215.406V57.439Z" stroke="black" stroke-width="0.2" mask="url(#path-64-outside-2_561_588)"/>
<path d="M226.524 61.255H220.908V57.034H226.524V61.255ZM226.119 57.439H222.411V60.85H226.119V57.439ZM222.006 57.439H221.313V60.85H222.006V57.439Z" stroke="black" stroke-width="0.2" mask="url(#path-64-outside-2_561_588)"/>
<path d="M227.381 57.034H233.105V58.123H232.7V57.439H229.775V60.85H230.666V61.255H227.381V60.85H228.272V57.439H227.381V57.034ZM229.37 60.85V57.439H228.677V60.85H229.37Z" stroke="black" stroke-width="0.2" mask="url(#path-64-outside-2_561_588)"/>
<path d="M233.863 57.034H239.479V59.347H235.366V60.85H239.074V60.157H239.479V61.255H233.863V57.034ZM235.366 57.439V58.942H239.074V57.439H235.366ZM234.268 60.85H234.961V57.439H234.268V60.85Z" stroke="black" stroke-width="0.2" mask="url(#path-64-outside-2_561_588)"/>
</svg>
