<svg width="94" height="233" viewBox="0 0 94 233" fill="none" xmlns="http://www.w3.org/2000/svg">
<rect x="0.5" y="0.5" width="89" height="223" rx="3.5" fill="#ED974F" stroke="white"/>
<mask id="path-2-outside-1_514_963" maskUnits="userSpaceOnUse" x="11.304" y="12.88" width="62" height="111" fill="black">
<rect fill="white" x="11.304" y="12.88" width="62" height="111"/>
<path d="M26.048 13.88V16.84H25.328V14.6H15.664V19.08H26.048V25H12.992V22.04H13.712V24.28H23.376V19.8H12.992V13.88H26.048ZM24.096 19.8V24.28H25.328V19.8H24.096ZM14.928 14.6H13.712V19.08H14.928V14.6Z"/>
<path d="M37.2708 23.048H37.9908V25H28.0068V17.496H37.9908V19.448H37.2708V18.216H30.6788V24.28H37.2708V23.048ZM29.9588 18.216H28.7268V24.28H29.9588V18.216Z"/>
<path d="M49.7252 25H39.7412V17.496H49.7252V25ZM49.0052 18.216H42.4132V24.28H49.0052V18.216ZM41.6932 18.216H40.4612V24.28H41.6932V18.216Z"/>
<path d="M51.2475 17.496H61.4235V19.432H60.7035V18.216H55.5035V24.28H57.0875V25H51.2475V24.28H52.8315V18.216H51.2475V17.496ZM54.7835 24.28V18.216H53.5515V24.28H54.7835Z"/>
<path d="M62.7725 17.496H72.7565V21.608H65.4445V24.28H72.0365V23.048H72.7565V25H62.7725V17.496ZM65.4445 18.216V20.888H72.0365V18.216H65.4445ZM63.4925 24.28H64.7245V18.216H63.4925V24.28Z"/>
<path d="M27.232 60.88V63.84H26.512V61.6H21.104V71.28H22.704V72H16.848V71.28H18.432V61.6H13.024V63.84H12.304V60.88H27.232ZM20.384 61.6H19.152V71.28H20.384V61.6Z"/>
<path d="M32.1753 71.28H33.7593V72H27.9193V71.28H29.5033V65.216H27.9193V64.496H32.1753V71.28ZM31.4553 65.216H30.2233V71.28H31.4553V65.216ZM32.2873 63.328H29.3913V60.88H32.2873V63.328ZM31.5673 61.6H30.1113V62.608H31.5673V61.6Z"/>
<path d="M52.9581 71.28V72H48.8141V71.28H50.5261V65.216H45.0061V71.28H46.7181V72H42.5741V71.28H44.2861V65.216H38.8941V71.28H40.4781V72H34.6381V71.28H36.2221V65.216H34.6381V64.496H51.2461V71.28H52.9581ZM38.1741 65.216H36.9421V71.28H38.1741V65.216Z"/>
<path d="M54.1787 64.496H64.1627V68.608H56.8507V71.28H63.4427V70.048H64.1627V72H54.1787V64.496ZM56.8507 65.216V67.888H63.4427V65.216H56.8507ZM54.8987 71.28H56.1307V65.216H54.8987V71.28Z"/>
<path d="M27.808 112.6V122.28H29.392V123H25.344L16.768 113.208V122.28H18.352V123H12.512V122.28H14.096V112.6H12.512V111.88H16.576L25.136 121.672V112.6H23.552V111.88H29.392V112.6H27.808ZM16.048 122.28V112.6H14.816V122.28H16.048ZM27.088 112.6H25.856V122.28H27.088V112.6Z"/>
<path d="M30.8662 115.496H40.8502V119.608H33.5382V122.28H40.1302V121.048H40.8502V123H30.8662V115.496ZM33.5382 116.216V118.888H40.1302V116.216H33.5382ZM31.5862 122.28H32.8182V116.216H31.5862V122.28Z"/>
<path d="M54.5823 122.28V123H48.1023V122.28H49.5423L47.0623 119.56L44.4223 122.28H46.0383V123H42.1343V122.28H43.4303L46.5823 119.032L44.0063 116.216H42.3743V115.496H48.8703V116.216H47.4143L49.7503 118.76L52.2143 116.216H50.4703V115.496H54.3903V116.216H53.2223L50.2303 119.288L52.9663 122.28H54.5823ZM50.5183 122.28H51.9903L46.4383 116.216H44.9823L50.5183 122.28Z"/>
<path d="M62.664 122.28V123H56.904V116.216H55.32V115.496H56.904V111.88H59.576V115.496H62.664V116.216H59.576V122.28H62.664ZM58.856 112.6H57.624V122.28H58.856V112.6Z"/>
</mask>
<path d="M26.048 13.88V16.84H25.328V14.6H15.664V19.08H26.048V25H12.992V22.04H13.712V24.28H23.376V19.8H12.992V13.88H26.048ZM24.096 19.8V24.28H25.328V19.8H24.096ZM14.928 14.6H13.712V19.08H14.928V14.6Z" fill="white"/>
<path d="M37.2708 23.048H37.9908V25H28.0068V17.496H37.9908V19.448H37.2708V18.216H30.6788V24.28H37.2708V23.048ZM29.9588 18.216H28.7268V24.28H29.9588V18.216Z" fill="white"/>
<path d="M49.7252 25H39.7412V17.496H49.7252V25ZM49.0052 18.216H42.4132V24.28H49.0052V18.216ZM41.6932 18.216H40.4612V24.28H41.6932V18.216Z" fill="white"/>
<path d="M51.2475 17.496H61.4235V19.432H60.7035V18.216H55.5035V24.28H57.0875V25H51.2475V24.28H52.8315V18.216H51.2475V17.496ZM54.7835 24.28V18.216H53.5515V24.28H54.7835Z" fill="white"/>
<path d="M62.7725 17.496H72.7565V21.608H65.4445V24.28H72.0365V23.048H72.7565V25H62.7725V17.496ZM65.4445 18.216V20.888H72.0365V18.216H65.4445ZM63.4925 24.28H64.7245V18.216H63.4925V24.28Z" fill="white"/>
<path d="M27.232 60.88V63.84H26.512V61.6H21.104V71.28H22.704V72H16.848V71.28H18.432V61.6H13.024V63.84H12.304V60.88H27.232ZM20.384 61.6H19.152V71.28H20.384V61.6Z" fill="white"/>
<path d="M32.1753 71.28H33.7593V72H27.9193V71.28H29.5033V65.216H27.9193V64.496H32.1753V71.28ZM31.4553 65.216H30.2233V71.28H31.4553V65.216ZM32.2873 63.328H29.3913V60.88H32.2873V63.328ZM31.5673 61.6H30.1113V62.608H31.5673V61.6Z" fill="white"/>
<path d="M52.9581 71.28V72H48.8141V71.28H50.5261V65.216H45.0061V71.28H46.7181V72H42.5741V71.28H44.2861V65.216H38.8941V71.28H40.4781V72H34.6381V71.28H36.2221V65.216H34.6381V64.496H51.2461V71.28H52.9581ZM38.1741 65.216H36.9421V71.28H38.1741V65.216Z" fill="white"/>
<path d="M54.1787 64.496H64.1627V68.608H56.8507V71.28H63.4427V70.048H64.1627V72H54.1787V64.496ZM56.8507 65.216V67.888H63.4427V65.216H56.8507ZM54.8987 71.28H56.1307V65.216H54.8987V71.28Z" fill="white"/>
<path d="M27.808 112.6V122.28H29.392V123H25.344L16.768 113.208V122.28H18.352V123H12.512V122.28H14.096V112.6H12.512V111.88H16.576L25.136 121.672V112.6H23.552V111.88H29.392V112.6H27.808ZM16.048 122.28V112.6H14.816V122.28H16.048ZM27.088 112.6H25.856V122.28H27.088V112.6Z" fill="white"/>
<path d="M30.8662 115.496H40.8502V119.608H33.5382V122.28H40.1302V121.048H40.8502V123H30.8662V115.496ZM33.5382 116.216V118.888H40.1302V116.216H33.5382ZM31.5862 122.28H32.8182V116.216H31.5862V122.28Z" fill="white"/>
<path d="M54.5823 122.28V123H48.1023V122.28H49.5423L47.0623 119.56L44.4223 122.28H46.0383V123H42.1343V122.28H43.4303L46.5823 119.032L44.0063 116.216H42.3743V115.496H48.8703V116.216H47.4143L49.7503 118.76L52.2143 116.216H50.4703V115.496H54.3903V116.216H53.2223L50.2303 119.288L52.9663 122.28H54.5823ZM50.5183 122.28H51.9903L46.4383 116.216H44.9823L50.5183 122.28Z" fill="white"/>
<path d="M62.664 122.28V123H56.904V116.216H55.32V115.496H56.904V111.88H59.576V115.496H62.664V116.216H59.576V122.28H62.664ZM58.856 112.6H57.624V122.28H58.856V112.6Z" fill="white"/>
<path d="M26.048 13.88V16.84H25.328V14.6H15.664V19.08H26.048V25H12.992V22.04H13.712V24.28H23.376V19.8H12.992V13.88H26.048ZM24.096 19.8V24.28H25.328V19.8H24.096ZM14.928 14.6H13.712V19.08H14.928V14.6Z" stroke="white" mask="url(#path-2-outside-1_514_963)"/>
<path d="M37.2708 23.048H37.9908V25H28.0068V17.496H37.9908V19.448H37.2708V18.216H30.6788V24.28H37.2708V23.048ZM29.9588 18.216H28.7268V24.28H29.9588V18.216Z" stroke="white" mask="url(#path-2-outside-1_514_963)"/>
<path d="M49.7252 25H39.7412V17.496H49.7252V25ZM49.0052 18.216H42.4132V24.28H49.0052V18.216ZM41.6932 18.216H40.4612V24.28H41.6932V18.216Z" stroke="white" mask="url(#path-2-outside-1_514_963)"/>
<path d="M51.2475 17.496H61.4235V19.432H60.7035V18.216H55.5035V24.28H57.0875V25H51.2475V24.28H52.8315V18.216H51.2475V17.496ZM54.7835 24.28V18.216H53.5515V24.28H54.7835Z" stroke="white" mask="url(#path-2-outside-1_514_963)"/>
<path d="M62.7725 17.496H72.7565V21.608H65.4445V24.28H72.0365V23.048H72.7565V25H62.7725V17.496ZM65.4445 18.216V20.888H72.0365V18.216H65.4445ZM63.4925 24.28H64.7245V18.216H63.4925V24.28Z" stroke="white" mask="url(#path-2-outside-1_514_963)"/>
<path d="M27.232 60.88V63.84H26.512V61.6H21.104V71.28H22.704V72H16.848V71.28H18.432V61.6H13.024V63.84H12.304V60.88H27.232ZM20.384 61.6H19.152V71.28H20.384V61.6Z" stroke="white" mask="url(#path-2-outside-1_514_963)"/>
<path d="M32.1753 71.28H33.7593V72H27.9193V71.28H29.5033V65.216H27.9193V64.496H32.1753V71.28ZM31.4553 65.216H30.2233V71.28H31.4553V65.216ZM32.2873 63.328H29.3913V60.88H32.2873V63.328ZM31.5673 61.6H30.1113V62.608H31.5673V61.6Z" stroke="white" mask="url(#path-2-outside-1_514_963)"/>
<path d="M52.9581 71.28V72H48.8141V71.28H50.5261V65.216H45.0061V71.28H46.7181V72H42.5741V71.28H44.2861V65.216H38.8941V71.28H40.4781V72H34.6381V71.28H36.2221V65.216H34.6381V64.496H51.2461V71.28H52.9581ZM38.1741 65.216H36.9421V71.28H38.1741V65.216Z" stroke="white" mask="url(#path-2-outside-1_514_963)"/>
<path d="M54.1787 64.496H64.1627V68.608H56.8507V71.28H63.4427V70.048H64.1627V72H54.1787V64.496ZM56.8507 65.216V67.888H63.4427V65.216H56.8507ZM54.8987 71.28H56.1307V65.216H54.8987V71.28Z" stroke="white" mask="url(#path-2-outside-1_514_963)"/>
<path d="M27.808 112.6V122.28H29.392V123H25.344L16.768 113.208V122.28H18.352V123H12.512V122.28H14.096V112.6H12.512V111.88H16.576L25.136 121.672V112.6H23.552V111.88H29.392V112.6H27.808ZM16.048 122.28V112.6H14.816V122.28H16.048ZM27.088 112.6H25.856V122.28H27.088V112.6Z" stroke="white" mask="url(#path-2-outside-1_514_963)"/>
<path d="M30.8662 115.496H40.8502V119.608H33.5382V122.28H40.1302V121.048H40.8502V123H30.8662V115.496ZM33.5382 116.216V118.888H40.1302V116.216H33.5382ZM31.5862 122.28H32.8182V116.216H31.5862V122.28Z" stroke="white" mask="url(#path-2-outside-1_514_963)"/>
<path d="M54.5823 122.28V123H48.1023V122.28H49.5423L47.0623 119.56L44.4223 122.28H46.0383V123H42.1343V122.28H43.4303L46.5823 119.032L44.0063 116.216H42.3743V115.496H48.8703V116.216H47.4143L49.7503 118.76L52.2143 116.216H50.4703V115.496H54.3903V116.216H53.2223L50.2303 119.288L52.9663 122.28H54.5823ZM50.5183 122.28H51.9903L46.4383 116.216H44.9823L50.5183 122.28Z" stroke="white" mask="url(#path-2-outside-1_514_963)"/>
<path d="M62.664 122.28V123H56.904V116.216H55.32V115.496H56.904V111.88H59.576V115.496H62.664V116.216H59.576V122.28H62.664ZM58.856 112.6H57.624V122.28H58.856V112.6Z" stroke="white" mask="url(#path-2-outside-1_514_963)"/>
</svg>
