<svg width="110" height="30" viewBox="0 0 110 30" fill="none" xmlns="http://www.w3.org/2000/svg">
<path d="M20.5649 20.8V25.28H22.1649V26H16.3089V25.28H17.8929V15.6H16.3089V14.88H30.4689V20.8H20.5649ZM20.5649 15.6V20.08H29.7489V15.6H20.5649ZM19.8449 25.28V15.6H18.6289V25.28H19.8449ZM41.9578 25.28H43.5418V26H31.9738V21.888H39.2858V19.216H32.6938V20.448H31.9738V18.496H41.9578V25.28ZM39.2858 25.28V22.608H32.6938V25.28H39.2858ZM41.2378 19.216H40.0058V25.28H41.2378V19.216ZM57.2875 25.28V26H45.5915V19.216H44.0075V18.496H48.2635V25.28H54.8555V19.216H53.1435V18.496H55.5755V25.28H57.2875ZM47.5435 19.216H46.3115V25.28H47.5435V19.216ZM68.4109 18.496V20.448H67.6909V19.216H61.0989V21.888H68.4109V26H58.4269V24.048H59.1469V25.28H65.7389V22.608H58.4269V18.496H68.4109ZM66.4589 22.608V25.28H67.6909V22.608H66.4589ZM60.3789 19.216H59.1469V21.888H60.3789V19.216ZM70.2569 18.496H80.2409V22.608H72.9289V25.28H79.5209V24.048H80.2409V26H70.2569V18.496ZM72.9289 19.216V21.888H79.5209V19.216H72.9289ZM70.9769 25.28H72.2089V19.216H70.9769V25.28ZM89.621 18.496V15.6H88.037V14.88H92.293V25.28H93.877V26H82.085V18.496H89.621ZM90.341 25.28H91.573V15.6H90.341V25.28ZM82.805 25.28H89.621V19.216H82.805V25.28Z" fill="#ED974F"/>
</svg>
